<?xml version="1.0" encoding="utf-8"?>
<!-- Generator: Adobe Illustrator 24.0.0, SVG Export Plug-In . SVG Version: 6.00 Build 0)  -->
<svg version="1.1" id="Capa_1" xmlns="http://www.w3.org/2000/svg" xmlns:xlink="http://www.w3.org/1999/xlink" x="0px" y="0px"
	 viewBox="0 0 431.1 286.2" style="enable-background:new 0 0 431.1 286.2;" xml:space="preserve">
<style type="text/css">
	.st0{fill:#FFFFFF;}
</style>
<path class="st0" d="M305,271.5c-0.7-1.4-0.9-2.9-0.9-4.5c0.1-7.2,0.1-14.4,0-21.6c0-2.3,0.5-4.1,3.1-4.5c2.5-0.3,4.6,0.2,5.6,2.9
	c2.5,6.4,5.1,12.8,7.9,19.8c2.2-5.3,4.1-10.1,6-14.8c0.6-1.6,1.2-3.1,1.9-4.7c1.3-3,3.7-4,6.8-3c1.6,0.6,2.3,1.8,2.3,3.4
	c0,7.9,0,15.9,0,23.8c0,1-0.5,2.1-0.8,3.1c-1.3,0-2.6,0-3.9,0c-1.1-1.2-1.3-2.5-1.2-4.1c0.1-5,0-10,0-15c-1.3,1.7-1.9,3.5-2.7,5.3
	c-2.1,4.6-3.2,9.6-6.1,13.9c-1.3,0-2.6,0-3.9,0c-1.5-1.4-2.1-3.3-2.8-5.1c-1.9-4.7-3.7-9.4-5.6-14.1c-0.6,5-0.6,9.9-0.5,14.8
	c0,1.6-0.3,3.1-1.2,4.4C307.6,271.5,306.3,271.5,305,271.5z"/>
<path class="st0" d="M356.6,271.5c-0.8-1-1.2-2.2-1.2-3.6c0.1-7.5,0-15.1,0-22.6c0-1.8,0-3.5,2.1-4.1c2.2-0.6,4-0.2,5.3,1.8
	c3.7,5.5,7.5,10.9,11.3,16.3c0.4,0.6,0.6,1.3,1.9,1.6c0-2.5,0-4.8,0-7.2c0-3.4-0.1-6.7,0-10.1c0.1-1.9,1.1-3.2,3.2-3.1
	c2,0,2.8,1.2,2.8,3.1c0,8.1,0,16.2,0,24.3c0,1.4-1.1,2.3-1.5,3.5c-1.5,0-3,0-4.5,0c-4.7-6.8-9.4-13.7-14.2-20.5
	c-0.5,5.4-0.6,10.7-0.5,16c0,1.8-0.4,3.3-1.6,4.5C358.8,271.5,357.7,271.5,356.6,271.5z"/>
<path class="st0" d="M389.1,271.5c-1-1.8-1.2-3.7-1.2-5.8c0.1-6.9,0-13.8,0-20.7c0-3.3,0.7-4.1,4.1-4.1c3.3,0,6.5-0.1,9.8,0.2
	c7,0.8,12.1,5.8,12.9,12.6c1,7.5-2.8,14.1-9.3,16.8c-0.6,0.2-1.6,0-1.8,0.9C398.8,271.5,394,271.5,389.1,271.5z M394.1,255.8
	c0,1.3,0,2.6,0,3.9c0,6.3,0,6.3,6.5,5.7c5.1-0.5,8.3-3.9,8.6-8.9c0.2-5.1-3.1-9.5-8-10.2c-1.8-0.3-3.7-0.1-5.6-0.3
	c-1.3-0.1-1.6,0.5-1.6,1.7C394.1,250.4,394.1,253.1,394.1,255.8z"/>
<path class="st0" d="M15.6,267c1.7-1.4,1.9-3.5,2.7-5.3c2.6-5.8,5-11.6,7.4-17.5c0.6-1.4,1.3-2.7,3.1-2.8c1.8,0,2.5,1.2,3.2,2.6
	c3.1,7.5,6.3,14.9,9.5,22.4c0.3,0.7,0.6,1.4,0.7,2.1c0.2,0.9-0.2,1.7-1.2,2c-0.9,0.3-1.7,0.1-2.2-0.6c-0.3-0.4-0.6-1-0.7-1.5
	c-0.9-4.5-3.6-6.3-8.1-5.3c-0.4,0.1-0.8,0.1-1.1,0c-4.8-0.9-8.2,0.4-9.2,5.8c-0.4,2.4-2.3,1.8-4,1.5C15.6,269.3,15.6,268.2,15.6,267
	z M34.2,259.5c-1.8-4.3-3.5-8.4-5.4-12.9c-1.9,4.6-3.6,8.6-5.3,12.9C27.2,259.5,30.6,259.5,34.2,259.5z"/>
<path class="st0" d="M344.3,271.5c-0.9-2.1-0.7-4.3-0.7-6.4c0-6.9,0-13.8,0-20.7c0-2.1,0.5-3.8,3-3.8c2.4,0,3,1.7,3,3.8
	c0,7.8-0.1,15.6,0,23.5c0,1.4-0.9,2.3-0.9,3.6C347.3,271.5,345.8,271.5,344.3,271.5z"/>
<path class="st0" d="M251.5,134.2c-2.7,5.6-4.7,10.5-7.5,15c-1.2,1.9-2.3,3.8-3.5,5.7c-1.1,1.8-2.5,3-4.6,1.7
	c-2.1-1.3-1.6-3.1-0.5-4.9c6-9.3,10.6-19.3,13.8-29.9c3-9.7,5-19.7,4.7-29.9c-0.5-17.9-6.7-33.8-17.4-48.1
	c-5.8-7.7-12.7-14.4-20.1-20.6c-1.3-1.1-2.3-1.5-3.8-0.2c-18.5,15.2-30.4,34.2-33.8,58c-2.5,17.6,0.8,34.5,7.1,50.9
	c2.9,7.5,6.4,14.7,10.4,21.6c1.1,1.9,1.3,3.6-0.8,4.8c-2.1,1.2-3.5,0-4.5-1.8c-3.8-6.5-7-13.4-9.9-20.4c-0.2-0.4-0.3-0.8-0.7-1.5
	c-4.3,5.6-8.6,10.9-13.1,15.9c-2.1,2.3-4.4,4.6-6.5,6.9c-1,1-2.2,1.1-3.4,0.7c-1.3-0.4-1.8-1.5-1.8-2.9c0-16.5,1.1-32.9,6.8-48.7
	c1.8-4.9,4.2-9.4,8.3-12.8c1.2-1,1.3-2.1,1.3-3.5c0.5-15,4.1-29.1,11.3-42.2c6.7-12.2,15.5-22.6,26.5-31c3.9-3,4.5-3,8.4,0.1
	c12.6,9.8,23.2,21.3,30.8,35.4c5.3,9.8,8.6,20.2,9.7,31.3c0.2,2.5,0.5,5,0.5,7.5c0,0.8,0.2,1.5,0.9,2c5.3,4,7.8,9.7,9.8,15.7
	c3,8.9,4.4,18.1,5.1,27.4c0.4,5.9,0.7,11.9,1,17.8c0.1,1.7-0.3,3.2-2,3.9c-1.7,0.7-3-0.2-4.2-1.4c-6.3-6.7-12.5-13.6-17.9-21.1
	C252,135.4,251.9,135.1,251.5,134.2z M172.6,101.4c-7.1,7-10.8,34.5-10.3,45.6c0.4-0.3,0.7-0.4,0.9-0.7c4.9-5.5,9.6-11.2,13.9-17.2
	c0.9-1.3,0.8-2.6,0.3-4C175.1,117.5,173.4,109.7,172.6,101.4z M260.2,101.7c-1.1,0.5-1.1,0.9-1.1,1.4c-0.4,6.1-1.3,12.3-3.5,18
	c-2,5-0.9,8.7,2.5,12.5c3.8,4.4,7.2,9.1,11.6,13.1C268.8,131.2,268.1,115.8,260.2,101.7z"/>
<path class="st0" d="M209.1,80.2c6.9-0.3,13.8,0.1,20.7-0.7c2.8-0.3,4.4,1.8,5.6,4c2.7,4.9,3.2,10.3,3.5,15.7
	c0.6,14.9-1.3,29.5-3.9,44.1c-3.1,17.1-7.3,33.8-13.8,49.9c-0.6,1.5-1.1,3-3,3.2c-0.2-0.7-0.3-1.5-0.5-2.2
	c-7.6-22-11.1-44.7-12.4-67.9c-0.4-7.4,0.2-14.9,0.7-22.3c0.2-2.4,0.2-5,0.7-7.5C207.6,91.2,208.3,85.7,209.1,80.2z"/>
<path class="st0" d="M209.1,80.2c-0.8,5.5-1.5,11-2.5,16.4c-0.5,2.5-0.5,5-0.7,7.5c-0.5,7.4-1.1,14.9-0.7,22.3
	c1.3,23.1,4.8,45.9,12.4,67.9c0.2,0.7,0.3,1.4,0.5,2.2c-2.5,0.7-4.2-0.3-5.1-2.6c-10.6-26.9-19-54.3-20-83.4
	c-0.3-9.1,0.7-18.2,4.2-26.9c1-2.6,2.6-3.9,5.5-3.6C204.8,80.1,207,80.1,209.1,80.2z"/>
<path class="st0" d="M215.8,216.6c-5.5,0-11,0.3-16.5-0.1c-6.8-0.4-13.6-0.6-20.2-2.2c-1-0.3-2.9-0.1-2.8-1.7c0-1.4,1.7-1.5,2.9-1.8
	c2.9-0.6,5.8-1.2,8.8-1.5c12.9-1.1,25.9-1.7,38.8-1.1c8.8,0.4,17.7,0.3,26.3,2.6c1,0.3,2.3,0.2,2.5,1.4c0.2,1.6-1.4,1.5-2.4,1.8
	c-4,1.2-8.2,1.4-12.4,1.8C232.5,216.9,224.1,216.6,215.8,216.6z"/>
<path class="st0" d="M206.9,247.5c0,6.5,0,13.1,0,19.6c0,0.9,0.1,1.9-0.5,2.7c-0.5,0.7-1.2,0.9-1.9,0.8c-1.3-0.2-1.5-1.2-1.5-2.3
	c0-2.9,0-5.8,0-8.7c0-4.7,0-9.3,0-14c0-1.9,0.2-3.6,2.5-4c2.2-0.4,3.8,0.5,4.6,2.7c2.6,6.7,5.3,13.3,8,20c0.2,0.5,0.5,1,0.9,1.9
	c3-7.4,5.8-14.4,8.6-21.5c0.7-1.8,1.7-3.1,3.8-3.1c2.1-0.1,3.5,0.8,3.5,3c0,7.8,0,15.7,0,23.5c0,1.3-0.4,2.6-1.9,2.6
	c-1.7,0-1.9-1.4-1.9-2.8c0-6.8,0-13.6,0-20.5c-1,0-0.9,0.8-1.1,1.3c-2.5,6-4.9,12.1-7.4,18.1c-0.7,1.7-1.1,4-3.7,4
	c-2.4,0-2.8-2.1-3.5-3.8c-2.7-6.5-5.3-13-8-19.6C207.2,247.4,207,247.4,206.9,247.5z"/>
<path class="st0" d="M140.6,248c0,6.2,0,12.2,0,18.2c0,1.7,0.7,4.3-2.1,4.3c-2.6-0.1-1.8-2.6-1.8-4.2c-0.1-6.8,0-13.6,0-20.4
	c0-1.7-0.1-3.5,2-4.1c2.1-0.7,3.3,0.5,4.4,2.1c4.2,6.1,8.4,12.1,12.6,18.2c0.5,0.8,0.8,1.9,2.3,2.3c0-4.1,0-8.1,0-12
	c0-2.8,0-5.6,0-8.4c0-1.1,0.5-2,1.8-2.1c1.3-0.1,1.8,0.8,2.1,1.9c0.1,0.6,0.1,1.3,0.1,1.9c0,7,0,14,0,21c0,1.7,0,3.5-2.1,4.1
	c-2,0.6-3.3-0.5-4.4-2.1c-4.2-6.2-8.5-12.3-12.7-18.4C142.2,249.4,141.9,248.5,140.6,248z"/>
<path class="st0" d="M218.1,47.6c5.7,0.8,9.3,4.1,10.9,9.4c1.6,5.4,0.3,10.2-3.9,13.9c-4.2,3.6-9,4.5-14.3,2.2
	c1.6-7.1,3.6-14.1,6.1-21C217.4,50.7,218.2,49.3,218.1,47.6z"/>
<path class="st0" d="M196.9,256.1c0,8.8-6,14.9-14.6,14.9c-8.5,0-14.5-6.2-14.4-14.8c0-8.8,6.1-14.9,14.7-14.9
	C191,241.3,196.9,247.4,196.9,256.1z M171.9,256.1c0,6.8,4.1,11.2,10.5,11.2c6.3,0,10.5-4.3,10.5-10.9c0-6.8-4-11.3-10.4-11.3
	C176.1,244.9,171.9,249.3,171.9,256.1z"/>
<path class="st0" d="M116.1,271c-8.6,0-14.7-6.2-14.6-14.9c0.1-8.6,6.1-14.7,14.5-14.7c8.6,0,14.6,6.1,14.6,15
	C130.5,265,124.6,271,116.1,271z M126.7,256.3c0-6.7-4.1-11.2-10.4-11.3c-6.3-0.1-10.7,4.4-10.8,11c-0.1,6.6,4.2,11.2,10.5,11.3
	C122.3,267.3,126.6,262.9,126.7,256.3z"/>
<path class="st0" d="M70.6,252.7c0,2.5,0,5,0,7.6c-0.1,6-4.9,10.6-11.3,10.7c-6.8,0.2-12-4.1-12.3-10.3c-0.2-5.4-0.1-10.8-0.1-16.2
	c0-1.4,0.2-2.8,2-2.8c1.7,0.1,2,1.5,2,2.9c0,4.9,0,9.9,0,14.8c0,4.9,2.7,7.8,7.5,7.9c5.1,0.1,8.2-2.7,8.3-7.6c0.1-4.9,0-9.9,0-14.8
	c0-1.5,0-3.1,2-3.1c1.9,0,1.9,1.7,1.9,3.1C70.6,247.4,70.6,250.1,70.6,252.7z"/>
<path class="st0" d="M252.7,256.1c-0.1-5.7,2-10.3,7.1-13c5.4-2.8,10.8-2.2,16.1,0.5c1,0.5,2,1.3,1.2,2.7c-0.7,1.4-1.9,0.9-2.9,0.4
	c-2.6-1.3-5.3-1.7-8.2-1.5c-5.8,0.4-9.5,4.8-9.5,11.1c0,6.3,3.9,10.6,9.7,10.9c2.7,0.1,5.2-0.2,7.6-1.4c1.2-0.6,2.6-1.2,3.3,0.5
	c0.8,1.8-0.8,2.2-2,2.8c-9.4,4.7-19.5,0.9-22.1-8.3C252.7,259.2,252.7,257.6,252.7,256.1z"/>
<path class="st0" d="M218.1,47.6c0.1,1.6-0.6,3-1.2,4.5c-2.5,6.9-4.6,13.9-6.1,21c-6.4-2.8-9.5-9.3-7.7-16
	C204.8,50.7,210.9,46.8,218.1,47.6z"/>
<path class="st0" d="M84.8,257.5c0-3.2-0.1-6.4,0-9.5c0.1-2.2-0.7-2.8-2.7-2.6c-1.5,0.1-3,0-4.5,0c-1.3,0-2.6,0-2.7-1.7
	c0-1.8,1.4-1.9,2.8-1.9c2.1,0,4.3,0,6.4,0c3.8,0,7.7,0,11.5,0c1.4,0,3.1-0.1,3.1,1.9c0,1.9-1.7,1.7-2.9,1.7c-1.5,0-3,0.1-4.5,0
	c-2-0.2-2.5,0.7-2.5,2.6c0.1,6.1,0,12.1,0,18.2c0,0.7,0,1.3,0,2c-0.1,1.3-0.4,2.5-2,2.5c-1.6,0-2-1.2-2-2.5
	C84.8,264.5,84.8,261,84.8,257.5C84.8,257.5,84.8,257.5,84.8,257.5z"/>
<path class="st0" d="M242.7,256c0-3.8,0-7.6,0-11.4c0-1.3,0-2.9,1.8-2.9c1.9,0,2.1,1.5,2.1,3c0,7.7,0,15.4,0,23.2
	c0,1.4-0.4,2.7-2.1,2.7c-1.8,0-1.9-1.5-1.9-2.8C242.7,263.9,242.7,260,242.7,256z"/>
<path class="st0" d="M294.2,256c0,2.1-2,4-4.2,4c-2.1-0.1-3.9-1.9-3.9-3.9c0-2.2,1.8-4.1,4.1-4.1C292.3,251.9,294.3,253.9,294.2,256
	z"/>
</svg>
