<svg xmlns="http://www.w3.org/2000/svg" viewBox="0 0 1200 412.16"><defs><style>.cls-1,.cls-2{fill:#fff;}.cls-2{fill-rule:evenodd;}</style></defs><title>Asset 1</title><g id="Layer_2" data-name="Layer 2"><g id="Capa_1" data-name="Capa 1"><path class="cls-1" d="M792.8,310.43a11.5,11.5,0,0,1-3.84-5.69,23.47,23.47,0,0,1-1.09-6.64,51.36,51.36,0,0,1,1.53-13,112.93,112.93,0,0,1,9-24.17,166.74,166.74,0,0,1,13.13-22.15,188.89,188.89,0,0,1,16.09-20.19c11.71-12.65,25.05-24.12,40.39-32.82s32.48-14.95,50.57-16.37a108.8,108.8,0,0,1,52.92,9.1,131.38,131.38,0,0,1,23.16,13.21c3.57,2.54,7.18,5.32,10.33,8l9.78,7.78c13.08,10.62,25.84,21.55,38.66,32s26,20.21,41,25.3a73.88,73.88,0,0,0,23.38,3.79,72.14,72.14,0,0,0,23.76-3.33,28.28,28.28,0,0,0,2.85-1c.94-.36,1.88-.71,2.8-1.11,1.81-.87,3.66-1.68,5.39-2.69a59.15,59.15,0,0,0,9.91-6.83,64.63,64.63,0,0,0,8.55-8.48,81.45,81.45,0,0,0,7-9.86,76.68,76.68,0,0,0,5.25-10.83,78.57,78.57,0,0,0,3.62-11.43,80.16,80.16,0,0,0,1.81-11.71,74.86,74.86,0,0,0-.11-11.51,81.09,81.09,0,0,0-5.35-22.7A77.33,77.33,0,0,0,1171.84,147a64.13,64.13,0,0,0-7.83-8.3c-1.38-1.3-2.9-2.43-4.38-3.61s-3.06-2.19-4.7-3.13-3.28-1.85-4.93-2.76c-1.72-.76-3.39-1.63-5.18-2.26a67.47,67.47,0,0,0-10.88-3.24c-1.88-.33-3.73-.77-5.65-1l-2.85-.36-2.89-.2c-1.91-.18-3.86-.15-5.8-.18-1,0-1.92,0-2.85,0s-1.88.1-2.81.17a74.33,74.33,0,0,0-22,5.41C1074.91,133.4,1062,143,1050.21,154s-22.63,23.32-32.92,36.17c-20.55,25.77-39.07,53.54-58.35,81-9.63,13.77-19.41,27.53-29.75,41a398.08,398.08,0,0,1-33.56,39c-12.27,12.26-26,23.85-42.48,32.11A90.28,90.28,0,0,1,826.43,392a78.31,78.31,0,0,1-14.36.83A79.75,79.75,0,0,1,797.83,391c-1.17-.24-2.32-.53-3.46-.85s-2.34-.65-3.55-1a31,31,0,0,1-3.75-1.43c-1.32-.52-2.38-1.13-3.57-1.71a51.72,51.72,0,0,1-12.35-9.17,69.91,69.91,0,0,1-15.36-24.57,115.21,115.21,0,0,1-6.43-26.55,168.5,168.5,0,0,1-1.2-26.49,253.08,253.08,0,0,1,7.14-51.5,302.5,302.5,0,0,1,16.25-48.93,307.44,307.44,0,0,1,24.12-45.46A271.7,271.7,0,0,1,827.54,113a434.61,434.61,0,0,1,37.19-34.71c13-10.83,26.37-21.13,40.21-30.78a495.63,495.63,0,0,1,42.81-26.9C962.49,12.44,977.75,5,993.9,0a.94.94,0,0,1,.62,1.77h0a190.8,190.8,0,0,0-22.57,10.6c-7.32,4-14.47,8.21-21.48,12.7q-21,13.47-40.69,28.91C896.64,64.25,883.9,75,871.69,86.19a467,467,0,0,0-34.82,35.27c-5.4,6.18-10.55,12.57-15.39,19.13S812.16,154,807.94,161a292.31,292.31,0,0,0-21.6,43.88,309.66,309.66,0,0,0-14.2,46.69,235,235,0,0,0-5.6,48,160.51,160.51,0,0,0,1.51,23.62,96.63,96.63,0,0,0,5.66,22.09,50.73,50.73,0,0,0,11.22,17.62,31.82,31.82,0,0,0,7.78,5.68c.71.32,1.46.78,2.1,1a14.32,14.32,0,0,0,2.12.79c1.52.46,3.39,1,5.13,1.32,14.12,3.15,28.68.48,42.15-6.3s25.84-17,37.26-28.3,22-23.95,32.18-36.88,20-26.4,29.73-40C962.84,233,982,205.33,1003.61,179c10.84-13.11,22.32-25.89,35.25-37.52a188,188,0,0,1,20.7-16.18,122.53,122.53,0,0,1,23.74-12.5,86,86,0,0,1,26.79-5.87c2.29-.11,4.66-.17,6.88-.06s4.49.14,6.75.4l3.37.33,3.36.51c2.25.29,4.47.85,6.7,1.31a83,83,0,0,1,13,4.29c2.14.83,4.18,1.93,6.25,2.93s4,2.23,5.92,3.55,3.77,2.65,5.61,4,3.54,2.94,5.17,4.55a77.67,77.67,0,0,1,9,10.26,90,90,0,0,1,12.5,23.82,93,93,0,0,1,5.24,26.23,55.27,55.27,0,0,1-1.05,13.55,89.18,89.18,0,0,1-3.42,12.84,105.55,105.55,0,0,1-5.09,12.1,111.31,111.31,0,0,1-6.58,11.3,87.85,87.85,0,0,1-8.08,10.24,80.28,80.28,0,0,1-9.48,9c-1.67,1.4-3.47,2.63-5.25,3.88s-3.66,2.36-5.57,3.39-3.86,2-5.81,3l-3,1.28c-1,.44-2,.84-3,1.19s-2,.74-3.08,1.08l-3.13.92c-2.08.66-4.22,1.09-6.34,1.6a94.06,94.06,0,0,1-13,1.7,76.94,76.94,0,0,1-26.22-2.57,107.73,107.73,0,0,1-24.25-10.18c-7.57-4.24-14.71-9-21.66-13.85-13.91-9.74-27.11-20-40.59-29.77l-10.17-7.46c-3.36-2.6-6.45-4.85-9.78-7.06a132.08,132.08,0,0,0-20.59-11.31,104.45,104.45,0,0,0-22.07-6.86,94.85,94.85,0,0,0-23-1.44A111.83,111.83,0,0,0,875,198.57a170.79,170.79,0,0,0-38.86,28.34,211.75,211.75,0,0,0-16.6,17.91,198.69,198.69,0,0,0-14.29,19.9,121.26,121.26,0,0,0-10.91,21.83,51,51,0,0,0-2.86,11.66c-.38,3.86-.09,8,2.51,10.81l0,0a.94.94,0,0,1-1.25,1.39Z"/><path class="cls-1" d="M956.27,365.24c2.58,6.18,5.93,9,11.09,9a19.51,19.51,0,0,0,5.16-.77c7-1.55,25.27-13.15,31.2-17.54.77-.25,1.54-1,2.06-1s.77.26,1,.78a.93.93,0,0,1,.26.77c0,1-1,1.55-1.81,2.06-7,4.9-25.52,19.08-34,20.11-.77,0-1.8.26-2.58.26-7,0-11.86-3.87-15.21-9.8-1.81-3.35-2.58-4.64-4.13-4.64-1,0-2.32.78-4.64,2.32-4.64,3.36-9,7-13.66,10.57a38.09,38.09,0,0,1-7,4.13,10.59,10.59,0,0,1-4.65,1.29A6.49,6.49,0,0,1,915,381a6.7,6.7,0,0,1-2.58-5.15,14,14,0,0,1,1-4.13c2.32-5.93,6.19-10.57,10.58-14.95a34.1,34.1,0,0,1,7.47-6.19,21.14,21.14,0,0,1,9.54-2.58h1.29c4.64.26,7.22,2.06,7.22,5.42a9.29,9.29,0,0,1-1.29,4.89C952.92,358.27,954.73,361.63,956.27,365.24Zm-15.21-4.64a2.64,2.64,0,0,0,1.81-2.33,1,1,0,0,0-.26-.77,1.32,1.32,0,0,0-1.29-1,4.68,4.68,0,0,0-1.8.52c-7,2.83-12.12,8-16.25,14.18C929.72,368.33,935.13,364.2,941.06,360.6Z"/><path class="cls-1" d="M990.82,382l.52-2.07c7.74-13.4,8.77-16.5,16-29.65,1.55-2.32,2.58-4.38,4.65-4.38,2.06.77,2.83,1,2.83,2.83a4.15,4.15,0,0,1-.77,2.33c-1.81,3.6-3.61,7.21-5.67,10.82,6.44-4.38,13.15-11.6,20.88-11.6,6.19,0,7,5.93,9.54,12.12,2.32,5.16,5.93,7.48,11.09,7.48a63,63,0,0,0,30.94-11.09c1.29-.77,5.41-3.87,7-3.87.52.26.52,0,.77.78,0,1.29-3.61,3.35-5.41,4.38-3.1,2.06-5.93,4.38-9.28,5.93-8.51,3.87-16.25,8-26.3,8.77-8,0-14.18-7.74-16.5-15.73-.52-1.55-1.29-2.32-2.33-2.32-5.41,1.54-8,3.61-12.63,7.73-5.41,5.16-10.31,10.83-15.21,16.5-1.55,2.07-3.87,4.65-6.19,4.65A3.93,3.93,0,0,1,990.82,382Zm17.28-47.7c-3.87,0-5.16-1.55-5.41-3.61a2.64,2.64,0,0,1,1.28-2.07c6.45-4.9,15.73-8.25,26.82-8.51a23.13,23.13,0,0,1,8.77,2.07,49.7,49.7,0,0,0,19.33,3.86,65.14,65.14,0,0,0,17-2.57L1078,323c1.29,0,2.58,1,2.58,1.81,0,1.8-4.12,3.61-7.22,4.38a70.55,70.55,0,0,1-19.59,3.09c-8.77-.25-16-2.06-22.18-5.41a7.85,7.85,0,0,0-4.38-1c-4.9,0-10.83,2.06-15,3.61-.51.25-1,.51-1,.77l.78,2.06c0,1.29-1.29,2.07-3.1,2.07Z"/><path class="cls-1" d="M1078.75,389.73a4.9,4.9,0,0,1-2.58-4.64v-1c.51-7,3.09-13.41,5.67-19.6a7.83,7.83,0,0,0,1.29-4.12v-1.29a2.71,2.71,0,0,1,1.29-2.32,57.88,57.88,0,0,0,4.64-3.61,2.44,2.44,0,0,1,1.8-.52c1,0,1.81.78,2.07,2.06.25,2.58,2.06,3.1,4.12,3.36h5.16a96,96,0,0,0,25.52-3.36,3.83,3.83,0,0,1,1.55-.51l1-.26a1.32,1.32,0,0,1,1.29,1v.52a2.61,2.61,0,0,1-1,1.8,50.93,50.93,0,0,1-8.77,3.1c-7.22,2.06-14.43,3.61-21.91,3.61h-.77c-1.55,0-1.81.51-2.07,2.32-.77,8.76-5.16,15.73-11.09,21.91a6.33,6.33,0,0,1-4.38,2.07A5.49,5.49,0,0,1,1078.75,389.73Zm10.57-19.59a16.85,16.85,0,0,0,.77-5.16,1.32,1.32,0,0,0-1-1.55h-.52c-.51,0-.77.26-1.29.77-2.32,5.94-4.64,11.61-5.15,17.8C1085.45,378.64,1087.51,374.52,1089.32,370.14Z"/><path class="cls-1" d="M1136.76,411.65a3.9,3.9,0,0,1-2.07-3.61L1135,406c.77-3.61,2.58-6.44,4.64-9.28a91.3,91.3,0,0,1,9.28-11.08c.78-.78,1-1.29,1-1.81s-.26-1-1-1.8c-2.32-2.58-5.67-3.87-9-4.9a48.06,48.06,0,0,1-10.06-3.87c-3.61-2.06-5.41-4.9-5.41-8.25a14.31,14.31,0,0,1,3.09-8.25,42.73,42.73,0,0,1,24.24-15.47c4.9,0,7.48,2.32,7.48,5.15a7,7,0,0,1-1.29,4.13,5.39,5.39,0,0,1-4.39,2.84,6.07,6.07,0,0,1-2.06-.52c-1.54-1-4.38,0-4.38-2.84a.25.25,0,0,0-.26-.25l-1,.25a25.31,25.31,0,0,0-13.15,10.58,4.81,4.81,0,0,0-1,2.83,3.58,3.58,0,0,0,1.54,2.84,19.59,19.59,0,0,0,6.19,3.87c5.16,2.32,10.58,4.64,13.67,9.28l1,.77c.52,0,1-1,1.55-1.29a182.56,182.56,0,0,1,19.08-15.21c4.12-2.84,8.76-5.67,13.4-8.25a3.89,3.89,0,0,1,1.81-.78c.26,0,.51.26.77.78l.26.77c0,.78-1.29,1-2.06,1.55a153.78,153.78,0,0,0-31.72,26,5.15,5.15,0,0,0-2.06,4.38c-.77,6.19-9.28,24-16.24,24A5,5,0,0,1,1136.76,411.65Zm13.66-19.86a64,64,0,0,0-6.7,10.32C1147.07,399.27,1149.91,396.18,1150.42,391.79Z"/><path class="cls-2" d="M32.47,131.07c.32-4,.65-8.13.86-11.92H13.45c-.24,9.93-.87,18.52-1.39,25.71-.43,6.18-.8,11.33-.8,15.32,0,4.28,2,8.58,7.17,11.56,4.44,2.58,11.18,4.23,20.92,4.23,13.56,0,21-3.39,25.08-7.56a17.05,17.05,0,0,0,4.71-11.87v0c.24-11,1.79-31.92,2.22-37.36H51.08c-.2,7-.68,23.61-2.39,34.27-.45,2.87-1.15,5-2.55,6.34s-3.47,2-6.61,2a7.11,7.11,0,0,1-6.47-3.26,14.1,14.1,0,0,1-1.72-7.48c0-5.59.56-12.72,1.13-20Z"/><path class="cls-2" d="M81.06,146.23c-.62,11.62-1.48,22.18-2.16,28.61H96.74c.08-10.44.47-18.75.77-24.65.11-2.43.18-4.44.24-6l0-1.14,0-3A83.33,83.33,0,0,1,103,150c3.12,6.7,6.62,13.46,10.11,20.19.7,1.32,1.35,2.6,2.41,4.64h24.38c.26-9.32.69-18.63,1.22-27.91s1.25-18.46,2.07-27.78H124.76c-.05,5.07-.18,10.1-.35,15-.22,5.59-.5,11.09-.84,16.42l-.06,1.1-.17,3.37c-1.53-2.89-2.86-5.73-4.19-8.69-1.78-3.95-3.58-7.9-5.44-11.85q-3.6-7.67-7.47-15.38H81.93c0,8.69-.38,18.17-.87,27.08Z"/><path class="cls-2" d="M151.59,168.21q-.22,3.39-.45,6.63h21.1c0-24.78,1-37.71,2.39-55.69h-21c0,20.8-1.06,35.23-2,49.06Z"/><path class="cls-2" d="M200.79,174.84H224.2l27.65-55.69H231.34c-2.25,6-4.85,11.88-7.43,17.76-2.75,6.2-5.45,12.37-7.79,18.69-.7,1.91-1.46,3.78-2.25,5.66-.55-1.8-1.07-3.58-1.48-5.42-1.56-6.69-3.53-13.41-5.48-20.13-1.6-5.49-3.2-11-4.61-16.56H181.92c1.25,3.64,2.68,7.78,4.13,11.89,5.07,14.58,10.16,29.14,14.74,43.8Z"/><path class="cls-2" d="M299.66,132.1c2.31.05,4.61.14,6.93.25l.71-13.2H259.1c.07,7.16-.34,17.68-.92,27.92-.63,11-1.5,21.79-2.28,27.77h48.37l.87-13.58c-3.45.19-6.72.34-10.65.48-4.46.14-9.63.24-16.67.24h-1.23l.09-1.27.43-6.17.09-1.1h23.14l.79-13.19c-1.43,0-2.9.09-4.35.13-2.94.08-5.87.18-8.6.18H278.13l.08-1.25.44-6.17.07-1.11H291.6c2.58,0,5.24,0,8.06.07Z"/><path class="cls-2" d="M335.2,154.39c.26-7.26.58-14.48,1.06-21.68l.06-1.11h6.47c4.94,0,10.32,0,10.32,5.7a6.27,6.27,0,0,1-2.88,5.51,13.64,13.64,0,0,1-7.43,1.86c-.63,0-1.28,0-1.93-.09l-.15,0c1.3,4.85,2.52,9.74,3.71,14.68,1.23,5.22,2.42,10.4,3.57,15.6h20.79c-.8-2.34-1.65-4.69-2.51-7.06-1.91-5.39-3.83-10.79-5.5-16.29l-.32-1,1-.42a18.4,18.4,0,0,0,8-6.41,16.84,16.84,0,0,0,2.64-9.58c0-7-3.44-10.7-7.71-12.65s-9.79-2.27-13.26-2.27h-33c0,9.29-.13,18.61-.55,28s-1.09,18.51-2.2,27.72h19.36c.08-6.8.24-13.63.46-20.45Z"/><path class="cls-2" d="M416.62,132a42,42,0,0,1,5,1.48l-1.08-14c-2.49-.48-5.06-.88-7.61-1.15a71.06,71.06,0,0,0-8-.45c-7.49,0-12.77,1.67-16.29,4.18a13.69,13.69,0,0,0-6,11.35c0,8,6.79,13.26,12,17.33,3.69,2.84,6.69,5.16,6.69,7.89,0,3.8-5.34,3.8-7.67,3.8a34.29,34.29,0,0,1-8.75-1.49c-2.26-.63-4.5-1.4-6.43-2.12l1.32,15.14c2.69.4,5.72.84,8.73,1.21a93.67,93.67,0,0,0,9.68.64c8,0,13.47-1.79,17.09-4.5a15.25,15.25,0,0,0,6.11-12.51c0-6.76-6.56-11.77-11.78-15.73-3.8-2.88-7-5.28-7-7.94,0-2,1.56-3,3.37-3.46h0a16.62,16.62,0,0,1,4-.41,29.32,29.32,0,0,1,6.46.78Z"/><path class="cls-2" d="M432.37,168.24c-.17,2.23-.31,4.45-.46,6.6h20.77c0-24.78,1-37.71,2.38-55.69H434.38c0,20.82-1,35.23-2,49.09Z"/><path class="cls-2" d="M128.22,233c-12.68-.6-26.8-.81-39.46-.81H61l-1,13.32c18.07,0,36.08.33,54.13,0l-2.21,36H57.35l-1,14.25c23,0,45.84-.58,68.79-1.83l-1.85,36.9H1.84c6.35-43.25,8.6-90,7.82-133.71H130L128.22,233Zm100.87.21L238.38,264H215.06l14-30.74Zm28.18,97.61h55.11c-17.5-44.09-34-88.79-49.5-133.71H200.33c-17.72,37.29-54.73,105-71.85,133.71h57.36l15.81-35.15H245.9c4.09,11.57,8.36,23.23,11.37,35.15ZM445.4,233c-12.67-.6-26.8-.81-39.46-.81H378.17l-1,13.32c18.07,0,37.47.33,55.55,0h0l-2.22,36h-55c-.55,16.4-1.05,32.84-1.21,49.32H319c3.62-24.67,8.42-99.43,7.82-133.71H447.2L445.4,233Zm4.47,97.82c2.61-38.49,6-75.18,6-133.71h54.34c-3.44,43.5-5.85,73.57-5.85,133.71H449.87Zm205.6-97.41c-12.06-.81-24.87-1.22-43.58-1.22-2.61,28.67-4,57.54-4.63,98.63H553.94a890,890,0,0,0,6-98.63c-31,0-36.93.81-43.57,1.22l1.82-36.3H657.29Z"/><path class="cls-1" d="M628.16,353V330.72H638a13.4,13.4,0,0,1,4.52.59,5,5,0,0,1,2.47,2.14,6.3,6.3,0,0,1,.92,3.33,5.57,5.57,0,0,1-1.52,4,7.75,7.75,0,0,1-4.72,2.08,8.08,8.08,0,0,1,1.75,1.1,14.72,14.72,0,0,1,2.45,2.95l3.87,6.06h-3.7l-2.95-4.63c-.86-1.32-1.55-2.36-2.12-3.06a6.79,6.79,0,0,0-1.49-1.48,4.24,4.24,0,0,0-1.35-.6,11.51,11.51,0,0,0-1.64-.1h-3.4V353Zm3-12.41h6.32a9.54,9.54,0,0,0,3.14-.43,3.41,3.41,0,0,0,1.76-1.33,3.82,3.82,0,0,0,.57-2,3.37,3.37,0,0,0-1.14-2.6,5.47,5.47,0,0,0-3.62-1h-7Z"/><path class="cls-1" d="M636.46,321h0a20.88,20.88,0,0,1,14.73,6.1h0a20.81,20.81,0,0,1,6.08,14.71h0v0h0a20.81,20.81,0,0,1-20.8,20.82h0a20.8,20.8,0,0,1-14.73-6.09h0a20.81,20.81,0,0,1-6.1-14.69h0v-.05h0a20.81,20.81,0,0,1,6.12-14.75h0A20.81,20.81,0,0,1,636.44,321h0Zm0,3.19v0h0v0A17.71,17.71,0,0,0,624,329.33h0a17.63,17.63,0,0,0-5.16,12.48h0v.05h0A17.6,17.6,0,0,0,624,354.28h0a17.67,17.67,0,0,0,12.48,5.18h0a17.69,17.69,0,0,0,17.62-17.63h0v0h0a17.54,17.54,0,0,0-5.18-12.46h0A17.68,17.68,0,0,0,636.48,324.16Z"/><path class="cls-2" d="M324.64,364.4c113.68,1.18,224.34,9.25,323.89,22.16L649,375.4c-100-12.64-210.61-20.08-324.4-21.32C210.85,355.32,100.48,362.76.44,375.4L0,386.56A2799.34,2799.34,0,0,1,324.64,364.4Z"/><path class="cls-2" d="M516.7,125.88c-4-4.41-9.89-6.73-17.24-6.73H466.34c0,15.4-.45,27.18-1,36.31-.49,8.53-1.12,14.71-1.61,19.38h31.63c8.49,0,15.28-3,20-8.07,4.85-5.29,7.51-12.91,7.51-21.89C522.85,136.63,520.66,130.22,516.7,125.88Zm-18.34,32.67c-2.73,2.59-6.37,3.43-10.27,3.43-.58,0-1.21,0-1.82-.07s-1.17-.11-1.77-.22l-1-.14.06-1.06,1.19-27,.05-.94.91-.15c.77-.13,1.51-.24,2.25-.31s1.47-.07,2.23-.07c4.26,0,7.39,1.12,9.51,3.37s3.09,5.46,3.09,9.72C502.75,151.82,501.07,156,498.36,158.55Z"/><path class="cls-2" d="M585,147.83q-5.21-14.34-10-28.68h-25c-3.45,7.41-8.56,17.41-13.75,27.29-5.71,10.89-11.55,21.55-15.47,28.4h21.59l5.59-12.7.3-.71H570l.29.77v.05h0c1.43,4.16,2.9,8.32,4,12.59h20.84Q589.92,161.45,585,147.83ZM553.31,149l8.27-18.72L567.15,149Z"/><path class="cls-2" d="M653.76,125.88c-4-4.41-9.89-6.73-17.22-6.73H603.39c0,15.4-.43,27.18-1,36.31-.52,8.53-1.15,14.71-1.62,19.38h31.62c8.49,0,15.29-3,20-8.07,4.87-5.29,7.51-12.91,7.51-21.89C659.91,136.63,657.73,130.22,653.76,125.88Zm-18.32,32.67c-2.73,2.59-6.39,3.43-10.29,3.43-.56,0-1.19,0-1.82-.07s-1.15-.11-1.77-.22l-1-.14,0-1.06,1.18-27,.07-.94.89-.15c.76-.13,1.53-.24,2.27-.31s1.45-.07,2.21-.07c4.27,0,7.41,1.12,9.53,3.37s3.1,5.46,3.1,9.72C639.84,151.82,638.13,156,635.44,158.55Z"/></g></g></svg>