<svg id="Layer_1" data-name="Layer 1" xmlns="http://www.w3.org/2000/svg" viewBox="0 0 742.47 390"><defs><style>.cls-1,.cls-2{fill:#fff;}.cls-1{fill-rule:evenodd;}</style></defs><title>Sponsors 2020</title><path class="cls-1" d="M737.48,130.12c-13.57-.9-28-1.35-49.05-1.35-2.94,32.25-4.53,64.72-5.21,111h-60A1004.5,1004.5,0,0,0,630,128.77c-34.86,0-41.54.9-49,1.35l2.05-40.82H739.54ZM506.16,239.72c2.94-43.3,6.8-84.57,6.8-150.42h61.11c-3.85,48.94-6.56,82.77-6.56,150.42Zm-5.05-110c-14.26-.68-30.13-.9-44.39-.9H425.47l-1.13,15c20.33,0,42.18.36,62.5,0l-2.49,40.5H422.51c-.59,18.43-1.19,36.94-1.37,55.47H358.92C363,212,368.4,127.87,367.73,89.3H503.14ZM289.44,239.72h62c-19.69-49.61-38.26-99.9-55.68-150.42h-70.4c-19.92,42-61.57,118.18-80.82,150.42h64.52l17.78-39.53h49.8C281.27,213.2,286.07,226.32,289.44,239.72ZM257.75,129.9l10.45,34.61H242Zm-113.49-.23c-14.26-.68-30.15-.9-44.41-.9H68.61l-1.13,15c20.32,0,40.57.36,60.89,0l-2.49,40.5H64.54l-1.14,16c25.87,0,51.6-.64,77.42-2l-2.09,41.49H2.06c7.15-48.65,9.67-101.29,8.8-150.42H146.28Z"/><path class="cls-2" d="M710.05,250.63h7.12a10.75,10.75,0,0,0,3.55-.47,3.8,3.8,0,0,0,1.94-1.5,4,4,0,0,0,.67-2.25,3.75,3.75,0,0,0-1.29-2.92,6,6,0,0,0-4.07-1.14h-7.92Zm-3.31,14v-25h11.1a14.69,14.69,0,0,1,5.08.68,5.63,5.63,0,0,1,2.79,2.37,7.21,7.21,0,0,1,1,3.78A6.24,6.24,0,0,1,725,250.9a8.67,8.67,0,0,1-5.33,2.32,9,9,0,0,1,2,1.25,17.4,17.4,0,0,1,2.74,3.33l4.36,6.81h-4.17l-3.31-5.21a40,40,0,0,0-2.4-3.44,7.1,7.1,0,0,0-1.67-1.68,5.15,5.15,0,0,0-1.51-.67,11.23,11.23,0,0,0-1.85-.11h-3.84v11.11Z"/><path class="cls-2" d="M716.09,232.2v0h0v0A19.88,19.88,0,0,0,702,238h0a19.81,19.81,0,0,0-5.83,14h0v0h0a19.83,19.83,0,0,0,5.81,14h0a19.8,19.8,0,0,0,14,5.82h0a19.85,19.85,0,0,0,19.84-19.84h0v0h0a19.75,19.75,0,0,0-5.82-14h0a19.84,19.84,0,0,0-14-5.83m0-3.58h0a23.37,23.37,0,0,1,16.57,6.87h0A23.33,23.33,0,0,1,739.52,252h0v0h0a23.42,23.42,0,0,1-23.42,23.43h0a23.37,23.37,0,0,1-16.58-6.86h0a23.39,23.39,0,0,1-6.86-16.54h0v0h0a23.36,23.36,0,0,1,6.87-16.58h0a23.37,23.37,0,0,1,16.54-6.86h0Z"/><path class="cls-1" d="M365.25,277.47c127.9,1.33,252.38,10.41,364.42,24.93l.57-12.53c-112.56-14.25-237-22.61-365-24-128,1.36-252.2,9.72-364.76,24L0,302.4a3156.89,3156.89,0,0,1,365.25-24.93"/><path class="cls-1" d="M711.55,64.21c9.55,0,17.19-3.35,22.47-9.09,5.47-5.95,8.45-14.52,8.45-24.64,0-9.26-2.45-16.48-6.91-21.37s-11.13-7.55-19.4-7.55H678.89c0,17.31-.5,30.56-1.11,40.84C677.21,52,676.52,59,676,64.21Zm-10.9-47.76a22.15,22.15,0,0,1,2.53-.32c.84-.07,1.66-.09,2.5-.09,4.79,0,8.33,1.26,10.7,3.77s3.49,6.16,3.49,11c0,7.51-1.91,12.23-4.94,15.1s-7.17,3.85-11.56,3.85c-.65,0-1.35,0-2-.08s-1.31-.13-2-.24l-1.15-.18.06-1.18,1.34-30.35,0-1.06ZM641.62,50v0h0c1.61,4.68,3.24,9.36,4.48,14.16h23.43q-5.82-15.06-11.38-30.39-5.83-16.13-11.29-32.26H618.7c-3.9,8.33-9.62,19.6-15.46,30.71-6.44,12.24-13,24.24-17.42,31.94h24.29l6.3-14.29.34-.79H641.3ZM623.34,33.27l6.92-15.76.1-.23.17-.17.19-.19,1.54-1.58.63,2.13,4.71,16,.51,1.71h-15.6Zm-66,30.94c9.56,0,17.2-3.35,22.47-9.09,5.48-5.95,8.46-14.52,8.46-24.64,0-9.26-2.45-16.48-6.91-21.37s-11.13-7.55-19.4-7.55H524.67c0,17.31-.5,30.56-1.11,40.84C523,52,522.29,59,521.74,64.21ZM546.43,16.45a22.15,22.15,0,0,1,2.53-.32c.84-.07,1.66-.09,2.5-.09,4.79,0,8.33,1.26,10.7,3.77s3.5,6.16,3.5,11c0,7.51-1.92,12.23-4.95,15.1s-7.17,3.85-11.56,3.85c-.66,0-1.35,0-2-.08s-1.31-.13-2-.24L544,49.23l0-1.18,1.35-30.35,0-1.07Zm-60,40.33c-.18,2.5-.35,5-.52,7.43h23.38c0-27.88,1.13-42.45,2.69-62.65H488.73C488.69,25,487.54,41.19,486.45,56.78Zm-17.7-40.84a43.29,43.29,0,0,1,5.61,1.68l-1.2-15.79c-2.83-.55-5.69-1-8.59-1.33a83.6,83.6,0,0,0-8.95-.5c-8.47,0-14.39,1.89-18.34,4.71a15.45,15.45,0,0,0-6.72,12.76c0,9,7.63,14.93,13.53,19.5,4.16,3.21,7.54,5.82,7.54,8.89,0,4.27-6,4.27-8.62,4.27a38.6,38.6,0,0,1-9.85-1.66c-2.56-.73-5.07-1.59-7.25-2.4l1.5,17c3,.46,6.43,1,9.8,1.34a99.75,99.75,0,0,0,10.9.75c9,0,15.16-2,19.22-5.07a17.1,17.1,0,0,0,6.89-14.07c0-7.62-7.39-13.25-13.25-17.7-4.28-3.25-7.81-5.94-7.81-8.93,0-2.27,1.72-3.37,3.77-3.9h0a19.09,19.09,0,0,1,4.56-.46A33.23,33.23,0,0,1,468.75,15.94ZM377.14,41.2c.28-8.17.66-16.31,1.19-24.41l.08-1.24h7.26c5.55,0,11.61,0,11.61,6.42a7.08,7.08,0,0,1-3.24,6.2c-2.33,1.58-5.58,2.08-8.35,2.08-.71,0-1.44,0-2.18-.1h-.17q2.21,8.16,4.16,16.51c1.4,5.87,2.72,11.71,4,17.56h23.4c-.91-2.62-1.87-5.29-2.82-8-2.16-6-4.33-12.12-6.21-18.33l-.35-1.12,1.06-.48a20.71,20.71,0,0,0,9.05-7.2,19,19,0,0,0,3-10.78c0-7.86-3.87-12-8.66-14.23-5-2.3-11-2.55-15-2.55H357.93c0,10.44-.16,20.92-.63,31.45s-1.23,20.83-2.47,31.2h21.78C376.71,56.54,376.87,48.87,377.14,41.2Zm-40-25.07c2.61.05,5.2.13,7.8.24l.81-14.81H291.51c.07,8-.37,19.87-1,31.4-.72,12.41-1.68,24.5-2.55,31.25h54.41l1-15.29c-3.89.21-7.57.4-12,.54-5,.17-10.83.27-18.73.27h-1.4l.09-1.42.48-7,.09-1.24h26.06l.9-14.85-4.92.15c-3.29.11-6.58.22-9.67.22H312.91l.11-1.42.47-6.95.09-1.23h14.49C331,16,334,16.06,337.14,16.13ZM225.91,64.21h26.34L283.36,1.56H260.3c-2.56,6.73-5.48,13.36-8.39,20-3.06,7-6.13,13.92-8.75,21-.8,2.15-1.64,4.26-2.54,6.37-.62-2-1.19-4-1.68-6.1-1.75-7.53-3.95-15.07-6.15-22.64C231,14,229.18,7.8,227.6,1.56H204.67c1.4,4.08,3,8.74,4.65,13.37C215,31.32,220.75,47.72,225.91,64.21Zm-55.34-7.46c-.18,2.52-.36,5-.52,7.46h23.73c0-27.88,1.13-42.45,2.69-62.65H172.84C172.8,24.94,171.66,41.17,170.57,56.75ZM91.21,32c-.72,13.07-1.69,25-2.44,32.2h20.06c.09-11.77.54-21.11.86-27.75.12-2.71.23-5,.29-6.7l0-1.29,0-3.36a94.78,94.78,0,0,1,5.82,11.18c3.53,7.51,7.45,15.11,11.38,22.69.78,1.49,1.52,2.93,2.71,5.23h27.44q.44-15.73,1.38-31.41.91-15.52,2.31-31.24H140.36c-.05,5.68-.19,11.33-.39,16.89-.23,6.3-.55,12.48-.94,18.48L139,38.17l-.18,3.77c-1.71-3.22-3.23-6.42-4.72-9.75q-3-6.66-6.13-13.34c-2.7-5.75-5.5-11.53-8.39-17.29H92.18C92.15,11.32,91.75,22,91.21,32ZM36.53,15c.36-4.55.72-9.14,1-13.4H15.13c-.28,11.15-1,20.82-1.55,28.91-.5,7-.91,12.74-.91,17.25,0,4.81,2.25,9.62,8.06,13,5,2.9,12.58,4.76,23.53,4.76,15.27,0,23.66-3.84,28.22-8.53a19.18,19.18,0,0,0,5.31-13.36h0c.26-12.33,2-35.92,2.49-42H57.46c-.22,7.91-.76,26.53-2.68,38.53-.52,3.27-1.29,5.57-2.88,7.14s-3.91,2.3-7.44,2.3-5.81-1.38-7.27-3.68-1.93-5.09-1.93-8.42C35.26,31.16,35.89,23.13,36.53,15Z"/><path class="cls-2" d="M43.29,374.64,27.13,325.12H34l7.71,24.4c2.13,6.68,4,12.71,5.29,18.51h.15c1.39-5.73,3.45-12,5.66-18.44l8.37-24.47h6.84L50.35,374.64Z"/><path class="cls-2" d="M79.25,329.09a4,4,0,0,1-8,0,3.94,3.94,0,0,1,4-4A3.83,3.83,0,0,1,79.25,329.09Zm-7.2,45.55V339.08h6.46v35.56Z"/><path class="cls-2" d="M119.88,339.08c-.14,2.57-.29,5.44-.29,9.77V369.5c0,8.15-1.62,13.15-5.07,16.24S106.07,390,101.59,390c-4.27,0-9-1-11.83-2.94l1.62-4.92a20,20,0,0,0,10.43,2.79c6.61,0,11.46-3.46,11.46-12.42v-4h-.15c-2,3.31-5.8,6-11.31,6-8.82,0-15.13-7.5-15.13-17.34,0-12.05,7.86-18.89,16-18.89,6.17,0,9.56,3.23,11.09,6.17h.15l.3-5.36Zm-6.68,14a9.48,9.48,0,0,0-9.41-9.77c-6.17,0-10.58,5.22-10.58,13.45,0,7,3.53,12.78,10.51,12.78a9.44,9.44,0,0,0,9-6.61,11.16,11.16,0,0,0,.52-3.45Z"/><path class="cls-2" d="M137.1,329.09a4,4,0,0,1-8,0,4,4,0,0,1,4-4A3.83,3.83,0,0,1,137.1,329.09Zm-7.19,45.55V339.08h6.46v35.56Z"/><path class="cls-2" d="M147.11,322.48h6.46v52.16h-6.46Z"/><path class="cls-2" d="M184.14,374.64l-.51-4.48h-.22a13.26,13.26,0,0,1-10.88,5.29c-7.19,0-10.87-5.07-10.87-10.21,0-8.6,7.64-13.3,21.38-13.23v-.73c0-2.94-.8-8.23-8.08-8.23a17.78,17.78,0,0,0-9.26,2.64l-1.47-4.26a22.07,22.07,0,0,1,11.68-3.16c10.88,0,13.52,7.42,13.52,14.55v13.3a50.12,50.12,0,0,0,.59,8.52Zm-.95-18.15c-7.06-.14-15.06,1.11-15.06,8,0,4.19,2.79,6.18,6.1,6.18a8.84,8.84,0,0,0,8.59-6,6.72,6.72,0,0,0,.37-2.05Z"/><path class="cls-2" d="M230.6,322.48v43c0,3.16.07,6.76.29,9.18h-5.8l-.29-6.17h-.15c-2,4-6.32,7-12.12,7-8.6,0-15.21-7.27-15.21-18.07-.08-11.83,7.27-19.11,15.94-19.11,5.44,0,9.11,2.57,10.73,5.44h.14V322.48Zm-6.47,31.08a11.44,11.44,0,0,0-.29-2.72,9.5,9.5,0,0,0-9.33-7.5c-6.69,0-10.65,5.88-10.65,13.74,0,7.2,3.52,13.15,10.5,13.15a9.71,9.71,0,0,0,9.48-7.71,11.22,11.22,0,0,0,.29-2.79Z"/><path class="cls-2" d="M261,374.64l-.51-4.48h-.23a13.24,13.24,0,0,1-10.87,5.29c-7.2,0-10.87-5.07-10.87-10.21,0-8.6,7.64-13.3,21.38-13.23v-.73c0-2.94-.81-8.23-8.08-8.23a17.78,17.78,0,0,0-9.26,2.64l-1.47-4.26a22.07,22.07,0,0,1,11.68-3.16c10.87,0,13.52,7.42,13.52,14.55v13.3a50.12,50.12,0,0,0,.59,8.52Zm-1-18.15c-7-.14-15.06,1.11-15.06,8,0,4.19,2.79,6.18,6.1,6.18a8.85,8.85,0,0,0,8.6-6,6.7,6.7,0,0,0,.36-2.05Z"/><path class="cls-2" d="M334.32,352.9c-.36-6.91-.81-15.22-.73-21.39h-.23c-1.68,5.81-3.74,12-6.24,18.81l-8.74,24h-4.85l-8-23.59c-2.35-7-4.34-13.37-5.73-19.25h-.15c-.14,6.17-.51,14.48-.95,21.9l-1.32,21.23h-6.11l3.46-49.52h8.16l8.44,23.95c2.06,6.1,3.75,11.54,5,16.68h.22c1.25-5,3-10.43,5.22-16.68l8.82-23.95h8.15l3.09,49.52h-6.25Z"/><path class="cls-2" d="M359.55,329.09a4,4,0,0,1-8,0,3.94,3.94,0,0,1,4-4A3.83,3.83,0,0,1,359.55,329.09Zm-7.2,45.55V339.08h6.46v35.56Z"/><path class="cls-2" d="M369.55,348.7c0-3.67-.07-6.68-.3-9.62H375l.37,5.88h.14a13.09,13.09,0,0,1,11.76-6.69c4.92,0,12.56,2.94,12.56,15.14v21.23h-6.46v-20.5c0-5.73-2.14-10.5-8.23-10.5a9.47,9.47,0,0,0-9.11,9.62v21.38h-6.47Z"/><path class="cls-2" d="M414,358c.15,8.74,5.73,12.34,12.2,12.34a23.39,23.39,0,0,0,9.85-1.84l1.1,4.63a28.8,28.8,0,0,1-11.83,2.21c-10.95,0-17.49-7.2-17.49-17.93s6.32-19.18,16.68-19.18c11.61,0,14.7,10.22,14.7,16.76a22.77,22.77,0,0,1-.23,3Zm19-4.63c.07-4.12-1.69-10.51-9-10.51-6.54,0-9.41,6-9.92,10.51Z"/><path class="cls-2" d="M477.89,322.48v43c0,3.16.08,6.76.3,9.18h-5.81l-.29-6.17h-.15c-2,4-6.32,7-12.12,7-8.6,0-15.21-7.27-15.21-18.07-.08-11.83,7.28-19.11,15.95-19.11,5.43,0,9.11,2.57,10.72,5.44h.15V322.48Zm-6.46,31.08a11.46,11.46,0,0,0-.3-2.72,9.5,9.5,0,0,0-9.32-7.5c-6.69,0-10.66,5.88-10.66,13.74,0,7.2,3.53,13.15,10.51,13.15a9.71,9.71,0,0,0,9.47-7.71,11.21,11.21,0,0,0,.3-2.79Z"/><path class="cls-2" d="M518.4,364.94c0,3.68.07,6.91.3,9.7H513l-.37-5.8h-.14a13.4,13.4,0,0,1-11.76,6.61c-5.58,0-12.27-3.08-12.27-15.58V339.08h6.46v19.69c0,6.76,2.06,11.32,7.94,11.32a9.14,9.14,0,0,0,9.12-9.19V339.08h6.46Z"/><path class="cls-2" d="M554.5,373.32a23.86,23.86,0,0,1-10.22,2.06c-10.72,0-17.7-7.28-17.7-18.15s7.49-18.88,19.1-18.88a21.72,21.72,0,0,1,9,1.83l-1.48,5a15,15,0,0,0-7.49-1.69c-8.15,0-12.56,6-12.56,13.44,0,8.23,5.29,13.3,12.34,13.3a18.36,18.36,0,0,0,7.94-1.76Z"/><path class="cls-2" d="M581.78,374.64l-.52-4.48H581a13.26,13.26,0,0,1-10.88,5.29c-7.19,0-10.87-5.07-10.87-10.21,0-8.6,7.64-13.3,21.39-13.23v-.73c0-2.94-.81-8.23-8.09-8.23a17.8,17.8,0,0,0-9.26,2.64l-1.46-4.26a22,22,0,0,1,11.67-3.16c10.88,0,13.53,7.42,13.53,14.55v13.3a51.24,51.24,0,0,0,.58,8.52Zm-1-18.15c-7.05-.14-15.06,1.11-15.06,8,0,4.19,2.79,6.18,6.1,6.18a8.83,8.83,0,0,0,8.59-6,6.43,6.43,0,0,0,.37-2.05Z"/><path class="cls-2" d="M622.87,373.32a23.86,23.86,0,0,1-10.22,2.06c-10.72,0-17.7-7.28-17.7-18.15s7.49-18.88,19.1-18.88a21.72,21.72,0,0,1,9,1.83l-1.48,5a15,15,0,0,0-7.49-1.69c-8.15,0-12.56,6-12.56,13.44,0,8.23,5.29,13.3,12.34,13.3a18.36,18.36,0,0,0,7.94-1.76Z"/><path class="cls-2" d="M637.66,329.09a4,4,0,0,1-8,0,4,4,0,0,1,4.05-4A3.84,3.84,0,0,1,637.66,329.09Zm-7.2,45.55V339.08h6.46v35.56Z"/><path class="cls-2" d="M679.84,356.57c0,13.15-9.11,18.88-17.71,18.88-9.63,0-17-7.05-17-18.29,0-11.91,7.78-18.89,17.63-18.89C672.93,338.27,679.84,345.69,679.84,356.57Zm-28.22.36c0,7.79,4.49,13.67,10.8,13.67s10.8-5.8,10.8-13.81c0-6-3-13.67-10.65-13.67S651.62,350.18,651.62,356.93Zm20.5-33.21-9,10.51h-4.63L665,323.72Z"/><path class="cls-2" d="M688,348.7c0-3.67-.08-6.68-.3-9.62h5.73l.37,5.88H694a13.1,13.1,0,0,1,11.76-6.69c4.92,0,12.56,2.94,12.56,15.14v21.23h-6.46v-20.5c0-5.73-2.13-10.5-8.23-10.5a9.18,9.18,0,0,0-8.67,6.61,9.41,9.41,0,0,0-.44,3v21.38H688Z"/></svg>