<svg xmlns="http://www.w3.org/2000/svg" viewBox="0 0 567.03 373.54"><defs><style>.cls-1{fill:#fff;}</style></defs><title>omnibnk-white</title><g id="Layer_2" data-name="Layer 2"><g id="Layer_1-2" data-name="Layer 1"><path class="cls-1" d="M0,128.42C0,86.33,32.54,55.53,77.22,55.53c44.26,0,77.23,30.8,77.23,72.89s-33,72.88-77.23,72.88C32.54,201.3,0,170.07,0,128.42Zm121,0C121,101.52,102,83.3,76.79,83.3s-44.25,18.22-44.25,45.12,19.09,45.12,44.25,45.12C102.39,173.54,121,155.31,121,128.42Z"/><path class="cls-1" d="M307.16,200.87v-87.2l-43,72H249L206.51,115.4v85.47H174.84V55.1H202.6l54.67,90.67L311.06,55.1H338.4V200.87Z"/><path class="cls-1" d="M499.78,55.1V200.87H472l-72.45-88.51v88.51H366.16V55.1h27.77l72.88,88.5V55.1Z"/><path class="cls-1" d="M527.55,55.1h33.84V200.87H527.55Z"/><path class="cls-1" d="M287.64,318c0,33.4-23.43,55.53-55.1,55.53-16,0-29.94-6.08-38.61-18.66v12.58a4.82,4.82,0,0,1-4.78,4.78h-10a4.82,4.82,0,0,1-4.78-4.78V224.3a4.82,4.82,0,0,1,4.78-4.78h10.41a4.82,4.82,0,0,1,4.77,4.78v55.53c9.11-11.72,22.56-17.36,38.18-17.36C264.64,262.47,287.64,285,287.64,318Zm-20,0c0-23.43-15.62-38.18-36.88-38.18C210,279.83,194.36,295,194.36,318c0,23.42,15.62,38.61,36.44,38.61C252.06,356.62,267.68,341.43,267.68,318Z"/><path class="cls-1" d="M410,309.76V367.9a4.81,4.81,0,0,1-4.77,4.77H394.8A4.82,4.82,0,0,1,390,367.9V312.37c0-21.26-10.84-31.68-29.5-31.68-20.82,0-34.71,12.59-34.71,36v51.63A4.81,4.81,0,0,1,321,373.1H310.63a4.81,4.81,0,0,1-4.77-4.77V268.55a4.81,4.81,0,0,1,4.77-4.77H321a4.8,4.8,0,0,1,4.77,4.77v11.71c7.81-11.28,22.13-17.35,39.05-17.35C391.32,262.47,410,278.09,410,309.76Z"/><path class="cls-1" d="M472.45,321.91l-22.56,20.82V367.9a4.81,4.81,0,0,1-4.77,4.77H434.71a4.81,4.81,0,0,1-4.77-4.77V224.73a4.81,4.81,0,0,1,4.77-4.77h10.41a4.81,4.81,0,0,1,4.77,4.77V318L508,265.08a3.92,3.92,0,0,1,3-1.3h10.85a4.51,4.51,0,0,1,3,7.8L487.2,308.89l44.69,56.4c2.17,3,.43,7.38-3.47,7.38H515.84a3.92,3.92,0,0,1-3.47-1.74Z"/><circle class="cls-1" cx="545.34" cy="21.69" r="21.69"/></g></g></svg>