<svg xmlns="http://www.w3.org/2000/svg" viewBox="0 0 931.25 205.2"><defs><style>.cls-1,.cls-2{fill:#fff;}.cls-2{fill-rule:evenodd;}</style></defs><title>aifund-white</title><g id="Layer_2" data-name="Layer 2"><g id="Layer_1-2" data-name="Layer 1"><g id="Page-1"><g id="Group"><g id="Group-3"><g id="Line"><polygon class="cls-1" points="48.74 185.56 105.2 185.56 105.2 178.46 48.74 178.46 48.74 185.56"/></g><g id="Line-2" data-name="Line"><polygon class="cls-1" points="48.74 205.2 105.2 205.2 105.2 198.09 48.74 198.09 48.74 205.2"/></g></g><g id="AIFUND"><path class="cls-2" d="M418.93,170h-9.18V37.25h72.06v8.54H418.93v56.3H478.3v8.63H418.93ZM620.2,37.25v85.91q0,22.88-13.13,35.78t-36.62,12.89q-22.85,0-35.67-12.94T522,122.79V37.25h9.27v85.91q0,19.16,10.52,29.83t29.78,10.67q18.81,0,29.15-10.49T611,124.06V37.25ZM772.89,170h-9.26L685.72,52.14H685q1.08,21.08,1.08,31.79V170h-8.82V37.25h9.18l77.82,117.69h.54q-.81-16.35-.81-31.06V37.25h8.9Zm158.36-67.65q0,33.42-17.36,50.54t-51,17.11H831.4V37.25h35.53q31.49,0,47.91,16.62T931.25,102.36Zm-10,.36q0-28.52-14.35-42.9t-42.15-14.4h-24.2V161.84h21.77Q921.28,161.84,921.27,102.72Z"/></g><g id="Path"><path class="cls-2" d="M270.6,123H217.17l-18.35,46.46H188.65L241.54,37.25h5.85L299.2,169.43H288.86Zm-50.1-8.29h47l-17.9-47.45q-2.25-5.58-5.4-15.48a144.39,144.39,0,0,1-5.3,15.66Z"/></g><g id="Path-2" data-name="Path"><polygon class="cls-2" points="340.06 169.43 340.06 37.25 349.67 37.25 349.67 169.43 340.06 169.43"/></g><g id="Oval-4"><path class="cls-1" d="M104.07,165.1H48.42v-7.21h53.21c.76-1.59,1.85-4.73,2.55-6.75,2.18-6.31,3.33-9.4,5.55-10.62,22.74-12.59,36.87-37,36.87-63.62C146.6,37.82,116,7.21,76.9,7.21S7.21,37.82,7.21,76.9a74.25,74.25,0,0,0,8,33.56H27.57l23-85.71L82.2,126.14h12V82.55h7.21v50.8H76.9L51.08,50.63l-18,67H10.89l-1-1.87A81.28,81.28,0,0,1,0,76.9C0,33.78,33.78,0,76.9,0s76.91,33.78,76.91,76.9c0,29.1-15.36,55.74-40.13,69.67A57.07,57.07,0,0,0,111,153.5c-2.38,6.87-3.64,10.22-6.25,11.32Z"/></g></g></g></g></g></svg>