<?xml version="1.0" encoding="utf-8"?>
<!-- Generator: Adobe Illustrator 23.0.4, SVG Export Plug-In . SVG Version: 6.00 Build 0)  -->
<svg version="1.1" id="Layer_1" xmlns="http://www.w3.org/2000/svg" xmlns:xlink="http://www.w3.org/1999/xlink" x="0px" y="0px"
	 viewBox="0 0 529 532" style="enable-background:new 0 0 529 532;" xml:space="preserve">
<style type="text/css">
	.st0{fill:url(#SVGID_1_);}
	.st1{fill:url(#SVGID_2_);}
	.st2{fill:url(#SVGID_3_);}
	.st3{fill:url(#SVGID_4_);}
	.st4{fill:url(#SVGID_5_);}
	.st5{fill:#8EA0FC;}
	.st6{fill:url(#SVGID_6_);}
	.st7{fill:#FFFFFF;}
	.st8{fill:#A3C5FD;}
	.st9{fill:url(#SVGID_7_);}
	.st10{fill:#B9D6FC;}
	.st11{fill:url(#SVGID_8_);}
	.st12{fill:#C1DCFD;}
	.st13{fill:url(#SVGID_9_);}
	.st14{fill:url(#SVGID_10_);}
	.st15{opacity:0.3;fill:url(#SVGID_11_);}
	.st16{opacity:0.3;fill:url(#SVGID_12_);}
	.st17{fill:url(#SVGID_13_);}
	.st18{fill:url(#SVGID_14_);}
</style>
<g>
	<linearGradient id="SVGID_1_" gradientUnits="userSpaceOnUse" x1="393.868" y1="-0.1804" x2="393.868" y2="205.7782">
		<stop  offset="0.1767" style="stop-color:#FDD8F8"/>
		<stop  offset="0.4306" style="stop-color:#FDDDF9;stop-opacity:0.6916"/>
		<stop  offset="0.7188" style="stop-color:#FEEAFB;stop-opacity:0.3415"/>
		<stop  offset="1" style="stop-color:#FFFFFF;stop-opacity:0"/>
	</linearGradient>
	<polygon class="st0" points="393.9,-0.2 426.4,102.8 458.8,205.8 393.9,205.8 328.9,205.8 361.4,102.8 	"/>
	<linearGradient id="SVGID_2_" gradientUnits="userSpaceOnUse" x1="495.996" y1="106.6377" x2="495.996" y2="215.7782">
		<stop  offset="0.1767" style="stop-color:#FDD8F8"/>
		<stop  offset="0.4306" style="stop-color:#FDDDF9;stop-opacity:0.6916"/>
		<stop  offset="0.7188" style="stop-color:#FEEAFB;stop-opacity:0.3415"/>
		<stop  offset="1" style="stop-color:#FFFFFF;stop-opacity:0"/>
	</linearGradient>
	<polygon class="st1" points="496,106.6 518.2,161.2 540.4,215.8 496,215.8 451.6,215.8 473.8,161.2 	"/>
	<linearGradient id="SVGID_3_" gradientUnits="userSpaceOnUse" x1="336.0992" y1="136.3979" x2="336.0992" y2="212.7782">
		<stop  offset="0.1767" style="stop-color:#FDD8F8"/>
		<stop  offset="0.4306" style="stop-color:#FDDDF9;stop-opacity:0.6916"/>
		<stop  offset="0.7188" style="stop-color:#FEEAFB;stop-opacity:0.3415"/>
		<stop  offset="1" style="stop-color:#FFFFFF;stop-opacity:0"/>
	</linearGradient>
	<polygon class="st2" points="336.1,136.4 351.6,174.6 367.2,212.8 336.1,212.8 305,212.8 320.5,174.6 	"/>
	<linearGradient id="SVGID_4_" gradientUnits="userSpaceOnUse" x1="23.465" y1="98.3" x2="23.465" y2="192.83">
		<stop  offset="0.1767" style="stop-color:#FDD8F8"/>
		<stop  offset="0.4306" style="stop-color:#FDDDF9;stop-opacity:0.6916"/>
		<stop  offset="0.7188" style="stop-color:#FEEAFB;stop-opacity:0.3415"/>
		<stop  offset="1" style="stop-color:#FFFFFF;stop-opacity:0"/>
	</linearGradient>
	<polygon class="st3" points="46.9,192.8 0,192.8 0,115.2 7.1,98.3 27,145.6 	"/>
	
		<linearGradient id="SVGID_5_" gradientUnits="userSpaceOnUse" x1="-1789.9135" y1="108.8636" x2="-1789.9135" y2="203.3898" gradientTransform="matrix(0.6939 0 0 1 1353.5648 0)">
		<stop  offset="0.1767" style="stop-color:#FDD8F8"/>
		<stop  offset="0.4306" style="stop-color:#FDDDF9;stop-opacity:0.6916"/>
		<stop  offset="0.7188" style="stop-color:#FEEAFB;stop-opacity:0.3415"/>
		<stop  offset="1" style="stop-color:#FFFFFF;stop-opacity:0"/>
	</linearGradient>
	<polygon class="st4" points="111.6,108.9 131.5,156.1 151.4,203.4 111.6,203.4 71.8,203.4 91.7,156.1 	"/>
</g>
<g>
	<g>
		<path class="st5" d="M329.2,308.7c-11.1,10-27.6,10.3-42.5,10.1c-95.3-1.4-190.8-7.8-274.3,46.7c-3.8,2.5-8,5.1-12.3,4.7h0
			c0-0.1,0-0.1,0-0.1V249.4c-2.2,3.1-4.4,6.2-6.5,9.2c0.6-1.7,1.1-3.4,1.8-5.1c1.1-3,2.4-6.3,4.7-8.5c0.7-0.6,1.4-1.2,2.3-1.6
			c0.8-0.4,1.7-0.7,2.6-0.9c2.8-0.6,5.8-0.2,8.7-0.2c2.5,0,4.9-0.3,7.3-0.7c3.1-0.6,6.1-1.4,9.1-2.2c7.5-2.1,17.1-4.6,27-7.6
			c3.6-1.1,7.3-2.3,11-3.5c0,0,0,0,0,0c4.1-1.4,8.2-3,12.2-4.6c4.8-2,9.3-4.2,13.4-6.7c4.6-2.8,8.7-5.8,11.8-9.2
			c1.3-1.4,2.5-2.8,3.6-4.3c0.5-0.6,0.9-1.2,1.4-1.9c1.5-2,2.8-4.1,4.2-6.2c0.2-0.3,0.4-0.6,0.6-0.9c3.3-5.1,6.4-10.1,10.5-14.4
			c3.3-3.4,7.1-6.3,12.2-8.4c0.1,0,0.2-0.1,0.2-0.1c17.4-7.2,38.3-6.4,56.8-6.4c2.1,0,4.6-0.1,7.4-0.2c23.1-0.8,65.3-4.2,79.2,9.2
			c4.4,4.3,4.5,8.7,3.4,13.1c-0.9,3.9-2.7,7.9-3.3,11.9c-0.3,2.3-0.4,4.6-0.4,6.9c0,0.8,0.1,1.7,0.1,2.5c0.1,1.3,0.2,2.6,0.4,3.9
			c1.1,8.9,3.4,17.7,1.9,26.7c-0.3,1.7-0.6,3.4-1,5.2c-1.2,6.4-2.2,13.3-0.2,19.4c0,0.1,0.1,0.3,0.1,0.4c3.1,8.2,12.4,2.9,18.5,4.3
			c3.1,0.7,5.7,2.9,8.6,4c4.8,1.9,7.8,3.4,10.8,6.2c1.3,1.2,2.5,2.7,3.9,4.4c3.1,4,8.8,7.6,10.1,12.6
			C335.7,300.6,332.8,305.5,329.2,308.7z"/>
		<g>
			
				<linearGradient id="SVGID_6_" gradientUnits="userSpaceOnUse" x1="-140.1733" y1="244.5276" x2="-140.1733" y2="51.5689" gradientTransform="matrix(-1 0 0 1 62.6599 0)">
				<stop  offset="0" style="stop-color:#75A8FC"/>
				<stop  offset="1" style="stop-color:#E2F4FD"/>
			</linearGradient>
			<path class="st6" d="M18.6,244.5c0,0,86.4-110.1,92-117.1c11.2-13.9,21.5-43.8,48.6-15.5c0,0,35.1,43.4,40.6,35.9
				c5.6-7.6,32.7-47.4,45-66.1c12.3-18.7,25.1-45.8,45-18.3c19.9,27.5,97.2,181.3,97.2,181.3H18.6z"/>
			<g>
				<path class="st7" d="M228.1,106.6c0.6-0.9,1.2-1.7,1.8-2.6c8.5,4.1,31.4,5.9,31.4,5.9C250.8,112.5,234.6,108.5,228.1,106.6z"/>
				<path class="st7" d="M233.9,101.7c0,0,62.4,1.7,73.9-8.9c1.9,3.4,3.9,7,5.9,10.7C304.6,106.5,280,111.7,233.9,101.7z"/>
				<path class="st7" d="M265.9,86.9c10.5,6.7,30.1,4.2,30.1,4.2c-8.7,8-50.1,6.6-61.5,6.1c3.9-5.9,7.5-11.3,10.4-15.5
					c12.3-18.7,25.1-45.8,45-18.3c2.6,3.6,6.2,9.4,10.5,16.7C290.8,87.4,265.9,86.9,265.9,86.9z"/>
				<path class="st7" d="M112.2,125.4c0.7-1,1.4-2,2.2-3.1c9.3,5.1,33.1,5.9,33.1,5.9C133.1,132.2,117.4,127.3,112.2,125.4z"/>
				<path class="st7" d="M119.1,115.2c8.9-13,19.8-24.6,40.2-3.3c0,0,2.3,2.9,5.9,7C138.2,123.7,124.2,118.2,119.1,115.2z"/>
			</g>
		</g>
		<g>
			<path id="XMLID_15_" class="st8" d="M176,232.4c1-0.5,1.8-0.9,2.6-1.5c-1.3,0.1-2.2,0-2.2,0c-0.1,0,3.5-1.1,4.6-2.3
				c-1.7,0.8-2.6,0.7-3.7,0.4c2.1-0.7,4.7-2.7,4.7-2.7c-1.9,0.6-3.4-0.2-3.4-0.2s2.7-0.6,4.3-1.9c-1.9,0.7-2.3,0.4-3.1,0.1
				c1.5-0.6,2.7-1.3,3.3-2.3c-0.5,0.5-1.2,0.4-1.8,0.3c0.8-0.3,1.1-0.6,1.6-1.1c-1.1,0.3-2.6,0.2-2.6,0.2c1-0.1,1.9-0.4,3.2-1.3
				c-1.4,0.4-2.8,0.6-3.6,0.1c1.1-0.2,3.3-1.1,3.7-1.8c-1,0.2-2.4,0-2.4,0c1.6-0.5,2.8-1.2,3.6-2c-0.8,0.4-1.6,0.4-2.1,0.3
				c2.7-1.1,3.6-4.5,4-6.6c0.4,2.2,1.3,5.5,4,6.6c-0.5,0.1-1.3,0.1-2.1-0.3c0.8,0.8,2,1.5,3.6,2c0,0-1.4,0.2-2.4,0
				c0.4,0.7,2.6,1.6,3.7,1.8c-0.7,0.5-2.1,0.3-3.6-0.1c1.3,0.9,2.2,1.2,3.2,1.3c0.1,0-1.5,0.1-2.6-0.2c0.5,0.5,0.7,0.8,1.6,1.1
				c-0.6,0.1-1.3,0.2-1.8-0.3c0.6,1,1.7,1.7,3.3,2.3c-0.8,0.3-1.1,0.6-3.1-0.1c1.5,1.3,4.3,1.9,4.3,1.9s-1.4,0.8-3.4,0.2
				c0,0,2.6,2.1,4.7,2.7c-1.1,0.3-1.9,0.4-3.7-0.4c1.1,1.2,4.7,2.3,4.6,2.3c-0.1,0-1,0.1-2.2,0c0.8,0.6,1.7,1,2.6,1.5
				c-0.6,0.4-1.8,0.3-2.5,0.1c0.6,0.5,1.7,0.8,2.5,1c-1.7,1.4-5.5,2.1-9.5,2v3.8h-2.6v-3.8c-3.8,0-7.7-0.7-9.4-2
				c0.8-0.2,1.8-0.5,2.4-1C177.7,232.7,176.6,232.8,176,232.4z"/>
			<linearGradient id="SVGID_7_" gradientUnits="userSpaceOnUse" x1="192.175" y1="278.86" x2="192.175" y2="180.0291">
				<stop  offset="0" style="stop-color:#8DA0FC"/>
				<stop  offset="0.8679" style="stop-color:#E2F4FD"/>
			</linearGradient>
			<path class="st9" d="M384.3,278.9H0v-29.4c1.6-2.3,3.3-4.6,4.8-6.9c7.1-10.1,13.3-19.2,15-22.1c1.5-2.6,3.2-6.2,5.3-9.2
				c0.6-0.8,1.1-1.5,1.7-2.2c0.2-0.2,0.4-0.5,0.6-0.7c1-1.1,2.1-1.9,3.3-2.4c0.2-0.1,0.3-0.1,0.5-0.2c0.1,0,0.2-0.1,0.3-0.1
				c0.1,0,0.2,0,0.2,0c0.5-0.1,1.1-0.1,1.6-0.1c0.1,0,0.2,0,0.3,0c0.1,0,0.2,0,0.2,0c0.1,0,0.2,0,0.2,0.1c0.2,0,0.4,0.1,0.6,0.2
				c0.2,0.1,0.4,0.1,0.6,0.2c0.4,0.2,0.7,0.3,1.1,0.6c0.4,0.2,0.7,0.5,1.1,0.8c0.4,0.3,0.8,0.6,1.2,1c0.2,0.2,0.3,0.4,0.5,0.6
				c0.2,0.2,0.4,0.5,0.6,0.7c0.2,0.2,0.4,0.5,0.6,0.7c0.2,0.2,0.4,0.5,0.6,0.8c0.2,0.3,0.4,0.6,0.6,0.9l0.5,0.8
				c0.2,0.2,0.3,0.4,0.5,0.6c0,0,0,0,0,0.1c1.1,1.6,2.2,3.1,3.3,4.6c0.1,0.1,0.2,0.2,0.3,0.4h0c3.5,4.8,7.2,9.2,10.5,13
				c7.3,8.3,13.3,13.4,14.5,11.5c0.3-0.5,1-1.3,2-2.6c0.7-0.8,1.5-1.8,2.4-2.9c0,0,0-0.1,0.1-0.1c1.4-1.7,3.2-3.7,5.1-5.9
				c0.1-0.1,0.1-0.1,0.2-0.2c0.2-0.2,0.4-0.5,0.6-0.8c0.3-0.3,0.6-0.7,0.9-1.1c0,0,0,0,0,0c3.3-3.9,7.1-8.4,10.7-12.8
				c3.9-4.7,7.6-9.4,10.6-13.5c0.5-0.7,1-1.4,1.5-2.1c0.4-0.6,0.9-1.3,1.3-1.9c1.2-1.7,2.3-3.4,3.4-5.1c0.3-0.4,0.5-0.8,0.8-1.2
				c0,0,0,0,0,0c0.2-0.4,0.5-0.7,0.7-1.1c0.5-0.8,1-1.5,1.5-2.2c0.2-0.3,0.5-0.7,0.7-1c0.2-0.3,0.5-0.7,0.7-1
				c0.3-0.4,0.6-0.8,0.9-1.2c0.2-0.2,0.3-0.4,0.5-0.7c0.2-0.3,0.5-0.6,0.7-0.9c0.2-0.2,0.4-0.5,0.6-0.7c0.1-0.1,0.2-0.2,0.3-0.3
				c0.2-0.2,0.4-0.4,0.6-0.6c0.9-0.9,1.8-1.6,2.7-2.2c0.1-0.1,0.3-0.2,0.4-0.2c0.2-0.1,0.5-0.3,0.8-0.4c0.1,0,0.2-0.1,0.3-0.1
				c0,0,0.1,0,0.1-0.1c0.1,0,0.2-0.1,0.3-0.1c0.2-0.1,0.3-0.1,0.5-0.2c0.1,0,0.3-0.1,0.4-0.1c0,0,0,0,0,0c0.1,0,0.3,0,0.4-0.1
				c0.1,0,0.3,0,0.4,0c0.3,0,0.6,0,0.9,0c0,0,0,0,0.1,0c0.1,0,0.2,0,0.3,0c0.1,0,0.2,0,0.3,0c0.3,0,0.6,0.1,0.8,0.2
				c0.1,0,0.2,0,0.3,0.1c0.3,0.1,0.5,0.2,0.8,0.3c0.2,0.1,0.3,0.1,0.5,0.2c0.2,0.1,0.4,0.2,0.6,0.3c0.2,0.1,0.4,0.2,0.6,0.4
				c0.2,0.1,0.4,0.3,0.6,0.4c0.2,0.2,0.4,0.3,0.6,0.5c0.2,0.2,0.4,0.4,0.6,0.6c0.2,0.2,0.4,0.4,0.7,0.6c0.2,0.2,0.4,0.4,0.7,0.7
				c0.7,0.7,1.4,1.5,2.1,2.4c1.7,2.2,3.5,4.3,5.2,6.3c1.8,2.2,3.7,4.3,5.4,6.3c1.2,1.4,2.4,2.7,3.6,4c0.8,0.9,1.6,1.7,2.4,2.5
				c0.2,0.2,0.3,0.3,0.5,0.5c1.1,1.1,2.1,2.2,3.1,3.2c2.1,2.1,4.1,4.1,6,5.9c3.1,2.9,5.9,5.5,8.3,7.7c2.5,2.2,5.3,4.8,8.1,7.2
				c0.2,0.2,0.4,0.4,0.6,0.5c0,0,0,0,0.1,0.1c1.8,1.6,3.7,3.2,5.4,4.5c0.5,0.5,1.1,0.9,1.6,1.3c0.9,0.7,1.8,1.3,2.6,1.8
				c2.2,1.4,3.8,2.1,4.6,1.5c2.1-1.6,14.7-15.5,21.7-23.1h0c0.1-0.1,0.2-0.2,0.2-0.2c1.2-1.3,2.2-2.4,3-3.2c0-0.1,0.1-0.1,0.2-0.2
				c0.7-0.7,1.4-1.5,2.3-2.4c0.2-0.2,0.5-0.5,0.7-0.7l0.7-0.7c0,0,0.1-0.1,0.1-0.1c0.3-0.3,0.6-0.6,0.9-0.8c0.6-0.6,1.2-1.1,1.9-1.7
				c0.1-0.1,0.3-0.2,0.4-0.4c0.3-0.2,0.6-0.5,0.9-0.7c1.5-1.1,3.1-2.1,4.8-2.7c0.7-0.3,1.4-0.5,2-0.6c1.4-0.3,2.8-0.3,4.2,0
				c0.2,0,0.3,0.1,0.5,0.1c0.2,0,0.4,0.1,0.5,0.2c0.7,0.2,1.4,0.6,2.1,1c0.5,0.3,1.1,0.7,1.6,1.1c0.2,0.1,0.4,0.3,0.5,0.5
				c0.2,0.1,0.4,0.3,0.5,0.5s0.4,0.4,0.5,0.5c0.9,0.9,1.8,1.8,2.6,2.6c8.1,8.4,10.6,11.5,13.2,7.9c1.2-1.6,3.6-4.9,6.3-8.5
				c0.3-0.4,0.5-0.7,0.8-1.1c0.5-0.7,1-1.4,1.5-2.1c0.4-0.6,0.9-1.2,1.3-1.8c0.7-1,1.4-1.9,2.1-2.8c0.2-0.3,0.5-0.7,0.7-1
				c0.1-0.1,0.2-0.2,0.3-0.4c0.2-0.2,0.3-0.4,0.5-0.6c0.6-0.8,1.1-1.5,1.6-2.1c0.2-0.2,0.3-0.4,0.5-0.6c0.3-0.4,0.6-0.7,0.8-1
				c0.2-0.2,0.3-0.4,0.5-0.5c0.9-1,2-2.5,3.4-3.9c0.1-0.1,0.2-0.2,0.3-0.3c1.1-1,2.3-1.9,3.8-2.4c0.2-0.1,0.5-0.2,0.7-0.2
				c0,0,0.1,0,0.1,0c0.3-0.1,0.5-0.1,0.8-0.2c0.2,0,0.4-0.1,0.7-0.1c0,0,0,0,0.1,0c0.2,0,0.5,0,0.7,0c1.1,0,2.2,0.2,3.5,0.6
				c0.6,0.2,1.3,0.5,2,0.9c0.5,0.3,1,0.6,1.6,0.9c1.6,1,3.4,2.4,5.3,4.3c1.6,1.6,4,3.9,7,6.9c1,0.9,2,1.9,3,3
				c1.3,1.3,2.8,2.7,4.2,4.2h0c1.4,1.4,2.9,2.8,4.4,4.3c0.1,0.1,0.3,0.2,0.4,0.4c2.7,2.7,5.6,5.6,8.6,8.5c0.4,0.4,0.7,0.7,1.1,1.1
				c0.5,0.4,0.9,0.9,1.3,1.3c2.5,2.5,5,5,7.6,7.5c4.4,4.4,8.9,8.8,13.2,13.1c0.1,0,0.1,0.1,0.2,0.2
				C368.2,262.8,384.3,278.9,384.3,278.9z"/>
			<path id="XMLID_14_" class="st10" d="M323.7,226.6c0.5-0.3,1.1-0.7,2.6-1.4c2-1,3.7-2.6,4.6-3.4c0.1-0.1,0-0.3-0.2-0.2
				c-1.9,0.8-4.2,1-5.6,0.9c-0.3,0-0.4-0.5-0.1-0.6c1.6-0.7,3.9-1.9,4.8-2.6c0.2-0.1,0.1-0.4-0.1-0.4c-0.6,0-1.5,0.1-2.4,0.2
				c-0.3,0-0.5-0.4-0.2-0.6c0.5-0.3,1.1-0.7,1.8-1.2l1.3-1.1c0.1-0.1,0-0.3-0.1-0.3h-0.8c-0.2,0-0.3-0.2-0.1-0.3
				c0.9-0.5,1.6-1.1,1.9-1.5c0.1-0.2,0-0.4-0.2-0.4l-2.5,0.3c-0.2,0-0.3-0.3-0.1-0.4c1.3-0.7,2.6-1.9,3.1-2.6c0.1-0.2,0-0.5-0.3-0.5
				l-1,0.1c-0.2,0-0.3-0.3-0.1-0.4c1.1-0.6,2-1.5,2.4-2c0.1-0.2,0-0.4-0.2-0.3l-1.3,0.2c-0.2,0-0.4-0.2-0.2-0.4c1.1-1,2-2,2.5-2.5
				c0.1-0.1,0-0.2-0.1-0.2c-0.2,0-0.5,0.1-0.8,0.2c-0.2,0.1-0.4-0.2-0.2-0.4c1.3-1.3,2.7-3.4,2.7-4.2c0,0.8,1.4,2.9,2.7,4.2
				c0.2,0.2,0,0.5-0.2,0.4c-0.3-0.1-0.6-0.1-0.8-0.2c-0.1,0-0.2,0.1-0.1,0.2c0.5,0.5,1.4,1.5,2.5,2.5c0.2,0.2,0,0.4-0.2,0.4
				l-1.3-0.2c-0.2,0-0.3,0.2-0.2,0.3c0.4,0.5,1.4,1.4,2.4,2c0.2,0.1,0.1,0.4-0.1,0.4l-1-0.1c-0.2,0-0.4,0.2-0.3,0.5
				c0.5,0.7,1.8,1.9,3.1,2.6c0.2,0.1,0.1,0.4-0.1,0.4l-2.5-0.3c-0.2,0-0.3,0.2-0.2,0.4c0.4,0.4,1,1,1.9,1.5c0.2,0.1,0.1,0.3-0.1,0.3
				h-0.8c-0.1,0-0.2,0.2-0.1,0.3l1.3,1c0.7,0.5,1.3,0.9,1.8,1.2c0.3,0.2,0.2,0.6-0.2,0.6c-0.8-0.1-1.8-0.1-2.4-0.2
				c-0.2,0-0.3,0.2-0.1,0.4c0.9,0.7,3.3,1.9,4.8,2.6c0.3,0.1,0.2,0.6-0.1,0.6c-1.5,0-3.7-0.1-5.6-0.9c-0.1-0.1-0.3,0.1-0.2,0.2
				c0.8,0.8,2.6,2.4,4.6,3.4c1.5,0.8,2.1,1.1,2.6,1.4c0.3,0.2,0.2,0.6-0.2,0.6c-1.1,0-2.6,0-3.9-0.1c-1.5-0.1-2.5-0.4-3.1-0.5
				c-0.1,0-0.3,0.1-0.2,0.2c0.4,0.5,1.3,1.5,2.9,2.5c0.3,0.2,0.1,0.6-0.2,0.6c-1.3,0-3.8-0.2-5.4-0.9v3.6h-2.7v-3.6
				c-1.6,0.7-4,0.9-5.3,0.9c-0.3,0-0.4-0.4-0.2-0.6c1.6-1,2.5-2,2.9-2.5c0.1-0.1,0-0.3-0.2-0.2c-0.6,0.2-1.6,0.4-3.1,0.5
				c-1.3,0.1-2.8,0.1-3.9,0.1C323.5,227.3,323.4,226.8,323.7,226.6z"/>
			<g>
				<path class="st7" d="M23.2,216.7c0,0,13.8,1.9,14.8,0.5c0,0-9.7-0.6-12.9-5.9c4.1-5.9,9.4-9.5,16.7,1c1.5,2.2,3.1,4.4,4.7,6.5
					C42.9,219.5,31.1,221.3,23.2,216.7z"/>
				<path class="st7" d="M129.6,209.9c0,0,16.6,0.9,25.7-0.3c2.1,2.1,4.1,4.1,6,6C155.4,216.2,139.8,217.1,129.6,209.9z"/>
				<path class="st7" d="M106.9,199.4c9.6-14,15.9-28.2,28.2-12.7c1.7,2.2,3.4,4.3,5.2,6.3c-9.1,3.2-27.3,1.1-27.3,1.1
					c9.3,7.3,25.7,6.1,32.8,5.2c2.2,2.4,4.3,4.8,6.4,7C124.8,209.2,112,203.2,106.9,199.4z"/>
				<path class="st7" d="M220,211c5.5-5.7,14.2-13.5,23-4.6c0.9,0.9,1.8,1.8,2.6,2.6C244.1,212,238.9,215.7,220,211z"/>
				<path class="st7" d="M241.6,214.7c0,0-8.3,8.8-27.3,2.3c1.3-1.4,2.4-2.6,3.3-3.5C219.8,214.2,234.8,219,241.6,214.7z"/>
				<path class="st7" d="M295.1,215.6c0,0,12.8-3.4,17.8-7.5c1.4,1.4,2.9,2.8,4.4,4.3C314.8,213.9,308.6,216.1,295.1,215.6z"/>
				<path class="st7" d="M301.4,208c-18.9,8.5-31.9,3-36.4,0.4c0.8-1,1.5-2.1,2.3-3.1C278.6,211.3,301.4,208,301.4,208z"/>
				<path class="st7" d="M268.7,203.5c2.9-3.9,5.6-7.5,6.9-9.1c3.2-3.8,9.5-13.7,23-0.4c1.6,1.6,4,3.9,7,6.9
					C288,210.1,272.6,205,268.7,203.5z"/>
			</g>
		</g>
		<g>
			
				<linearGradient id="SVGID_8_" gradientUnits="userSpaceOnUse" x1="-379.6666" y1="244.5276" x2="-379.6666" y2="152.5412" gradientTransform="matrix(-1 0 0 1 62.6599 0)">
				<stop  offset="0" style="stop-color:#75A8FC"/>
				<stop  offset="1" style="stop-color:#E2F4FD"/>
			</linearGradient>
			<path class="st11" d="M404.7,198.4c3.5-3.6,20.5-22.6,28.2-31.5c7.7-8.9,15.7-21.8,28.2-8.7c12.5,13.1,60.9,86.4,60.9,86.4H362.8
				L404.7,198.4z"/>
			<g>
				<path class="st7" d="M422.4,178.8c0.4-0.4,0.7-0.8,1.1-1.2c5.4,2,19.7,2.8,19.7,2.8C436.6,181.6,426.4,179.7,422.4,178.8z"/>
				<path class="st7" d="M426,176.5c0,0,39.1,0.8,46.3-4.2c1.2,1.6,2.4,3.3,3.7,5.1C470.3,178.7,454.8,181.2,426,176.5z"/>
				<path class="st7" d="M446,169.4c6.6,3.2,18.9,2,18.9,2c-5.4,3.8-31.4,3.2-38.5,2.9c2.5-2.8,4.7-5.4,6.5-7.4
					c7.7-8.9,15.7-21.8,28.2-8.7c1.6,1.7,3.9,4.5,6.6,8C461.6,169.6,446,169.4,446,169.4z"/>
			</g>
			<path id="XMLID_13_" class="st12" d="M67.4,232.6c0.5-0.4,1-0.8,1.4-1.2c-2.1,0.5-0.7-1.5-0.7-1.5c-2.5,0.1-0.7-1.4-0.7-1.4
				c1.7-1.2,3.4-3.2,3.4-3.2c-1.7,0.4-0.7-1-0.7-1c-2.2,0.6-0.5-0.9-0.5-0.9c1.1-0.8,2.3-2.6,2.3-2.6c-1.7,0.7-0.7-0.6-0.7-0.6
				c-2,0.6-0.4-0.8-0.4-0.8c2.3-2.1,3.4-4.4,3.8-5.3l0,0c0-0.1,0.1-0.1,0.1-0.2c0,0,0.1,0,0.1,0.1c0,0,0,0,0.1-0.1
				c0,0.1,0.1,0.1,0.1,0.2l0,0c0.4,0.9,1.5,3.2,3.8,5.3c0,0,1.6,1.5-0.4,0.8c0,0,1,1.3-0.7,0.6c0,0,1.3,1.7,2.3,2.6
				c0,0,1.8,1.5-0.5,0.9c0,0,1,1.4-0.7,1c0,0,1.6,2,3.4,3.2c0,0,1.8,1.5-0.7,1.4c0,0,1.4,2-0.7,1.5c0.4,0.4,0.9,0.8,1.4,1.2
				c0,0,1.8,1.5-0.7,1.4c0,0,1.6,2.3-1.3,1.3c0,0,1.5,2.2-1.8,1.1c0,0,1,1.9-1.6,0.6c0,0,0.2,0.7,0.2,0.9h-0.5
				c-0.1,0-0.3-0.1-0.6-0.2v3.1h-2.4v-3.2c-0.2,0.2-0.3,0.3-0.4,0.3h-0.5c-0.1-0.2,0.2-0.9,0.2-0.9c-2.6,1.3-1.6-0.7-1.6-0.7
				c-3.3,1.1-1.8-1-1.8-1c-2.9,1-1.3-1.3-1.3-1.3C65.6,234.1,67.4,232.6,67.4,232.6z"/>
		</g>
		<linearGradient id="SVGID_9_" gradientUnits="userSpaceOnUse" x1="264.31" y1="236.0773" x2="264.31" y2="542.5092">
			<stop  offset="0" style="stop-color:#6BEAF9"/>
			<stop  offset="0.2127" style="stop-color:#69D3FB"/>
			<stop  offset="0.5098" style="stop-color:#68BAFD"/>
			<stop  offset="0.7808" style="stop-color:#66ABFF"/>
			<stop  offset="1" style="stop-color:#66A6FF"/>
		</linearGradient>
		<path class="st13" d="M528.7,244.4c-1.3,0-2.6,0-3.9,0c-12,0.3-17.6,13-24.7,21.5c-9.4,11.2-19,22.4-29.1,33
			c-19.5,20.4-41.1,39.2-66,52.7c-4.8,2.6-10.8,5-15.6,2.4c-3-1.7-4.8-4.9-6.3-8c-6.8-12.9-14.4-25.3-22.8-37.2
			c-2.4-3.5-5.8-7.2-9.9-6.7c-2.1,0.3-3.8,1.6-5.4,2.9c-21.7,17.6-36.5,41.9-51,65.3c-18.3,29.5-38.8,57.4-57.5,86.3
			c-12.4,19.2-38.8,57.2-64.2,33.4c-15.4-14.4-25.1-41.7-35.2-60.2c-1.8-3.4-4-7-7.5-8.4c-6.4-2.5-12.9,3.3-17.3,8.5
			c-8.7,10.3-16.6,20.9-24.9,31.3c-17,16.8-37,17.1-54.6,29.4C18,500.8,7.3,519.6,0,537.4V370.3h0c0-0.1,0-0.1,0-0.1
			c0.8-2.4,1.8-4.7,3-6.9c4.8-8.7,13.2-14.8,21.3-20.7c15.2-10.9,30.7-22,48.2-28.5c36-13.5,76.8-8.5,114.3-14.5
			c35.2-5.6,77.3-9.5,112.9-3.7c3.8,0.6,7.6,1.3,11.4,1c3.9-0.3,7.6-1.7,10.7-4c-1.7-5.4-4.9-10.2-9.1-14c-4.2-3.7-9.2-6.3-14.7-7.3
			c-5.9-1.1-13.2-1.2-16.2-6.4c0.2-0.3,0.5-0.5,0.8-0.8c3.5-2.8,12.6-1.5,16.3-1.4c14.5,0.7,29,2.3,43.3,5c14.2,2.6,16.3-4.2,5-11.7
			c-3.3-2.1-6.1-6.6-3.7-9.7c0.9-1,2.1-1.8,3.4-2.1c0.4-0.1,0.9-0.2,1.3-0.2h1.2c4.6,0,9,0,13.3,0c3.4,0,6.8,0.1,10.1,0.1
			c7,0.1,14,0.1,21.4,0.1c11.2,0,22.5-0.1,33.7-0.1c21.5-0.1,43-0.1,64.4-0.1H528.7z"/>
		<linearGradient id="SVGID_10_" gradientUnits="userSpaceOnUse" x1="659.99" y1="244.3821" x2="659.99" y2="244.6749">
			<stop  offset="0" style="stop-color:#6BEAF9"/>
			<stop  offset="0.2127" style="stop-color:#69D3FB"/>
			<stop  offset="0.5098" style="stop-color:#68BAFD"/>
			<stop  offset="0.7808" style="stop-color:#66ABFF"/>
			<stop  offset="1" style="stop-color:#66A6FF"/>
		</linearGradient>
		<path class="st14" d="M782,244.4L782,244.4c0,0,0,0.1,0,0.3c-14.2-0.1-138.3-0.2-152.4-0.2h-80.7c-3.6,0-7.3,0-10.9-0.1H782z"/>
		<linearGradient id="SVGID_11_" gradientUnits="userSpaceOnUse" x1="-13.5232" y1="770" x2="-13.5232" y2="625.74">
			<stop  offset="0" style="stop-color:#91BAFD;stop-opacity:0"/>
			<stop  offset="9.734267e-02" style="stop-color:#A8C9FD;stop-opacity:9.734267e-02"/>
			<stop  offset="0.2549" style="stop-color:#C8DCFE;stop-opacity:0.2549"/>
			<stop  offset="0.4196" style="stop-color:#E0ECFE;stop-opacity:0.4196"/>
			<stop  offset="0.5922" style="stop-color:#F1F6FF;stop-opacity:0.5922"/>
			<stop  offset="0.7779" style="stop-color:#FCFDFF;stop-opacity:0.7779"/>
			<stop  offset="1" style="stop-color:#FFFFFF"/>
		</linearGradient>
		<path class="st15" d="M-18.6,627.5c4.1,15.8,7.4,99.1,14.6,142.5c-8.7-14.4-14.1-31.2-16.7-47.8c-4.2-26.1-2.1-52.8,0.1-79.2
			c0.5-5.7,1-11.5,1.5-17.3C-18.9,626.3-18.7,626.9-18.6,627.5z"/>
		<linearGradient id="SVGID_12_" gradientUnits="userSpaceOnUse" x1="533.3199" y1="244.39" x2="533.3199" y2="244.3711">
			<stop  offset="0" style="stop-color:#91BAFD;stop-opacity:0"/>
			<stop  offset="9.734267e-02" style="stop-color:#A8C9FD;stop-opacity:9.734267e-02"/>
			<stop  offset="0.2549" style="stop-color:#C8DCFE;stop-opacity:0.2549"/>
			<stop  offset="0.4196" style="stop-color:#E0ECFE;stop-opacity:0.4196"/>
			<stop  offset="0.5922" style="stop-color:#F1F6FF;stop-opacity:0.5922"/>
			<stop  offset="0.7779" style="stop-color:#FCFDFF;stop-opacity:0.7779"/>
			<stop  offset="1" style="stop-color:#FFFFFF"/>
		</linearGradient>
		<path class="st16" d="M538,244.4h-9.3C531.8,244.4,534.9,244.4,538,244.4z"/>
	</g>
</g>
<linearGradient id="SVGID_13_" gradientUnits="userSpaceOnUse" x1="-3.235" y1="245.08" x2="-3.235" y2="258.65">
	<stop  offset="0.1767" style="stop-color:#FDD8F8"/>
	<stop  offset="0.4306" style="stop-color:#FDDDF9;stop-opacity:0.6916"/>
	<stop  offset="0.7188" style="stop-color:#FEEAFB;stop-opacity:0.3415"/>
	<stop  offset="1" style="stop-color:#FFFFFF;stop-opacity:0"/>
</linearGradient>
<path class="st17" d="M0,245.1v4.4c-2.2,3.1-4.4,6.2-6.5,9.2c0.6-1.7,1.1-3.4,1.8-5.1C-3.6,250.5-2.3,247.3,0,245.1z"/>
<linearGradient id="SVGID_14_" gradientUnits="userSpaceOnUse" x1="-1.998901e-02" y1="370.12" x2="-1.998901e-02" y2="370.26">
	<stop  offset="0.1767" style="stop-color:#FDD8F8"/>
	<stop  offset="0.4306" style="stop-color:#FDDDF9;stop-opacity:0.6916"/>
	<stop  offset="0.7188" style="stop-color:#FEEAFB;stop-opacity:0.3415"/>
	<stop  offset="1" style="stop-color:#FFFFFF;stop-opacity:0"/>
</linearGradient>
<path class="st18" d="M0,370.3c0-0.1,0-0.1,0-0.1L0,370.3L0,370.3z"/>
<g>
</g>
<g>
</g>
<g>
</g>
<g>
</g>
<g>
</g>
<g>
</g>
<g>
</g>
<g>
</g>
<g>
</g>
<g>
</g>
<g>
</g>
<g>
</g>
<g>
</g>
<g>
</g>
<g>
</g>
</svg>
