<svg xmlns="http://www.w3.org/2000/svg" viewBox="0 0 682.72 560.39"><defs><style>.cls-1,.cls-2{fill:#fff;}.cls-1{fill-rule:evenodd;}</style></defs><title>Asset 1</title><g id="Layer_2" data-name="Layer 2"><g id="Layer_1-2" data-name="Layer 1"><path class="cls-1" d="M578.06,496q0,18.74,11.63,31.28t29.13,12.55q17.5,0,29-12.3t11.51-31q0-19-11.38-31.47T618.89,452.7q-17.45,0-29.14,12.3T578.06,496Zm-23-.06q0-28.07,17.94-45.93t46.14-17.87q27.84,0,45.72,18.12t17.87,46.3q0,27.81-17.87,45.81t-46,18q-28.33,0-46.09-18.06T555.05,496Zm-87.11-49.58v-1.73q0-9.39,10.89-9.4h8.91V416.47q0-11.87,11.13-11.87h2.48q10.88,0,10.88,11.87v18.79H540q10.63,0,10.63,9.15v1.74q0,9.64-11,9.64H512v61.45q0,11.61,3.71,17.12t12.49,5.5a20.47,20.47,0,0,0,17.32-8.65c.33-.33,1-.17,2.11.49a11,11,0,0,1,3.27,3.77,12.09,12.09,0,0,1,1.67,6.37q0,7.29-7.73,12.92t-20.6,5.63q-36.5,0-36.49-40.31V455.79h-8.91Q467.94,455.79,467.94,446.39ZM373.29,486h73q-1-16-10.15-25.35t-24.37-9.4A36.56,36.56,0,0,0,386.15,461Q375.52,470.75,373.29,486Zm-26,10.88q0-27.82,17.69-46.24t44.54-18.43q26.34,0,42.43,17T468,493.5v2c0,2.73-.53,4.64-1.6,5.75s-3.06,1.67-5.94,1.67h-89.7q1.25,16.7,12.68,27.2t28.64,10.51q26.35,0,38.23-20.27c.33-.33,1.51-.21,3.53.37a16.07,16.07,0,0,1,6.37,4,10.48,10.48,0,0,1,3.34,8q0,9.39-14.6,18.55t-37.36,9.15q-28.83,0-46.58-17.5T347.25,496.84Zm-82.84-50.69v-1.74q0-9.15,11.13-9.15h14.23v-9.14q0-44.76,38.84-44.76,13.5,0,20.42,4.64T356,397.8a12.84,12.84,0,0,1-1.43,6.06,12.23,12.23,0,0,1-2.9,3.9c-1,.78-1.57,1.09-1.74.92q-7-7-18.31-7-9.15,0-13.3,5.93t-4.14,18.8v8.89h20.54q11.13,0,11.13,9.4v1.73q0,9.41-11.13,9.4h-20v90.38q0,11.87-10.89,11.87h-2.6q-11.38,0-11.38-11.87V455.79H275.54Q264.41,455.79,264.41,446.15Zm-86.37,78a15.49,15.49,0,0,0,6.12,12.92q6.12,4.75,17,4.76,16.46,0,27-9.21T238.66,509v-9.39l-6.93.24q-27.34,1-40.52,6.62T178,524.16Zm-24.5,1q0-20.77,20-30.66t61.8-10.64h3.34v-2.47q0-14-7.74-21.32t-22.45-7.36q-24.61,0-35,20.77c0,.33-1.26.29-3.77-.12A17.67,17.67,0,0,1,162,469.7a9.93,9.93,0,0,1-4-8.35q0-10.14,14.23-19.66t38-9.52q25.86,0,39.53,12.68t13.67,36v74.67q0,1-2.91,1.86a21.55,21.55,0,0,1-6.12.86q-15.23,0-15.47-19.78a47.22,47.22,0,0,1-18.37,15.64A56.47,56.47,0,0,1,195,559.89q-19.31,0-30.38-9.52T153.54,525.15ZM0,475.57q0-37.71,23.32-61.69t60.06-24q27.6,0,44.73,12.05t17.13,22.69a12,12,0,0,1-3.71,9.09,19.55,19.55,0,0,1-7.48,4.7c-2.52.78-3.86.93-4,.43a46.48,46.48,0,0,0-19.49-18.73,57.34,57.34,0,0,0-26.91-6.61q-24.87,0-40.7,17.06T27.09,475q0,27.07,16.09,44.45t40.95,17.37q16.7,0,29.5-7.73a41.33,41.33,0,0,0,17.88-20.83c.16-.49,1.61-.41,4.33.25a18.53,18.53,0,0,1,8,4.51,11.69,11.69,0,0,1,3.9,9.09q0,11.63-17.88,25t-47.2,13.36q-36.49,0-59.57-23.68T0,475.57Z"/><path class="cls-2" d="M372.53.07c-13.57-.88-25.84,6.23-29,23.69-7.92,43.45,1.72,83.42,8.34,125,7.15,44.86,12.24,92-.39,128.21-6.31,18.07,3.29,21.38,16,21.38,54,0,99.41-67.4,99.41-151.5,0-84.52-38.51-143.11-94.31-146.73"/><path class="cls-2" d="M340.43,234.09l-42.8-.09c-10.17,0-17.94-7.29-17.94-17.65v-13c0-5-3.78-6.23-5.44-6.23H256.56v4.18h-18V182.11h18v4.8h17.69c9.14,0,15.68,7.31,15.68,16.46v13c0,3.82,2.48,7.41,7.7,7.41l42.28.23c-1.72-24.74-6.72-49-10.67-73.76-4.44-27.87-8.08-56.63-7.18-83.09-4.3-3.43-19.66-13.33-24.6-13.33H281.14v4h-18v-18h18v3.8h16.32c4.92,0,22.25,9.06,25.44,10.92A139.13,139.13,0,0,1,329.63,22C335.94,4,326.34.64,313.65.64c-29.07,0-55.64,19.56-74,50.73,14.42,11.9,42.55,35.55,44.76,38.46,5.55,7.33,5.5,15,5.5,19.54v36.1c.24.19.48.39.71.61h3.59v18h-18V152.44s0-.05,0-.07,0,0,0-.06v-6.23H279a8.29,8.29,0,0,1,.72-.61v-36.1c0-3.71.05-8.69-3.42-13.27-1.85-2.17-27.12-22.73-42-34.86-12.54,25.26-20.05,56.7-20.05,90.89v.08l26.21-.11a4.63,4.63,0,0,0,4.42-4.52V129.73h-4.67v-18h18v18h-3.08v17.85c0,7-5.64,14.75-14.66,14.75l-26,0c1.24,32.95,8.49,61.56,20.42,84H267c4.7,0,8.39,1.13,11.27,4.21.78.84,2.23,2,3.74,3.59l2.68-2.87L298,263.28l-13,14.25L271.7,265.45l3.16-3.49c0-.1,0-.2.05-.32-1.64-1.72-3.27-3.26-4.11-4.16-.61-.64-1.45-1-3.8-1H240.94c16.58,25.25,40,40.55,67.61,42.35,13.57.88,25.84-6.23,29-23.69A194.52,194.52,0,0,0,340.43,234.09Z"/></g></g></svg>