<svg xmlns="http://www.w3.org/2000/svg" viewBox="0 0 915.56 195.05"><defs><style>.cls-1{fill:#f7f7f7;}</style></defs><title>vanhack-white</title><g id="Layer_2" data-name="Layer 2"><g id="Layer_1-2" data-name="Layer 1"><path class="cls-1" d="M699.92,124.33c-4.39,1.29-6.45,4.64-6.19,8.26.51,3.35,3.35,5.67,8,6.19,4.39.25,8.77-.78,13.42-1.55,3.09-.52,4.64-1.81,4.38-5.42-.26-8.77,0-8.77-10.32-8.51a38.11,38.11,0,0,0-9.28,1ZM744.29,114c0,6.19.25,12.39,0,18.58-.26,3.87,1.29,5.67,5.16,5.93,2.32,0,2.57,1,2.57,3.09a118.06,118.06,0,0,0-.51,13.42c0,1.8-.78,2.84-2.84,2.84-6.45,0-12.9,0-19.09-2.07-2.32-.77-4.9-2.06-6.19-4.38-1.29-2.58-2.58-1.55-4.13-.52-10.31,7.22-21.4,9.29-33.53,5.68-10.06-2.84-15.73-10.06-16.51-20.64-.77-11.87,3.87-20.12,13.67-24.25,7-3.09,14.45-3.61,22.19-3.87,3.87,0,7.74-.25,11.61,0,2.32,0,2.83-.77,2.83-2.83,0-7.74-1.8-10.06-9.54-11.35-9.29-1.29-18.32.77-27.34,2.58-2.33.51-3.36.25-4.13-2.33-1-4.38-2.32-8.77-3.61-12.89-.52-1.81-.52-2.58,1.55-3.36a90.66,90.66,0,0,1,49-4.12C737.84,75.84,743.77,83.32,744,96c.26,6.19,0,12.12.26,18.05Zm-312.38,11.1c0-1-.26-2.07-1.55-1.81-6.19.26-12.38-.77-18.31,1.29-4.13,1.55-5.94,4.38-5.42,8.25.26,3.1,3.1,5.42,7.22,5.94a37.34,37.34,0,0,0,11.87-1c6.45-1.55,6.45-1.55,6.19-7.74Zm25-10.06c0,5.93.26,11.86,0,17.79-.26,3.62,1.29,5.68,4.9,5.68,2.32,0,2.84,1,2.58,3.09-.26,4.65-.52,9.55-.77,14.19,0,1.29-.26,2.07-1.81,2.07-7.74.25-15.48.25-22.7-3.36a6,6,0,0,1-3.09-2.58c-1.55-3.09-2.84-1.8-4.9-.51a37.35,37.35,0,0,1-33.28,5.41c-10.06-2.83-15.48-10.06-16-20.63-.78-12.13,3.35-19.86,13.41-24.25,6.45-2.84,13.41-3.61,20.38-3.87,4.64-.26,9.54,0,14.19,0,1.8,0,2.57-.51,2.57-2.58.26-7.74-2.06-10.57-9.8-11.61-9.28-1.29-18.31.78-27.34,2.58-2.58.52-3.35.26-4.13-2.32-1-4.38-2.32-9-3.61-13.41-.51-1.55,0-2.32,1.55-3.1,16.51-6.19,33.53-8,50.82-3.87,11.6,2.84,17,10.06,17.28,22.19-.26,6.45-.26,12.64-.26,19.09ZM803.87,72.48a55.28,55.28,0,0,1,23.22,3.87c2.32,1,2.84,2.07,1.8,4.39-1.8,4.13-3.09,8.51-4.64,12.64-.77,2.32-1.81,2.84-3.87,1.8a49.48,49.48,0,0,0-18.31-2.58c-10.06.52-16.51,6.45-18.06,16.25a50.43,50.43,0,0,0,0,15.22c1.29,8,5.93,12.39,14.19,13.68a66.56,66.56,0,0,0,23.73-1c2.32-.51,3.09,0,3.35,2.32a129,129,0,0,0,2.58,13.68c.52,2.06.26,2.83-2.06,3.35a90.48,90.48,0,0,1-41.53.26c-16-3.61-25-14.45-26.83-31-.77-8-1-16.25,1-24.24,4.65-16.77,19.09-28.12,37.15-29.41a48.62,48.62,0,0,0,8.25.77ZM497.43,81.77c2.84-1.55,5.42-3.1,8-4.64a41.83,41.83,0,0,1,27.86-4.39c11.87,2.32,17.29,8.77,18.32,20.64,1,9.54.51,18.83.51,28.37v32c0,2.58-.51,3.61-3.35,3.61-6.19-.26-12.64-.26-18.83,0-2.58,0-3.35-.77-3.35-3.35V108.08a67.57,67.57,0,0,0-.52-7.48c-1-4.38-2.84-6.19-7.48-6.45a44.64,44.64,0,0,0-18.31,2.58c-2.58,1-3.62,2.06-3.62,5.16.26,17.28,0,34.57.26,51.85,0,2.84-.51,3.87-3.61,3.87-6.19-.26-12.64-.26-18.83,0-2.32,0-3.09-.52-3.09-3.1V76.87c0-2.32.77-2.84,2.83-2.84,6.19,0,12.64.26,18.83,0,3.1,0,4.13.78,3.87,3.87a5,5,0,0,0,.52,3.87Zm63.2,21.67V53.14c0-2.84.77-3.36,3.35-3.36,6.45.26,13.15.26,19.6,0,2.32,0,3.1.78,3.1,3.1,0,12.38,0,24.5-.26,36.89,0,3.35,1,4.12,4.13,3.87,12.64-.26,25.54-.26,38.17,0,2.84,0,3.62-.78,3.62-3.62-.26-12.38,0-24.5-.26-36.88,0-2.84.77-3.36,3.35-3.36,6.71.26,13.41,0,20.12,0,2.06,0,2.84.52,2.84,2.58V154.77c0,2.32-1,2.84-3.1,2.84-6.7,0-13.41-.26-20.12,0-2.58,0-3.09-1-3.09-3.36V116.59c0-2.58-.52-3.35-3.36-3.35-13.15.26-26.31.26-39.2,0-2.58,0-3.36.77-3.36,3.35,0,12.38,0,24.77.26,37.15,0,3.35-1,4.13-4.13,3.87-6.19-.26-12.12-.26-18.31,0-3.35.26-3.87-1-3.87-4.13.52-17,.52-33.79.52-50Zm354.68,40.5c-1.81,3.61-1.81,7.73-2.32,11.6-.26,2.84-1,3.87-4.13,3.61-13.93-.77-25-5.93-33-17.54-4.13-5.93-8.77-11.35-13.67-17.79v30.43c0,2.33-.52,3.1-3.1,3.1h-19.6c-2.06,0-2.84-.52-2.84-2.84V45.14c0-2.32.78-2.84,2.84-2.84,6.45.26,13.15.26,19.6,0,2.84,0,3.1,1,3.1,3.36V105l10.06-13.42c3.87-5.16,7.48-10.06,11.35-15.22.77-1,1.29-2.06,2.84-2.06h26.05L896.73,94.15c-4.12,5.42-8.51,10.58-12.64,16-1.28,1.55-1.8,2.84,0,4.65l13.16,14.7c4.9,5.42,11.35,8.51,18.31,10.83l-.25,3.62ZM269.92,49.78c8,0,16.25,0,24.5-.25,2.32,0,3.36.77,3.87,3.09q12,39.85,24,79.71l1.81,5.42c2.58-6.71,4.64-12.64,7-18.84,8-21.92,15.74-43.85,23.47-65.77.78-2.58,2.07-3.61,4.91-3.36q9.66.39,19.34,0c3.1,0,3.61.52,2.32,3.62Q367.17,89,353.23,124.59c-3.86,9.8-7.73,19.6-11.35,29.41-1,2.58-2.06,3.87-5.15,3.61q-13.16-.39-26.32,0c-2.83,0-3.86-1-4.9-3.61-11.35-33.54-22.7-67.07-34.3-100.6a9.61,9.61,0,0,0-1.29-2.84v-.78Z"/><path class="cls-1" d="M237.67.77c-2.32,7.48-4.38,15-6.45,22.45-16.5,56.23-33,112.2-49.52,168.44-.78,2.32-1.55,3.09-4.13,3.09-14.44-.26-28.63,0-43.08,0a7.2,7.2,0,0,1-2.06-.26c2.06-7.22,4.13-14.18,6.19-21.15,4.64-16,9.29-32,14.19-47.72.77-2.58.26-3.35-2.58-3.35H113.08c-4.38,0-4.38,0-3.09-4.39,3.35-12.89,7-26,10.32-38.95.51-2.32,1.54-3.09,4.12-3.09,13.16.26,26.31.26,39.47.51,2.84,0,3.87-1,4.64-3.61,6.71-23.47,13.67-46.69,20.64-70.16C189.69,1.29,190,0,192,0h45.39c-.51.52-.25.77.26.77"/><path class="cls-1" d="M17.38,48.75l32,62.68c1-3.86,2.06-7.22,3.09-10.31C62,68.61,71.55,35.86,81.1,3.35,81.87.77,82.9.26,85.48.26h45.14C128,8.77,125.72,16.77,123.4,25,107.15,80.48,90.9,135.68,74.65,191.14c-.78,3.1-2.06,3.87-5.16,3.87-11.61-.26-23.47-.26-35.08,0a3.41,3.41,0,0,1-3.87-2.58C20.48,170.25,10.68,148.06.62,125.62a6.44,6.44,0,0,1-.52-3.87c5.42-23.73,11.35-48,17.28-73"/></g></g></svg>