<?xml version="1.0" encoding="utf-8"?>
<!-- Generator: Adobe Illustrator 22.0.0, SVG Export Plug-In . SVG Version: 6.00 Build 0)  -->
<svg version="1.1" id="Layer_1" xmlns="http://www.w3.org/2000/svg" xmlns:xlink="http://www.w3.org/1999/xlink" x="0px" y="0px"
	 viewBox="0 0 313 313" style="enable-background:new 0 0 313 313;" xml:space="preserve">
<style type="text/css">
	.st0{fill:url(#SVGID_1_);}
	.st1{fill:none;stroke:#FF864E;stroke-miterlimit:10;stroke-dasharray:10.3936,10.3936;}
	.st2{fill:none;stroke:#FC2C8C;stroke-width:2;stroke-miterlimit:10;stroke-dasharray:8.9087,8.9087;}
	.st3{fill:none;stroke:#FF864E;stroke-miterlimit:10;}
	.st4{fill:none;stroke:#FF864E;stroke-miterlimit:10;stroke-dasharray:9.4479,9.4479;}
	.st5{fill:none;stroke:#FF864E;stroke-miterlimit:10;stroke-dasharray:9.372,9.372;}
	.st6{fill:none;stroke:#FF864E;stroke-miterlimit:10;stroke-dasharray:9.7403,9.7403;}
	.st7{fill:none;stroke:#FF864E;stroke-miterlimit:10;stroke-dasharray:10.0865,10.0865;}
	.st8{fill:none;stroke:#FF864E;stroke-miterlimit:10;stroke-dasharray:9.2718,9.2718;}
	.st9{fill:#FFFFFF;}
	.st10{fill:#FFFFFF;stroke:url(#path1948_1_);stroke-width:2;stroke-miterlimit:10;}
	.st11{fill:#FFFFFF;stroke:url(#path1950_1_);stroke-width:2;stroke-miterlimit:10;}
	.st12{fill:#FE6366;stroke:#FFFFFF;stroke-miterlimit:10;}
</style>
<g>
	<g>
		<linearGradient id="SVGID_1_" gradientUnits="userSpaceOnUse" x1="51.987" y1="156.5" x2="261.013" y2="156.5">
			<stop  offset="0" style="stop-color:#FC2C8C"/>
			<stop  offset="1" style="stop-color:#FF864E"/>
		</linearGradient>
		<circle class="st0" cx="156.5" cy="156.5" r="104.5"/>
	</g>
	<g>
		<g>
			<path class="st1" d="M254.9,262.4c-4.6-0.5-9.3,0.8-13,4.1c-6.8,6.1-7.3,16.6-1.2,23.4c2.4,2.6,5.4,4.3,8.7,5
				c5.1,1.1,10.6-0.1,14.7-3.9c6.8-6.1,7.3-16.6,1.2-23.4C262.4,264.7,258.7,262.9,254.9,262.4z"/>
		</g>
		<g>
			<g>
				
					<ellipse transform="matrix(0.7071 -0.7071 0.7071 0.7071 -64.8244 156.5)" class="st2" cx="156.5" cy="156.5" rx="124.8" ry="124.8"/>
			</g>
			<g>
				<g>
					<g>
						<path class="st3" d="M265.4,268c1.1-1.1,2.3-2.2,3.4-3.4"/>
						<path class="st4" d="M275.1,257.6c23.2-27.2,37.2-62.5,37.2-101.1c0-46.1-20-87.5-51.9-116.1"/>
						<path class="st3" d="M256.9,37.3c-1.2-1-2.4-2-3.7-3"/>
					</g>
				</g>
				<g>
					<g>
						<path class="st3" d="M12.6,96.5c-0.6,1.5-1.2,2.9-1.8,4.4"/>
						<path class="st5" d="M7.8,109.8c-4.6,14.7-7.1,30.4-7.1,46.7c0,86.1,69.8,155.8,155.8,155.8c27.1,0,52.6-6.9,74.8-19.1"/>
						<path class="st3" d="M235.4,290.9c1.4-0.8,2.7-1.6,4.1-2.5"/>
					</g>
				</g>
				<g>
					<g>
						<path class="st3" d="M217.8,13.2c-1.5-0.6-2.9-1.2-4.4-1.8"/>
						<path class="st6" d="M204.2,8.1c-15-4.8-31.1-7.4-47.7-7.4c-49.9,0-94.3,23.5-122.8,59.9"/>
						<path class="st3" d="M30.7,64.5c-0.9,1.3-1.9,2.6-2.8,3.9"/>
					</g>
				</g>
			</g>
		</g>
		<g>
			<path class="st7" d="M30.9,70.7c-2-2-4.6-3.5-7.6-4.2c-8.6-2-17.3,3.3-19.3,12c-1.5,6.2,0.9,12.4,5.5,16.2c1.8,1.5,4,2.6,6.4,3.2
				c8.6,2,17.3-3.3,19.3-12C36.6,80.1,34.7,74.5,30.9,70.7z"/>
		</g>
		<g>
			<path class="st8" d="M233.5,2.1c-8,1-14.3,6.5-16.8,13.6c-1.1,3-1.4,6.2-1,9.6c1.5,11.3,11.9,19.3,23.2,17.8
				c7-0.9,12.7-5.2,15.7-11c1.9-3.6,2.7-7.8,2.1-12.1C255.2,8.6,244.8,0.6,233.5,2.1z"/>
		</g>
	</g>
	<g>
		<path class="st9" d="M187.1,192.4h16.5c9.6,0,13.1-6.7,16.5-16.7c3.4-10.3,3.3-20.3,0-33.5c-2.4-9.5-6.9-16.7-16.5-16.7h-12.4
			l0-16.7c0-8.9-7.5-15.6-16.5-17.1c-5.7-0.9-11.5-1.4-17.2-1.3c-5.6,0-11,0.5-15.8,1.3c-13.9,2.5-16.5,7.6-16.5,17.1v16.7H113
			c-9.6,0-18,5.8-20.6,16.7c-3,12.6-3.2,20.4,0,33.5c2.3,9.8,7.9,16.7,18.6,16.9h10.2v16.5c0,8.9,7.8,14.2,16.5,16.7
			c10.4,3.1,20.4,3.6,32.9,0c8.3-2.4,16.5-7.2,16.5-16.7v-15.4"/>
		<g>
			<linearGradient id="path1948_1_" gradientUnits="userSpaceOnUse" x1="89.044" y1="141.3718" x2="192.2103" y2="141.3718">
				<stop  offset="0" style="stop-color:#FC2C8C"/>
				<stop  offset="1" style="stop-color:#FF864E"/>
			</linearGradient>
			<path id="path1948_3_" class="st10" d="M158.3,125.5h-33H113c-9.6,0-18,5.8-20.6,16.7c-3,12.6-3.2,20.4,0,33.5
				c2.3,9.8,7.9,16.7,17.5,16.7h11.3 M191.2,126.4v-17.6c0-8.9-7.5-15.6-16.5-17.1c-5.7-0.9-11.5-1.4-17.2-1.3
				c-5.6,0-11,0.5-15.8,1.3c-13.9,2.5-16.5,7.6-16.5,17.1v14.6"/>
			<linearGradient id="path1950_1_" gradientUnits="userSpaceOnUse" x1="120.2252" y1="176.9926" x2="223.5974" y2="176.9926">
				<stop  offset="0" style="stop-color:#FC2C8C"/>
				<stop  offset="1" style="stop-color:#FF864E"/>
			</linearGradient>
			<path id="path1950_3_" class="st11" d="M154.2,192.4h32.9h16.5c9.6,0,13.1-6.7,16.5-16.7c3.4-10.3,3.3-20.3,0-33.5
				c-2.4-9.5-6.9-16.7-16.5-16.7h-12.4v14.6c0,11.3-9.6,20.9-20.6,20.9h-32.9c-9,0-16.5,7.7-16.5,16.7v31.4
				c0,8.9,7.8,14.2,16.5,16.7c10.4,3.1,20.4,3.6,32.9,0c8.3-2.4,16.5-7.2,16.5-16.7v-15.4"/>
		</g>
		<g>
			<path class="st12" d="M139.7,100.7c3.2,0,5.9,2.7,5.9,6c0,3.3-2.6,5.9-5.9,5.9c-3.2,0-5.9-2.7-5.9-5.9
				C133.9,103.4,136.5,100.7,139.7,100.7z"/>
			<g>
				<path class="st12" d="M166.9,214.3c-3.2,0-5.9-2.7-5.9-6c0-3.3,2.6-5.9,5.9-5.9c3.2,0,5.9,2.7,5.9,5.9
					C172.8,211.6,170.1,214.3,166.9,214.3z"/>
			</g>
		</g>
	</g>
</g>
</svg>
