<?xml version="1.0" encoding="utf-8"?>
<!-- Generator: Adobe Illustrator 23.0.0, SVG Export Plug-In . SVG Version: 6.00 Build 0)  -->
<svg version="1.1" id="Capa_1_copia" xmlns="http://www.w3.org/2000/svg" xmlns:xlink="http://www.w3.org/1999/xlink" x="0px"
	 y="0px" viewBox="0 0 500 129" style="enable-background:new 0 0 500 129;" xml:space="preserve">
<style type="text/css">
	.st0{fill:url(#SVGID_1_);}
	.st1{fill:#FFFFFF;}
	.st2{fill:url(#SVGID_2_);}
	.st3{fill:url(#SVGID_3_);}
	.st4{fill:url(#SVGID_4_);}
	.st5{fill:url(#SVGID_5_);}
	.st6{fill:url(#SVGID_6_);}
	.st7{fill:url(#SVGID_7_);}
</style>
<g>
	
		<image style="overflow:visible;opacity:0.2;" width="2167" height="620" xlink:href="7E8174B9.png"  transform="matrix(0.24 0 0 0.24 -10.0526 -8.2126)">
	</image>
	<g>
		<g>
			<linearGradient id="SVGID_1_" gradientUnits="userSpaceOnUse" x1="-0.7331" y1="64.5" x2="499.7119" y2="64.5">
				<stop  offset="0" style="stop-color:#D83087"/>
				<stop  offset="1" style="stop-color:#E38452"/>
			</linearGradient>
			<path class="st0" d="M424.2,94.7c-16.7,0-30.2-13.5-30.2-30.2s13.5-30.2,30.2-30.2l0,0V0.2H75.8v34.1c16.7,0,30.2,13.5,30.2,30.2
				S92.5,94.7,75.8,94.7v34.1h348.3V94.7L424.2,94.7z"/>
			<g>
				<g>
					<path class="st1" d="M144.2,73.9c-1.2,0-2.3-0.2-3.3-0.6c-1-0.4-1.9-1-2.6-1.8s-1.3-1.7-1.7-2.8c-0.4-1.1-0.6-2.4-0.6-3.9
						s0.2-2.7,0.7-3.9c0.4-1.1,1-2.1,1.8-2.8s1.6-1.4,2.6-1.8s2.1-0.6,3.2-0.6c0.7,0,1.4,0.1,1.9,0.1c0.6,0.1,1.1,0.2,1.5,0.4
						c0.4,0.1,0.8,0.3,1,0.4c0.3,0.1,0.4,0.2,0.5,0.3l-0.7,2c-0.2-0.1-0.4-0.2-0.7-0.3c-0.3-0.1-0.6-0.2-1-0.4
						c-0.4-0.1-0.8-0.2-1.2-0.3c-0.4-0.1-0.9-0.1-1.3-0.1c-0.9,0-1.7,0.2-2.5,0.5c-0.7,0.3-1.4,0.8-1.9,1.4
						c-0.5,0.6-0.9,1.3-1.2,2.2s-0.4,1.8-0.4,2.9c0,1,0.1,2,0.4,2.8c0.2,0.8,0.6,1.6,1.1,2.2c0.5,0.6,1.1,1.1,1.8,1.4
						c0.7,0.3,1.6,0.5,2.5,0.5c1.1,0,2-0.1,2.8-0.3c0.7-0.2,1.3-0.4,1.6-0.6l0.6,2c-0.1,0.1-0.3,0.2-0.6,0.3s-0.7,0.2-1.1,0.4
						s-1,0.2-1.6,0.3C145.5,73.9,144.9,73.9,144.2,73.9z"/>
					<path class="st1" d="M165.7,67.1c0,1-0.2,2-0.5,2.8c-0.3,0.8-0.7,1.5-1.3,2.2c-0.5,0.6-1.2,1.1-1.9,1.4
						c-0.8,0.3-1.6,0.5-2.5,0.5s-1.7-0.2-2.5-0.5c-0.8-0.3-1.4-0.8-1.9-1.4c-0.5-0.6-1-1.3-1.3-2.2c-0.3-0.8-0.5-1.8-0.5-2.8
						c0-1,0.2-1.9,0.5-2.8c0.3-0.8,0.7-1.6,1.3-2.2c0.5-0.6,1.2-1.1,1.9-1.4s1.6-0.5,2.5-0.5s1.7,0.2,2.5,0.5s1.4,0.8,1.9,1.4
						c0.5,0.6,1,1.3,1.3,2.2C165.5,65.1,165.7,66,165.7,67.1z M163.2,67.1c0-1.5-0.3-2.6-1-3.5c-0.7-0.9-1.6-1.3-2.7-1.3
						s-2,0.4-2.7,1.3c-0.7,0.9-1,2-1,3.5s0.3,2.6,1,3.5c0.7,0.9,1.6,1.3,2.7,1.3s2-0.4,2.7-1.3C162.9,69.7,163.2,68.5,163.2,67.1z"
						/>
					<path class="st1" d="M171.4,60.9c0.5-0.1,1.2-0.3,2.1-0.4c0.9-0.2,1.9-0.2,3-0.2c0.8,0,1.5,0.1,2.1,0.3c0.6,0.2,1,0.6,1.4,1
						c0.1-0.1,0.3-0.2,0.6-0.3c0.3-0.2,0.6-0.3,0.9-0.4c0.4-0.1,0.8-0.3,1.2-0.4s0.9-0.2,1.5-0.2c1,0,1.8,0.1,2.4,0.4
						c0.6,0.3,1.1,0.7,1.5,1.2c0.4,0.5,0.6,1.2,0.7,1.9s0.2,1.5,0.2,2.4v7.3h-2.3v-6.8c0-0.8,0-1.4-0.1-2c-0.1-0.5-0.2-1-0.4-1.4
						c-0.2-0.4-0.5-0.6-0.9-0.8c-0.4-0.2-0.8-0.3-1.4-0.3c-0.8,0-1.4,0.1-1.9,0.3c-0.5,0.2-0.9,0.4-1,0.6c0.1,0.4,0.2,0.9,0.3,1.4
						s0.1,1.1,0.1,1.6v7.3h-2.3v-6.8c0-0.8,0-1.4-0.1-2c-0.1-0.5-0.2-1-0.4-1.4c-0.2-0.4-0.5-0.6-0.8-0.8c-0.4-0.2-0.8-0.3-1.4-0.3
						c-0.2,0-0.5,0-0.8,0c-0.3,0-0.5,0-0.8,0.1c-0.2,0-0.5,0.1-0.7,0.1c-0.2,0-0.3,0.1-0.4,0.1v11h-2.3V60.9z"/>
					<path class="st1" d="M206.9,67.1c0,1-0.1,1.9-0.4,2.7c-0.3,0.8-0.6,1.5-1.1,2.2c-0.5,0.6-1.1,1.1-1.8,1.4
						c-0.7,0.3-1.6,0.5-2.5,0.5c-0.8,0-1.4-0.1-2-0.3s-1-0.4-1.3-0.6v5.2h-2.3V61c0.5-0.1,1.2-0.3,2.1-0.4c0.8-0.2,1.8-0.2,2.9-0.2
						c1,0,1.9,0.2,2.7,0.5s1.5,0.8,2,1.3c0.6,0.6,1,1.3,1.3,2.1S206.9,66,206.9,67.1z M204.5,67.1c0-1.5-0.4-2.7-1.1-3.5
						s-1.8-1.2-3-1.2c-0.7,0-1.2,0-1.6,0.1s-0.7,0.1-0.9,0.2v8.2c0.3,0.2,0.7,0.5,1.2,0.7c0.5,0.2,1.1,0.3,1.8,0.3
						c0.7,0,1.2-0.1,1.7-0.4c0.5-0.2,0.9-0.6,1.2-1s0.5-0.9,0.7-1.5C204.4,68.4,204.5,67.7,204.5,67.1z"/>
					<path class="st1" d="M217.5,60.3c0.2,0,0.4,0,0.7,0c0.3,0,0.5,0.1,0.8,0.1c0.3,0,0.5,0.1,0.7,0.1c0.2,0,0.4,0.1,0.5,0.1l-0.4,2
						c-0.2-0.1-0.5-0.1-0.9-0.2c-0.4-0.1-1-0.1-1.6-0.1c-0.4,0-0.9,0-1.3,0.1s-0.7,0.2-0.8,0.2v10.9h-2.3V61.1
						c0.6-0.2,1.2-0.4,2.1-0.6S216.5,60.3,217.5,60.3z"/>
					<path class="st1" d="M229,60.2c0.9,0,1.7,0.1,2.4,0.4c0.6,0.2,1.2,0.6,1.5,1c0.4,0.4,0.7,1,0.8,1.6s0.3,1.3,0.3,2v8.1
						c-0.2,0-0.5,0.1-0.8,0.1c-0.4,0.1-0.8,0.1-1.2,0.2s-0.9,0.1-1.5,0.1c-0.5,0-1,0.1-1.6,0.1c-0.7,0-1.4-0.1-2-0.2
						c-0.6-0.1-1.2-0.4-1.6-0.7c-0.5-0.3-0.8-0.8-1.1-1.3c-0.3-0.5-0.4-1.2-0.4-1.9c0-0.7,0.1-1.3,0.4-1.8s0.7-0.9,1.2-1.3
						s1.1-0.6,1.8-0.7c0.7-0.2,1.4-0.2,2.1-0.2c0.2,0,0.5,0,0.7,0c0.3,0,0.5,0.1,0.7,0.1c0.2,0,0.4,0.1,0.6,0.1
						c0.2,0,0.3,0.1,0.3,0.1v-0.6c0-0.4,0-0.8-0.1-1.1c-0.1-0.4-0.2-0.7-0.4-1s-0.5-0.5-0.9-0.7s-0.9-0.3-1.5-0.3
						c-0.8,0-1.4,0.1-2,0.2c-0.6,0.1-1,0.2-1.3,0.3l-0.3-1.9c0.3-0.1,0.8-0.3,1.5-0.4C227.5,60.3,228.2,60.2,229,60.2z M229.2,71.9
						c0.5,0,1,0,1.5,0c0.4,0,0.8-0.1,1.1-0.1v-3.9c-0.2-0.1-0.4-0.2-0.8-0.2s-0.8-0.1-1.4-0.1c-0.4,0-0.7,0-1.1,0.1
						s-0.8,0.2-1.1,0.3c-0.3,0.2-0.6,0.4-0.8,0.7c-0.2,0.3-0.3,0.6-0.3,1.1c0,0.8,0.3,1.4,0.8,1.7C227.6,71.7,228.3,71.9,229.2,71.9
						z"/>
					<path class="st1" d="M245.2,60.3c0.2,0,0.4,0,0.7,0c0.3,0,0.5,0.1,0.8,0.1c0.3,0,0.5,0.1,0.7,0.1c0.2,0,0.4,0.1,0.5,0.1l-0.4,2
						c-0.2-0.1-0.5-0.1-0.9-0.2c-0.4-0.1-1-0.1-1.6-0.1c-0.4,0-0.9,0-1.3,0.1s-0.7,0.2-0.8,0.2v10.9h-2.3V61.1
						c0.6-0.2,1.2-0.4,2.1-0.6S244.2,60.3,245.2,60.3z"/>
					<path class="st1" d="M261,73.6V56.2h10.6v2.1h-8.1v5.2h7.3v2h-7.3v6h8.8v2.1H261z"/>
					<path class="st1" d="M277.6,60.9c0.5-0.1,1.2-0.3,2.1-0.4c0.9-0.2,1.9-0.2,3-0.2c1,0,1.9,0.1,2.6,0.4c0.7,0.3,1.2,0.7,1.6,1.2
						c0.4,0.5,0.7,1.2,0.9,1.9c0.2,0.7,0.3,1.5,0.3,2.4v7.3h-2.3v-6.8c0-0.8-0.1-1.5-0.2-2s-0.3-1-0.5-1.4c-0.3-0.4-0.6-0.6-1-0.8
						c-0.4-0.2-0.9-0.2-1.5-0.2c-0.3,0-0.5,0-0.8,0c-0.3,0-0.5,0-0.8,0.1c-0.2,0-0.5,0.1-0.7,0.1s-0.3,0.1-0.4,0.1v11h-2.3V60.9z"/>
					<path class="st1" d="M296.6,60.6h4.9v2h-4.9v6c0,0.6,0,1.2,0.2,1.6c0.1,0.4,0.3,0.8,0.5,1c0.2,0.2,0.4,0.4,0.8,0.5
						c0.3,0.1,0.6,0.1,1,0.1c0.7,0,1.3-0.1,1.7-0.2c0.4-0.2,0.7-0.3,0.9-0.3l0.4,1.9c-0.2,0.1-0.6,0.3-1.2,0.4
						c-0.6,0.2-1.3,0.3-2,0.3c-0.9,0-1.6-0.1-2.2-0.3s-1-0.6-1.4-1c-0.3-0.5-0.6-1-0.7-1.7s-0.2-1.4-0.2-2.3V56.9l2.3-0.4V60.6z"/>
					<path class="st1" d="M311.8,60.3c0.2,0,0.4,0,0.7,0s0.5,0.1,0.8,0.1c0.3,0,0.5,0.1,0.7,0.1c0.2,0,0.4,0.1,0.5,0.1l-0.4,2
						c-0.2-0.1-0.5-0.1-0.9-0.2c-0.4-0.1-1-0.1-1.6-0.1c-0.4,0-0.9,0-1.3,0.1c-0.4,0.1-0.7,0.2-0.8,0.2v10.9H307V61.1
						c0.5-0.2,1.2-0.4,2-0.6S310.8,60.3,311.8,60.3z"/>
					<path class="st1" d="M323.3,60.2c0.9,0,1.7,0.1,2.4,0.4c0.6,0.2,1.2,0.6,1.5,1s0.7,1,0.8,1.6c0.2,0.6,0.3,1.3,0.3,2v8.1
						c-0.2,0-0.5,0.1-0.8,0.1c-0.4,0.1-0.8,0.1-1.2,0.2c-0.5,0-0.9,0.1-1.5,0.1c-0.5,0-1,0.1-1.6,0.1c-0.7,0-1.4-0.1-2-0.2
						c-0.6-0.1-1.1-0.4-1.6-0.7c-0.5-0.3-0.8-0.8-1-1.3c-0.3-0.5-0.4-1.2-0.4-1.9c0-0.7,0.1-1.3,0.4-1.8c0.3-0.5,0.7-0.9,1.2-1.3
						s1.1-0.6,1.8-0.7c0.7-0.2,1.4-0.2,2.1-0.2c0.2,0,0.5,0,0.7,0c0.3,0,0.5,0.1,0.7,0.1c0.2,0,0.4,0.1,0.6,0.1
						c0.2,0,0.3,0.1,0.3,0.1v-0.6c0-0.4,0-0.8-0.1-1.1s-0.2-0.7-0.5-1s-0.5-0.5-0.9-0.7s-0.9-0.3-1.5-0.3c-0.8,0-1.4,0.1-2,0.2
						s-1,0.2-1.3,0.3l-0.3-1.9c0.3-0.1,0.8-0.3,1.5-0.4S322.5,60.2,323.3,60.2z M323.5,71.9c0.5,0,1,0,1.5,0c0.4,0,0.8-0.1,1.1-0.1
						v-3.9c-0.2-0.1-0.4-0.2-0.8-0.2s-0.8-0.1-1.4-0.1c-0.3,0-0.7,0-1.1,0.1s-0.8,0.2-1.1,0.3c-0.3,0.2-0.6,0.4-0.8,0.7
						c-0.2,0.3-0.3,0.6-0.3,1.1c0,0.8,0.3,1.4,0.8,1.7C321.9,71.7,322.6,71.9,323.5,71.9z"/>
					<path class="st1" d="M343.1,54.6l2.3-0.4v19c-0.5,0.2-1.2,0.3-2,0.5c-0.8,0.1-1.8,0.2-2.9,0.2c-1,0-1.9-0.2-2.7-0.5
						c-0.8-0.3-1.5-0.8-2-1.4c-0.6-0.6-1-1.3-1.3-2.1s-0.5-1.8-0.5-2.8c0-1,0.1-1.9,0.4-2.8c0.3-0.8,0.6-1.5,1.1-2.2
						c0.5-0.6,1.1-1.1,1.8-1.4c0.7-0.3,1.6-0.5,2.5-0.5c0.8,0,1.4,0.1,2,0.3s1,0.4,1.3,0.6V54.6z M343.1,63.3
						c-0.3-0.2-0.7-0.5-1.2-0.7s-1.1-0.3-1.8-0.3c-0.7,0-1.2,0.1-1.7,0.4c-0.5,0.2-0.9,0.6-1.2,1s-0.5,0.9-0.6,1.5
						c-0.1,0.6-0.2,1.2-0.2,1.9c0,1.5,0.4,2.7,1.1,3.5s1.8,1.2,3,1.2c0.6,0,1.2,0,1.6-0.1c0.4-0.1,0.8-0.1,1-0.2V63.3z"/>
					<path class="st1" d="M356.1,60.2c0.9,0,1.7,0.1,2.4,0.4c0.6,0.2,1.2,0.6,1.5,1s0.7,1,0.8,1.6c0.2,0.6,0.3,1.3,0.3,2v8.1
						c-0.2,0-0.5,0.1-0.8,0.1c-0.4,0.1-0.8,0.1-1.2,0.2c-0.5,0-0.9,0.1-1.5,0.1c-0.5,0-1,0.1-1.6,0.1c-0.7,0-1.4-0.1-2-0.2
						c-0.6-0.1-1.1-0.4-1.6-0.7c-0.5-0.3-0.8-0.8-1-1.3c-0.3-0.5-0.4-1.2-0.4-1.9c0-0.7,0.1-1.3,0.4-1.8c0.3-0.5,0.7-0.9,1.2-1.3
						s1.1-0.6,1.8-0.7c0.7-0.2,1.4-0.2,2.1-0.2c0.2,0,0.5,0,0.7,0c0.3,0,0.5,0.1,0.7,0.1c0.2,0,0.4,0.1,0.6,0.1
						c0.2,0,0.3,0.1,0.3,0.1v-0.6c0-0.4,0-0.8-0.1-1.1s-0.2-0.7-0.5-1s-0.5-0.5-0.9-0.7s-0.9-0.3-1.5-0.3c-0.8,0-1.4,0.1-2,0.2
						s-1,0.2-1.3,0.3l-0.3-1.9c0.3-0.1,0.8-0.3,1.5-0.4S355.3,60.2,356.1,60.2z M356.3,71.9c0.5,0,1,0,1.5,0c0.4,0,0.8-0.1,1.1-0.1
						v-3.9c-0.2-0.1-0.4-0.2-0.8-0.2s-0.8-0.1-1.4-0.1c-0.3,0-0.7,0-1.1,0.1s-0.8,0.2-1.1,0.3c-0.3,0.2-0.6,0.4-0.8,0.7
						c-0.2,0.3-0.3,0.6-0.3,1.1c0,0.8,0.3,1.4,0.8,1.7C354.7,71.7,355.4,71.9,356.3,71.9z"/>
				</g>
			</g>
			<g>
				<g>
					<g>
						<polygon class="st1" points="154.4,22.2 156.3,26 160.5,26.7 157.4,29.6 158.1,33.8 154.4,31.8 150.6,33.8 151.3,29.6 
							148.3,26.7 152.5,26 						"/>
						<polygon class="st1" points="171.8,22.2 173.7,26 177.9,26.7 174.8,29.6 175.5,33.8 171.8,31.8 168,33.8 168.7,29.6 
							165.7,26.7 169.9,26 						"/>
						<polygon class="st1" points="189.2,22.2 191,26 195.2,26.7 192.2,29.6 192.9,33.8 189.2,31.8 185.4,33.8 186.1,29.6 
							183.1,26.7 187.3,26 						"/>
						<polygon class="st1" points="206.5,22.2 208.4,26 212.6,26.7 209.6,29.6 210.3,33.8 206.5,31.8 202.8,33.8 203.5,29.6 
							200.5,26.7 204.7,26 						"/>
						<polygon class="st1" points="223.9,22.2 225.8,26 230,26.7 227,29.6 227.7,33.8 223.9,31.8 220.2,33.8 220.9,29.6 217.8,26.7 
							222,26 						"/>
						<polygon class="st1" points="241.3,22.2 243.2,26 247.4,26.7 244.4,29.6 245.1,33.8 241.3,31.8 237.5,33.8 238.3,29.6 
							235.2,26.7 239.4,26 						"/>
						<polygon class="st1" points="258.7,22.2 260.6,26 264.8,26.7 261.7,29.6 262.5,33.8 258.7,31.8 254.9,33.8 255.6,29.6 
							252.6,26.7 256.8,26 						"/>
						<polygon class="st1" points="276.1,22.2 278,26 282.2,26.7 279.1,29.6 279.8,33.8 276.1,31.8 272.3,33.8 273,29.6 270,26.7 
							274.2,26 						"/>
						<polygon class="st1" points="293.5,22.2 295.3,26 299.5,26.7 296.5,29.6 297.2,33.8 293.5,31.8 289.7,33.8 290.4,29.6 
							287.4,26.7 291.6,26 						"/>
						<polygon class="st1" points="310.8,22.2 312.7,26 316.9,26.7 313.9,29.6 314.6,33.8 310.8,31.8 307.1,33.8 307.8,29.6 
							304.8,26.7 309,26 						"/>
						<polygon class="st1" points="328.2,22.2 330.1,26 334.3,26.7 331.3,29.6 332,33.8 328.2,31.8 324.5,33.8 325.2,29.6 
							322.1,26.7 326.3,26 						"/>
						<polygon class="st1" points="345.6,22.2 347.5,26 351.7,26.7 348.7,29.6 349.4,33.8 345.6,31.8 341.9,33.8 342.6,29.6 
							339.5,26.7 343.7,26 						"/>
					</g>
					<g>
						<polygon class="st1" points="154.4,95.2 156.3,99 160.5,99.6 157.4,102.6 158.1,106.8 154.4,104.8 150.6,106.8 151.3,102.6 
							148.3,99.6 152.5,99 						"/>
						<polygon class="st1" points="171.8,95.2 173.7,99 177.9,99.6 174.8,102.6 175.5,106.8 171.8,104.8 168,106.8 168.7,102.6 
							165.7,99.6 169.9,99 						"/>
						<polygon class="st1" points="189.2,95.2 191,99 195.2,99.6 192.2,102.6 192.9,106.8 189.2,104.8 185.4,106.8 186.1,102.6 
							183.1,99.6 187.3,99 						"/>
						<polygon class="st1" points="206.5,95.2 208.4,99 212.6,99.6 209.6,102.6 210.3,106.8 206.5,104.8 202.8,106.8 203.5,102.6 
							200.5,99.6 204.7,99 						"/>
						<polygon class="st1" points="223.9,95.2 225.8,99 230,99.6 227,102.6 227.7,106.8 223.9,104.8 220.2,106.8 220.9,102.6 
							217.8,99.6 222,99 						"/>
						<polygon class="st1" points="241.3,95.2 243.2,99 247.4,99.6 244.4,102.6 245.1,106.8 241.3,104.8 237.5,106.8 238.3,102.6 
							235.2,99.6 239.4,99 						"/>
						<polygon class="st1" points="258.7,95.2 260.6,99 264.8,99.6 261.7,102.6 262.5,106.8 258.7,104.8 254.9,106.8 255.6,102.6 
							252.6,99.6 256.8,99 						"/>
						<polygon class="st1" points="276.1,95.2 278,99 282.2,99.6 279.1,102.6 279.8,106.8 276.1,104.8 272.3,106.8 273,102.6 
							270,99.6 274.2,99 						"/>
						<polygon class="st1" points="293.5,95.2 295.3,99 299.5,99.6 296.5,102.6 297.2,106.8 293.5,104.8 289.7,106.8 290.4,102.6 
							287.4,99.6 291.6,99 						"/>
						<polygon class="st1" points="310.8,95.2 312.7,99 316.9,99.6 313.9,102.6 314.6,106.8 310.8,104.8 307.1,106.8 307.8,102.6 
							304.8,99.6 309,99 						"/>
						<polygon class="st1" points="328.2,95.2 330.1,99 334.3,99.6 331.3,102.6 332,106.8 328.2,104.8 324.5,106.8 325.2,102.6 
							322.1,99.6 326.3,99 						"/>
						<polygon class="st1" points="345.6,95.2 347.5,99 351.7,99.6 348.7,102.6 349.4,106.8 345.6,104.8 341.9,106.8 342.6,102.6 
							339.5,99.6 343.7,99 						"/>
					</g>
				</g>
			</g>
			<g>
				<rect x="125.2" y="0.2" class="st1" width="3.3" height="128.6"/>
			</g>
			<g>
				<rect x="371.5" y="0.2" class="st1" width="3.3" height="128.6"/>
			</g>
			<g>
				<linearGradient id="SVGID_2_" gradientUnits="userSpaceOnUse" x1="-0.7331" y1="64.5" x2="499.7119" y2="64.5">
					<stop  offset="0" style="stop-color:#D83087"/>
					<stop  offset="1" style="stop-color:#E38452"/>
				</linearGradient>
				<polygon class="st2" points="419.7,53.1 423.4,60.6 431.6,61.8 425.6,67.6 427,75.9 419.7,72 412.3,75.9 413.7,67.6 407.7,61.8 
					416,60.6 				"/>
				<linearGradient id="SVGID_3_" gradientUnits="userSpaceOnUse" x1="-0.7331" y1="64.5" x2="499.7119" y2="64.5">
					<stop  offset="0" style="stop-color:#D83087"/>
					<stop  offset="1" style="stop-color:#E38452"/>
				</linearGradient>
				<polygon class="st3" points="453.8,53.1 457.5,60.6 465.8,61.8 459.8,67.6 461.2,75.9 453.8,72 446.4,75.9 447.9,67.6 
					441.9,61.8 450.1,60.6 				"/>
				<linearGradient id="SVGID_4_" gradientUnits="userSpaceOnUse" x1="-0.7331" y1="64.5" x2="499.7119" y2="64.5">
					<stop  offset="0" style="stop-color:#D83087"/>
					<stop  offset="1" style="stop-color:#E38452"/>
				</linearGradient>
				<polygon class="st4" points="488,53.1 491.7,60.6 500,61.8 494,67.6 495.4,75.9 488,72 480.6,75.9 482,67.6 476.1,61.8 
					484.3,60.6 				"/>
			</g>
			<g>
				<linearGradient id="SVGID_5_" gradientUnits="userSpaceOnUse" x1="-0.7331" y1="64.5" x2="499.7119" y2="64.5">
					<stop  offset="0" style="stop-color:#D83087"/>
					<stop  offset="1" style="stop-color:#E38452"/>
				</linearGradient>
				<polygon class="st5" points="12,53.1 15.7,60.6 23.9,61.8 18,67.6 19.4,75.9 12,72 4.6,75.9 6,67.6 0,61.8 8.3,60.6 				"/>
				<linearGradient id="SVGID_6_" gradientUnits="userSpaceOnUse" x1="-0.7331" y1="64.5" x2="499.7119" y2="64.5">
					<stop  offset="0" style="stop-color:#D83087"/>
					<stop  offset="1" style="stop-color:#E38452"/>
				</linearGradient>
				<polygon class="st6" points="46.2,53.1 49.9,60.6 58.1,61.8 52.1,67.6 53.6,75.9 46.2,72 38.8,75.9 40.2,67.6 34.2,61.8 
					42.5,60.6 				"/>
				<linearGradient id="SVGID_7_" gradientUnits="userSpaceOnUse" x1="-0.7331" y1="64.5" x2="499.7119" y2="64.5">
					<stop  offset="0" style="stop-color:#D83087"/>
					<stop  offset="1" style="stop-color:#E38452"/>
				</linearGradient>
				<polygon class="st7" points="80.3,53.1 84,60.6 92.3,61.8 86.3,67.6 87.7,75.9 80.3,72 73,75.9 74.4,67.6 68.4,61.8 76.6,60.6 
									"/>
			</g>
		</g>
	</g>
</g>
<g>
</g>
<g>
</g>
<g>
</g>
<g>
</g>
<g>
</g>
<g>
</g>
<g>
</g>
<g>
</g>
<g>
</g>
<g>
</g>
<g>
</g>
<g>
</g>
<g>
</g>
<g>
</g>
<g>
</g>
</svg>
