<?xml version="1.0" encoding="utf-8"?>
<!-- Generator: Adobe Illustrator 23.0.2, SVG Export Plug-In . SVG Version: 6.00 Build 0)  -->
<svg version="1.1" id="Layer_1" xmlns="http://www.w3.org/2000/svg" xmlns:xlink="http://www.w3.org/1999/xlink" x="0px" y="0px"
	 viewBox="0 0 1366 563" style="enable-background:new 0 0 1366 563;" xml:space="preserve">
<style type="text/css">
	.st0{fill:url(#SVGID_1_);}
	.st1{opacity:0.7;}
	.st2{fill:#FFFFFF;}
	.st3{fill:url(#SVGID_2_);}
	.st4{fill:url(#SVGID_3_);}
	.st5{fill:url(#SVGID_4_);}
	.st6{fill:url(#SVGID_5_);}
	.st7{fill:url(#SVGID_6_);}
	.st8{fill:url(#SVGID_7_);}
	.st9{fill:url(#SVGID_8_);}
	.st10{fill:url(#SVGID_9_);}
	.st11{fill:url(#SVGID_10_);}
	.st12{fill:url(#SVGID_11_);}
	.st13{fill:url(#SVGID_12_);}
	.st14{fill:url(#SVGID_13_);}
	.st15{fill:url(#SVGID_14_);}
	.st16{fill:url(#SVGID_15_);}
	.st17{fill:url(#SVGID_16_);}
	.st18{fill:url(#SVGID_17_);}
	.st19{fill:url(#SVGID_18_);}
	.st20{fill:url(#SVGID_19_);}
	.st21{fill:url(#SVGID_20_);}
	.st22{fill:url(#SVGID_21_);}
	.st23{fill:url(#SVGID_22_);}
</style>
<g>
	<g>
		<g>
			
				<radialGradient id="SVGID_1_" cx="5577.0269" cy="8750.499" r="23.1015" gradientTransform="matrix(-0.4655 0.8164 -0.8132 -0.4673 9811.9492 20.9003)" gradientUnits="userSpaceOnUse">
				<stop  offset="0" style="stop-color:#FFFFFF;stop-opacity:0"/>
				<stop  offset="0.8765" style="stop-color:#FFFFFF;stop-opacity:0.4382"/>
				<stop  offset="1" style="stop-color:#FFFFFF;stop-opacity:0.5"/>
			</radialGradient>
			<path class="st0" d="M88.9,503.6c-10.4-6-14-19.2-8-29.7c5.9-10.4,19.2-14,29.5-8.1c10.4,6,14,19.2,8,29.7
				C112.5,505.9,99.3,509.5,88.9,503.6z"/>
			<g class="st1">
				<path class="st2" d="M106.4,502.5c-1.9,0.7-3.8,0-4.4-1.6c-0.6-1.6,0.4-3.4,2.3-4.1c1.9-0.7,3.8,0,4.4,1.6
					C109.3,499.9,108.2,501.8,106.4,502.5z"/>
				<path class="st2" d="M107.6,490.6c-0.3,0.1-0.7-0.1-0.8-0.4c-0.1-0.3,0-0.7,0.4-0.8c0.3-0.1,0.7,0,0.8,0.4
					C108.1,490.1,107.9,490.5,107.6,490.6z"/>
				<path class="st2" d="M94.4,501c-0.3,0.1-0.7-0.1-0.8-0.4c-0.1-0.3,0-0.7,0.4-0.8c0.3-0.1,0.7,0,0.8,0.4
					C94.9,500.5,94.7,500.9,94.4,501z"/>
				<path class="st2" d="M100.4,502.5c-0.3,0.1-0.7,0-0.8-0.4c-0.1-0.3,0-0.7,0.4-0.8c0.3-0.1,0.7,0.1,0.8,0.4
					C100.9,502,100.7,502.4,100.4,502.5z"/>
				<path class="st2" d="M102.7,496.2c-0.2,0.1-0.4,0-0.5-0.2c-0.1-0.2,0-0.4,0.2-0.5c0.2-0.1,0.4,0,0.5,0.2
					C103,495.9,102.9,496.1,102.7,496.2z"/>
			</g>
		</g>
		<g>
			
				<radialGradient id="SVGID_2_" cx="4909.4766" cy="8104.6968" r="11.4276" gradientTransform="matrix(-0.4655 0.8164 -0.8132 -0.4673 9811.9492 20.9003)" gradientUnits="userSpaceOnUse">
				<stop  offset="0" style="stop-color:#FFFFFF;stop-opacity:0"/>
				<stop  offset="0.8765" style="stop-color:#FFFFFF;stop-opacity:0.7012"/>
				<stop  offset="1" style="stop-color:#FFFFFF;stop-opacity:0.8"/>
			</radialGradient>
			<path class="st3" d="M930.3,250.8c-5.1-2.9-6.9-9.5-4-14.7c2.9-5.2,9.5-6.9,14.6-4c5.1,2.9,6.9,9.5,4,14.7
				C942,252,935.4,253.8,930.3,250.8z"/>
			<g class="st1">
				<path class="st2" d="M938.9,250.3c-0.9,0.3-1.9,0-2.2-0.8c-0.3-0.8,0.2-1.7,1.1-2c0.9-0.3,1.9,0,2.2,0.8
					C940.4,249,939.8,249.9,938.9,250.3z"/>
				<path class="st2" d="M939.5,244.4c-0.2,0.1-0.4,0-0.4-0.2s0-0.4,0.2-0.4c0.2-0.1,0.4,0,0.4,0.2
					C939.8,244.2,939.7,244.4,939.5,244.4z"/>
				<path class="st2" d="M933,249.6c-0.2,0.1-0.4,0-0.4-0.2c-0.1-0.2,0-0.4,0.2-0.4c0.2-0.1,0.4,0,0.4,0.2
					C933.2,249.3,933.1,249.5,933,249.6z"/>
				<path class="st2" d="M936,250.3c-0.2,0.1-0.4,0-0.4-0.2c-0.1-0.2,0-0.4,0.2-0.4c0.2-0.1,0.4,0,0.4,0.2
					C936.2,250.1,936.1,250.2,936,250.3z"/>
				<path class="st2" d="M937.1,247.2c-0.1,0-0.2,0-0.2-0.1c0-0.1,0-0.2,0.1-0.2c0.1,0,0.2,0,0.2,0.1
					C937.2,247.1,937.2,247.2,937.1,247.2z"/>
			</g>
		</g>
		<g>
			
				<radialGradient id="SVGID_3_" cx="4816.4087" cy="8214.5293" r="11.4276" gradientTransform="matrix(-0.4655 0.8164 -0.8132 -0.4673 9811.9492 20.9003)" gradientUnits="userSpaceOnUse">
				<stop  offset="0" style="stop-color:#FFFFFF;stop-opacity:0"/>
				<stop  offset="0.8765" style="stop-color:#FFFFFF;stop-opacity:0.7012"/>
				<stop  offset="1" style="stop-color:#FFFFFF;stop-opacity:0.8"/>
			</radialGradient>
			<path class="st4" d="M884.3,123.5c-5.1-3-6.9-9.5-4-14.7c2.9-5.2,9.5-6.9,14.6-4c5.1,2.9,6.9,9.5,4,14.7
				C896,124.7,889.4,126.5,884.3,123.5z"/>
			<g class="st1">
				<path class="st2" d="M892.9,123c-0.9,0.3-1.9,0-2.2-0.8c-0.3-0.8,0.2-1.7,1.1-2c0.9-0.3,1.9,0,2.2,0.8
					C894.4,121.7,893.9,122.6,892.9,123z"/>
				<path class="st2" d="M893.5,117.1c-0.2,0.1-0.4,0-0.4-0.2c-0.1-0.2,0-0.4,0.2-0.4c0.2-0.1,0.3,0,0.4,0.2
					C893.8,116.9,893.7,117.1,893.5,117.1z"/>
				<path class="st2" d="M887,122.3c-0.2,0.1-0.4,0-0.4-0.2c-0.1-0.2,0-0.4,0.2-0.4c0.2-0.1,0.4,0,0.4,0.2
					C887.2,122,887.1,122.2,887,122.3z"/>
				<path class="st2" d="M890,123c-0.2,0.1-0.4,0-0.4-0.2c-0.1-0.2,0-0.4,0.2-0.4c0.2-0.1,0.4,0,0.4,0.2
					C890.2,122.7,890.1,122.9,890,123z"/>
				<path class="st2" d="M891.1,119.9c-0.1,0-0.2,0-0.2-0.1c0-0.1,0-0.2,0.1-0.2c0.1,0,0.2,0,0.2,0.1
					C891.2,119.7,891.2,119.8,891.1,119.9z"/>
			</g>
		</g>
		<g>
			
				<radialGradient id="SVGID_4_" cx="5056.3857" cy="8104.8193" r="11.4274" gradientTransform="matrix(-0.4655 0.8164 -0.8132 -0.4673 9811.9492 20.9003)" gradientUnits="userSpaceOnUse">
				<stop  offset="0" style="stop-color:#FFFFFF;stop-opacity:0"/>
				<stop  offset="0.8765" style="stop-color:#FFFFFF;stop-opacity:0.7012"/>
				<stop  offset="1" style="stop-color:#FFFFFF;stop-opacity:0.8"/>
			</radialGradient>
			<path class="st5" d="M861.8,370.7c-5.1-3-6.9-9.5-4-14.7c2.9-5.2,9.5-6.9,14.6-4c5.1,2.9,6.9,9.5,4,14.7
				C873.5,371.9,866.9,373.7,861.8,370.7z"/>
			<g class="st1">
				<path class="st2" d="M870.4,370.2c-0.9,0.3-1.9,0-2.2-0.8c-0.3-0.8,0.2-1.7,1.1-2c0.9-0.3,1.9,0,2.2,0.8
					C871.9,368.9,871.4,369.8,870.4,370.2z"/>
				<path class="st2" d="M871,364.3c-0.2,0.1-0.4,0-0.4-0.2c-0.1-0.2,0-0.4,0.2-0.4c0.2-0.1,0.3,0,0.4,0.2
					C871.3,364.1,871.2,364.3,871,364.3z"/>
				<path class="st2" d="M864.5,369.5c-0.2,0.1-0.4,0-0.4-0.2c-0.1-0.2,0-0.4,0.2-0.4c0.2-0.1,0.4,0,0.4,0.2
					C864.7,369.2,864.7,369.4,864.5,369.5z"/>
				<path class="st2" d="M867.5,370.2c-0.2,0.1-0.4,0-0.4-0.2c-0.1-0.2,0-0.4,0.2-0.4c0.2-0.1,0.4,0,0.4,0.2
					C867.7,369.9,867.6,370.1,867.5,370.2z"/>
				<path class="st2" d="M868.6,367.1c-0.1,0-0.2,0-0.2-0.1c0-0.1,0-0.2,0.1-0.2c0.1,0,0.2,0,0.2,0.1
					C868.7,366.9,868.7,367,868.6,367.1z"/>
			</g>
		</g>
		<g>
			
				<radialGradient id="SVGID_5_" cx="4974.7593" cy="7640.4751" r="23.1012" gradientTransform="matrix(-0.4655 0.8164 -0.8132 -0.4673 9811.9492 20.9003)" gradientUnits="userSpaceOnUse">
				<stop  offset="0" style="stop-color:#FFFFFF;stop-opacity:0"/>
				<stop  offset="0.8765" style="stop-color:#FFFFFF;stop-opacity:0.3506"/>
				<stop  offset="1" style="stop-color:#FFFFFF;stop-opacity:0.4"/>
			</radialGradient>
			<path class="st6" d="M1272,530.6c-10.4-6-14-19.2-8-29.7c5.9-10.4,19.2-14,29.5-8.1c10.4,6,14,19.2,8,29.7
				C1295.6,533,1282.3,536.6,1272,530.6z"/>
			<g class="st1">
				<path class="st2" d="M1289.5,529.5c-1.9,0.7-3.8,0-4.4-1.6c-0.6-1.6,0.4-3.4,2.3-4.1c1.9-0.7,3.8,0,4.4,1.6
					C1292.3,527,1291.3,528.8,1289.5,529.5z"/>
				<path class="st2" d="M1290.6,517.7c-0.3,0.1-0.7-0.1-0.8-0.4c-0.1-0.3,0-0.7,0.4-0.8c0.3-0.1,0.7,0,0.8,0.4
					C1291.1,517.2,1291,517.5,1290.6,517.7z"/>
				<path class="st2" d="M1277.4,528c-0.3,0.1-0.7-0.1-0.8-0.4c-0.1-0.3,0-0.7,0.4-0.8c0.3-0.1,0.7,0,0.8,0.4
					C1277.9,527.5,1277.8,527.9,1277.4,528z"/>
				<path class="st2" d="M1283.4,529.5c-0.3,0.1-0.7,0-0.8-0.4c-0.1-0.3,0-0.7,0.4-0.9c0.3-0.1,0.7,0.1,0.8,0.4
					C1283.9,529,1283.8,529.4,1283.4,529.5z"/>
				<path class="st2" d="M1285.7,523.3c-0.2,0.1-0.4,0-0.5-0.2c-0.1-0.2,0-0.4,0.2-0.5c0.2-0.1,0.4,0,0.5,0.2
					C1286,523,1285.9,523.2,1285.7,523.3z"/>
			</g>
		</g>
		<g>
			
				<radialGradient id="SVGID_6_" cx="5033.5308" cy="7656.5537" r="11.4272" gradientTransform="matrix(-0.4655 0.8164 -0.8132 -0.4673 9811.9492 20.9003)" gradientUnits="userSpaceOnUse">
				<stop  offset="0" style="stop-color:#FFFFFF;stop-opacity:0"/>
				<stop  offset="0.8765" style="stop-color:#FFFFFF;stop-opacity:0.7012"/>
				<stop  offset="1" style="stop-color:#FFFFFF;stop-opacity:0.8"/>
			</radialGradient>
			<path class="st7" d="M1237,561.6c-5.1-2.9-6.9-9.5-4-14.7c2.9-5.2,9.5-6.9,14.6-4c5.1,2.9,6.9,9.5,4,14.7
				C1248.6,562.7,1242.1,564.5,1237,561.6z"/>
			<g class="st1">
				<path class="st2" d="M1245.6,561c-0.9,0.3-1.9,0-2.2-0.8c-0.3-0.8,0.2-1.7,1.1-2c0.9-0.3,1.9,0,2.2,0.8
					C1247,559.8,1246.5,560.7,1245.6,561z"/>
				<path class="st2" d="M1246.2,555.2c-0.2,0.1-0.4,0-0.4-0.2c-0.1-0.2,0-0.4,0.2-0.4c0.2-0.1,0.3,0,0.4,0.2
					C1246.5,554.9,1246.4,555.1,1246.2,555.2z"/>
				<path class="st2" d="M1239.7,560.3c-0.2,0.1-0.4,0-0.4-0.2c-0.1-0.2,0-0.4,0.2-0.4c0.2-0.1,0.4,0,0.4,0.2
					C1239.9,560,1239.8,560.2,1239.7,560.3z"/>
				<path class="st2" d="M1242.6,561c-0.2,0.1-0.4,0-0.4-0.2c-0.1-0.2,0-0.4,0.2-0.4c0.2-0.1,0.4,0,0.4,0.2
					C1242.9,560.8,1242.8,561,1242.6,561z"/>
				<path class="st2" d="M1243.8,557.9c-0.1,0-0.2,0-0.2-0.1c0-0.1,0-0.2,0.1-0.2c0.1,0,0.2,0,0.2,0.1
					C1243.9,557.8,1243.9,557.9,1243.8,557.9z"/>
			</g>
		</g>
		<g>
			
				<radialGradient id="SVGID_7_" cx="5069.5728" cy="8008.3589" r="11.4271" gradientTransform="matrix(-0.4655 0.8164 -0.8132 -0.4673 9811.9492 20.9003)" gradientUnits="userSpaceOnUse">
				<stop  offset="0" style="stop-color:#FFFFFF;stop-opacity:0"/>
				<stop  offset="0.8765" style="stop-color:#FFFFFF;stop-opacity:0.4382"/>
				<stop  offset="1" style="stop-color:#FFFFFF;stop-opacity:0.5"/>
			</radialGradient>
			<path class="st8" d="M934.1,426.6c-5.1-2.9-6.9-9.5-4-14.7c2.9-5.2,9.5-6.9,14.6-4c5.1,2.9,6.9,9.5,4,14.7
				C945.8,427.7,939.2,429.5,934.1,426.6z"/>
			<g class="st1">
				<path class="st2" d="M942.7,426c-0.9,0.3-1.9,0-2.2-0.8c-0.3-0.8,0.2-1.7,1.1-2c0.9-0.3,1.9,0,2.2,0.8
					C944.2,424.8,943.7,425.7,942.7,426z"/>
				<path class="st2" d="M943.3,420.2c-0.2,0.1-0.4,0-0.4-0.2s0-0.4,0.2-0.4c0.2-0.1,0.4,0,0.4,0.2
					C943.6,419.9,943.5,420.1,943.3,420.2z"/>
				<path class="st2" d="M936.8,425.3c-0.2,0.1-0.4,0-0.4-0.2c-0.1-0.2,0-0.4,0.2-0.4c0.2-0.1,0.4,0,0.4,0.2
					C937,425.1,937,425.2,936.8,425.3z"/>
				<path class="st2" d="M939.8,426c-0.2,0.1-0.4,0-0.4-0.2c-0.1-0.2,0-0.4,0.2-0.4c0.2-0.1,0.4,0,0.4,0.2
					C940,425.8,939.9,426,939.8,426z"/>
				<path class="st2" d="M940.9,422.9c-0.1,0-0.2,0-0.2-0.1c0-0.1,0-0.2,0.1-0.2c0.1,0,0.2,0,0.2,0.1
					C941.1,422.8,941,422.9,940.9,422.9z"/>
			</g>
		</g>
		<g>
			
				<radialGradient id="SVGID_8_" cx="4625.3901" cy="8008.9644" r="11.4276" gradientTransform="matrix(-0.4655 0.8164 -0.8132 -0.4673 9811.9492 20.9003)" gradientUnits="userSpaceOnUse">
				<stop  offset="0" style="stop-color:#FFFFFF;stop-opacity:0"/>
				<stop  offset="0.8765" style="stop-color:#FFFFFF;stop-opacity:0.4382"/>
				<stop  offset="1" style="stop-color:#FFFFFF;stop-opacity:0.5"/>
			</radialGradient>
			<path class="st9" d="M1140.4,63.6c-5.1-2.9-6.9-9.5-4-14.7c2.9-5.2,9.5-6.9,14.6-4c5.1,3,6.9,9.5,4,14.7
				C1152,64.8,1145.5,66.6,1140.4,63.6z"/>
			<g class="st1">
				<path class="st2" d="M1149,63.1c-0.9,0.3-1.9,0-2.2-0.8c-0.3-0.8,0.2-1.7,1.1-2c0.9-0.3,1.9,0,2.2,0.8
					C1150.4,61.8,1149.9,62.8,1149,63.1z"/>
				<path class="st2" d="M1149.6,57.2c-0.2,0.1-0.4,0-0.4-0.2c-0.1-0.2,0-0.4,0.2-0.4c0.2-0.1,0.4,0,0.4,0.2
					C1149.9,57,1149.8,57.2,1149.6,57.2z"/>
				<path class="st2" d="M1143.1,62.4c-0.2,0.1-0.4,0-0.4-0.2c-0.1-0.2,0-0.4,0.2-0.4c0.2-0.1,0.4,0,0.4,0.2
					C1143.3,62.1,1143.2,62.3,1143.1,62.4z"/>
				<path class="st2" d="M1146,63.1c-0.2,0.1-0.4,0-0.4-0.2c-0.1-0.2,0-0.4,0.2-0.4c0.2-0.1,0.4,0,0.4,0.2
					C1146.3,62.9,1146.2,63,1146,63.1z"/>
				<path class="st2" d="M1147.2,60c-0.1,0-0.2,0-0.2-0.1c0-0.1,0-0.2,0.1-0.2c0.1,0,0.2,0,0.2,0.1C1147.3,59.9,1147.3,60,1147.2,60
					z"/>
			</g>
		</g>
		<g>
			
				<radialGradient id="SVGID_9_" cx="5295.7363" cy="8224.4102" r="11.4277" gradientTransform="matrix(-0.4655 0.8164 -0.8132 -0.4673 9811.9492 20.9003)" gradientUnits="userSpaceOnUse">
				<stop  offset="0" style="stop-color:#FFFFFF;stop-opacity:0"/>
				<stop  offset="0.8765" style="stop-color:#FFFFFF;stop-opacity:0.4382"/>
				<stop  offset="1" style="stop-color:#FFFFFF;stop-opacity:0.5"/>
			</radialGradient>
			<path class="st10" d="M653.1,510.3c-5.1-2.9-6.9-9.5-4-14.7c2.9-5.2,9.5-6.9,14.6-4c5.1,2.9,6.9,9.5,4,14.7
				C664.8,511.4,658.3,513.2,653.1,510.3z"/>
			<g class="st1">
				<path class="st2" d="M661.8,509.7c-0.9,0.3-1.9,0-2.2-0.8c-0.3-0.8,0.2-1.7,1.1-2c0.9-0.3,1.9,0,2.2,0.8
					C663.2,508.4,662.7,509.4,661.8,509.7z"/>
				<path class="st2" d="M662.4,503.8c-0.2,0.1-0.4,0-0.4-0.2c-0.1-0.2,0-0.4,0.2-0.4c0.2-0.1,0.4,0,0.4,0.2
					C662.6,503.6,662.5,503.8,662.4,503.8z"/>
				<path class="st2" d="M655.8,509c-0.2,0.1-0.4,0-0.4-0.2c-0.1-0.2,0-0.4,0.2-0.4c0.2-0.1,0.4,0,0.4,0.2
					C656.1,508.7,656,508.9,655.8,509z"/>
				<path class="st2" d="M658.8,509.7c-0.2,0.1-0.4,0-0.4-0.2c-0.1-0.2,0-0.4,0.2-0.4c0.2-0.1,0.4,0,0.4,0.2
					C659,509.5,659,509.7,658.8,509.7z"/>
				<path class="st2" d="M659.9,506.6c-0.1,0-0.2,0-0.2-0.1c0-0.1,0-0.2,0.1-0.2c0.1,0,0.2,0,0.2,0.1
					C660.1,506.5,660,506.6,659.9,506.6z"/>
			</g>
		</g>
		<g>
			
				<radialGradient id="SVGID_10_" cx="4588.4033" cy="7830.5127" r="11.4276" gradientTransform="matrix(-0.4655 0.8164 -0.8132 -0.4673 9811.9492 20.9003)" gradientUnits="userSpaceOnUse">
				<stop  offset="0" style="stop-color:#FFFFFF;stop-opacity:0"/>
				<stop  offset="0.8765" style="stop-color:#FFFFFF;stop-opacity:0.4382"/>
				<stop  offset="1" style="stop-color:#FFFFFF;stop-opacity:0.5"/>
			</radialGradient>
			<path class="st11" d="M1302.7,116.8c-5.1-2.9-6.9-9.5-4-14.7c2.9-5.2,9.5-6.9,14.6-4c5.1,2.9,6.9,9.5,4,14.7
				C1314.4,118,1307.8,119.8,1302.7,116.8z"/>
			<g class="st1">
				<path class="st2" d="M1311.4,116.3c-0.9,0.3-1.9,0-2.2-0.8c-0.3-0.8,0.2-1.7,1.1-2c0.9-0.3,1.9,0,2.2,0.8
					C1312.8,115,1312.3,116,1311.4,116.3z"/>
				<path class="st2" d="M1312,110.4c-0.2,0.1-0.4,0-0.4-0.2c-0.1-0.2,0-0.4,0.2-0.4c0.2-0.1,0.4,0,0.4,0.2
					C1312.2,110.2,1312.1,110.4,1312,110.4z"/>
				<path class="st2" d="M1305.4,115.6c-0.2,0.1-0.4,0-0.4-0.2c-0.1-0.2,0-0.4,0.2-0.4c0.2-0.1,0.4,0,0.4,0.2
					C1305.7,115.3,1305.6,115.5,1305.4,115.6z"/>
				<path class="st2" d="M1308.4,116.3c-0.2,0.1-0.4,0-0.4-0.2c-0.1-0.2,0-0.4,0.2-0.4c0.2-0.1,0.4,0,0.4,0.2
					C1308.6,116.1,1308.6,116.2,1308.4,116.3z"/>
				<path class="st2" d="M1309.5,113.2c-0.1,0-0.2,0-0.2-0.1c0-0.1,0-0.2,0.1-0.2c0.1,0,0.2,0,0.2,0.1
					C1309.7,113.1,1309.6,113.2,1309.5,113.2z"/>
			</g>
		</g>
		<g>
			
				<radialGradient id="SVGID_11_" cx="-4412.4146" cy="-3916.7622" r="23.1011" gradientTransform="matrix(0.4655 -0.8164 0.8132 0.4673 5397.9805 -1431.7848)" gradientUnits="userSpaceOnUse">
				<stop  offset="0" style="stop-color:#FFFFFF;stop-opacity:0"/>
				<stop  offset="0.8765" style="stop-color:#FFFFFF;stop-opacity:0.4382"/>
				<stop  offset="1" style="stop-color:#FFFFFF;stop-opacity:0.5"/>
			</radialGradient>
			<path class="st12" d="M169.5,321.3c10.4,6,14,19.2,8,29.7c-5.9,10.4-19.2,14-29.5,8.1c-10.4-6-14-19.2-8-29.7
				C145.9,319,159.1,315.4,169.5,321.3z"/>
			<g class="st1">
				<path class="st2" d="M152,322.4c1.9-0.7,3.8,0,4.4,1.6c0.6,1.6-0.4,3.4-2.3,4.1c-1.9,0.7-3.8,0-4.4-1.6
					C149.1,325,150.2,323.1,152,322.4z"/>
				<path class="st2" d="M150.8,334.3c0.3-0.1,0.7,0.1,0.8,0.4c0.1,0.3,0,0.7-0.4,0.8c-0.3,0.1-0.7,0-0.8-0.4
					C150.3,334.8,150.5,334.4,150.8,334.3z"/>
				<path class="st2" d="M164.1,323.9c0.3-0.1,0.7,0.1,0.8,0.4c0.1,0.3,0,0.7-0.4,0.8c-0.3,0.1-0.7,0-0.8-0.4
					C163.6,324.4,163.7,324,164.1,323.9z"/>
				<path class="st2" d="M158,322.4c0.3-0.1,0.7,0,0.8,0.4c0.1,0.3,0,0.7-0.4,0.9c-0.3,0.1-0.7-0.1-0.8-0.4
					C157.5,322.9,157.7,322.5,158,322.4z"/>
				<path class="st2" d="M155.7,328.7c0.2-0.1,0.4,0,0.5,0.2c0.1,0.2,0,0.4-0.2,0.5c-0.2,0.1-0.4,0-0.5-0.2
					C155.5,329,155.5,328.8,155.7,328.7z"/>
			</g>
		</g>
		<g>
			
				<radialGradient id="SVGID_12_" cx="-4454.606" cy="-3916.8271" r="11.4274" gradientTransform="matrix(0.4655 -0.8164 0.8132 0.4673 5397.9805 -1431.7848)" gradientUnits="userSpaceOnUse">
				<stop  offset="0" style="stop-color:#FFFFFF;stop-opacity:0"/>
				<stop  offset="0.8765" style="stop-color:#FFFFFF;stop-opacity:0.7012"/>
				<stop  offset="1" style="stop-color:#FFFFFF;stop-opacity:0.8"/>
			</radialGradient>
			<path class="st13" d="M144.4,365.3c5.1,3,6.9,9.5,4,14.7c-2.9,5.2-9.5,6.9-14.6,4c-5.1-2.9-6.9-9.5-4-14.7
				C132.7,364.1,139.3,362.3,144.4,365.3z"/>
			<g class="st1">
				<path class="st2" d="M135.7,365.8c0.9-0.3,1.9,0,2.2,0.8c0.3,0.8-0.2,1.7-1.1,2c-0.9,0.3-1.9,0-2.2-0.8
					C134.3,367.1,134.8,366.2,135.7,365.8z"/>
				<path class="st2" d="M135.1,371.7c0.2-0.1,0.4,0,0.4,0.2c0.1,0.2,0,0.4-0.2,0.4c-0.2,0.1-0.4,0-0.4-0.2
					C134.9,371.9,135,371.8,135.1,371.7z"/>
				<path class="st2" d="M141.7,366.6c0.2-0.1,0.3,0,0.4,0.2c0.1,0.2,0,0.4-0.2,0.4c-0.2,0.1-0.4,0-0.4-0.2
					C141.4,366.8,141.5,366.6,141.7,366.6z"/>
				<path class="st2" d="M138.7,365.8c0.2-0.1,0.4,0,0.4,0.2c0.1,0.2,0,0.4-0.2,0.4c-0.2,0.1-0.4,0-0.4-0.2
					C138.5,366.1,138.5,365.9,138.7,365.8z"/>
				<path class="st2" d="M137.6,368.9c0.1,0,0.2,0,0.2,0.1c0,0.1,0,0.2-0.1,0.2c-0.1,0-0.2,0-0.2-0.1
					C137.4,369.1,137.5,369,137.6,368.9z"/>
			</g>
		</g>
		<g>
			
				<radialGradient id="SVGID_13_" cx="-4363.2622" cy="-3904.5376" r="11.4272" gradientTransform="matrix(0.4655 -0.8164 0.8132 0.4673 5397.9805 -1431.7848)" gradientUnits="userSpaceOnUse">
				<stop  offset="0" style="stop-color:#FFFFFF;stop-opacity:0"/>
				<stop  offset="0.8765" style="stop-color:#FFFFFF;stop-opacity:0.3506"/>
				<stop  offset="1" style="stop-color:#FFFFFF;stop-opacity:0.4"/>
			</radialGradient>
			<path class="st14" d="M196.9,296.4c5.1,2.9,6.9,9.5,4,14.7c-2.9,5.2-9.5,6.9-14.6,4c-5.1-2.9-6.9-9.5-4-14.7
				C185.2,295.3,191.8,293.5,196.9,296.4z"/>
			<g class="st1">
				<path class="st2" d="M188.3,297c0.9-0.3,1.9,0,2.2,0.8c0.3,0.8-0.2,1.7-1.1,2c-0.9,0.3-1.9,0-2.2-0.8
					C186.8,298.3,187.3,297.3,188.3,297z"/>
				<path class="st2" d="M187.7,302.9c0.2-0.1,0.4,0,0.4,0.2c0.1,0.2,0,0.4-0.2,0.4c-0.2,0.1-0.3,0-0.4-0.2
					C187.4,303.1,187.5,302.9,187.7,302.9z"/>
				<path class="st2" d="M194.2,297.7c0.2-0.1,0.4,0,0.4,0.2c0.1,0.2,0,0.4-0.2,0.4c-0.2,0.1-0.4,0-0.4-0.2
					C194,298,194,297.8,194.2,297.7z"/>
				<path class="st2" d="M191.2,297c0.2-0.1,0.4,0,0.4,0.2c0.1,0.2,0,0.4-0.2,0.4c-0.2,0.1-0.4,0-0.4-0.2
					C191,297.2,191.1,297,191.2,297z"/>
				<path class="st2" d="M190.1,300.1c0.1,0,0.2,0,0.2,0.1c0,0.1,0,0.2-0.1,0.2c-0.1,0-0.2,0-0.2-0.1
					C189.9,300.2,190,300.1,190.1,300.1z"/>
			</g>
		</g>
		<g>
			
				<radialGradient id="SVGID_14_" cx="-4340.0508" cy="-3981.5034" r="11.4275" gradientTransform="matrix(0.4655 -0.8164 0.8132 0.4673 5397.9805 -1431.7848)" gradientUnits="userSpaceOnUse">
				<stop  offset="0" style="stop-color:#FFFFFF;stop-opacity:0"/>
				<stop  offset="0.8765" style="stop-color:#FFFFFF;stop-opacity:0.7012"/>
				<stop  offset="1" style="stop-color:#FFFFFF;stop-opacity:0.8"/>
			</radialGradient>
			<path class="st15" d="M145.1,241.5c5.1,3,6.9,9.5,4,14.7c-2.9,5.2-9.5,6.9-14.6,4c-5.1-2.9-6.9-9.5-4-14.7
				C133.4,240.4,140,238.6,145.1,241.5z"/>
			<g class="st1">
				<path class="st2" d="M136.5,242.1c0.9-0.3,1.9,0,2.2,0.8c0.3,0.8-0.2,1.7-1.1,2c-0.9,0.3-1.9,0-2.2-0.8
					C135,243.3,135.5,242.4,136.5,242.1z"/>
				<path class="st2" d="M135.9,247.9c0.2-0.1,0.4,0,0.4,0.2c0.1,0.2,0,0.4-0.2,0.4c-0.2,0.1-0.4,0-0.4-0.2
					C135.6,248.2,135.7,248,135.9,247.9z"/>
				<path class="st2" d="M142.4,242.8c0.2-0.1,0.4,0,0.4,0.2c0.1,0.2,0,0.4-0.2,0.4c-0.2,0.1-0.4,0-0.4-0.2
					C142.2,243.1,142.3,242.9,142.4,242.8z"/>
				<path class="st2" d="M139.4,242.1c0.2-0.1,0.4,0,0.4,0.2c0.1,0.2,0,0.4-0.2,0.4c-0.2,0.1-0.4,0-0.4-0.2
					C139.2,242.3,139.3,242.1,139.4,242.1z"/>
				<path class="st2" d="M138.3,245.2c0.1,0,0.2,0,0.2,0.1c0,0.1,0,0.2-0.1,0.2c-0.1,0-0.2,0-0.2-0.1
					C138.2,245.3,138.2,245.2,138.3,245.2z"/>
			</g>
		</g>
		<g>
			
				<radialGradient id="SVGID_15_" cx="-4445.4922" cy="-3713.8809" r="11.4275" gradientTransform="matrix(0.4655 -0.8164 0.8132 0.4673 5397.9805 -1431.7848)" gradientUnits="userSpaceOnUse">
				<stop  offset="0" style="stop-color:#FFFFFF;stop-opacity:0"/>
				<stop  offset="0.8765" style="stop-color:#FFFFFF;stop-opacity:0.7012"/>
				<stop  offset="1" style="stop-color:#FFFFFF;stop-opacity:0.8"/>
			</radialGradient>
			<path class="st16" d="M313.7,452.7c5.1,3,6.9,9.5,4,14.7c-2.9,5.2-9.5,6.9-14.6,4c-5.1-2.9-6.9-9.5-4-14.7
				C302,451.5,308.5,449.7,313.7,452.7z"/>
			<g class="st1">
				<path class="st2" d="M305,453.2c0.9-0.3,1.9,0,2.2,0.8c0.3,0.8-0.2,1.7-1.1,2c-0.9,0.3-1.9,0-2.2-0.8
					C303.6,454.5,304.1,453.6,305,453.2z"/>
				<path class="st2" d="M304.4,459.1c0.2-0.1,0.4,0,0.4,0.2c0.1,0.2,0,0.4-0.2,0.4c-0.2,0.1-0.4,0-0.4-0.2
					C304.2,459.3,304.3,459.2,304.4,459.1z"/>
				<path class="st2" d="M311,454c0.2-0.1,0.4,0,0.4,0.2c0.1,0.2,0,0.4-0.2,0.4c-0.2,0.1-0.4,0-0.4-0.2
					C310.7,454.2,310.8,454,311,454z"/>
				<path class="st2" d="M308,453.2c0.2-0.1,0.4,0,0.4,0.2c0.1,0.2,0,0.4-0.2,0.4c-0.2,0.1-0.4,0-0.4-0.2
					C307.7,453.5,307.8,453.3,308,453.2z"/>
				<path class="st2" d="M306.9,456.3c0.1,0,0.2,0,0.2,0.1c0,0.1,0,0.2-0.1,0.2c-0.1,0-0.2,0-0.2-0.1
					C306.7,456.5,306.8,456.4,306.9,456.3z"/>
			</g>
		</g>
		<g>
			
				<radialGradient id="SVGID_16_" cx="7389.7793" cy="-151.3253" r="23.1018" gradientTransform="matrix(-0.9299 -0.1158 0.1153 -0.9335 8128.6899 944.0773)" gradientUnits="userSpaceOnUse">
				<stop  offset="0" style="stop-color:#FFFFFF;stop-opacity:0"/>
				<stop  offset="0.8765" style="stop-color:#FFFFFF;stop-opacity:0.7012"/>
				<stop  offset="1" style="stop-color:#FFFFFF;stop-opacity:0.8"/>
			</radialGradient>
			<path class="st17" d="M1218.1,226.9c1.5-11.9,12.3-20.4,24.1-18.9c11.9,1.5,20.3,12.3,18.8,24.2c-1.5,11.9-12.3,20.4-24.1,18.9
				C1225.1,249.7,1216.6,238.8,1218.1,226.9z"/>
			<g class="st1">
				<path class="st2" d="M1225.9,242.7c-1.4-1.5-1.5-3.6-0.3-4.7c1.2-1.2,3.3-0.9,4.7,0.5c1.4,1.5,1.5,3.6,0.3,4.7
					C1229.3,244.4,1227.2,244.1,1225.9,242.7z"/>
				<path class="st2" d="M1237.2,239.2c-0.2-0.3-0.2-0.7,0-0.9c0.3-0.3,0.7-0.2,0.9,0c0.2,0.3,0.2,0.7,0,0.9
					C1237.9,239.5,1237.5,239.5,1237.2,239.2z"/>
				<path class="st2" d="M1222.6,231c-0.2-0.3-0.2-0.7,0-0.9c0.3-0.3,0.7-0.2,0.9,0c0.2,0.3,0.2,0.7,0,0.9
					C1223.2,231.3,1222.8,231.2,1222.6,231z"/>
				<path class="st2" d="M1223.5,237.1c-0.2-0.3-0.2-0.7,0-0.9c0.3-0.2,0.7-0.2,0.9,0c0.2,0.3,0.2,0.7,0,0.9
					C1224.2,237.4,1223.8,237.4,1223.5,237.1z"/>
				<path class="st2" d="M1230.2,236.8c-0.1-0.2-0.1-0.4,0-0.5c0.2-0.1,0.4-0.1,0.5,0c0.1,0.2,0.1,0.4,0,0.5
					C1230.6,237,1230.3,237,1230.2,236.8z"/>
			</g>
		</g>
		<g>
			
				<radialGradient id="SVGID_17_" cx="7562.8999" cy="434.385" r="13.7596" gradientTransform="matrix(-0.936 -4.487127e-02 4.469521e-02 -0.9397 8234.96 944.1683)" gradientUnits="userSpaceOnUse">
				<stop  offset="0" style="stop-color:#FFFFFF;stop-opacity:0"/>
				<stop  offset="0.8765" style="stop-color:#FFFFFF;stop-opacity:0.3506"/>
				<stop  offset="1" style="stop-color:#FFFFFF;stop-opacity:0.4"/>
			</radialGradient>
			<path class="st18" d="M1162.8,196c0.3-7.1,6.4-12.7,13.5-12.3c7.1,0.3,12.6,6.4,12.3,13.5c-0.3,7.1-6.4,12.7-13.5,12.3
				C1168,209.2,1162.5,203.2,1162.8,196z"/>
			<g class="st1">
				<path class="st2" d="M1168.1,205c-0.9-0.8-1-2-0.4-2.8c0.7-0.7,1.9-0.7,2.8,0.1c0.9,0.8,1,2,0.4,2.8
					C1170.2,205.9,1169,205.8,1168.1,205z"/>
				<path class="st2" d="M1174.7,202.5c-0.2-0.1-0.2-0.4,0-0.6c0.1-0.2,0.4-0.2,0.5,0c0.2,0.1,0.2,0.4,0,0.6
					C1175.1,202.6,1174.9,202.6,1174.7,202.5z"/>
				<path class="st2" d="M1165.6,198.2c-0.2-0.1-0.2-0.4,0-0.6c0.1-0.2,0.4-0.2,0.5,0c0.2,0.1,0.2,0.4,0,0.6
					C1166,198.4,1165.8,198.4,1165.6,198.2z"/>
				<path class="st2" d="M1166.5,201.8c-0.2-0.1-0.2-0.4,0-0.6c0.1-0.2,0.4-0.2,0.6,0c0.2,0.1,0.2,0.4,0,0.6
					C1166.9,202,1166.6,202,1166.5,201.8z"/>
				<path class="st2" d="M1170.4,201.4c-0.1-0.1-0.1-0.2,0-0.3c0.1-0.1,0.2-0.1,0.3,0c0.1,0.1,0.1,0.2,0,0.3
					C1170.7,201.4,1170.5,201.4,1170.4,201.4z"/>
			</g>
		</g>
		<g>
			
				<radialGradient id="SVGID_18_" cx="8574.9004" cy="-101.5647" r="23.1014" gradientTransform="matrix(-0.9299 -0.1158 0.1153 -0.9335 8128.6899 944.0773)" gradientUnits="userSpaceOnUse">
				<stop  offset="0" style="stop-color:#FFFFFF;stop-opacity:0"/>
				<stop  offset="0.8765" style="stop-color:#FFFFFF;stop-opacity:0.7012"/>
				<stop  offset="1" style="stop-color:#FFFFFF;stop-opacity:0.8"/>
			</radialGradient>
			<path class="st19" d="M121.8,43.2c1.5-11.9,12.3-20.4,24.1-18.9c11.9,1.5,20.3,12.3,18.8,24.2c-1.5,11.9-12.3,20.4-24.1,18.9
				C128.8,66,120.3,55.2,121.8,43.2z"/>
			<g class="st1">
				<path class="st2" d="M129.6,59c-1.4-1.4-1.5-3.6-0.3-4.7c1.2-1.1,3.3-0.9,4.7,0.5c1.4,1.5,1.5,3.6,0.3,4.7
					C133,60.7,130.9,60.5,129.6,59z"/>
				<path class="st2" d="M140.9,55.5c-0.2-0.3-0.2-0.7,0-0.9c0.3-0.3,0.7-0.2,0.9,0c0.2,0.3,0.2,0.7,0,0.9
					C141.6,55.8,141.2,55.8,140.9,55.5z"/>
				<path class="st2" d="M126.3,47.3c-0.2-0.3-0.2-0.7,0-0.9c0.3-0.3,0.7-0.2,0.9,0c0.2,0.3,0.2,0.7,0,0.9
					C126.9,47.6,126.5,47.6,126.3,47.3z"/>
				<path class="st2" d="M127.2,53.4c-0.2-0.3-0.2-0.7,0-0.9c0.3-0.2,0.7-0.2,0.9,0c0.2,0.3,0.2,0.7,0,0.9
					C127.9,53.7,127.5,53.7,127.2,53.4z"/>
				<path class="st2" d="M133.9,53.1c-0.1-0.2-0.1-0.4,0-0.5c0.2-0.1,0.4-0.1,0.5,0c0.1,0.2,0.1,0.4,0,0.5
					C134.3,53.3,134.1,53.3,133.9,53.1z"/>
			</g>
		</g>
		<g>
			
				<radialGradient id="SVGID_19_" cx="8740.8262" cy="573.623" r="13.7599" gradientTransform="matrix(-0.936 -4.487127e-02 4.469521e-02 -0.9397 8234.96 944.1683)" gradientUnits="userSpaceOnUse">
				<stop  offset="0" style="stop-color:#FFFFFF;stop-opacity:0"/>
				<stop  offset="0.8765" style="stop-color:#FFFFFF;stop-opacity:0.3506"/>
				<stop  offset="1" style="stop-color:#FFFFFF;stop-opacity:0.4"/>
			</radialGradient>
			<path class="st20" d="M66.5,12.3C66.9,5.2,72.9-0.3,80,0c7.1,0.3,12.6,6.4,12.3,13.5c-0.3,7.1-6.4,12.7-13.5,12.3
				C71.7,25.5,66.2,19.5,66.5,12.3z"/>
			<g class="st1">
				<path class="st2" d="M71.8,21.3c-0.9-0.8-1-2-0.4-2.8c0.7-0.7,1.9-0.7,2.8,0.1c0.9,0.8,1,2,0.4,2.8C74,22.2,72.7,22.1,71.8,21.3
					z"/>
				<path class="st2" d="M78.4,18.8c-0.2-0.1-0.2-0.4,0-0.6c0.1-0.2,0.4-0.2,0.5,0c0.2,0.1,0.2,0.4,0,0.6
					C78.8,18.9,78.6,18.9,78.4,18.8z"/>
				<path class="st2" d="M69.4,14.5c-0.2-0.1-0.2-0.4,0-0.6c0.1-0.2,0.4-0.2,0.5,0c0.2,0.1,0.2,0.4,0,0.6
					C69.8,14.7,69.5,14.7,69.4,14.5z"/>
				<path class="st2" d="M70.2,18.1c-0.2-0.1-0.2-0.4,0-0.6c0.1-0.2,0.4-0.2,0.6,0c0.2,0.1,0.2,0.4,0,0.6
					C70.6,18.3,70.4,18.3,70.2,18.1z"/>
				<path class="st2" d="M74.1,17.7c-0.1-0.1-0.1-0.2,0-0.3c0.1-0.1,0.2-0.1,0.3,0c0.1,0.1,0.1,0.2,0,0.3
					C74.4,17.7,74.2,17.7,74.1,17.7z"/>
			</g>
		</g>
		<g>
			
				<radialGradient id="SVGID_20_" cx="7369.438" cy="307.9023" r="13.7596" gradientTransform="matrix(-0.936 -4.487127e-02 4.469521e-02 -0.9397 8234.96 944.1683)" gradientUnits="userSpaceOnUse">
				<stop  offset="0" style="stop-color:#FFFFFF;stop-opacity:0"/>
				<stop  offset="0.8765" style="stop-color:#FFFFFF;stop-opacity:0.3506"/>
				<stop  offset="1" style="stop-color:#FFFFFF;stop-opacity:0.4"/>
			</radialGradient>
			<path class="st21" d="M1338.2,323.5c0.3-7.1,6.4-12.7,13.5-12.3c7.1,0.3,12.6,6.4,12.3,13.5c-0.3,7.1-6.4,12.7-13.5,12.3
				C1343.4,336.8,1337.9,330.7,1338.2,323.5z"/>
			<g class="st1">
				<path class="st2" d="M1343.5,332.6c-0.9-0.8-1-2-0.4-2.8c0.7-0.7,1.9-0.7,2.8,0.1c0.9,0.8,1,2,0.4,2.8
					C1345.7,333.4,1344.4,333.4,1343.5,332.6z"/>
				<path class="st2" d="M1350.1,330c-0.2-0.1-0.2-0.4,0-0.6c0.1-0.2,0.4-0.2,0.5,0c0.2,0.1,0.2,0.4,0,0.6
					C1350.5,330.1,1350.3,330.1,1350.1,330z"/>
				<path class="st2" d="M1341.1,325.8c-0.2-0.1-0.2-0.4,0-0.6c0.1-0.2,0.4-0.2,0.5,0c0.2,0.1,0.2,0.4,0,0.6
					C1341.5,325.9,1341.2,325.9,1341.1,325.8z"/>
				<path class="st2" d="M1341.9,329.4c-0.2-0.1-0.2-0.4,0-0.6c0.1-0.2,0.4-0.2,0.6,0c0.2,0.1,0.2,0.4,0,0.6
					C1342.3,329.5,1342.1,329.5,1341.9,329.4z"/>
				<path class="st2" d="M1345.9,328.9c-0.1-0.1-0.1-0.2,0-0.3c0.1-0.1,0.2-0.1,0.3,0c0.1,0.1,0.1,0.2,0,0.3
					C1346.1,329,1345.9,329,1345.9,328.9z"/>
			</g>
		</g>
		<g>
			
				<radialGradient id="SVGID_21_" cx="7058.1997" cy="-2842.6885" r="23.1017" gradientTransform="matrix(-0.8102 -0.4725 0.4707 -0.8134 7080.813 1257.057)" gradientUnits="userSpaceOnUse">
				<stop  offset="0" style="stop-color:#FFFFFF;stop-opacity:0"/>
				<stop  offset="0.8765" style="stop-color:#FFFFFF;stop-opacity:0.5259"/>
				<stop  offset="1" style="stop-color:#FFFFFF;stop-opacity:0.6"/>
			</radialGradient>
			<path class="st22" d="M5.4,223.4c6-10.4,19.3-13.9,29.6-7.9c10.3,6,13.8,19.3,7.8,29.7c-6,10.4-19.3,13.9-29.6,7.9
				C2.9,247-0.6,233.7,5.4,223.4z"/>
			<g class="st1">
				<path class="st2" d="M6.4,240.9c-0.7-1.9,0-3.9,1.6-4.4c1.6-0.6,3.4,0.5,4.1,2.3c0.7,1.9,0,3.9-1.6,4.4
					C8.9,243.8,7.1,242.8,6.4,240.9z"/>
				<path class="st2" d="M18.2,242.2c-0.1-0.3,0.1-0.7,0.4-0.8c0.3-0.1,0.7,0,0.8,0.4c0.1,0.3-0.1,0.7-0.4,0.8
					C18.7,242.7,18.3,242.5,18.2,242.2z"/>
				<path class="st2" d="M7.9,228.8c-0.1-0.3,0.1-0.7,0.4-0.8c0.3-0.1,0.7,0,0.8,0.4c0.1,0.3-0.1,0.7-0.4,0.8
					C8.4,229.3,8,229.2,7.9,228.8z"/>
				<path class="st2" d="M6.4,234.9c-0.1-0.3,0.1-0.7,0.4-0.8c0.3-0.1,0.7,0,0.8,0.4c0.1,0.3-0.1,0.7-0.4,0.8
					C6.9,235.4,6.5,235.2,6.4,234.9z"/>
				<path class="st2" d="M12.7,237.2c-0.1-0.2,0-0.4,0.2-0.5c0.2-0.1,0.4,0,0.5,0.2c0.1,0.2,0,0.4-0.2,0.5
					C12.9,237.5,12.7,237.4,12.7,237.2z"/>
			</g>
		</g>
	</g>
	<g>
		
			<radialGradient id="SVGID_22_" cx="4898.1392" cy="7866.6245" r="40.4986" gradientTransform="matrix(-0.4655 0.8164 -0.8132 -0.4673 9811.9492 20.9003)" gradientUnits="userSpaceOnUse">
			<stop  offset="0" style="stop-color:#FFFFFF;stop-opacity:0"/>
			<stop  offset="0.8765" style="stop-color:#FFFFFF;stop-opacity:0.3506"/>
			<stop  offset="1" style="stop-color:#FFFFFF;stop-opacity:0.4"/>
		</radialGradient>
		<path class="st23" d="M1115.6,376.6c-18.2-10.5-24.5-33.7-14.1-52c10.4-18.3,33.6-24.6,51.8-14.1c18.2,10.5,24.5,33.7,14.1,52
			C1157,380.7,1133.8,387,1115.6,376.6z"/>
		<g class="st1">
			<path class="st2" d="M1146.3,374.6c-3.3,1.2-6.7,0-7.8-2.8c-1-2.8,0.8-6,4-7.2c3.3-1.2,6.7,0,7.8,2.8
				C1151.3,370.2,1149.5,373.4,1146.3,374.6z"/>
			<path class="st2" d="M1148.4,353.9c-0.6,0.2-1.2-0.1-1.5-0.7c-0.2-0.6,0.1-1.3,0.7-1.5c0.6-0.2,1.2,0.1,1.5,0.7
				C1149.2,353,1148.9,353.6,1148.4,353.9z"/>
			<path class="st2" d="M1125.2,372.1c-0.6,0.2-1.2-0.1-1.5-0.7c-0.2-0.6,0.1-1.3,0.7-1.5c0.6-0.2,1.2,0.1,1.5,0.7
				C1126.1,371.2,1125.8,371.9,1125.2,372.1z"/>
			<path class="st2" d="M1135.7,374.7c-0.6,0.2-1.2-0.1-1.5-0.7c-0.2-0.6,0.1-1.3,0.7-1.5c0.6-0.2,1.2,0.1,1.5,0.7
				C1136.6,373.8,1136.3,374.5,1135.7,374.7z"/>
			<path class="st2" d="M1139.8,363.7c-0.3,0.1-0.7-0.1-0.9-0.4c-0.1-0.4,0-0.8,0.4-0.9c0.3-0.1,0.7,0,0.9,0.4
				C1140.3,363.1,1140.1,363.5,1139.8,363.7z"/>
		</g>
	</g>
</g>
<g>
</g>
<g>
</g>
<g>
</g>
<g>
</g>
<g>
</g>
<g>
</g>
<g>
</g>
<g>
</g>
<g>
</g>
<g>
</g>
<g>
</g>
<g>
</g>
<g>
</g>
<g>
</g>
<g>
</g>
</svg>
