<?xml version="1.0" encoding="utf-8"?>
<!-- Generator: Adobe Illustrator 23.0.4, SVG Export Plug-In . SVG Version: 6.00 Build 0)  -->
<svg version="1.1" id="Layer_1" xmlns="http://www.w3.org/2000/svg" xmlns:xlink="http://www.w3.org/1999/xlink" x="0px" y="0px"
	 viewBox="0 0 1366 800" style="enable-background:new 0 0 1366 800;" xml:space="preserve">
<style type="text/css">
	.st0{fill:#9BCA40;}
	.st1{fill:url(#SVGID_1_);}
	.st2{fill:url(#SVGID_2_);}
	.st3{fill:#9C7000;}
	.st4{fill:url(#SVGID_3_);}
	.st5{fill:#E4AB17;}
	.st6{fill:url(#SVGID_4_);}
	.st7{fill:url(#SVGID_5_);}
	.st8{fill:url(#SVGID_6_);}
	.st9{fill:url(#SVGID_7_);}
	.st10{fill:url(#SVGID_8_);}
	.st11{fill:#FEA400;}
	.st12{fill:#FFFFFF;}
	.st13{fill:none;}
</style>
<g>
	<g>
		<rect x="0.9" y="179.8" class="st0" width="1365.1" height="620.2"/>
		<linearGradient id="SVGID_1_" gradientUnits="userSpaceOnUse" x1="683.4325" y1="239.0798" x2="683.4325" y2="58.1505">
			<stop  offset="0" style="stop-color:#9BCA40"/>
			<stop  offset="0.2301" style="stop-color:#A0CB3B"/>
			<stop  offset="0.5039" style="stop-color:#AECF2D"/>
			<stop  offset="0.7988" style="stop-color:#C6D415"/>
			<stop  offset="1" style="stop-color:#DBD900"/>
		</linearGradient>
		<path class="st1" d="M1366,131c-23.3,6.8-73-9.7-90.1-22c-15.3-10.9-34.2-14.3-51.2-20.4c-45.5-16.3-86.7-27.5-134.9-27.4
			c-113.5,0.2-209.4,73.9-323.5,63.3c-14.1-1.3-28-4.7-41.7-8.7c-5.9-1.8-10-4.5-15.3-7.2c-5.2-2.7-10.3-1.8-15.9-3
			c-14.3-3-28.3-6.4-42.9-7.8c-38.5-3.7-73-7.6-111.2-0.7c-77.8,14.2-141.1,7.7-215.4-20.8c-71.9-27.5-177.2-22.6-249,6.7
			c-9.1,3.7-24.5,14.5-22.1,27.1c-3,0-48.8,0-51.8,0c0,0.1,0,0.2,0,0.3c0,20.2,0,128.6,0,128.6s49.1-0.1,51-0.1
			c13.7,0,27.5,0,41.2,0c24.9,0,49.8,0,74.6,0c33.9,0,67.8,0,101.7,0c40.8,0,81.5,0,122.3,0c45.5,0,91,0,136.5,0
			c48.1,0,96.2,0,144.4,0c48.6,0,97.2,0,145.8,0c47,0,93.9,0,140.9,0c43.2,0,86.4,0,129.5,0c37.3,0,74.6,0,111.8,0
			c29.2,0,58.5,0,87.7,0c19.1,0,38.2,0,57.2,0c1,0,20.4,0,20.4,0C1366,239,1366,131,1366,131z"/>
		<linearGradient id="SVGID_2_" gradientUnits="userSpaceOnUse" x1="683.4325" y1="179.7609" x2="683.4325" y2="83.1936">
			<stop  offset="0" style="stop-color:#A5CC37"/>
			<stop  offset="9.955484e-02" style="stop-color:#B3CF46"/>
			<stop  offset="0.303" style="stop-color:#CBD45F"/>
			<stop  offset="0.5155" style="stop-color:#DCD871"/>
			<stop  offset="0.7407" style="stop-color:#E6DA7C"/>
			<stop  offset="1" style="stop-color:#E9DB7F"/>
		</linearGradient>
		<path class="st2" d="M1366,179.8V83.4c-39.6,0.3-78.9,3.4-117.8,11.8c-46.2,10-87.5,33.3-135.4,33.3c-48.1-0.1-96.4,1.5-144.5,0
			c-44.7-1.4-82.7-21-125.2-31.2c-31.6-7.6-66.8-5.9-98.7-2.9c-17,1.6-37,3.5-51.1,14.9c-13.9,11.2-27,11.5-44.1,11
			c-15.6-0.5-31.1-2.9-46.4-5.7c-12.8-2.3-27.3-4.8-39.6-9.2c-8.7-3.1-18.3-5.3-27.1-7.9c-16.7-4.9-34-3-50.9-5.5
			c-22.2-3.4-36.9,4.4-57.8,11c-32.8,10.3-75,9.5-108.8,7.7c-39.2-2-77.9-9.5-115.7-20.5c-28.2-8.2-105.7-7.1-135-6.9
			c-24.1,0.1-46.8-0.1-67,0.4v96H1366z"/>
		<g>
			<path class="st3" d="M58.9,94c0,0.9-1.5,1.6-3.4,1.6c-1.9,0-3.4-0.7-3.4-1.6c0-0.9,1.5-1.6,3.4-1.6C57.4,92.5,58.9,93.2,58.9,94z
				"/>
			<path class="st3" d="M66.7,94.7c0,0.9-1.5,1.7-3.2,1.7c-1.8,0-3.2-0.8-3.2-1.7c0-0.9,1.5-1.7,3.2-1.7
				C65.3,93,66.7,93.8,66.7,94.7z"/>
			<path class="st3" d="M438.3,133.6c0,1.2-1.5,2.1-3.2,2c-1.7-0.1-3.1-1.1-3-2.3c0-1.2,1.5-2.1,3.2-2
				C437,131.4,438.4,132.4,438.3,133.6z"/>
			<path class="st3" d="M448.2,132.8c0,1.1-1.7,1.9-3.7,1.8c-2-0.1-3.6-1-3.6-2.1c0-1.1,1.7-1.9,3.7-1.8
				C446.7,130.7,448.3,131.7,448.2,132.8z"/>
			<path class="st3" d="M563.5,118.1c-0.3,0.8-1.8,0.9-3.3,0.3c-1.5-0.6-2.6-1.8-2.3-2.6c0.3-0.8,1.8-0.9,3.3-0.3
				C562.8,116.2,563.8,117.3,563.5,118.1z"/>
			<path class="st3" d="M571.7,119.4c-0.3,0.8-1.9,0.9-3.7,0.1c-1.7-0.7-2.9-2-2.6-2.8c0.3-0.8,1.9-0.9,3.7-0.1
				C570.8,117.4,572,118.6,571.7,119.4z"/>
			<path class="st3" d="M578.7,123.1c-0.3,0.9-1.9,1-3.6,0.3c-1.7-0.7-2.8-2-2.5-2.9c0.3-0.9,1.9-1,3.6-0.3
				C577.9,121,579.1,122.2,578.7,123.1z"/>
			<path class="st3" d="M128.9,115.6c0,1.3-1.7,2.4-3.8,2.4c-2.1,0-3.8-1.1-3.8-2.4c0-1.3,1.7-2.4,3.8-2.4
				C127.2,113.2,128.9,114.3,128.9,115.6z"/>
			<path class="st3" d="M139.3,116.4c0,1.1-1.5,2-3.4,2c-1.9,0-3.4-0.9-3.4-2c0-1.1,1.5-2,3.4-2
				C137.7,114.4,139.3,115.3,139.3,116.4z"/>
			<path class="st3" d="M291.2,75.3c0,1.1-1.7,2-3.9,2c-2.2,0-3.9-0.9-3.9-2c0-1.1,1.7-2,3.9-2C289.4,73.3,291.2,74.2,291.2,75.3z"
				/>
			<path class="st3" d="M315.5,127.4c0,1.1-1.5,2-3.2,2c-1.8,0-3.2-0.9-3.2-2c0-1.1,1.5-2,3.2-2C314,125.4,315.5,126.3,315.5,127.4z
				"/>
			<path class="st3" d="M311,131.7c0,1.1-1.3,2-3,2c-1.7,0-3-0.9-3-2c0-1.1,1.3-2,3-2C309.7,129.7,311,130.6,311,131.7z"/>
		</g>
		<path class="st3" d="M914.9,107c0,0.7-1.2,1.3-2.6,1.3c-1.4,0-2.6-0.6-2.6-1.3c0-0.7,1.2-1.3,2.6-1.3
			C913.7,105.7,914.9,106.3,914.9,107z"/>
		<path class="st3" d="M921.1,105.3c0,0.7-0.9,1.3-2.1,1.3c-1.2,0-2.1-0.6-2.1-1.3c0-0.7,0.9-1.3,2.1-1.3
			C920.2,104,921.1,104.6,921.1,105.3z"/>
		<path class="st3" d="M922.7,111c0,0.7-1.3,1.3-3,1.3c-1.7,0-3-0.6-3-1.3c0-0.7,1.3-1.3,3-1.3C921.3,109.7,922.7,110.3,922.7,111z"
			/>
		<g>
			<path class="st3" d="M865.8,118.1c0,1.6-3,2.8-6.7,2.8c-3.7,0-6.7-1.3-6.7-2.8c0-1.6,3-2.8,6.7-2.8
				C862.8,115.3,865.8,116.6,865.8,118.1z"/>
			<path class="st3" d="M847.2,117.3c0,1.1-1.4,1.9-3,1.9c-1.7,0-3-0.9-3-1.9c0-1.1,1.4-1.9,3-1.9
				C845.8,115.3,847.2,116.2,847.2,117.3z"/>
			<path class="st3" d="M875.7,122.7c0,1-1.4,1.8-3.2,1.8c-1.8,0-3.2-0.8-3.2-1.8c0-1,1.4-1.8,3.2-1.8
				C874.3,120.9,875.7,121.7,875.7,122.7z"/>
			<path class="st3" d="M655.8,100.2c0,0.8-1.2,1.4-2.6,1.4c-1.4,0-2.6-0.6-2.6-1.4c0-0.8,1.2-1.4,2.6-1.4
				C654.6,98.7,655.8,99.4,655.8,100.2z"/>
			<path class="st3" d="M650.8,101.2c0,0.4-0.8,0.7-1.8,0.7c-1,0-1.8-0.3-1.8-0.7s0.8-0.7,1.8-0.7
				C650,100.4,650.8,100.8,650.8,101.2z"/>
			<path class="st3" d="M660.7,101.9c0,0.8-0.9,1.4-2.1,1.4c-1.2,0-2.1-0.6-2.1-1.4c0-0.8,0.9-1.4,2.1-1.4
				C659.8,100.4,660.7,101.1,660.7,101.9z"/>
			<path class="st3" d="M721.3,102.4c0,0.6-0.8,1-1.7,1c-0.9,0-1.7-0.4-1.7-1c0-0.6,0.8-1,1.7-1
				C720.5,101.4,721.3,101.9,721.3,102.4z"/>
			<path class="st3" d="M726.2,101.9c0,0.4-0.8,0.7-1.8,0.7c-1,0-1.8-0.3-1.8-0.7c0-0.4,0.8-0.7,1.8-0.7
				C725.4,101.2,726.2,101.5,726.2,101.9z"/>
			<path class="st3" d="M1063.8,69.5c0,1.2-2.3,2.1-5.1,2.1c-2.8,0-5.1-1-5.1-2.1c0-1.2,2.3-2.1,5.1-2.1
				C1061.5,67.3,1063.8,68.3,1063.8,69.5z"/>
			<path class="st3" d="M1073.4,68.8c0,1.1-1.3,2-3,2c-1.7,0-3-0.9-3-2c0-1.1,1.3-2,3-2C1072.1,66.8,1073.4,67.7,1073.4,68.8z"/>
			<path class="st3" d="M1069.8,74c0,0.9-0.8,1.6-1.8,1.6c-1,0-1.8-0.7-1.8-1.6c0-0.9,0.8-1.6,1.8-1.6
				C1069,72.5,1069.8,73.2,1069.8,74z"/>
			<path class="st3" d="M1149.3,141.3c0,0.9-1.4,1.7-3.1,1.7c-1.7,0-3.1-0.8-3.1-1.7c0-0.9,1.4-1.7,3.1-1.7
				C1147.9,139.6,1149.3,140.4,1149.3,141.3z"/>
			<path class="st3" d="M1159.2,140.3c0,0.9-1.6,1.6-3.6,1.6c-2,0-3.6-0.7-3.6-1.6c0-0.9,1.6-1.6,3.6-1.6
				C1157.6,138.8,1159.2,139.5,1159.2,140.3z"/>
			<path class="st3" d="M961.4,140.5c0,0.7-2,1.3-4.4,1.3c-2.4,0-4.4-0.6-4.4-1.3s2-1.3,4.4-1.3
				C959.4,139.2,961.4,139.8,961.4,140.5z"/>
			<path class="st3" d="M970.8,140c0,0.9-1.8,1.7-4,1.7c-2.2,0-4-0.8-4-1.7c0-0.9,1.8-1.7,4-1.7C969,138.3,970.8,139.1,970.8,140z"
				/>
			<path class="st3" d="M977.5,136.9c0,0.8-1.5,1.4-3.4,1.4s-3.4-0.6-3.4-1.4c0-0.8,1.5-1.4,3.4-1.4S977.5,136.1,977.5,136.9z"/>
			<path class="st3" d="M1347.2,99c0,0.9-1.5,1.6-3.4,1.6c-1.9,0-3.4-0.7-3.4-1.6c0-0.9,1.5-1.6,3.4-1.6
				C1345.7,97.5,1347.2,98.2,1347.2,99z"/>
			<path class="st3" d="M1355,99.7c0,0.9-1.5,1.7-3.2,1.7c-1.8,0-3.2-0.8-3.2-1.7c0-0.9,1.5-1.7,3.2-1.7
				C1353.6,98,1355,98.8,1355,99.7z"/>
		</g>
		<g>
			<path class="st3" d="M1348.2,290.8c0-0.9,1.5-1.6,3.4-1.6c1.9,0,3.4,0.7,3.4,1.6c0,0.9-1.5,1.6-3.4,1.6
				C1349.8,292.4,1348.2,291.7,1348.2,290.8z"/>
			<path class="st3" d="M1340.5,290.1c0-0.9,1.5-1.7,3.2-1.7c1.8,0,3.2,0.8,3.2,1.7c0,0.9-1.5,1.7-3.2,1.7
				C1341.9,291.8,1340.5,291,1340.5,290.1z"/>
			<path class="st3" d="M968.9,251.2c0-1.2,1.5-2.1,3.2-2c1.7,0.1,3.1,1.1,3,2.3c0,1.2-1.5,2.1-3.2,2
				C970.2,253.5,968.8,252.4,968.9,251.2z"/>
			<path class="st3" d="M959,252.1c0-1.1,1.7-1.9,3.7-1.8c2,0.1,3.6,1,3.6,2.1c0,1.1-1.7,1.9-3.7,1.8
				C960.5,254.1,958.9,253.2,959,252.1z"/>
			<path class="st3" d="M843.7,266.7c0.3-0.8,1.8-0.9,3.3-0.3c1.5,0.6,2.6,1.8,2.3,2.6c-0.3,0.8-1.8,0.9-3.3,0.3
				C844.4,268.7,843.4,267.5,843.7,266.7z"/>
			<path class="st3" d="M835.5,265.4c0.3-0.8,1.9-0.9,3.7-0.1c1.7,0.7,2.9,2,2.6,2.8c-0.3,0.8-1.9,0.9-3.7,0.1
				C836.4,267.5,835.2,266.2,835.5,265.4z"/>
			<path class="st3" d="M828.4,261.7c0.3-0.9,1.9-1,3.6-0.3c1.7,0.7,2.8,2,2.5,2.9c-0.3,0.9-1.9,1-3.6,0.3
				C829.2,263.9,828.1,262.6,828.4,261.7z"/>
			<path class="st3" d="M1278.3,269.2c0-1.3,1.7-2.4,3.8-2.4c2.1,0,3.8,1.1,3.8,2.4c0,1.3-1.7,2.4-3.8,2.4
				C1280,271.6,1278.3,270.5,1278.3,269.2z"/>
			<path class="st3" d="M1267.9,268.5c0-1.1,1.5-2,3.4-2c1.9,0,3.4,0.9,3.4,2c0,1.1-1.5,2-3.4,2
				C1269.4,270.5,1267.9,269.6,1267.9,268.5z"/>
			<path class="st3" d="M1116,309.5c0-1.1,1.7-2,3.9-2c2.2,0,3.9,0.9,3.9,2c0,1.1-1.7,2-3.9,2C1117.7,311.5,1116,310.6,1116,309.5z"
				/>
			<path class="st3" d="M1091.7,257.4c0-1.1,1.5-2,3.2-2c1.8,0,3.2,0.9,3.2,2c0,1.1-1.5,2-3.2,2
				C1093.2,259.4,1091.7,258.5,1091.7,257.4z"/>
			<path class="st3" d="M1096.1,253.1c0-1.1,1.3-2,3-2c1.7,0,3,0.9,3,2c0,1.1-1.3,2-3,2C1097.5,255.1,1096.1,254.2,1096.1,253.1z"/>
		</g>
		<g>
			<path class="st3" d="M541.4,266.7c0-1.6,3-2.8,6.7-2.8c3.7,0,6.7,1.3,6.7,2.8c0,1.6-3,2.8-6.7,2.8
				C544.4,269.5,541.4,268.2,541.4,266.7z"/>
			<path class="st3" d="M560,267.6c0-1.1,1.4-1.9,3-1.9c1.7,0,3,0.9,3,1.9c0,1.1-1.4,1.9-3,1.9C561.4,269.5,560,268.6,560,267.6z"/>
			<path class="st3" d="M531.4,262.1c0-1,1.4-1.8,3.2-1.8c1.8,0,3.2,0.8,3.2,1.8c0,1-1.4,1.8-3.2,1.8
				C532.9,263.9,531.4,263.1,531.4,262.1z"/>
			<path class="st3" d="M751.4,284.7c0-0.8,1.2-1.4,2.6-1.4c1.4,0,2.6,0.6,2.6,1.4c0,0.8-1.2,1.4-2.6,1.4
				C752.6,286.1,751.4,285.5,751.4,284.7z"/>
			<path class="st3" d="M756.4,283.7c0-0.4,0.8-0.7,1.8-0.7c1,0,1.8,0.3,1.8,0.7c0,0.4-0.8,0.7-1.8,0.7
				C757.2,284.4,756.4,284.1,756.4,283.7z"/>
			<path class="st3" d="M746.5,283c0-0.8,0.9-1.4,2.1-1.4c1.2,0,2.1,0.6,2.1,1.4c0,0.8-0.9,1.4-2.1,1.4
				C747.4,284.4,746.5,283.8,746.5,283z"/>
			<path class="st3" d="M685.9,282.4c0-0.6,0.8-1,1.7-1s1.7,0.4,1.7,1s-0.8,1-1.7,1S685.9,283,685.9,282.4z"/>
			<path class="st3" d="M681,283c0-0.4,0.8-0.7,1.8-0.7c1,0,1.8,0.3,1.8,0.7c0,0.4-0.8,0.7-1.8,0.7C681.8,283.7,681,283.4,681,283z"
				/>
			<path class="st3" d="M343.4,315.4c0-1.2,2.3-2.1,5.1-2.1c2.8,0,5.1,1,5.1,2.1c0,1.2-2.3,2.1-5.1,2.1
				C345.6,317.5,343.4,316.5,343.4,315.4z"/>
			<path class="st3" d="M333.8,316.1c0-1.1,1.3-2,3-2c1.7,0,3,0.9,3,2c0,1.1-1.3,2-3,2C335.1,318.1,333.8,317.2,333.8,316.1z"/>
			<path class="st3" d="M337.4,310.8c0-0.9,0.8-1.6,1.8-1.6c1,0,1.8,0.7,1.8,1.6c0,0.9-0.8,1.6-1.8,1.6
				C338.2,312.4,337.4,311.7,337.4,310.8z"/>
			<path class="st3" d="M257.9,243.5c0-0.9,1.4-1.7,3.1-1.7c1.7,0,3.1,0.8,3.1,1.7c0,0.9-1.4,1.7-3.1,1.7
				C259.3,245.2,257.9,244.5,257.9,243.5z"/>
			<path class="st3" d="M248,244.5c0-0.9,1.6-1.6,3.6-1.6c2,0,3.6,0.7,3.6,1.6c0,0.9-1.6,1.6-3.6,1.6
				C249.6,246.1,248,245.4,248,244.5z"/>
			<path class="st3" d="M445.8,244.4c0-0.7,2-1.3,4.4-1.3c2.4,0,4.4,0.6,4.4,1.3s-2,1.3-4.4,1.3
				C447.8,245.6,445.8,245.1,445.8,244.4z"/>
			<path class="st3" d="M436.4,244.8c0-0.9,1.8-1.7,4-1.7c2.2,0,4,0.8,4,1.7c0,0.9-1.8,1.7-4,1.7
				C438.2,246.5,436.4,245.7,436.4,244.8z"/>
			<path class="st3" d="M429.7,247.9c0-0.8,1.5-1.4,3.4-1.4c1.9,0,3.4,0.6,3.4,1.4c0,0.8-1.5,1.4-3.4,1.4
				C431.2,249.3,429.7,248.7,429.7,247.9z"/>
			<path class="st3" d="M60,285.8c0-0.9,1.5-1.6,3.4-1.6c1.9,0,3.4,0.7,3.4,1.6c0,0.9-1.5,1.6-3.4,1.6C61.5,287.4,60,286.7,60,285.8
				z"/>
			<path class="st3" d="M52.2,285.1c0-0.9,1.5-1.7,3.2-1.7c1.8,0,3.2,0.8,3.2,1.7c0,0.9-1.5,1.7-3.2,1.7
				C53.6,286.8,52.2,286,52.2,285.1z"/>
		</g>
		<g>
			<path class="st3" d="M58.9,516.5c0,0.9-1.5,1.6-3.4,1.6c-1.9,0-3.4-0.7-3.4-1.6c0-0.9,1.5-1.6,3.4-1.6
				C57.4,514.9,58.9,515.6,58.9,516.5z"/>
			<path class="st3" d="M66.7,517.2c0,0.9-1.5,1.7-3.2,1.7c-1.8,0-3.2-0.8-3.2-1.7c0-0.9,1.5-1.7,3.2-1.7
				C65.3,515.5,66.7,516.3,66.7,517.2z"/>
			<path class="st3" d="M438.3,556.1c0,1.2-1.5,2.1-3.2,2c-1.7-0.1-3.1-1.1-3-2.3c0-1.2,1.5-2.1,3.2-2
				C437,553.9,438.4,554.9,438.3,556.1z"/>
			<path class="st3" d="M448.2,555.2c0,1.1-1.7,1.9-3.7,1.8c-2-0.1-3.6-1-3.6-2.1c0-1.1,1.7-1.9,3.7-1.8
				C446.7,553.2,448.3,554.1,448.2,555.2z"/>
			<path class="st3" d="M563.5,540.6c-0.3,0.8-1.8,0.9-3.3,0.3c-1.5-0.6-2.6-1.8-2.3-2.6c0.3-0.8,1.8-0.9,3.3-0.3
				C562.8,538.6,563.8,539.8,563.5,540.6z"/>
			<path class="st3" d="M571.7,541.9c-0.3,0.8-1.9,0.9-3.7,0.1c-1.7-0.7-2.9-2-2.6-2.8c0.3-0.8,1.9-0.9,3.7-0.1
				C570.8,539.8,572,541.1,571.7,541.9z"/>
			<path class="st3" d="M578.7,545.6c-0.3,0.9-1.9,1-3.6,0.3c-1.7-0.7-2.8-2-2.5-2.9c0.3-0.9,1.9-1,3.6-0.3
				C577.9,543.4,579.1,544.7,578.7,545.6z"/>
			<path class="st3" d="M128.9,538.1c0,1.3-1.7,2.4-3.8,2.4c-2.1,0-3.8-1.1-3.8-2.4c0-1.3,1.7-2.4,3.8-2.4
				C127.2,535.7,128.9,536.8,128.9,538.1z"/>
			<path class="st3" d="M139.3,538.8c0,1.1-1.5,2-3.4,2c-1.9,0-3.4-0.9-3.4-2s1.5-2,3.4-2C137.7,536.8,139.3,537.7,139.3,538.8z"/>
			<path class="st3" d="M291.2,497.8c0,1.1-1.7,2-3.9,2c-2.2,0-3.9-0.9-3.9-2c0-1.1,1.7-2,3.9-2
				C289.4,495.8,291.2,496.7,291.2,497.8z"/>
			<path class="st3" d="M315.5,549.9c0,1.1-1.5,2-3.2,2c-1.8,0-3.2-0.9-3.2-2c0-1.1,1.5-2,3.2-2C314,547.9,315.5,548.8,315.5,549.9z
				"/>
			<path class="st3" d="M311,554.2c0,1.1-1.3,2-3,2c-1.7,0-3-0.9-3-2c0-1.1,1.3-2,3-2C309.7,552.2,311,553.1,311,554.2z"/>
		</g>
		<g>
			<path class="st3" d="M865.8,540.6c0,1.6-3,2.8-6.7,2.8c-3.7,0-6.7-1.3-6.7-2.8c0-1.6,3-2.8,6.7-2.8
				C862.8,537.8,865.8,539.1,865.8,540.6z"/>
			<path class="st3" d="M847.2,539.7c0,1.1-1.4,1.9-3,1.9c-1.7,0-3-0.9-3-1.9c0-1.1,1.4-1.9,3-1.9
				C845.8,537.8,847.2,538.7,847.2,539.7z"/>
			<path class="st3" d="M875.7,545.2c0,1-1.4,1.8-3.2,1.8c-1.8,0-3.2-0.8-3.2-1.8c0-1,1.4-1.8,3.2-1.8
				C874.3,543.4,875.7,544.2,875.7,545.2z"/>
			<path class="st3" d="M655.8,522.6c0,0.8-1.2,1.4-2.6,1.4c-1.4,0-2.6-0.6-2.6-1.4c0-0.8,1.2-1.4,2.6-1.4
				C654.6,521.2,655.8,521.8,655.8,522.6z"/>
			<path class="st3" d="M650.8,523.6c0,0.4-0.8,0.7-1.8,0.7c-1,0-1.8-0.3-1.8-0.7c0-0.4,0.8-0.7,1.8-0.7
				C650,522.9,650.8,523.2,650.8,523.6z"/>
			<path class="st3" d="M660.7,524.3c0,0.8-0.9,1.4-2.1,1.4c-1.2,0-2.1-0.6-2.1-1.4c0-0.8,0.9-1.4,2.1-1.4
				C659.8,522.9,660.7,523.6,660.7,524.3z"/>
			<path class="st3" d="M721.3,524.9c0,0.6-0.8,1-1.7,1c-0.9,0-1.7-0.4-1.7-1s0.8-1,1.7-1C720.5,523.9,721.3,524.4,721.3,524.9z"/>
			<path class="st3" d="M726.2,524.3c0,0.4-0.8,0.7-1.8,0.7c-1,0-1.8-0.3-1.8-0.7c0-0.4,0.8-0.7,1.8-0.7
				C725.4,523.6,726.2,523.9,726.2,524.3z"/>
			<path class="st3" d="M1063.8,491.9c0,1.2-2.3,2.1-5.1,2.1c-2.8,0-5.1-1-5.1-2.1c0-1.2,2.3-2.1,5.1-2.1
				C1061.5,489.8,1063.8,490.8,1063.8,491.9z"/>
			<path class="st3" d="M1073.4,491.2c0,1.1-1.3,2-3,2c-1.7,0-3-0.9-3-2c0-1.1,1.3-2,3-2C1072.1,489.2,1073.4,490.1,1073.4,491.2z"
				/>
			<path class="st3" d="M1069.8,496.5c0,0.9-0.8,1.6-1.8,1.6c-1,0-1.8-0.7-1.8-1.6c0-0.9,0.8-1.6,1.8-1.6
				C1069,494.9,1069.8,495.6,1069.8,496.5z"/>
			<path class="st3" d="M1149.3,563.8c0,0.9-1.4,1.7-3.1,1.7c-1.7,0-3.1-0.8-3.1-1.7c0-0.9,1.4-1.7,3.1-1.7
				C1147.9,562.1,1149.3,562.8,1149.3,563.8z"/>
			<path class="st3" d="M1159.2,562.8c0,0.9-1.6,1.6-3.6,1.6c-2,0-3.6-0.7-3.6-1.6c0-0.9,1.6-1.6,3.6-1.6
				C1157.6,561.2,1159.2,561.9,1159.2,562.8z"/>
			<path class="st3" d="M961.4,562.9c0,0.7-2,1.3-4.4,1.3c-2.4,0-4.4-0.6-4.4-1.3c0-0.7,2-1.3,4.4-1.3
				C959.4,561.7,961.4,562.2,961.4,562.9z"/>
			<path class="st3" d="M970.8,562.5c0,0.9-1.8,1.7-4,1.7c-2.2,0-4-0.8-4-1.7c0-0.9,1.8-1.7,4-1.7
				C969,560.8,970.8,561.6,970.8,562.5z"/>
			<path class="st3" d="M977.5,559.4c0,0.8-1.5,1.4-3.4,1.4s-3.4-0.6-3.4-1.4c0-0.8,1.5-1.4,3.4-1.4S977.5,558.6,977.5,559.4z"/>
			<path class="st3" d="M1347.2,521.5c0,0.9-1.5,1.6-3.4,1.6c-1.9,0-3.4-0.7-3.4-1.6c0-0.9,1.5-1.6,3.4-1.6
				C1345.7,519.9,1347.2,520.6,1347.2,521.5z"/>
			<path class="st3" d="M1355,522.2c0,0.9-1.5,1.7-3.2,1.7c-1.8,0-3.2-0.8-3.2-1.7c0-0.9,1.5-1.7,3.2-1.7
				C1353.6,520.5,1355,521.3,1355,522.2z"/>
		</g>
	</g>
	<g>
		<g>
			<linearGradient id="SVGID_3_" gradientUnits="userSpaceOnUse" x1="130.1971" y1="606.1536" x2="130.1971" y2="494.3389">
				<stop  offset="0" style="stop-color:#FEC019"/>
				<stop  offset="0.2582" style="stop-color:#FED422"/>
				<stop  offset="0.7347" style="stop-color:#FFF331"/>
				<stop  offset="1" style="stop-color:#FFFF36"/>
			</linearGradient>
			<path class="st4" d="M184.7,558.2c-3.7,30.6-31.2,51.8-61.3,47.4c-30.1-4.4-51.4-32.8-47.7-63.3c3.7-30.6,31.2-51.8,61.3-47.3
				C167.1,499.3,188.4,527.7,184.7,558.2z"/>
			<polygon class="st5" points="128.3,525.5 132.1,524.3 134.8,634.2 118.7,633.6 			"/>
			<polygon class="st5" points="131.3,554.5 140.7,542.3 144.1,547.2 131.8,564.1 			"/>
			<polygon class="st5" points="110.2,543.5 126.1,570.5 124.7,578.4 107.3,550.3 			"/>
			<polygon class="st5" points="148.9,559.4 149.9,568.2 130.4,596 129.6,585.9 			"/>
			<polygon class="st5" points="130.8,600.9 122.7,600.8 108.4,586 109.3,576.5 			"/>
		</g>
		<g>
			<linearGradient id="SVGID_4_" gradientUnits="userSpaceOnUse" x1="76.9418" y1="89.8713" x2="76.9418" y2="1.1805">
				<stop  offset="0" style="stop-color:#FEC019"/>
				<stop  offset="0.2582" style="stop-color:#FED422"/>
				<stop  offset="0.7347" style="stop-color:#FFF331"/>
				<stop  offset="1" style="stop-color:#FFFF36"/>
			</linearGradient>
			<path class="st6" d="M120.5,41.3c2,24.4-15.9,46-40,48.4c-24,2.3-45.1-15.5-47.1-39.9c-2-24.4,15.9-46,40-48.4
				C97.4-0.9,118.5,16.9,120.5,41.3z"/>
			<polygon class="st5" points="74.1,21.1 77.7,20.7 86.3,110 75.4,114.8 			"/>
			<path class="st5" d="M78.9,39.2c0.2-1.1,6.6-18.5,6.6-18.5l2.6,7.4l-8.1,19.5L78.9,39.2z"/>
			<polygon class="st5" points="65.7,38 77.6,48.2 77.3,57 63.2,43.4 			"/>
			<polygon class="st5" points="79.1,58.8 95,48.5 95.9,54.6 79.8,62.8 			"/>
			<polygon class="st5" points="62.6,61.8 79.2,68.2 77,73.9 60.3,65.6 			"/>
		</g>
		<g>
			<linearGradient id="SVGID_5_" gradientUnits="userSpaceOnUse" x1="1152.6138" y1="128.8059" x2="1152.6138" y2="45.8873">
				<stop  offset="0" style="stop-color:#FFFF36"/>
				<stop  offset="0.1514" style="stop-color:#FFFF42"/>
				<stop  offset="0.4243" style="stop-color:#FFFF61"/>
				<stop  offset="0.7847" style="stop-color:#FFFF94"/>
				<stop  offset="0.9946" style="stop-color:#FFFFB5"/>
			</linearGradient>
			<path class="st7" d="M1192.9,87.3c0,22.9-18,41.5-40.3,41.5c-22.2,0-40.3-18.6-40.3-41.5c0-22.9,18-41.5,40.3-41.5
				C1174.9,45.9,1192.9,64.5,1192.9,87.3z"/>
			<path class="st5" d="M1149.6,62.8h3c0,0,8.7,92.1,7.7,92.1c-1,0-10.7,0.7-10.7,0.7V62.8z"/>
			<polygon class="st5" points="1141.5,78.9 1141.9,84 1151.3,89.2 1150.9,85.5 			"/>
			<polygon class="st5" points="1132.8,96.2 1154,107.2 1150.6,109.4 1130.8,99.5 			"/>
			<polygon class="st5" points="1154.6,94.3 1163,88.4 1163,92.5 1155,99.1 			"/>
			<polygon class="st5" points="1169.4,107.2 1173.4,111.6 1156.3,125.5 1155,121.8 			"/>
		</g>
		<g>
			<linearGradient id="SVGID_6_" gradientUnits="userSpaceOnUse" x1="273.7611" y1="237.3705" x2="273.7611" y2="148.7196">
				<stop  offset="0" style="stop-color:#FFFF36"/>
				<stop  offset="0.1514" style="stop-color:#FFFF42"/>
				<stop  offset="0.4243" style="stop-color:#FFFF61"/>
				<stop  offset="0.7847" style="stop-color:#FFFF94"/>
				<stop  offset="0.9946" style="stop-color:#FFFFB5"/>
			</linearGradient>
			<path class="st8" d="M317.4,190.6c1.1,24.4-17.5,45.3-41.6,46.7c-24.1,1.3-44.6-17.4-45.7-41.8c-1.1-24.4,17.5-45.3,41.6-46.7
				C295.8,147.4,316.3,166.2,317.4,190.6z"/>
			<polygon class="st5" points="271.7,168.5 275.4,168.3 280.8,257.8 269.8,262.2 			"/>
			<path class="st5" d="M275.9,186.8c0.3-1.1,7.2-18.2,7.2-18.2l2.4,7.5l-8.8,19.1L275.9,186.8z"/>
			<polygon class="st5" points="262.8,185.1 274.3,195.8 273.7,204.6 260.1,190.4 			"/>
			<polygon class="st5" points="275.5,206.4 291.7,196.7 292.4,202.9 276,210.4 			"/>
			<polygon class="st5" points="258.9,208.7 275.3,215.8 272.9,221.4 256.4,212.5 			"/>
		</g>
		<g>
			<linearGradient id="SVGID_7_" gradientUnits="userSpaceOnUse" x1="1291.2867" y1="393.3418" x2="1291.2867" y2="254.3329">
				<stop  offset="0" style="stop-color:#FEC019"/>
				<stop  offset="0.2582" style="stop-color:#FED422"/>
				<stop  offset="0.7347" style="stop-color:#FFF331"/>
				<stop  offset="1" style="stop-color:#FFFF36"/>
			</linearGradient>
			<path class="st9" d="M1359.7,320c1.8,38.3-27.4,71.1-65.2,73.2c-37.8,2.1-69.9-27.3-71.7-65.6c-1.8-38.3,27.4-71.1,65.2-73.2
				C1325.9,252.3,1357.9,281.7,1359.7,320z"/>
			<polygon class="st5" points="1288.1,285.4 1293.9,285.1 1302.5,433 1285.1,432.3 			"/>
			<path class="st5" d="M1294.7,314.1c0.4-1.7,11.3-28.6,11.3-28.6l3.7,11.8l-13.8,30L1294.7,314.1z"/>
			<polygon class="st5" points="1274.1,311.4 1292.2,328.1 1291.3,341.9 1269.8,319.6 			"/>
			<polygon class="st5" points="1294,344.8 1319.5,329.6 1320.5,339.3 1294.8,351 			"/>
			<polygon class="st5" points="1268,348.3 1293.7,359.5 1289.9,368.3 1264.1,354.3 			"/>
		</g>
		<g>
			<linearGradient id="SVGID_8_" gradientUnits="userSpaceOnUse" x1="926.8427" y1="626.8959" x2="926.8427" y2="459.0959">
				<stop  offset="0" style="stop-color:#FEC019"/>
				<stop  offset="0.2582" style="stop-color:#FED422"/>
				<stop  offset="0.7347" style="stop-color:#FFF331"/>
				<stop  offset="1" style="stop-color:#FFFF36"/>
			</linearGradient>
			<path class="st10" d="M1008.7,553.9c-5.1,46-45.9,78.3-91.1,72.3c-45.2-6-77.8-48.1-72.7-94.1c5.1-45.9,45.9-78.3,91.1-72.3
				C981.3,465.8,1013.8,507.9,1008.7,553.9z"/>
			<polygon class="st5" points="923.5,505.9 929.3,504 935.2,668.9 911.1,668.4 			"/>
			<polygon class="st5" points="928.6,549.3 942.5,530.8 947.7,538.2 929.5,563.7 			"/>
			<polygon class="st5" points="896.7,533.2 921,573.4 919,585.4 892.4,543.5 			"/>
			<polygon class="st5" points="955.1,556.4 956.7,569.5 927.9,611.6 926.5,596.5 			"/>
			<polygon class="st5" points="928.6,618.9 916.5,619.1 894.8,597.1 895.9,582.8 			"/>
		</g>
		<g>
			<path class="st11" d="M866.5,504.1c3.4-1.5,6.4-11,9.3-11.4c6.7-0.7,2.6,3.1,7.9,6c5.1,2.8,2,9.3,9.6,9
				c5.1-0.1,8.5-10.5,13.6-11.6c19.9-4.5,13.5,19.6,17.6,32c5.7,17.1,32.2,19.5,39.8,1.4c4.6,15.7,13.2,56,34.8,51
				c22.8-5.2,21.1-47.2,15.3-64.1c-17.4-51.1-88.1-76-132.4-54c-9.4,4.7-27,12.1-31.3,23.1C846.3,497,853.9,509.6,866.5,504.1z"/>
			<path class="st12" d="M867.6,500.2c3.4-1.5,6.4-11,9.3-11.4c6.7-0.7,2.6,3.1,7.9,6c5.1,2.8,2,9.3,9.6,9
				c5.1-0.1,8.5-10.5,13.6-11.6c19.9-4.5,13.5,19.6,17.6,32c5.7,17.1,32.2,19.5,39.8,1.4c4.6,15.7,13.2,56,34.8,51
				c22.8-5.2,21.1-47.2,15.3-64.1c-17.4-51.1-88.1-76-132.4-54c-9.4,4.7-27,12.1-31.3,23.1C847.4,493.1,855,505.7,867.6,500.2z"/>
		</g>
		<g>
			<path class="st11" d="M1180.9,67.6c-1.6-0.7-3-5.1-4.3-5.3c-3.1-0.3-1.2,1.5-3.6,2.8c-2.4,1.3-0.9,4.3-4.5,4.2
				c-2.4-0.1-3.9-4.9-6.3-5.4c-9.2-2.1-6.3,9.1-8.2,14.8c-2.7,8-14.9,9-18.4,0.7c-2.2,7.3-6.1,26-16.2,23.7
				c-10.6-2.4-9.8-21.9-7.1-29.7c8.1-23.7,40.9-35.3,61.4-25.1c4.4,2.2,12.5,5.6,14.5,10.7C1190.3,64.3,1186.7,70.2,1180.9,67.6z"/>
			<path class="st12" d="M1180.4,65.8c-1.6-0.7-3-5.1-4.3-5.3c-3.1-0.3-1.2,1.5-3.6,2.8c-2.4,1.3-0.9,4.3-4.5,4.2
				c-2.4-0.1-3.9-4.9-6.3-5.4c-9.2-2.1-6.3,9.1-8.2,14.8c-2.7,8-14.9,9-18.4,0.7c-2.2,7.3-6.1,26-16.2,23.7
				c-10.6-2.4-9.8-21.9-7.1-29.7c8.1-23.7,40.9-35.3,61.4-25.1c4.4,2.2,12.5,5.6,14.5,10.7C1189.8,62.5,1186.2,68.4,1180.4,65.8z"/>
		</g>
		<path class="st13" d="M589.3,493c-14.7,9-2.8,26.6,6.7,18.2c9.4-8.3-4.9-20.3-13.8-15.1"/>
		<g>
			<path class="st11" d="M92.6,557.2c2.4-2.8,1-7.2,2.8-10.1c1.9-3.2,5-3.3,7.7-5.4c4.8-3.8,6.5-8.6,7.7-14.8
				c4.8,0.7,5.4,6.1,7,10.2c1.7,4.7,3.5,7.6,8.1,8.5c5.2,1.1,9.9,0.7,12.7,6.7c1,2.1,1.2,7.4,4.2,6.7c7.5-1.7,4.4-19.3,4.6-24.4
				c0.3-5.4,2.3-7.9,7.2-8.9c3-0.6,6.2-0.3,9.2-0.2c2.3,0.1,8,1.6,10,0.5c8.2-4.6-1.5-15.5-5.6-19.6c-12.2-12.4-38.1-14.4-53.3-11.5
				C98.4,497.9,76.1,514,75.8,535c-0.1,5.8,0.2,14.9,4,19.5C82.1,557.4,89.4,560.9,92.6,557.2z"/>
			<path class="st12" d="M91.5,553.9c2.4-2.8,1-7.2,2.8-10.1c1.9-3.2,5-3.3,7.7-5.4c4.8-3.8,6.5-8.6,7.7-14.8
				c4.8,0.7,5.4,6.1,7,10.2c1.7,4.7,3.5,7.6,8.1,8.5c5.2,1.1,9.9,0.7,12.7,6.7c1,2.1,1.2,7.4,4.2,6.7c7.5-1.7,4.4-19.3,4.6-24.4
				c0.3-5.4,2.3-7.9,7.2-8.9c3-0.6,6.2-0.3,9.2-0.2c2.3,0.1,8,1.6,10,0.5c8.2-4.6-1.5-15.5-5.6-19.6c-12.2-12.4-38.1-14.4-53.3-11.5
				c-16.4,3.1-38.7,19.2-38.9,40.3c-0.1,5.8,0.2,14.9,4,19.5C81,554.1,88.3,557.6,91.5,553.9z"/>
		</g>
		<g>
			<path class="st11" d="M46.9,53.3c1.9-2.2,0.8-5.7,2.2-8.1c1.6-2.6,4-2.6,6.2-4.3c3.8-3,5.2-6.8,6.1-11.8c3.9,0.6,4.3,4.8,5.5,8.1
				c1.4,3.7,2.8,6,6.5,6.8c4.1,0.9,7.9,0.5,10.1,5.3c0.8,1.7,0.9,5.9,3.3,5.4c6-1.4,3.5-15.4,3.7-19.4c0.2-4.3,1.8-6.3,5.7-7.1
				c2.4-0.5,4.9-0.3,7.3-0.2c1.8,0.1,6.4,1.3,8,0.4c6.5-3.7-1.2-12.3-4.5-15.7C97.3,3,76.7,1.3,64.6,3.6
				c-13.1,2.5-30.8,15.3-31,32.1c-0.1,4.6,0.2,11.9,3.2,15.5C38.6,53.5,44.4,56.3,46.9,53.3z"/>
			<path class="st12" d="M46,50.7c1.9-2.2,0.8-5.7,2.2-8.1c1.6-2.6,4-2.6,6.2-4.3c3.8-3,5.2-6.8,6.1-11.8c3.9,0.6,4.3,4.8,5.5,8.1
				c1.4,3.7,2.8,6,6.5,6.8c4.1,0.9,7.9,0.5,10.1,5.3c0.8,1.7,0.9,5.9,3.3,5.4c6-1.4,3.5-15.4,3.7-19.4c0.2-4.3,1.8-6.3,5.7-7.1
				c2.4-0.5,4.9-0.3,7.3-0.2c1.8,0.1,6.4,1.3,8,0.4c6.5-3.7-1.2-12.3-4.5-15.7C96.4,0.3,75.8-1.3,63.7,1
				c-13.1,2.5-30.8,15.3-31,32.1c0,4.6,0.2,11.9,3.2,15.5C37.7,50.9,43.5,53.7,46,50.7z"/>
		</g>
		<g>
			<path class="st11" d="M293.9,151.7c-2.9-1.5-5.8-2.7-8.6-3.5c-12.4-3.7-29.2-3.4-39.4,6.4c-2.3,2.2-7.1,7.6-5.5,11.5
				c1.1,2.8,6.6,3.8,8.9,2.3c2.8-1.8,6.2-4.8,8.9-1.3c1.9,2.4-0.1,5.4,2.9,7.6c3.4,2.7,9.3,0.8,12.1-2.1c2.1-2.2,2.5-6.7,5.8-6.9
				c3.7-0.2,4.2,3.8,4.5,6.5c0.5,4.4-1.5,4.2,3.1,6.2c5.5,2.4,8.2,0.8,10.1,7.9c1.6,6,2.4,6.9,8.4,3.7c-1.9,1,2,16.3,2.7,18.2
				c1.6,4.2,5.9,10.1,8,2.4c2.3-8.4,2-21,1-29.6C315.2,168.1,305,157.6,293.9,151.7z"/>
			<path class="st12" d="M294.5,149.7c-2.9-1.5-5.8-2.7-8.6-3.5c-12.4-3.7-29.2-3.4-39.4,6.4c-2.3,2.2-7.1,7.6-5.5,11.5
				c1.1,2.8,6.6,3.8,8.9,2.3c2.8-1.8,6.2-4.8,8.9-1.3c1.9,2.4-0.1,5.4,2.9,7.6c3.4,2.7,9.3,0.8,12.1-2.1c2.1-2.2,2.5-6.7,5.8-6.9
				c3.7-0.2,4.2,3.8,4.5,6.5c0.5,4.4-1.5,4.2,3.1,6.2c5.5,2.4,8.2,0.8,10.1,7.9c1.6,6,2.4,6.9,8.4,3.7c-1.9,1,2,16.3,2.7,18.2
				c1.6,4.2,5.9,10.1,8,2.4c2.3-8.4,2-21,1-29.6C315.7,166.1,305.5,155.5,294.5,149.7z"/>
		</g>
		<g>
			<path class="st11" d="M1336.9,338.3c-3.1-3.6-1.2-9.2-3.5-12.9c-2.5-4.1-6.4-4.2-9.9-6.9c-6.1-4.8-8.4-11-9.8-18.9
				c-6.2,0.9-6.9,7.8-8.9,13c-2.2,6-4.5,9.7-10.4,10.9c-6.6,1.4-12.6,0.9-16.2,8.5c-1.3,2.7-1.5,9.5-5.3,8.6
				c-9.6-2.2-5.6-24.6-5.9-31.1c-0.4-6.9-2.9-10.1-9.2-11.4c-3.8-0.8-7.9-0.4-11.7-0.3c-2.9,0.1-10.2,2-12.7,0.6
				c-10.4-5.9,1.9-19.8,7.2-25.1c15.6-15.8,48.7-18.4,68.1-14.7c20.9,4,49.4,24.5,49.7,51.4c0.1,7.4-0.3,19-5.1,24.9
				C1350.3,338.6,1341,343,1336.9,338.3z"/>
			<path class="st12" d="M1338.3,334.1c-3.1-3.6-1.3-9.2-3.5-12.9c-2.5-4.1-6.4-4.2-9.9-6.9c-6.1-4.8-8.4-11-9.8-18.9
				c-6.2,0.9-6.9,7.8-8.9,13c-2.2,6-4.5,9.7-10.4,10.9c-6.6,1.4-12.6,0.8-16.2,8.5c-1.3,2.7-1.5,9.5-5.3,8.6
				c-9.6-2.2-5.6-24.6-5.9-31.1c-0.4-6.9-2.9-10.1-9.2-11.4c-3.8-0.8-7.9-0.4-11.7-0.3c-2.9,0.1-10.2,2-12.7,0.6
				c-10.4-5.9,1.9-19.8,7.2-25.1c15.6-15.8,48.7-18.4,68.1-14.7c20.9,4,49.4,24.5,49.7,51.4c0.1,7.4-0.3,19-5.1,24.9
				C1351.7,334.3,1342.4,338.8,1338.3,334.1z"/>
		</g>
	</g>
</g>
<g>
</g>
<g>
</g>
<g>
</g>
<g>
</g>
<g>
</g>
<g>
</g>
<g>
</g>
<g>
</g>
<g>
</g>
<g>
</g>
<g>
</g>
<g>
</g>
<g>
</g>
<g>
</g>
<g>
</g>
</svg>
