<?xml version="1.0" encoding="utf-8"?>
<!-- Generator: Adobe Illustrator 23.0.4, SVG Export Plug-In . SVG Version: 6.00 Build 0)  -->
<svg version="1.1" id="Layer_1" xmlns="http://www.w3.org/2000/svg" xmlns:xlink="http://www.w3.org/1999/xlink" x="0px" y="0px"
	 viewBox="0 0 1293 768" style="enable-background:new 0 0 1293 768;" xml:space="preserve">
<style type="text/css">
	.st0{fill:url(#SVGID_1_);}
	.st1{fill:#FFFFFF;}
	.st2{fill:url(#SVGID_2_);}
	.st3{fill:url(#SVGID_3_);}
	.st4{fill:url(#SVGID_4_);}
	.st5{fill:url(#SVGID_5_);}
	.st6{fill:url(#SVGID_6_);}
	.st7{fill:url(#SVGID_7_);}
</style>
<g>
	
		<image style="overflow:visible;opacity:0.2;" width="1366" height="837" xlink:href="D57D68D7A5C1B0BB.png"  transform="matrix(1 0 0 1 -36.2241 -28.2241)">
	</image>
	<g>
		<g>
			<g>
				
					<linearGradient id="SVGID_1_" gradientUnits="userSpaceOnUse" x1="-138.4871" y1="-617.9286" x2="959.1348" y2="-617.9286" gradientTransform="matrix(1.6916 3.814863e-03 -3.760125e-03 1.6674 -51.7031 1412.7582)">
					<stop  offset="0" style="stop-color:#FC2C8C"/>
					<stop  offset="1" style="stop-color:#B616AE"/>
				</linearGradient>
				<path class="st0" d="M1292.6,495.9c-61.9-0.1-112-49.7-111.8-110.7s50.4-110.3,112.3-110.2l0,0l0.3-124.7L0.9,147.4L0.7,272.1
					c61.9,0.1,112,49.7,111.8,110.7S62.1,493.2,0.2,493l-0.3,124.7l1292.5,2.9L1292.6,495.9L1292.6,495.9z"/>
				<g>
					<g>
						<path class="st1" d="M294.2,435.7c-1.7,0-3.6,0-5.6-0.1c-2-0.1-4-0.2-6.1-0.4c-2-0.2-4-0.4-6-0.6c-2-0.2-3.8-0.6-5.5-1
							l0.2-82.1c1.7-0.4,3.5-0.7,5.5-1c2-0.2,4-0.4,6-0.6c2-0.2,4-0.3,6-0.4c2-0.1,3.8-0.1,5.6-0.1c5,0,9.6,0.4,13.9,1.1
							c4.3,0.7,8.1,2,11.3,3.8c3.2,1.8,5.7,4.1,7.5,6.9c1.8,2.9,2.7,6.4,2.7,10.5c0,4.6-1.1,8.5-3.4,11.4c-2.2,3-5.2,5.2-8.9,6.6
							c5,1.5,9,3.8,12,7c3,3.2,4.4,7.7,4.4,13.5c0,8.5-3.2,14.8-9.5,19.1C318,433.6,307.9,435.8,294.2,435.7z M283,395.5l-0.1,29.8
							c0.9,0.1,2,0.2,3.2,0.3c1.1,0.1,2.3,0.1,3.8,0.2c1.4,0,3.1,0.1,5,0.1c3.6,0,6.9-0.2,10.1-0.6c3.2-0.4,6-1.2,8.4-2.4
							c2.4-1.1,4.3-2.7,5.8-4.8c1.5-2,2.2-4.6,2.2-7.7c0-2.8-0.5-5.1-1.6-7c-1.1-1.9-2.6-3.4-4.6-4.6c-2-1.1-4.4-2-7.2-2.5
							c-2.8-0.5-5.9-0.7-9.4-0.8L283,395.5z M283.1,386l12.6,0c3,0,5.8-0.2,8.4-0.6c2.6-0.4,4.9-1.1,6.9-2.2
							c1.9-1.1,3.5-2.4,4.6-4.1c1.1-1.7,1.7-3.9,1.7-6.5c0-2.4-0.6-4.5-1.7-6.2c-1.2-1.7-2.7-3-4.8-4c-2-1-4.4-1.8-7.1-2.3
							c-2.7-0.5-5.6-0.7-8.7-0.8c-3.1,0-5.5,0-7.2,0.1c-1.7,0.1-3.3,0.2-4.7,0.4L283.1,386z"/>
						<path class="st1" d="M413.7,433.4c-2.6,0.6-6.1,1.3-10.5,2.1c-4.3,0.7-9.4,1.1-15.1,1.1c-5,0-9.1-0.7-12.5-2.2
							c-3.4-1.4-6.1-3.5-8.2-6.1c-2.1-2.6-3.5-5.7-4.4-9.2c-0.9-3.5-1.3-7.5-1.3-11.8l0.1-35.7l11.5,0l-0.1,33.2
							c0,7.7,1.2,13.3,3.7,16.6c2.5,3.3,6.6,5,12.5,5c1.2,0,2.5,0,3.8-0.1c1.3-0.1,2.6-0.2,3.7-0.3c1.2-0.1,2.2-0.2,3.2-0.4
							c0.9-0.1,1.6-0.3,2-0.4l0.1-53.6l11.5,0L413.7,433.4z"/>
						<path class="st1" d="M438.4,447.2c0.9,0.4,2.1,0.8,3.5,1.2c1.4,0.4,2.9,0.6,4.3,0.6c4.5,0,8.1-1,10.7-3c2.6-2,4.9-5.2,7-9.7
							c-5.2-9.8-10-20.2-14.5-31.1c-4.5-11-8.2-22.1-11.1-33.3l12.4,0c0.9,3.7,2,7.6,3.3,11.9c1.3,4.2,2.7,8.6,4.2,13.1
							c1.6,4.5,3.2,9,5.1,13.5c1.8,4.5,3.7,8.8,5.7,13c3.2-8.5,5.9-17,8.2-25.4c2.3-8.4,4.5-17,6.6-25.9l11.9,0
							c-3,12-6.3,23.5-10,34.5c-3.7,11-7.6,21.4-11.8,31c-1.7,3.7-3.4,6.8-5.2,9.5c-1.8,2.6-3.8,4.8-5.9,6.5c-2.2,1.7-4.6,3-7.3,3.8
							c-2.7,0.8-5.7,1.2-9.1,1.2c-0.9,0-1.9-0.1-2.9-0.2c-1-0.1-2-0.3-2.9-0.5c-1-0.2-1.8-0.4-2.6-0.7c-0.8-0.2-1.3-0.5-1.7-0.6
							L438.4,447.2z"/>
						<path class="st1" d="M619.4,351l0,10.3l-27-0.1l-0.2,74.4l-12,0l0.2-74.4l-27-0.1l0-10.3L619.4,351z"/>
						<path class="st1" d="M649.3,360.8c-2.1,0-3.8-0.7-5.3-2c-1.4-1.3-2.2-3.2-2.2-5.4c0-2.3,0.7-4.1,2.2-5.4c1.4-1.3,3.2-2,5.3-2
							c2.1,0,3.8,0.7,5.3,2c1.4,1.3,2.2,3.2,2.2,5.4c0,2.3-0.7,4.1-2.2,5.4C653.2,360.1,651.4,360.8,649.3,360.8z M655,435.8
							l-11.5,0l0.1-63.5l11.5,0L655,435.8z"/>
						<path class="st1" d="M715.3,437.4c-5.2,0-9.8-0.8-13.7-2.5c-3.9-1.6-7.2-3.9-9.9-6.9c-2.7-2.9-4.7-6.4-6-10.5
							c-1.3-4-2-8.5-2-13.4s0.7-9.4,2.2-13.4c1.5-4.1,3.5-7.6,6.2-10.6c2.7-3,5.9-5.3,9.7-6.9c3.8-1.7,8.1-2.5,12.8-2.5
							c2.9,0,5.8,0.3,8.7,0.8c2.9,0.5,5.7,1.3,8.3,2.3l-2.6,9.6c-1.7-0.8-3.7-1.5-6-2c-2.3-0.5-4.7-0.7-7.3-0.7
							c-6.4,0-11.4,2-14.8,6c-3.4,4-5.2,9.8-5.2,17.5c0,3.4,0.4,6.6,1.2,9.4c0.8,2.9,2,5.3,3.7,7.3c1.7,2,3.9,3.6,6.5,4.7
							c2.6,1.1,5.9,1.7,9.7,1.7c3.1,0,5.8-0.3,8.3-0.8c2.5-0.6,4.4-1.2,5.8-1.8l1.6,9.5c-0.7,0.4-1.6,0.8-2.9,1.2
							c-1.2,0.4-2.6,0.7-4.2,1c-1.6,0.3-3.2,0.5-5,0.7C718.6,437.3,716.9,437.4,715.3,437.4z"/>
						<path class="st1" d="M780.7,401.1c2.5,1.9,5.1,4.2,7.9,7c2.8,2.8,5.5,5.8,8.2,9c2.7,3.2,5.2,6.5,7.6,9.8
							c2.4,3.3,4.4,6.4,6.1,9.2l-13.5,0c-1.7-2.9-3.7-5.8-6-8.8c-2.3-3-4.6-5.8-7.1-8.6c-2.5-2.7-5-5.2-7.5-7.5
							c-2.6-2.3-5-4.2-7.3-5.8l-0.1,30.6l-11.5,0l0.2-92.9l11.5-1.9l-0.1,57.9c2-2,4.2-4.1,6.6-6.5c2.4-2.4,4.8-4.8,7.1-7.2
							c2.3-2.4,4.5-4.8,6.6-7c2.1-2.2,3.9-4.2,5.3-5.9l13.5,0c-1.9,2-4,4.3-6.2,6.7c-2.2,2.4-4.6,4.9-7,7.4c-2.4,2.5-4.8,5-7.3,7.4
							C785.1,396.6,782.8,398.9,780.7,401.1z"/>
						<path class="st1" d="M827.7,404.5c0-5.6,0.8-10.5,2.5-14.7c1.7-4.2,3.9-7.7,6.6-10.4c2.7-2.8,5.9-4.8,9.4-6.2
							c3.6-1.4,7.2-2.1,10.9-2.1c8.7,0,15.3,2.7,19.9,8c4.6,5.3,6.9,13.5,6.9,24.4c0,0.5,0,1.1,0,1.9c0,0.8,0,1.5-0.1,2.1l-44.1-0.1
							c0.5,6.6,2.4,11.6,5.8,15c3.4,3.4,8.7,5.2,15.9,5.2c4,0,7.5-0.3,10.2-1c2.8-0.7,4.9-1.4,6.3-2l1.6,9.5
							c-1.4,0.7-3.9,1.5-7.4,2.3c-3.5,0.8-7.5,1.2-12,1.2c-5.6,0-10.5-0.9-14.6-2.5c-4.1-1.7-7.5-4-10.1-6.9
							c-2.6-2.9-4.6-6.4-5.9-10.5C828.3,413.8,827.6,409.4,827.7,404.5z M871.9,398.4c0.1-5.1-1.2-9.4-3.9-12.7
							c-2.7-3.3-6.4-5-11.1-5c-2.6,0-5,0.5-7,1.5c-2,1-3.7,2.3-5.2,4c-1.4,1.6-2.5,3.5-3.3,5.6c-0.8,2.1-1.3,4.3-1.6,6.5
							L871.9,398.4z"/>
						<path class="st1" d="M923.8,372.9l24.4,0.1l0,9.5l-24.4-0.1l-0.1,29.3c0,3.2,0.2,5.8,0.7,7.9c0.5,2.1,1.2,3.7,2.2,4.9
							c1,1.2,2.2,2,3.7,2.5c1.5,0.5,3.2,0.7,5.2,0.7c3.5,0,6.3-0.4,8.4-1.1c2.1-0.8,3.6-1.3,4.4-1.6l2.2,9.4
							c-1.2,0.6-3.2,1.3-6.1,2.1c-2.9,0.8-6.2,1.3-9.9,1.3c-4.4,0-8-0.6-10.8-1.7c-2.8-1.1-5.1-2.8-6.9-5c-1.7-2.2-2.9-4.9-3.6-8.1
							c-0.7-3.2-1-6.9-1-11.2l0.1-56.7l11.5-1.9L923.8,372.9z"/>
						<path class="st1" d="M990.1,428.4c4.7,0,8.2-0.6,10.5-1.8c2.3-1.2,3.4-3.2,3.4-5.9c0-2.8-1.1-5-3.3-6.6
							c-2.2-1.6-5.9-3.5-11-5.5c-2.5-1-4.9-2-7.1-3c-2.3-1-4.2-2.2-5.9-3.6c-1.7-1.4-3-3.1-4-5c-1-2-1.5-4.4-1.5-7.2
							c0-5.6,2.1-10.1,6.4-13.4c4.2-3.3,10-4.9,17.2-4.9c1.8,0,3.6,0.1,5.5,0.3c1.8,0.2,3.5,0.5,5.1,0.7c1.6,0.3,3,0.6,4.2,0.9
							c1.2,0.3,2.1,0.6,2.8,0.9l-2.1,9.8c-1.2-0.7-3.2-1.3-5.8-2c-2.6-0.7-5.8-1.1-9.5-1.1c-3.2,0-6,0.6-8.4,1.9
							c-2.4,1.3-3.6,3.2-3.6,5.9c0,1.4,0.3,2.6,0.8,3.7c0.5,1.1,1.4,2,2.5,2.9c1.1,0.9,2.5,1.7,4.1,2.4c1.7,0.7,3.6,1.5,5.9,2.3
							c3.1,1.1,5.8,2.3,8.2,3.4c2.4,1.1,4.4,2.4,6.1,3.9c1.7,1.5,3,3.2,3.9,5.3c0.9,2.1,1.4,4.6,1.3,7.6c0,5.9-2.2,10.3-6.7,13.3
							c-4.4,3-10.7,4.5-18.9,4.5c-5.7,0-10.2-0.5-13.4-1.4c-3.2-0.9-5.4-1.7-6.6-2.2l2.1-9.8c1.3,0.5,3.4,1.2,6.3,2.2
							C981.5,427.9,985.3,428.4,990.1,428.4z"/>
					</g>
				</g>
				<g>
					<g>
						<g>
							<polygon class="st1" points="292.2,228.6 299.2,242.6 314.8,244.9 303.5,255.7 306.1,271 292.2,263.7 278.2,270.9 
								280.9,255.6 269.6,244.8 285.2,242.6 							"/>
							<polygon class="st1" points="356.7,228.8 363.7,242.7 379.3,245 368,255.8 370.6,271.2 356.7,263.9 342.7,271.1 345.4,255.8 
								334.1,244.9 349.7,242.7 							"/>
							<polygon class="st1" points="421.2,228.9 428.2,242.9 443.8,245.2 432.5,256 435.1,271.3 421.2,264 407.2,271.2 409.9,255.9 
								398.6,245.1 414.2,242.9 							"/>
							<polygon class="st1" points="485.7,229.1 492.7,243 508.3,245.3 497,256.1 499.6,271.4 485.7,264.2 471.7,271.4 474.4,256.1 
								463.1,245.2 478.7,243 							"/>
							<polygon class="st1" points="550.2,229.2 557.2,243.2 572.8,245.4 561.5,256.3 564.1,271.6 550.2,264.3 536.2,271.5 
								538.9,256.2 527.6,245.3 543.2,243.1 							"/>
							<polygon class="st1" points="614.7,229.4 621.7,243.3 637.3,245.6 626,256.4 628.6,271.7 614.7,264.5 600.7,271.7 
								603.4,256.4 592.1,245.5 607.7,243.3 							"/>
							<polygon class="st1" points="679.2,229.5 686.2,243.5 701.8,245.7 690.5,256.6 693.1,271.9 679.2,264.6 665.2,271.8 
								667.9,256.5 656.6,245.6 672.2,243.4 							"/>
							<polygon class="st1" points="743.7,229.7 750.7,243.6 766.3,245.9 755,256.7 757.6,272 743.7,264.8 729.7,272 732.4,256.7 
								721.1,245.8 736.7,243.6 							"/>
							<polygon class="st1" points="808.2,229.8 815.2,243.8 830.8,246 819.5,256.8 822.1,272.2 808.2,264.9 794.2,272.1 
								796.9,256.8 785.6,245.9 801.2,243.7 							"/>
							<polygon class="st1" points="872.7,230 879.7,243.9 895.3,246.2 884,257 886.6,272.3 872.7,265.1 858.7,272.3 861.4,256.9 
								850.1,246.1 865.7,243.9 							"/>
							<polygon class="st1" points="937.2,230.1 944.2,244 959.8,246.3 948.5,257.1 951.1,272.5 937.2,265.2 923.2,272.4 
								925.9,257.1 914.6,246.2 930.2,244 							"/>
							<polygon class="st1" points="1001.7,230.2 1008.7,244.2 1024.3,246.5 1013,257.3 1015.6,272.6 1001.7,265.3 987.7,272.5 
								990.4,257.2 979.1,246.4 994.7,244.2 							"/>
						</g>
						<g>
							<polygon class="st1" points="291.6,495.4 298.6,509.4 314.2,511.7 302.9,522.5 305.5,537.8 291.6,530.5 277.6,537.7 
								280.3,522.4 269,511.6 284.6,509.4 							"/>
							<polygon class="st1" points="356.1,495.6 363.1,509.5 378.7,511.8 367.4,522.6 370,538 356.1,530.7 342.1,537.9 344.8,522.6 
								333.5,511.7 349.1,509.5 							"/>
							<polygon class="st1" points="420.6,495.7 427.6,509.7 443.2,512 431.9,522.8 434.5,538.1 420.6,530.8 406.6,538 409.3,522.7 
								398,511.9 413.6,509.7 							"/>
							<polygon class="st1" points="485.1,495.9 492.1,509.8 507.7,512.1 496.4,522.9 499,538.2 485.1,531 471.1,538.2 473.8,522.9 
								462.5,512 478.1,509.8 							"/>
							<polygon class="st1" points="549.6,496 556.6,510 572.2,512.3 560.9,523.1 563.5,538.4 549.6,531.1 535.6,538.3 538.3,523 
								527,512.1 542.6,509.9 							"/>
							<polygon class="st1" points="614.1,496.2 621.1,510.1 636.7,512.4 625.4,523.2 628,538.5 614.1,531.3 600.1,538.5 
								602.8,523.2 591.5,512.3 607.1,510.1 							"/>
							<polygon class="st1" points="678.6,496.3 685.6,510.3 701.2,512.5 689.9,523.4 692.5,538.7 678.6,531.4 664.6,538.6 
								667.3,523.3 656,512.4 671.6,510.2 							"/>
							<polygon class="st1" points="743.1,496.5 750.1,510.4 765.7,512.7 754.4,523.5 757,538.8 743.1,531.6 729.1,538.8 
								731.8,523.5 720.5,512.6 736.1,510.4 							"/>
							<polygon class="st1" points="807.6,496.6 814.6,510.6 830.2,512.8 818.9,523.7 821.5,539 807.6,531.7 793.6,538.9 
								796.3,523.6 785,512.7 800.6,510.5 							"/>
							<polygon class="st1" points="872.1,496.8 879.1,510.7 894.7,513 883.4,523.8 886,539.1 872.1,531.9 858.1,539.1 860.8,523.7 
								849.5,512.9 865.1,510.7 							"/>
							<polygon class="st1" points="936.6,496.9 943.6,510.9 959.2,513.1 947.9,523.9 950.5,539.3 936.6,532 922.6,539.2 
								925.3,523.9 914,513 929.6,510.8 							"/>
							<polygon class="st1" points="1001.1,497 1008.1,511 1023.7,513.3 1012.4,524.1 1015,539.4 1001.1,532.1 987.1,539.3 
								989.8,524 978.5,513.2 994.1,511 							"/>
						</g>
					</g>
				</g>
				<g>
					
						<rect x="-45.3" y="376.9" transform="matrix(2.255121e-03 -1 1 2.255121e-03 -193.5449 571.9834)" class="st1" width="470.3" height="12.2"/>
				</g>
				<g>
					
						<rect x="868.2" y="378.9" transform="matrix(2.255121e-03 -1 1 2.255121e-03 715.879 1487.5808)" class="st1" width="470.3" height="12.2"/>
				</g>
			</g>
			<g>
				
					<linearGradient id="SVGID_2_" gradientUnits="userSpaceOnUse" x1="-585.5725" y1="-413.4726" x2="512.0494" y2="-413.4726" gradientTransform="matrix(1.6916 3.814863e-03 -3.760125e-03 1.6674 -51.7031 1412.7582)">
					<stop  offset="0" style="stop-color:#FC2C8C"/>
					<stop  offset="1" style="stop-color:#B616AE"/>
				</linearGradient>
				<polygon class="st2" points="519.1,683 532.8,710.4 563.4,714.9 541.2,736.2 546.4,766.3 519,752 491.5,766.2 496.8,736.1 
					474.6,714.7 505.3,710.4 				"/>
				
					<linearGradient id="SVGID_3_" gradientUnits="userSpaceOnUse" x1="-585.5725" y1="-413.4726" x2="512.0494" y2="-413.4726" gradientTransform="matrix(1.6916 3.814863e-03 -3.760125e-03 1.6674 -51.7031 1412.7582)">
					<stop  offset="0" style="stop-color:#FC2C8C"/>
					<stop  offset="1" style="stop-color:#B616AE"/>
				</linearGradient>
				<polygon class="st3" points="646,683.3 659.6,710.7 690.3,715.2 668,736.5 673.2,766.6 645.8,752.3 618.3,766.5 623.6,736.4 
					601.5,715 632.2,710.7 				"/>
				
					<linearGradient id="SVGID_4_" gradientUnits="userSpaceOnUse" x1="-585.5725" y1="-413.4726" x2="512.0494" y2="-413.4726" gradientTransform="matrix(1.6916 3.814863e-03 -3.760125e-03 1.6674 -51.7031 1412.7582)">
					<stop  offset="0" style="stop-color:#FC2C8C"/>
					<stop  offset="1" style="stop-color:#B616AE"/>
				</linearGradient>
				<polygon class="st4" points="772.8,683.6 786.5,711 817.1,715.5 794.9,736.8 800.1,766.9 772.7,752.6 745.2,766.8 750.5,736.7 
					728.3,715.3 759,710.9 				"/>
			</g>
			<g>
				
					<linearGradient id="SVGID_5_" gradientUnits="userSpaceOnUse" x1="308.5984" y1="-822.3845" x2="1406.2203" y2="-822.3845" gradientTransform="matrix(1.6916 3.814863e-03 -3.760125e-03 1.6674 -51.7031 1412.7582)">
					<stop  offset="0" style="stop-color:#FC2C8C"/>
					<stop  offset="1" style="stop-color:#B616AE"/>
				</linearGradient>
				<polygon class="st5" points="520.6,1.2 534.3,28.6 565,33.1 542.7,54.4 547.9,84.5 520.5,70.2 493,84.4 498.3,54.3 476.2,32.9 
					506.9,28.6 				"/>
				
					<linearGradient id="SVGID_6_" gradientUnits="userSpaceOnUse" x1="308.5984" y1="-822.3845" x2="1406.2203" y2="-822.3845" gradientTransform="matrix(1.6916 3.814863e-03 -3.760125e-03 1.6674 -51.7031 1412.7582)">
					<stop  offset="0" style="stop-color:#FC2C8C"/>
					<stop  offset="1" style="stop-color:#B616AE"/>
				</linearGradient>
				<polygon class="st6" points="647.5,1.5 661.2,28.9 691.8,33.4 669.6,54.7 674.8,84.8 647.3,70.5 619.9,84.7 625.2,54.6 
					603,33.2 633.7,28.9 				"/>
				
					<linearGradient id="SVGID_7_" gradientUnits="userSpaceOnUse" x1="308.5984" y1="-822.3845" x2="1406.2203" y2="-822.3845" gradientTransform="matrix(1.6916 3.814863e-03 -3.760125e-03 1.6674 -51.7031 1412.7582)">
					<stop  offset="0" style="stop-color:#FC2C8C"/>
					<stop  offset="1" style="stop-color:#B616AE"/>
				</linearGradient>
				<polygon class="st7" points="774.4,1.8 788,29.2 818.7,33.7 796.4,55 801.6,85.1 774.2,70.8 746.7,85 752,54.9 729.9,33.5 
					760.6,29.1 				"/>
			</g>
		</g>
	</g>
</g>
<g>
</g>
<g>
</g>
<g>
</g>
<g>
</g>
<g>
</g>
<g>
</g>
<g>
</g>
<g>
</g>
<g>
</g>
<g>
</g>
<g>
</g>
<g>
</g>
<g>
</g>
<g>
</g>
<g>
</g>
</svg>
