<?xml version="1.0" encoding="utf-8"?>
<!-- Generator: Adobe Illustrator 23.0.4, SVG Export Plug-In . SVG Version: 6.00 Build 0)  -->
<svg version="1.1" id="Layer_1" xmlns="http://www.w3.org/2000/svg" xmlns:xlink="http://www.w3.org/1999/xlink" x="0px" y="0px"
	 viewBox="0 0 1293 768" style="enable-background:new 0 0 1293 768;" xml:space="preserve">
<style type="text/css">
	.st0{fill:url(#SVGID_1_);}
	.st1{fill:#FFFFFF;}
	.st2{fill:url(#SVGID_2_);}
	.st3{fill:url(#SVGID_3_);}
	.st4{fill:url(#SVGID_4_);}
	.st5{fill:url(#SVGID_5_);}
	.st6{fill:url(#SVGID_6_);}
	.st7{fill:url(#SVGID_7_);}
</style>
<g>
	
		<image style="overflow:visible;opacity:0.2;" width="1366" height="837" xlink:href="D5A7801748095626.png"  transform="matrix(1 0 0 1 -36.2241 -28.2241)">
	</image>
	<g>
		<g>
			<g>
				
					<linearGradient id="SVGID_1_" gradientUnits="userSpaceOnUse" x1="-138.4871" y1="-617.9286" x2="959.1348" y2="-617.9286" gradientTransform="matrix(1.6916 3.814863e-03 -3.760125e-03 1.6674 -51.7031 1412.7582)">
					<stop  offset="0" style="stop-color:#FC2C8C"/>
					<stop  offset="1" style="stop-color:#B616AE"/>
				</linearGradient>
				<path class="st0" d="M1292.6,495.9c-61.9-0.1-112-49.7-111.8-110.7s50.4-110.3,112.3-110.2l0,0l0.3-124.7L0.9,147.4L0.7,272.1
					c61.9,0.1,112,49.7,111.8,110.7S62.1,493.2,0.2,493l-0.3,124.7l1292.5,2.9L1292.6,495.9L1292.6,495.9z"/>
				<g>
					<g>
						<path class="st1" d="M293.1,424.2c-4.1,0-7.8-0.7-11.2-2c-3.4-1.3-6.3-3.3-8.7-5.8c-2.4-2.6-4.3-5.7-5.6-9.4
							c-1.3-3.7-2-8-1.9-12.8c0-4.8,0.8-9.1,2.3-12.8c1.5-3.7,3.5-6.9,6-9.4c2.5-2.5,5.5-4.5,8.9-5.8c3.4-1.3,7-2,10.8-2
							c2.4,0,4.6,0.2,6.5,0.5c1.9,0.3,3.6,0.7,5.1,1.2c1.4,0.4,2.6,0.9,3.5,1.3c0.9,0.4,1.5,0.8,1.9,1l-2.4,6.6
							c-0.5-0.3-1.2-0.7-2.2-1.1c-1-0.4-2-0.8-3.2-1.2c-1.2-0.4-2.5-0.7-4-1c-1.4-0.3-2.9-0.4-4.3-0.4c-3.1,0-5.9,0.5-8.3,1.6
							c-2.5,1-4.6,2.6-6.3,4.6c-1.7,2-3.1,4.4-4,7.3c-0.9,2.8-1.4,6-1.4,9.6c0,3.4,0.4,6.6,1.2,9.4c0.8,2.8,2,5.2,3.6,7.3
							c1.6,2,3.7,3.6,6.1,4.7c2.4,1.1,5.3,1.7,8.5,1.7c3.8,0,6.9-0.4,9.4-1.1c2.5-0.8,4.3-1.5,5.6-2.1l2.1,6.6
							c-0.4,0.3-1.1,0.6-2.1,1c-1,0.4-2.3,0.8-3.8,1.2c-1.5,0.4-3.3,0.7-5.3,1C297.6,424.1,295.5,424.2,293.1,424.2z"/>
						<path class="st1" d="M365.6,401.6c0,3.4-0.5,6.5-1.5,9.3c-1,2.8-2.4,5.1-4.3,7.1c-1.8,2-4,3.5-6.5,4.6
							c-2.5,1.1-5.3,1.6-8.3,1.6c-3,0-5.7-0.6-8.2-1.6c-2.5-1.1-4.7-2.6-6.5-4.6c-1.8-2-3.2-4.4-4.2-7.1c-1-2.8-1.5-5.9-1.5-9.3
							c0-3.4,0.5-6.5,1.5-9.3c1-2.8,2.4-5.2,4.3-7.2c1.8-2,4-3.5,6.5-4.6c2.5-1.1,5.3-1.6,8.3-1.6c3,0,5.7,0.6,8.2,1.6
							c2.5,1.1,4.7,2.6,6.5,4.6c1.8,2,3.2,4.4,4.2,7.2C365.1,395.1,365.6,398.2,365.6,401.6z M357.4,401.6c0-4.9-1.1-8.7-3.3-11.6
							c-2.2-2.9-5.2-4.3-9-4.3c-3.8,0-6.8,1.4-9.1,4.3c-2.2,2.8-3.3,6.7-3.4,11.6c0,4.9,1.1,8.7,3.3,11.6c2.2,2.9,5.2,4.3,9,4.3
							c3.8,0,6.8-1.4,9.1-4.3C356.3,410.3,357.4,406.4,357.4,401.6z"/>
						<path class="st1" d="M385.1,381.3c1.8-0.4,4.2-0.9,7.1-1.4c2.9-0.5,6.4-0.7,10.2-0.7c2.8,0,5.2,0.4,7.1,1.1
							c1.9,0.8,3.5,1.8,4.8,3.3c0.4-0.3,1-0.7,1.9-1.2c0.8-0.5,1.9-1,3.1-1.4c1.2-0.5,2.6-0.9,4.1-1.2c1.5-0.4,3.1-0.5,4.9-0.5
							c3.4,0,6.1,0.5,8.2,1.5c2.1,1,3.8,2.3,5,4.1c1.2,1.8,2,3.9,2.4,6.3c0.4,2.4,0.6,5.1,0.6,8l-0.1,24.2l-7.8,0l0.1-22.6
							c0-2.5-0.1-4.7-0.4-6.6c-0.2-1.8-0.7-3.3-1.4-4.6c-0.7-1.2-1.7-2.1-2.9-2.7c-1.2-0.6-2.8-0.9-4.7-0.9c-2.6,0-4.8,0.3-6.5,1
							c-1.7,0.7-2.9,1.3-3.5,1.9c0.4,1.4,0.8,3,1,4.7c0.2,1.7,0.3,3.5,0.3,5.4l-0.1,24.2l-7.8,0l0.1-22.6c0-2.5-0.1-4.7-0.4-6.6
							c-0.3-1.8-0.8-3.3-1.5-4.6c-0.7-1.2-1.7-2.1-2.9-2.7c-1.2-0.6-2.7-0.9-4.6-0.9c-0.8,0-1.6,0-2.5,0.1c-0.9,0.1-1.8,0.1-2.6,0.2
							c-0.8,0.1-1.6,0.2-2.2,0.3c-0.7,0.1-1.1,0.2-1.3,0.2l-0.1,36.4l-7.8,0L385.1,381.3z"/>
						<path class="st1" d="M504.5,402c0,3.3-0.4,6.3-1.3,9c-0.9,2.8-2.2,5.1-3.8,7.1c-1.7,2-3.8,3.5-6.2,4.6
							c-2.4,1.1-5.2,1.6-8.4,1.6c-2.5,0-4.8-0.3-6.7-1c-1.9-0.7-3.4-1.3-4.3-1.9l0,17.3l-7.8,0l0.1-57.2c1.9-0.4,4.2-0.9,7-1.4
							c2.8-0.5,6-0.8,9.6-0.8c3.4,0,6.4,0.5,9.1,1.6c2.7,1.1,5,2.6,6.9,4.5c1.9,1.9,3.4,4.3,4.4,7.1
							C504,395.3,504.5,398.5,504.5,402z M496.3,402c0-5-1.2-8.9-3.8-11.6c-2.5-2.7-5.9-4.1-10.1-4.1c-2.4,0-4.2,0.1-5.5,0.2
							c-1.3,0.2-2.4,0.4-3.2,0.6l-0.1,27.2c1,0.8,2.3,1.5,4.1,2.2c1.8,0.7,3.8,1.1,5.9,1.1c2.2,0,4.2-0.4,5.8-1.2
							c1.6-0.8,2.9-1.9,3.9-3.3c1-1.4,1.7-3.1,2.2-5C496.1,406.2,496.3,404.2,496.3,402z"/>
						<path class="st1" d="M540.2,379.5c0.7,0,1.4,0,2.3,0.1c0.9,0.1,1.7,0.2,2.6,0.3c0.8,0.1,1.6,0.3,2.3,0.4
							c0.7,0.1,1.2,0.3,1.6,0.4l-1.4,6.7c-0.6-0.2-1.6-0.5-3.1-0.8c-1.4-0.3-3.3-0.5-5.5-0.5c-1.5,0-2.9,0.1-4.3,0.4
							c-1.4,0.3-2.4,0.5-2.8,0.6l-0.1,36.3l-7.8,0l0.1-41.3c1.9-0.7,4.2-1.3,6.9-1.9C533.7,379.8,536.8,379.5,540.2,379.5z"/>
						<path class="st1" d="M579.1,379.4c3.1,0,5.8,0.4,8,1.2c2.2,0.8,3.9,1.9,5.2,3.4c1.3,1.5,2.3,3.2,2.8,5.2
							c0.6,2,0.8,4.2,0.8,6.7l-0.1,27c-0.7,0.1-1.6,0.3-2.8,0.5c-1.2,0.2-2.6,0.4-4.1,0.5c-1.5,0.2-3.2,0.3-4.9,0.4
							c-1.8,0.1-3.5,0.2-5.3,0.2c-2.5,0-4.7-0.3-6.8-0.8c-2.1-0.5-3.9-1.3-5.4-2.4c-1.5-1.1-2.7-2.5-3.5-4.3
							c-0.8-1.8-1.3-3.9-1.2-6.4c0-2.4,0.5-4.4,1.5-6.1c1-1.7,2.3-3.1,4-4.1c1.7-1,3.7-1.8,5.9-2.3c2.2-0.5,4.6-0.7,7.1-0.7
							c0.8,0,1.6,0,2.4,0.1s1.6,0.2,2.4,0.3c0.8,0.1,1.4,0.3,2,0.4c0.6,0.1,1,0.2,1.2,0.3l0-2.2c0-1.3-0.1-2.5-0.4-3.8
							c-0.3-1.2-0.8-2.4-1.5-3.3c-0.7-1-1.7-1.7-3-2.3c-1.3-0.6-2.9-0.9-4.9-0.9c-2.6,0-4.8,0.2-6.8,0.5c-1.9,0.4-3.4,0.7-4.3,1.1
							l-0.9-6.4c1-0.4,2.7-0.9,5.1-1.3C573.8,379.6,576.3,379.4,579.1,379.4z M579.7,418.1c1.9,0,3.5,0,4.9-0.1
							c1.4-0.1,2.6-0.2,3.6-0.4l0-12.9c-0.6-0.3-1.5-0.5-2.7-0.7c-1.3-0.2-2.8-0.3-4.6-0.3c-1.2,0-2.4,0.1-3.7,0.2
							c-1.3,0.2-2.5,0.5-3.6,1s-2,1.2-2.7,2.2c-0.7,0.9-1.1,2.1-1.1,3.6c0,2.8,0.9,4.7,2.7,5.8C574.1,417.5,576.6,418.1,579.7,418.1
							z"/>
						<path class="st1" d="M633.5,379.7c0.7,0,1.4,0,2.3,0.1c0.9,0.1,1.7,0.2,2.6,0.3c0.8,0.1,1.6,0.3,2.3,0.4
							c0.7,0.1,1.2,0.3,1.6,0.4l-1.4,6.7c-0.6-0.2-1.6-0.5-3.1-0.8c-1.4-0.3-3.3-0.5-5.5-0.5c-1.5,0-2.9,0.1-4.3,0.4
							c-1.4,0.3-2.4,0.5-2.8,0.6l-0.1,36.3l-7.8,0l0.1-41.3c1.9-0.7,4.2-1.3,6.9-1.9C627,380,630.1,379.7,633.5,379.7z"/>
						<path class="st1" d="M686.5,423.9l0.1-57.5l35.6,0.1l0,6.9l-27.5-0.1l0,17.1l24.4,0.1l0,6.7l-24.4-0.1l0,19.9l29.6,0.1l0,6.9
							L686.5,423.9z"/>
						<path class="st1" d="M742.6,382.1c1.8-0.4,4.2-0.9,7.2-1.4c3-0.5,6.4-0.7,10.3-0.7c3.5,0,6.4,0.5,8.7,1.5
							c2.3,1,4.1,2.3,5.5,4.1c1.4,1.7,2.3,3.8,2.9,6.3c0.6,2.4,0.8,5.1,0.8,8.1l-0.1,24.2l-7.8,0l0.1-22.6c0-2.7-0.2-4.9-0.5-6.8
							c-0.4-1.9-1-3.4-1.8-4.6c-0.8-1.2-2-2-3.4-2.5c-1.4-0.5-3.1-0.8-5.2-0.8c-0.8,0-1.7,0-2.6,0.1c-0.9,0.1-1.8,0.1-2.6,0.2
							c-0.8,0.1-1.5,0.2-2.2,0.3s-1.1,0.2-1.4,0.2l-0.1,36.4l-7.8,0L742.6,382.1z"/>
						<path class="st1" d="M806.7,381l16.6,0l0,6.5l-16.6,0l0,19.9c0,2.2,0.2,3.9,0.5,5.4c0.3,1.4,0.8,2.5,1.5,3.3
							c0.7,0.8,1.5,1.4,2.5,1.7c1,0.3,2.2,0.5,3.5,0.5c2.4,0,4.3-0.3,5.7-0.8c1.4-0.5,2.4-0.9,3-1.1l1.5,6.4
							c-0.8,0.4-2.2,0.9-4.1,1.4c-2,0.6-4.2,0.9-6.7,0.9c-3,0-5.4-0.4-7.4-1.1s-3.5-1.9-4.7-3.4c-1.2-1.5-2-3.3-2.5-5.5
							c-0.5-2.2-0.7-4.7-0.7-7.6l0.1-38.5l7.8-1.3L806.7,381z"/>
						<path class="st1" d="M857.8,380.2c0.7,0,1.4,0,2.3,0.1c0.9,0.1,1.7,0.2,2.6,0.3c0.8,0.1,1.6,0.3,2.3,0.4
							c0.7,0.1,1.2,0.3,1.6,0.4l-1.4,6.7c-0.6-0.2-1.6-0.5-3.1-0.8c-1.4-0.3-3.3-0.5-5.5-0.5c-1.5,0-2.9,0.1-4.3,0.4
							c-1.4,0.3-2.4,0.5-2.8,0.6l-0.1,36.3l-7.8,0l0.1-41.3c1.9-0.7,4.2-1.3,6.9-1.9C851.3,380.5,854.4,380.2,857.8,380.2z"/>
						<path class="st1" d="M896.7,380.1c3.1,0,5.8,0.4,8,1.2c2.2,0.8,3.9,1.9,5.2,3.4c1.3,1.5,2.3,3.2,2.8,5.2
							c0.6,2,0.8,4.2,0.8,6.7l-0.1,27c-0.7,0.1-1.6,0.3-2.8,0.5c-1.2,0.2-2.6,0.4-4.1,0.5c-1.5,0.2-3.2,0.3-4.9,0.4
							c-1.8,0.1-3.5,0.2-5.3,0.2c-2.5,0-4.7-0.3-6.8-0.8c-2.1-0.5-3.9-1.3-5.4-2.4c-1.5-1.1-2.7-2.5-3.5-4.3
							c-0.8-1.8-1.3-3.9-1.2-6.4c0-2.4,0.5-4.4,1.5-6.1c1-1.7,2.3-3.1,4-4.1c1.7-1,3.7-1.8,5.9-2.3c2.2-0.5,4.6-0.7,7.1-0.7
							c0.8,0,1.6,0,2.4,0.1c0.8,0.1,1.6,0.2,2.4,0.3c0.8,0.1,1.4,0.3,2,0.4c0.6,0.1,1,0.2,1.2,0.3l0-2.2c0-1.3-0.1-2.5-0.4-3.8
							c-0.3-1.2-0.8-2.4-1.5-3.3c-0.7-1-1.7-1.7-3-2.3s-2.9-0.9-4.9-0.9c-2.6,0-4.8,0.2-6.8,0.5c-1.9,0.4-3.4,0.7-4.3,1.1L884,382
							c1-0.4,2.7-0.9,5.1-1.3C891.4,380.3,894,380.1,896.7,380.1z M897.3,418.8c1.9,0,3.5,0,4.9-0.1c1.4-0.1,2.6-0.2,3.6-0.4l0-12.9
							c-0.6-0.3-1.5-0.5-2.7-0.7c-1.3-0.2-2.8-0.3-4.6-0.3c-1.2,0-2.4,0.1-3.7,0.2c-1.3,0.2-2.5,0.5-3.6,1c-1.1,0.5-2,1.2-2.7,2.2
							c-0.7,0.9-1.1,2.1-1.1,3.6c0,2.8,0.9,4.7,2.7,5.8C891.8,418.2,894.2,418.8,897.3,418.8z"/>
						<path class="st1" d="M963.3,361.4l7.8-1.3l-0.1,63.2c-1.8,0.5-4.1,1-6.9,1.5c-2.8,0.5-6,0.7-9.7,0.7c-3.4,0-6.4-0.5-9.1-1.6
							c-2.7-1.1-5-2.6-6.9-4.5c-1.9-1.9-3.4-4.3-4.4-7.1s-1.5-5.9-1.5-9.4c0-3.3,0.4-6.4,1.3-9.1c0.9-2.8,2.2-5.1,3.8-7.1
							c1.7-2,3.8-3.5,6.2-4.6c2.4-1.1,5.2-1.6,8.4-1.6c2.5,0,4.8,0.3,6.7,1c1.9,0.7,3.4,1.3,4.3,1.9L963.3,361.4z M963.2,390.5
							c-1-0.8-2.3-1.5-4.1-2.3c-1.8-0.7-3.8-1.1-5.9-1.1c-2.2,0-4.2,0.4-5.8,1.2c-1.6,0.8-2.9,1.9-3.9,3.3c-1,1.4-1.7,3.1-2.2,5
							c-0.5,1.9-0.7,4-0.7,6.2c0,5,1.2,8.9,3.8,11.7c2.5,2.7,5.9,4.1,10.1,4.1c2.1,0,3.9-0.1,5.3-0.3c1.4-0.2,2.5-0.4,3.3-0.6
							L963.2,390.5z"/>
						<path class="st1" d="M1007.1,380.4c3.1,0,5.8,0.4,8,1.2c2.2,0.8,3.9,1.9,5.2,3.4c1.3,1.5,2.3,3.2,2.8,5.2
							c0.6,2,0.8,4.2,0.8,6.7l-0.1,27c-0.7,0.1-1.6,0.3-2.8,0.5c-1.2,0.2-2.6,0.4-4.1,0.5c-1.5,0.2-3.2,0.3-4.9,0.4
							c-1.8,0.1-3.5,0.2-5.3,0.2c-2.5,0-4.7-0.3-6.8-0.8c-2.1-0.5-3.9-1.3-5.4-2.4c-1.5-1.1-2.7-2.5-3.5-4.3
							c-0.8-1.8-1.3-3.9-1.2-6.4c0-2.4,0.5-4.4,1.5-6.1c1-1.7,2.3-3.1,4-4.1c1.7-1,3.7-1.8,5.9-2.3c2.2-0.5,4.6-0.7,7.1-0.7
							c0.8,0,1.6,0,2.4,0.1c0.8,0.1,1.6,0.2,2.4,0.3c0.8,0.1,1.4,0.3,2,0.4c0.6,0.1,1,0.2,1.2,0.3l0-2.2c0-1.3-0.1-2.5-0.4-3.8
							c-0.3-1.2-0.8-2.4-1.5-3.3c-0.7-1-1.7-1.7-3-2.3s-2.9-0.9-4.9-0.9c-2.6,0-4.8,0.2-6.8,0.5c-1.9,0.4-3.4,0.7-4.3,1.1l-0.9-6.4
							c1-0.4,2.7-0.9,5.1-1.3C1001.8,380.6,1004.4,380.4,1007.1,380.4z M1007.7,419c1.9,0,3.5,0,4.9-0.1c1.4-0.1,2.6-0.2,3.6-0.4
							l0-12.9c-0.6-0.3-1.5-0.5-2.7-0.7c-1.3-0.2-2.8-0.3-4.6-0.3c-1.2,0-2.4,0.1-3.7,0.2c-1.3,0.2-2.5,0.5-3.6,1
							c-1.1,0.5-2,1.2-2.7,2.2c-0.7,0.9-1.1,2.1-1.1,3.6c0,2.8,0.9,4.7,2.7,5.8C1002.2,418.5,1004.6,419,1007.7,419z"/>
					</g>
				</g>
				<g>
					<g>
						<g>
							<polygon class="st1" points="292.2,228.6 299.2,242.6 314.8,244.9 303.5,255.7 306.1,271 292.2,263.7 278.2,270.9 
								280.9,255.6 269.6,244.8 285.2,242.6 							"/>
							<polygon class="st1" points="356.7,228.8 363.7,242.7 379.3,245 368,255.8 370.6,271.2 356.7,263.9 342.7,271.1 345.4,255.8 
								334.1,244.9 349.7,242.7 							"/>
							<polygon class="st1" points="421.2,228.9 428.2,242.9 443.8,245.2 432.5,256 435.1,271.3 421.2,264 407.2,271.2 409.9,255.9 
								398.6,245.1 414.2,242.9 							"/>
							<polygon class="st1" points="485.7,229.1 492.7,243 508.3,245.3 497,256.1 499.6,271.4 485.7,264.2 471.7,271.4 474.4,256.1 
								463.1,245.2 478.7,243 							"/>
							<polygon class="st1" points="550.2,229.2 557.2,243.2 572.8,245.4 561.5,256.3 564.1,271.6 550.2,264.3 536.2,271.5 
								538.9,256.2 527.6,245.3 543.2,243.1 							"/>
							<polygon class="st1" points="614.7,229.4 621.7,243.3 637.3,245.6 626,256.4 628.6,271.7 614.7,264.5 600.7,271.7 
								603.4,256.4 592.1,245.5 607.7,243.3 							"/>
							<polygon class="st1" points="679.2,229.5 686.2,243.5 701.8,245.7 690.5,256.6 693.1,271.9 679.2,264.6 665.2,271.8 
								667.9,256.5 656.6,245.6 672.2,243.4 							"/>
							<polygon class="st1" points="743.7,229.7 750.7,243.6 766.3,245.9 755,256.7 757.6,272 743.7,264.8 729.7,272 732.4,256.7 
								721.1,245.8 736.7,243.6 							"/>
							<polygon class="st1" points="808.2,229.8 815.2,243.8 830.8,246 819.5,256.8 822.1,272.2 808.2,264.9 794.2,272.1 
								796.9,256.8 785.6,245.9 801.2,243.7 							"/>
							<polygon class="st1" points="872.7,230 879.7,243.9 895.3,246.2 884,257 886.6,272.3 872.7,265.1 858.7,272.3 861.4,256.9 
								850.1,246.1 865.7,243.9 							"/>
							<polygon class="st1" points="937.2,230.1 944.2,244 959.8,246.3 948.5,257.1 951.1,272.5 937.2,265.2 923.2,272.4 
								925.9,257.1 914.6,246.2 930.2,244 							"/>
							<polygon class="st1" points="1001.7,230.2 1008.7,244.2 1024.3,246.5 1013,257.3 1015.6,272.6 1001.7,265.3 987.7,272.5 
								990.4,257.2 979.1,246.4 994.7,244.2 							"/>
						</g>
						<g>
							<polygon class="st1" points="291.6,495.4 298.6,509.4 314.2,511.7 302.9,522.5 305.5,537.8 291.6,530.5 277.6,537.7 
								280.3,522.4 269,511.6 284.6,509.4 							"/>
							<polygon class="st1" points="356.1,495.6 363.1,509.5 378.7,511.8 367.4,522.6 370,538 356.1,530.7 342.1,537.9 344.8,522.6 
								333.5,511.7 349.1,509.5 							"/>
							<polygon class="st1" points="420.6,495.7 427.6,509.7 443.2,512 431.9,522.8 434.5,538.1 420.6,530.8 406.6,538 409.3,522.7 
								398,511.9 413.6,509.7 							"/>
							<polygon class="st1" points="485.1,495.9 492.1,509.8 507.7,512.1 496.4,522.9 499,538.2 485.1,531 471.1,538.2 473.8,522.9 
								462.5,512 478.1,509.8 							"/>
							<polygon class="st1" points="549.6,496 556.6,510 572.2,512.3 560.9,523.1 563.5,538.4 549.6,531.1 535.6,538.3 538.3,523 
								527,512.1 542.6,509.9 							"/>
							<polygon class="st1" points="614.1,496.2 621.1,510.1 636.7,512.4 625.4,523.2 628,538.5 614.1,531.3 600.1,538.5 
								602.8,523.2 591.5,512.3 607.1,510.1 							"/>
							<polygon class="st1" points="678.6,496.3 685.6,510.3 701.2,512.5 689.9,523.4 692.5,538.7 678.6,531.4 664.6,538.6 
								667.3,523.3 656,512.4 671.6,510.2 							"/>
							<polygon class="st1" points="743.1,496.5 750.1,510.4 765.7,512.7 754.4,523.5 757,538.8 743.1,531.6 729.1,538.8 
								731.8,523.5 720.5,512.6 736.1,510.4 							"/>
							<polygon class="st1" points="807.6,496.6 814.6,510.6 830.2,512.8 818.9,523.7 821.5,539 807.6,531.7 793.6,538.9 
								796.3,523.6 785,512.7 800.6,510.5 							"/>
							<polygon class="st1" points="872.1,496.8 879.1,510.7 894.7,513 883.4,523.8 886,539.1 872.1,531.9 858.1,539.1 860.8,523.7 
								849.5,512.9 865.1,510.7 							"/>
							<polygon class="st1" points="936.6,496.9 943.6,510.9 959.2,513.1 947.9,523.9 950.5,539.3 936.6,532 922.6,539.2 
								925.3,523.9 914,513 929.6,510.8 							"/>
							<polygon class="st1" points="1001.1,497 1008.1,511 1023.7,513.3 1012.4,524.1 1015,539.4 1001.1,532.1 987.1,539.3 
								989.8,524 978.5,513.2 994.1,511 							"/>
						</g>
					</g>
				</g>
				<g>
					
						<rect x="-45.3" y="376.9" transform="matrix(2.255121e-03 -1 1 2.255121e-03 -193.5449 571.9834)" class="st1" width="470.3" height="12.2"/>
				</g>
				<g>
					
						<rect x="868.2" y="378.9" transform="matrix(2.255121e-03 -1 1 2.255121e-03 715.879 1487.5808)" class="st1" width="470.3" height="12.2"/>
				</g>
			</g>
			<g>
				
					<linearGradient id="SVGID_2_" gradientUnits="userSpaceOnUse" x1="-585.5725" y1="-413.4726" x2="512.0494" y2="-413.4726" gradientTransform="matrix(1.6916 3.814863e-03 -3.760125e-03 1.6674 -51.7031 1412.7582)">
					<stop  offset="0" style="stop-color:#FC2C8C"/>
					<stop  offset="1" style="stop-color:#B616AE"/>
				</linearGradient>
				<polygon class="st2" points="519.1,683 532.8,710.4 563.4,714.9 541.2,736.2 546.4,766.3 519,752 491.5,766.2 496.8,736.1 
					474.6,714.7 505.3,710.4 				"/>
				
					<linearGradient id="SVGID_3_" gradientUnits="userSpaceOnUse" x1="-585.5725" y1="-413.4726" x2="512.0494" y2="-413.4726" gradientTransform="matrix(1.6916 3.814863e-03 -3.760125e-03 1.6674 -51.7031 1412.7582)">
					<stop  offset="0" style="stop-color:#FC2C8C"/>
					<stop  offset="1" style="stop-color:#B616AE"/>
				</linearGradient>
				<polygon class="st3" points="646,683.3 659.6,710.7 690.3,715.2 668,736.5 673.2,766.6 645.8,752.3 618.3,766.5 623.6,736.4 
					601.5,715 632.2,710.7 				"/>
				
					<linearGradient id="SVGID_4_" gradientUnits="userSpaceOnUse" x1="-585.5725" y1="-413.4726" x2="512.0494" y2="-413.4726" gradientTransform="matrix(1.6916 3.814863e-03 -3.760125e-03 1.6674 -51.7031 1412.7582)">
					<stop  offset="0" style="stop-color:#FC2C8C"/>
					<stop  offset="1" style="stop-color:#B616AE"/>
				</linearGradient>
				<polygon class="st4" points="772.8,683.6 786.5,711 817.1,715.5 794.9,736.8 800.1,766.9 772.7,752.6 745.2,766.8 750.5,736.7 
					728.3,715.3 759,710.9 				"/>
			</g>
			<g>
				
					<linearGradient id="SVGID_5_" gradientUnits="userSpaceOnUse" x1="308.5984" y1="-822.3845" x2="1406.2203" y2="-822.3845" gradientTransform="matrix(1.6916 3.814863e-03 -3.760125e-03 1.6674 -51.7031 1412.7582)">
					<stop  offset="0" style="stop-color:#FC2C8C"/>
					<stop  offset="1" style="stop-color:#B616AE"/>
				</linearGradient>
				<polygon class="st5" points="520.6,1.2 534.3,28.6 565,33.1 542.7,54.4 547.9,84.5 520.5,70.2 493,84.4 498.3,54.3 476.2,32.9 
					506.9,28.6 				"/>
				
					<linearGradient id="SVGID_6_" gradientUnits="userSpaceOnUse" x1="308.5984" y1="-822.3845" x2="1406.2203" y2="-822.3845" gradientTransform="matrix(1.6916 3.814863e-03 -3.760125e-03 1.6674 -51.7031 1412.7582)">
					<stop  offset="0" style="stop-color:#FC2C8C"/>
					<stop  offset="1" style="stop-color:#B616AE"/>
				</linearGradient>
				<polygon class="st6" points="647.5,1.5 661.2,28.9 691.8,33.4 669.6,54.7 674.8,84.8 647.3,70.5 619.9,84.7 625.2,54.6 
					603,33.2 633.7,28.9 				"/>
				
					<linearGradient id="SVGID_7_" gradientUnits="userSpaceOnUse" x1="308.5984" y1="-822.3845" x2="1406.2203" y2="-822.3845" gradientTransform="matrix(1.6916 3.814863e-03 -3.760125e-03 1.6674 -51.7031 1412.7582)">
					<stop  offset="0" style="stop-color:#FC2C8C"/>
					<stop  offset="1" style="stop-color:#B616AE"/>
				</linearGradient>
				<polygon class="st7" points="774.4,1.8 788,29.2 818.7,33.7 796.4,55 801.6,85.1 774.2,70.8 746.7,85 752,54.9 729.9,33.5 
					760.6,29.1 				"/>
			</g>
		</g>
	</g>
</g>
<g>
</g>
<g>
</g>
<g>
</g>
<g>
</g>
<g>
</g>
<g>
</g>
<g>
</g>
<g>
</g>
<g>
</g>
<g>
</g>
<g>
</g>
<g>
</g>
<g>
</g>
<g>
</g>
<g>
</g>
</svg>
