<?xml version="1.0" encoding="utf-8"?>
<!-- Generator: Adobe Illustrator 24.0.0, SVG Export Plug-In . SVG Version: 6.00 Build 0)  -->
<svg version="1.1" id="Layer_1" xmlns="http://www.w3.org/2000/svg" xmlns:xlink="http://www.w3.org/1999/xlink" x="0px" y="0px"
	 viewBox="0 0 1024 270" style="enable-background:new 0 0 1024 270;" xml:space="preserve">
<style type="text/css">
	.st0{fill:#8696A4;}
	.st1{fill:none;stroke:#373535;stroke-width:0.3028;stroke-miterlimit:1.2111;}
	.st2{fill:#8F9EAB;}
	.st3{fill:#708394;}
	.st4{fill:#606D7A;}
	.st5{fill:#515A63;}
	.st6{fill:#677078;}
	.st7{fill:#67737D;}
	.st8{fill:#728394;}
	.st9{fill:#5A6F81;}
	.st10{fill:#505960;}
	.st11{fill:#57636E;}
	.st12{fill:#596775;}
	.st13{fill:#5B7186;}
	.st14{fill:#5A6E82;}
	.st15{fill:#606E7C;}
	.st16{fill:#FFFFFF;}
	.st17{fill:#ECF8FD;}
</style>
<g id="g2749">
	<g id="g20649-6-3-0-6" transform="matrix(0.30278375,0,0,-0.30278375,-3390.9077,-1233.0024)">
		<path id="path20651-7-0-9-0" class="st0" d="M11503.6-4204.4l146.8,87v-145L11503.6-4204.4z"/>
	</g>
	<g id="g20653-7-2-0-6" transform="matrix(0.30278375,0,0,-0.30278375,-3390.9077,-1233.0024)">
		<path id="path20655-9-9-6-8" class="st1" d="M11503.6-4204.4l146.8,87v-145L11503.6-4204.4z"/>
	</g>
	<g id="g20657-6-9-6-0" transform="matrix(0.30278375,0,0,-0.30278375,-3397.8717,-1228.9905)">
		<path id="path20659-7-4-2-5" class="st2" d="M11485.5-4214.8v-223.1l50.9,37l168.7,98.6L11485.5-4214.8z"/>
	</g>
	<g id="g20661-6-1-5-2" transform="matrix(0.30278375,0,0,-0.30278375,-3397.8717,-1228.9905)">
		<path id="path20663-4-5-0-6" class="st1" d="M11485.5-4214.8v-223.1l50.9,37l168.7,98.6L11485.5-4214.8z"/>
	</g>
	<g id="g20665-7-6-9-7" transform="matrix(0.30278375,0,0,-0.30278375,-3426.7119,-1212.4888)">
		<path id="path20667-6-7-6-1" class="st0" d="M11410.8-4257.5v-251.6l170,126.3v222.6L11410.8-4257.5z"/>
	</g>
	<g id="g20669-0-73-1-3" transform="matrix(0.30278375,0,0,-0.30278375,-3426.7119,-1212.4888)">
		<path id="path20671-3-3-7-1" class="st1" d="M11410.8-4257.5v-251.6l170,126.3v222.6L11410.8-4257.5z"/>
	</g>
	<g id="g20673-3-5-1-4" transform="matrix(0.30278375,0,0,-0.30278375,-3436.3253,-1216.0465)">
		<path id="path20675-7-4-3-1" class="st3" d="M11385.9-4248.3v-490.8l56.7-22.8v181.1l48.6,34.8l153.9-296.7l75.8-29.9v491.7
			l-57.6,23.2l-220.4-162.9v250.3L11385.9-4248.3z"/>
	</g>
	<g id="g20677-9-1-1-3" transform="matrix(0.30278375,0,0,-0.30278375,-3436.3253,-1216.0465)">
		<path id="path20679-1-6-4-3" class="st1" d="M11385.9-4248.3v-490.8l56.7-22.8v181.1l48.6,34.8l153.9-296.7l75.8-29.9v491.7
			l-57.6,23.2l-220.4-162.9v250.3L11385.9-4248.3z"/>
	</g>
	<g id="g20681-1-4-1-7" transform="matrix(0.30278375,0,0,-0.30278375,-3411.7998,-1170.2504)">
		<path id="path20683-9-69-5-3" class="st4" d="M11449.4-4367l132.1,94.6v-341.3L11449.4-4367z"/>
	</g>
	<g id="g20685-3-6-2-2" transform="matrix(0.30278375,0,0,-0.30278375,-3411.7998,-1170.2504)">
		<path id="path20687-9-6-2-6" class="st1" d="M11449.4-4367l132.1,94.6v-341.3L11449.4-4367z"/>
	</g>
	<g id="g20689-3-4-0-1" transform="matrix(0.30278375,0,0,-0.30278375,-3411.8755,-1170.2504)">
		<path id="path20691-3-2-7-4" class="st5" d="M11449.2-4367l133,95v-18.3L11449.2-4367z"/>
	</g>
	<g id="g20693-0-2-6-3" transform="matrix(0.30278375,0,0,-0.30278375,-3411.8755,-1170.2504)">
		<path id="path20695-6-7-7-2" class="st1" d="M11449.2-4367l133,95v-18.3L11449.2-4367z"/>
	</g>
	<g id="g20697-3-1-6-1" transform="matrix(0.30278375,0,0,-0.30278375,-3426.7119,-1159.8044)">
		<path id="path20699-3-6-4-3" class="st6" d="M11410.8-4394.1l48.2,33.5l3.1-5.4L11410.8-4394.1z"/>
	</g>
	<g id="g20701-1-7-3-7" transform="matrix(0.30278375,0,0,-0.30278375,-3426.7119,-1159.8044)">
		<path id="path20703-6-4-1-8" class="st1" d="M11410.8-4394.1l48.2,33.5l3.1-5.4L11410.8-4394.1z"/>
	</g>
	<g id="g20705-7-5-4-3" transform="matrix(0.30278375,0,0,-0.30278375,-3426.5605,-1159.8044)">
		<path id="path20707-8-0-6-5" class="st7" d="M11411.2-4394.1v-182l122.3,71.8l-71.8,138L11411.2-4394.1z"/>
	</g>
	<g id="g20709-2-8-1-0" transform="matrix(0.30278375,0,0,-0.30278375,-3426.5605,-1159.8044)">
		<path id="path20711-3-3-5-4" class="st1" d="M11411.2-4394.1v-182l122.3,71.8l-71.8,138L11411.2-4394.1z"/>
	</g>
	<path id="path20715-0-0-8-1" class="st8" d="M112.7,110.4v149L220.8,196V47.4L112.7,110.4z"/>
	<g id="g20717-8-3-3-1" transform="matrix(0.30278375,0,0,-0.30278375,-3379.4019,-1193.5395)">
		<path id="path20719-2-2-8-0" class="st1" d="M11533.4-4306.6v-492l356.9,209.4v490.8L11533.4-4306.6z"/>
	</g>
	<g id="g20721-8-0-4-2" transform="matrix(0.30278375,0,0,-0.30278375,-3373.4474,-1123.5966)">
		<path id="path20723-7-7-1-6" class="st9" d="M11548.8-4487.9l39.9,23.2l-39.9,14.9V-4487.9z"/>
	</g>
	<g id="g20725-0-0-3-4" transform="matrix(0.30278375,0,0,-0.30278375,-3373.4474,-1123.5966)">
		<path id="path20727-9-0-9-9" class="st1" d="M11548.8-4487.9l39.9,23.2l-39.9,14.9V-4487.9z"/>
	</g>
	<g id="g20729-9-6-0-4" transform="matrix(0.30278375,0,0,-0.30278375,-3373.3466,-1186.3738)">
		<path id="path20731-4-1-9-7" class="st4" d="M11549.1-4325.2l38.7-14.9v-332.6l-39.3,15.5L11549.1-4325.2z"/>
	</g>
	<g id="g20733-0-3-8-4" transform="matrix(0.30278375,0,0,-0.30278375,-3373.3466,-1186.3738)">
		<path id="path20735-2-1-2-5" class="st1" d="M11549.1-4325.2l38.7-14.9v-332.6l-39.3,15.5L11549.1-4325.2z"/>
	</g>
	<g id="g20737-3-4-9-7" transform="matrix(0.30278375,0,0,-0.30278375,-3373.3466,-1186.2728)">
		<path id="path20739-5-70-0-9" class="st10" d="M11549.1-4325.5v22.6l16.7,10.1l14.3-44L11549.1-4325.5z"/>
	</g>
	<g id="g20741-9-6-4-2" transform="matrix(0.30278375,0,0,-0.30278375,-3373.3466,-1186.2728)">
		<path id="path20743-3-1-9-3" class="st1" d="M11549.1-4325.5v22.6l16.7,10.1l14.3-44L11549.1-4325.5z"/>
	</g>
	<g id="g20745-2-5-3-6" transform="matrix(0.30278375,0,0,-0.30278375,-3370.4698,-1191.7481)">
		<path id="path20747-7-0-4-2" class="st11" d="M11556.5-4311.3l43.3,25.4l85.2-286.9l-46.8,19.2l-59.3,195l-8.5,4.5L11556.5-4311.3
			z"/>
	</g>
	<g id="g20749-2-6-7-1" transform="matrix(0.30278375,0,0,-0.30278375,-3370.4698,-1191.7481)">
		<path id="path20751-3-86-7-7" class="st1" d="M11556.5-4311.3l43.3,25.4l85.2-286.9l-46.8,19.2l-59.3,195l-8.5,4.5L11556.5-4311.3
			z"/>
	</g>
	<g id="g20753-2-6-0-5" transform="matrix(0.30278375,0,0,-0.30278375,-3356.6175,-1150.4938)">
		<path id="path20755-1-8-1-3" class="st12" d="M11592.4-4418.2l16.5-51.3l42.4-16.5l88.2,380.7l-23.2,9.2l-77.6-340L11592.4-4418.2
			z"/>
	</g>
	<g id="g20757-7-29-3-2" transform="matrix(0.30278375,0,0,-0.30278375,-3356.6175,-1150.4938)">
		<path id="path20759-6-1-7-5" class="st1" d="M11592.4-4418.2l16.5-51.3l42.4-16.5l88.2,380.7l-23.2,9.2l-77.6-340L11592.4-4418.2z
			"/>
	</g>
	<g id="g20761-1-1-7-0" transform="matrix(0.30278375,0,0,-0.30278375,-3353.7661,-1141.6623)">
		<path id="path20763-1-8-4-8" class="st13" d="M11599.8-4441.1l10.4-33.9l31.5,17.8L11599.8-4441.1z"/>
	</g>
	<g id="g20765-1-1-2-7" transform="matrix(0.30278375,0,0,-0.30278375,-3353.7661,-1141.6623)">
		<path id="path20767-5-7-9-8" class="st1" d="M11599.8-4441.1l10.4-33.9l31.5,17.8L11599.8-4441.1z"/>
	</g>
	<g id="g20769-7-8-8-5" transform="matrix(0.30278375,0,0,-0.30278375,-3331.6632,-1154.2786)">
		<path id="path20771-3-2-5-6" class="st14" d="M11657.1-4408.4v-37.8l39.6,22.3L11657.1-4408.4z"/>
	</g>
	<g id="g20773-6-9-6-2" transform="matrix(0.30278375,0,0,-0.30278375,-3331.6632,-1154.2786)">
		<path id="path20775-5-1-7-2" class="st1" d="M11657.1-4408.4v-37.8l39.6,22.3L11657.1-4408.4z"/>
	</g>
	<g id="g20777-2-2-6-9" transform="matrix(0.30278375,0,0,-0.30278375,-3331.6632,-1154.2282)">
		<path id="path20779-3-6-9-3" class="st15" d="M11657.1-4408.5v290.9l-17.5,7.1v24.7l5.9,25.3l51.5,30.3v-393.2L11657.1-4408.5z"/>
	</g>
	<g id="g20781-7-4-1-8" transform="matrix(0.30278375,0,0,-0.30278375,-3331.6632,-1154.2282)">
		<path id="path20783-3-7-2-7" class="st1" d="M11657.1-4408.5v290.9l-17.5,7.1v24.7l5.9,25.3l51.5,30.3v-393.2L11657.1-4408.5z"/>
	</g>
	<g id="g20785-0-8-1-9" transform="matrix(0.30278375,0,0,-0.30278375,-3335.5994,-1205.0957)">
		<path id="path20787-9-2-8-3" class="st16" d="M11646.9-4276.7l5.5,21.9l0.3-23.9L11646.9-4276.7z"/>
	</g>
	<g id="g20789-6-0-9-7" transform="matrix(0.30278375,0,0,-0.30278375,-3335.5994,-1205.0957)">
		<path id="path20791-6-8-3-9" class="st1" d="M11646.9-4276.7l5.5,21.9l0.3-23.9L11646.9-4276.7z"/>
	</g>
	<g id="g20793-7-0-4-6" transform="matrix(0.30278375,0,0,-0.30278375,-3436.401,-1216.1222)">
		<path id="path20795-4-0-8-5" class="st17" d="M11385.7-4248.1l356.9,209.3l58-23.2l-147.2-86.6l220.4-87l147.2,86.1l56.7-23.2
			l-356.5-208.4l-57.6,23.2l168.7,98.2l-219.5,87.5l-169.1-97.7L11385.7-4248.1z"/>
	</g>
	<g id="g20797-7-5-1-5" transform="matrix(0.30278375,0,0,-0.30278375,-3436.401,-1216.1222)">
		<path id="path20799-4-7-9-1" class="st1" d="M11385.7-4248.1l356.9,209.3l58-23.2l-147.2-86.6l220.4-87l147.2,86.1l56.7-23.2
			l-356.5-208.4l-57.6,23.2l168.7,98.2l-219.5,87.5l-169.1-97.7L11385.7-4248.1z"/>
	</g>
	<path id="path21852-0-1-6" class="st16" d="M305.8,158.3h-11.1V98.4h-30v59.9h-11.1V33.6h11.1v54.8h30V33.6h11.1V158.3z"/>
	<path id="path21854-4-1-5" class="st16" d="M368.1,158.3h-10.4v-2.2c-4.2,0.6-8.4,1.1-12.6,1.7c-5.2,0.6-9.4,1-12.5,1
		c-5.8,0-8.7-2.9-8.7-8.6v-28.3c0-5.9,3-8.9,9-8.9h24.9V89.6h-22.8v13.2h-10.3V89.8c0-6,3-9,8.9-9h25.5c5.9,0,8.9,3,8.9,9
		L368.1,158.3z M357.9,148.6v-27.4h-23.7v27.9L357.9,148.6z"/>
	<path id="path21856-0-6-9" class="st16" d="M428.2,149.3c0,6-3,9-8.9,9h-25.2c-5.9,0-8.9-3-8.9-9V89.8c0-6,3-9,8.9-9h25.2
		c5.9,0,8.9,3,8.9,9v15.4h-10.4V90.1h-22V149h22v-17.3h10.4V149.3z"/>
	<path id="path21858-8-0-3" class="st16" d="M488.9,158.3h-11.5L456,118.8v39.5h-10.6V33.6H456v79.2l19.9-32h11.4v0.3l-22.5,34.2
		L488.9,158.3z"/>
	<path id="path21860-1-3-0" class="st16" d="M543.2,149.3c0,6-3,9-8.9,9h-25.5c-5.9,0-8.9-3-8.9-9V89.8c0-6,3-9,8.9-9h25.5
		c5.9,0,8.9,3,8.9,9v27.9l-3.6,3.7h-29.5v28h22.8v-14.2h10.3L543.2,149.3z M532.9,113V89.6h-22.8V113H532.9z"/>
	<path id="path21862-33-4-6" class="st16" d="M638.6,158.3H628v-68l-23.1,0.6v67.4h-10.5v-68l-23.1,0.6v67.4h-10.6V80.8h10.6v2.2
		c4.1-0.5,8.3-1.1,12.4-1.7c5-0.6,9.2-1,12.5-1c3.2,0,5.6,1,7.2,2.9c4.5-0.6,8.9-1.2,13.3-1.8c5.8-0.7,10.2-1.1,13.1-1.1
		c5.8,0,8.8,2.9,8.8,8.7V158.3z"/>
	<path id="path8006" class="st16" d="M277.7,229c0,1.3-0.4,2.3-1.2,3.1c-0.8,0.8-1.9,1.2-3.1,1.2h-15.5c-1.3,0-2.3-0.4-3.1-1.2
		c-0.8-0.8-1.2-1.8-1.2-3.1v-51.7c0-1.3,0.4-2.3,1.2-3.1c0.8-0.8,1.8-1.2,3.1-1.2h15.5c1.3,0,2.3,0.4,3.1,1.2
		c0.8,0.8,1.2,1.8,1.2,3.1v14h-5.4v-13.6h-13.4v50.8h13.4v-14.8h5.4V229z"/>
	<path id="path8008" class="st16" d="M307.7,195.8l-9,37.2l-3.7,14.5h-5l3.8-14.5l-9.2-37.2h5.3l6.4,29.5l6.5-29.5H307.7z"/>
	<path id="path8010" class="st16" d="M335.5,225.3c0,2.3-0.8,4.2-2.3,5.8c-1.5,1.5-3.4,2.3-5.7,2.3H314V173h5.1v23.8
		c2-0.3,4.1-0.5,6.1-0.8c2.6-0.3,4.6-0.5,6-0.5c2.9,0,4.3,1.4,4.3,4.2L335.5,225.3z M330.4,224.5v-24.1l-11.3,0.3v28.1h7.1
		C329,228.8,330.4,227.4,330.4,224.5z"/>
	<path id="path8012" class="st16" d="M364.8,229c0,2.9-1.4,4.4-4.3,4.4h-12.3c-2.9,0-4.3-1.5-4.3-4.4v-28.8c0-2.9,1.4-4.4,4.3-4.4
		h12.3c2.9,0,4.3,1.5,4.3,4.4v13.5l-1.7,1.8h-14.3V229h11v-6.9h5V229z M359.9,211.4v-11.3h-11v11.3H359.9z"/>
	<path id="path8014" class="st16" d="M392.9,208.1h-5v-7.7l-9.4,0.3v32.6h-5.1v-37.5h5.1v1c1.7-0.3,3.4-0.5,5.1-0.8
		c2.1-0.3,3.8-0.5,5.1-0.5c2.8,0,4.2,1.4,4.2,4.2L392.9,208.1z"/>
	<path id="path8016" class="st16" d="M419.7,229c0,2.9-1.5,4.4-4.4,4.4h-11.7c-2.9,0-4.4-1.5-4.4-4.4v-8.5h5v8.4h10.4v-7.5l-13.4-11
		c-1.3-1-1.9-2.4-1.9-4v-6.2c0-2.9,1.5-4.4,4.4-4.4h11.6c2.9,0,4.4,1.5,4.4,4.4v7.5h-5v-7.4h-10.4v6.5l13.5,11
		c1.3,1,1.9,2.4,1.9,4.1L419.7,229z"/>
	<path id="path8018" class="st16" d="M448.8,229c0,2.9-1.4,4.4-4.3,4.4h-12.3c-2.9,0-4.3-1.5-4.3-4.4v-28.8c0-2.9,1.4-4.4,4.3-4.4
		h12.3c2.9,0,4.3,1.5,4.3,4.4v13.5l-1.7,1.8h-14.3V229h11v-6.9h5L448.8,229z M443.9,211.4v-11.3h-11v11.3H443.9z"/>
	<path id="path8020" class="st16" d="M478.1,229c0,2.9-1.4,4.4-4.3,4.4h-12.2c-2.9,0-4.3-1.5-4.3-4.4v-28.8c0-2.9,1.4-4.4,4.3-4.4
		h12.2c2.9,0,4.3,1.5,4.3,4.4v7.5h-5v-7.3h-10.6v28.5h10.6v-8.4h5V229z"/>
	<path id="path8022" class="st16" d="M507.9,233.3h-5v-1c-2.1,0.3-4.1,0.6-6.1,0.8c-2.5,0.3-4.5,0.5-6.1,0.5c-2.8,0-4.2-1.4-4.2-4.2
		v-33.6h5v32.9l11.4-0.3v-32.6h5V233.3z"/>
	<path id="path8024" class="st16" d="M535.9,208.1h-5v-7.7l-9.4,0.3v32.6h-5.1v-37.5h5.1v1c1.7-0.3,3.4-0.5,5.1-0.8
		c2.1-0.3,3.8-0.5,5.1-0.5c2.8,0,4.2,1.4,4.2,4.2V208.1z"/>
	<path id="path8026" class="st16" d="M547.9,187.6h-5.2v-6.5h5.2V187.6z M547.9,233.3h-5v-37.5h5V233.3z"/>
	<path id="path8028" class="st16" d="M570,233.3h-7.3c-2.9,0-4.3-1.5-4.3-4.4v-28.6h-4.5v-4.5h4.5v-11.7h5v11.7h6.5v4.5h-6.5v28.5
		h6.5V233.3z"/>
	<path id="path8030" class="st16" d="M597.7,195.8l-9,37.2l-3.7,14.5h-5l3.8-14.5l-9.2-37.2h5.3l6.4,29.5l6.5-29.5H597.7z"/>
	<path id="path8032" class="st16" d="M645.7,233.3h-5.6L628.8,201l0.7-1.1h9.6v-22.2h-13.8v55.6H620V173h20.2c1.3,0,2.3,0.4,3.1,1.2
		c0.8,0.8,1.2,1.8,1.2,3.1v22.9c0,2.9-2,4.4-5.9,4.4c-0.4,0-0.9,0-1.7,0c-0.7-0.1-1.3-0.1-1.6-0.1
		C638.8,214,642.2,223.6,645.7,233.3L645.7,233.3z"/>
	<path id="path8034" class="st16" d="M674.1,229c0,2.9-1.4,4.4-4.3,4.4h-12.3c-2.9,0-4.3-1.5-4.3-4.4v-28.8c0-2.9,1.4-4.4,4.3-4.4
		h12.3c2.9,0,4.3,1.5,4.3,4.4v13.5l-1.7,1.8h-14.3V229h11v-6.9h5V229z M669.1,211.4v-11.3h-11v11.3H669.1z"/>
	<path id="path8036" class="st16" d="M702.8,229c0,2.9-1.5,4.4-4.4,4.4h-11.7c-2.9,0-4.4-1.5-4.4-4.4v-8.5h5v8.4h10.4v-7.5l-13.4-11
		c-1.3-1-1.9-2.4-1.9-4v-6.2c0-2.9,1.5-4.4,4.4-4.4h11.6c2.9,0,4.4,1.5,4.4,4.4v7.5h-5v-7.4h-10.4v6.5l13.5,11
		c1.3,1,1.9,2.4,1.9,4.1V229z"/>
	<path id="path8038" class="st16" d="M731.9,229c0,2.9-1.4,4.4-4.3,4.4h-12.3c-2.9,0-4.3-1.5-4.3-4.4v-28.8c0-2.9,1.4-4.4,4.3-4.4
		h12.3c2.9,0,4.3,1.5,4.3,4.4v13.5l-1.7,1.8h-14.3V229h11v-6.9h5V229z M726.9,211.4v-11.3h-11v11.3H726.9z"/>
	<path id="path8040" class="st16" d="M761.6,233.3h-5v-1c-2,0.3-4.1,0.6-6.1,0.8c-2.5,0.3-4.5,0.5-6,0.5c-2.8,0-4.2-1.4-4.2-4.2
		v-13.7c0-2.9,1.5-4.3,4.4-4.3h12.1v-11.3h-11v6.4h-5v-6.3c0-2.9,1.4-4.4,4.3-4.4h12.3c2.9,0,4.3,1.5,4.3,4.4V233.3z M756.6,228.6
		v-13.3h-11.4v13.5L756.6,228.6z"/>
	<path id="path8042" class="st16" d="M789.6,208.1h-5v-7.7l-9.4,0.3v32.6H770v-37.5h5.1v1c1.7-0.3,3.4-0.5,5.1-0.8
		c2.1-0.3,3.8-0.5,5.1-0.5c2.8,0,4.2,1.4,4.2,4.2L789.6,208.1z"/>
	<path id="path8044" class="st16" d="M817,229c0,2.9-1.4,4.4-4.3,4.4h-12.2c-2.9,0-4.3-1.5-4.3-4.4v-28.8c0-2.9,1.4-4.4,4.3-4.4
		h12.2c2.9,0,4.3,1.5,4.3,4.4v7.5h-5v-7.3h-10.6v28.5h10.6v-8.4h5V229z"/>
	<path id="path8046" class="st16" d="M846.8,233.3h-5.1v-32.9l-11.3,0.3v32.6h-5.1V173h5.1v23.8c2-0.3,4.1-0.5,6.1-0.8
		c2.6-0.3,4.6-0.5,6-0.5c2.9,0,4.3,1.4,4.3,4.2V233.3z"/>
	<path id="path8048" class="st16" d="M895.6,229c0,1.3-0.4,2.3-1.2,3.1c-0.8,0.8-1.8,1.2-3.1,1.2h-15.8c-1.3,0-2.3-0.4-3.1-1.2
		c-0.8-0.8-1.2-1.8-1.2-3.1v-51.7c0-1.3,0.4-2.3,1.2-3.1c0.8-0.8,1.8-1.2,3.1-1.2h15.8c1.3,0,2.3,0.4,3.1,1.2
		c0.8,0.8,1.2,1.8,1.2,3.1v14h-5.4v-13.6h-13.6v50.8h13.6v-20.8h-6.4v-4.6h11.8V229z"/>
	<path id="path8050" class="st16" d="M924.1,208.1h-5v-7.7l-9.4,0.3v32.6h-5.1v-37.5h5.1v1c1.7-0.3,3.4-0.5,5.1-0.8
		c2.1-0.3,3.8-0.5,5.1-0.5c2.8,0,4.2,1.4,4.2,4.2L924.1,208.1z"/>
	<path id="path8052" class="st16" d="M952.2,229c0,2.9-1.5,4.4-4.4,4.4H935c-2.9,0-4.3-1.5-4.3-4.4v-28.8c0-2.9,1.4-4.4,4.3-4.4
		h12.9c2.9,0,4.4,1.5,4.4,4.4V229z M947.1,228.8v-28.5h-11.3v28.5H947.1z"/>
	<path id="path8054" class="st16" d="M982,233.3h-5v-1c-2.1,0.3-4.1,0.6-6.1,0.8c-2.5,0.3-4.5,0.5-6.1,0.5c-2.8,0-4.2-1.4-4.2-4.2
		v-33.6h5v32.9l11.4-0.3v-32.6h5L982,233.3z"/>
	<path id="path8056" class="st16" d="M1012,225.3c0,2.3-0.8,4.2-2.3,5.8c-1.5,1.5-3.4,2.3-5.7,2.3h-8.4v14.2h-5.1v-51.7h5.1v1
		c2-0.3,4.1-0.5,6.1-0.8c2.6-0.3,4.6-0.5,6-0.5c2.9,0,4.3,1.4,4.3,4.2V225.3z M1006.9,224.5v-24.1l-11.3,0.3v28.1h7.1
		C1005.5,228.8,1006.9,227.4,1006.9,224.5z"/>
</g>
<g>
</g>
<g>
</g>
<g>
</g>
<g>
</g>
<g>
</g>
<g>
</g>
<g>
</g>
<g>
</g>
<g>
</g>
<g>
</g>
<g>
</g>
<g>
</g>
<g>
</g>
<g>
</g>
<g>
</g>
</svg>
