<?xml version="1.0" encoding="utf-8"?>
<!-- Generator: Adobe Illustrator 22.0.0, SVG Export Plug-In . SVG Version: 6.00 Build 0)  -->
<svg version="1.1" id="Layer_1" xmlns="http://www.w3.org/2000/svg" xmlns:xlink="http://www.w3.org/1999/xlink" x="0px" y="0px"
	 viewBox="0 0 1048 1037" style="enable-background:new 0 0 1048 1037;" xml:space="preserve">
<style type="text/css">
	.st0{fill:url(#SVGID_1_);}
	.st1{fill:url(#SVGID_2_);}
	.st2{fill:url(#SVGID_3_);}
</style>
<g>
	<linearGradient id="SVGID_1_" gradientUnits="userSpaceOnUse" x1="533.7877" y1="74.6577" x2="342.8885" y2="599.1489">
		<stop  offset="1.193042e-03" style="stop-color:#FD78D6"/>
		<stop  offset="0.655" style="stop-color:#FEA6A6"/>
		<stop  offset="1" style="stop-color:#FFB992"/>
	</linearGradient>
	<path class="st0" d="M796.9,531c-15.9,0-25.1-2.5-39-10.5c-10.7-6.1-23.7-8.5-35.9-8.5c-10.9,0-17.7,2.6-27.7-2.3
		c-6.5-3.2-11.8-7.7-19-7.7c-18.2,0-16.9-18.1-28.7-28.9c-11.1-10.1-25.2-16.8-39.8-20.3c-9.2-2.2-18.3-3-26.9-2.6
		c1.5-4.4,2.3-9.2,2.3-14.2c0-24.3-19.7-44-44-44c-1.3,0-2.6,0.1-3.9,0.2c15.4-34.6,23.9-72.9,23.9-113.2c0-154.1-124.9-279-279-279
		S0.2,124.9,0.2,279s124.9,279,279,279c37.9,0,74-7.6,106.9-21.2c19.5,18.3,52.1,30.2,89.1,30.2c37.4,0,72.2-25,108.1-16.4
		c12.1,2.9,26.8,4.7,38.9,0.9c9.4-3,16-7.5,26.9-4.8c3.4,0.8,6.6,2.4,9.8,3.9c22.6,10.9,35.8,25.4,63,25.4c14.8,0,28.3-4.6,42-9.8
		c14.3-5.5,26.5-6.1,41.8-7.2c7.2-0.5,33.6-2.3,33.6-13.8C839.2,537.3,820.3,531,796.9,531z"/>
	<linearGradient id="SVGID_2_" gradientUnits="userSpaceOnUse" x1="165.732" y1="542.2201" x2="735.5682" y2="1020.3694">
		<stop  offset="0" style="stop-color:#FC2C8C"/>
		<stop  offset="1" style="stop-color:#FF864E"/>
	</linearGradient>
	<path class="st1" d="M667.2,609c-26.1,0-51,4.5-73.9,12.8C547.8,531,456.5,469,351.2,469c-150.8,0-273,127.2-273,284
		s122.2,284,273,284c78,0,148.4-34.1,198.2-88.7c33.2,21.8,73.9,34.7,117.8,34.7c112.1,0,203-83.7,203-187
		C870.2,692.7,779.4,609,667.2,609z"/>
	<linearGradient id="SVGID_3_" gradientUnits="userSpaceOnUse" x1="537.2359" y1="496.8955" x2="628.3703" y2="1013.7445">
		<stop  offset="3.579126e-03" style="stop-color:#D90575"/>
		<stop  offset="0.9988" style="stop-color:#FE3DB3"/>
	</linearGradient>
	<path class="st2" d="M975.3,688.5c0,0-0.1,0-0.1,0c-23.3,0-32,18.7-51.9,21.1c-19.2,2.3-27.7-16.9-40.5-27.3
		c-13.2-10.7-29.3-16.8-46.4-16.8c-17.9,0-33.9,10.1-51.7,9c-16.3-1-30.6-10.2-45.1-16.9c-26.3-12.1-54.8-19.1-83.6-21
		c-6-0.4-11.4-0.3-16.5,0.2c-27.7,2.3-43.7,12.8-72.4-11.6c-29.2-24.8-50.8-51.9-86.4-69.6C446.7,538.7,409,530,371.2,530
		c-135.9,0-246,110.1-246,246s110.1,246,246,246c54.4,0,104.7-17.7,145.4-47.6c34.7,21.1,77,33.6,122.6,33.6
		c118.2,0,214-83.3,214-186c0-4.5-0.2-9-0.6-13.4c22.7-5.3,41.3-21.2,50.3-42.2c2.8,37.5,34.1,67.1,72.3,67.1
		c40,0,72.5-32.5,72.5-72.5C1047.8,721.5,1014.8,688.5,975.3,688.5z"/>
</g>
</svg>
