<svg xmlns="http://www.w3.org/2000/svg" viewBox="0 0 525.29 616.51"><defs><style>.cls-1,.cls-5{fill:#fff;}.cls-1,.cls-2,.cls-3,.cls-4{stroke:#fff;stroke-linejoin:round;stroke-width:1.22px;}.cls-2{fill:none;}.cls-3{fill:#231f20;}.cls-4{fill:#e4e5e6;}</style></defs><title>monadical-white</title><g id="Layer_2" data-name="Layer 2"><g id="Layer_1-2" data-name="Layer 1"><polygon class="cls-1" points="443.85 497.42 403.31 455.63 397.23 286.39 428.61 220.03 443.85 497.42"/><polygon class="cls-1" points="137.5 44.76 56.34 44.76 15.77 0.61 96.92 0.61 137.5 44.76"/><polygon class="cls-1" points="509.41 45.38 428.25 45.38 387.68 1.24 468.83 1.24 509.41 45.38"/><polygon class="cls-2" points="262.72 255.71 225.59 331.68 134.79 177.8 117.48 148.49 56.39 44.76 137.3 44.76 262.72 255.71"/><polygon class="cls-3" points="56.47 44.76 117.56 148.49 56.39 44.76 56.47 44.76"/><polygon class="cls-2" points="524.67 497.42 443.52 497.42 443.52 497.38 428.28 219.99 396.9 286.35 304.19 482.43 223.2 482.43 264.71 393.85 300.1 318.33 391.06 124.24 391.06 124.16 403.35 98.06 428.28 44.87 509.43 44.87 524.67 497.42"/><polygon class="cls-4" points="117.56 148.49 56.39 44.76 56.47 44.76 117.56 148.49"/><polygon class="cls-1" points="264.55 393.74 223.04 482.31 139.09 324.22 62.11 181.97 41.8 497.31 0.61 451.46 15.73 0.61 56.47 44.76 56.39 44.76 117.56 148.49 134.87 177.8 225.59 331.8 225.67 331.68 262.28 393.74 264.55 393.74"/><polygon class="cls-4" points="117.56 148.49 56.39 44.76 56.47 44.76 117.56 148.49"/><polygon class="cls-1" points="428.33 45.38 403.4 98.57 391.12 124.72 391.12 124.75 300.15 318.85 264.76 394.36 262.5 394.36 225.89 332.3 263.02 256.34 387.75 1.24 428.33 45.38"/><polygon class="cls-2" points="138.93 324.33 122.79 497.42 41.64 497.42 61.95 182.09 138.93 324.33"/><path class="cls-5" d="M.61,549.49l.5-.6,7.42-1,.6.4L31.4,588.79l21.68-39.4.49-.59,8.12-.9.5.4v66.52l-.5.5H54.36l-.29-.5V562.56L51.59,568l-16,28.71-.6.49H27.84l-.6-.49L11.2,568l-2.27-5.44v52.26l-.5.5H1.11l-.5-.5Z"/><path class="cls-5" d="M78.52,572.06c0-16,10.49-24.55,26-24.55s26,8.51,26,24.55v20.19c0,15.94-10.5,24.26-26,24.26s-26-8.32-26-24.26Zm26,36.53c10.1,0,17.52-5.45,17.52-17.23V572.75c0-11.48-7.42-17.32-17.52-17.32S87,561.27,87,572.75v18.61C87,603.14,94.46,608.59,104.55,608.59Z"/><path class="cls-5" d="M146.82,549.49l.5-.6,7.32-1,.7.4,32.07,48.31,2.57,4.75V549.49l.5-.6,7.32-1,.5.4v66.52l-.5.5h-7l-.79-.5-32.27-48.7-2.57-4.75v53.45l-.5.5h-7.32l-.5-.5Z"/><path class="cls-5" d="M231.86,549.49l.59-.5,8.31-1.09.6.4,23.46,66.52-.3.5H256.6l-.59-.5-5.44-15.93H223l-5.35,15.93-.49.5h-8l-.3-.5Zm16.23,41.87L237.8,560.87l-1-4.25-1,4.25-10.3,30.49Z"/><path class="cls-5" d="M275.21,549l.5-.49h22.17c15.55,0,26,8.51,26,24.55v18c0,15.93-10.49,24.25-26,24.25H275.71l-.5-.5Zm22.67,58.41c10.1,0,17.52-5.45,17.52-17.23V573.74c0-11.48-7.42-17.32-17.52-17.32H283.53v51Z"/><path class="cls-5" d="M340.15,549.49l.5-.6,7.32-1,.5.4v66.52l-.5.5h-7.32l-.5-.5Z"/><path class="cls-5" d="M364.8,572.06c0-16,10.39-24.55,25.94-24.55,10.89,0,19.6,5,23.16,13.66l-.3.59L407,564.54l-.69-.2c-2.67-5.45-8.42-8.91-15.54-8.91-10.1,0-17.43,5.84-17.43,17.32v18.61c0,11.78,7.33,17.23,17.43,17.23,8.11,0,13.95-3.27,16.73-9.21l.69-.2,6.43,2.48.3.59c-3.27,9.41-12,14.26-24.15,14.26-15.55,0-25.94-8.32-25.94-24.26Z"/><path class="cls-5" d="M444.09,549.49l.6-.5L453,547.9l.6.4,23.46,66.52-.3.5h-7.92l-.59-.5-5.45-15.93H435.18l-5.34,15.93-.5.5h-8l-.3-.5Zm16.24,41.87L450,560.87l-1-4.25-1,4.25-10.29,30.49Z"/><path class="cls-5" d="M487.45,549.49l.5-.6,7.32-1,.5.4v59.1h28.51l.39.49-1.78,6.93-.59.5H488l-.5-.5Z"/></g></g></svg>