<svg xmlns="http://www.w3.org/2000/svg" xmlns:xlink="http://www.w3.org/1999/xlink" viewBox="0 0 904.11 348.44"><defs><style>.cls-1{fill:none;}.cls-2{clip-path:url(#clip-path);}.cls-3{fill:#fff;}</style><clipPath id="clip-path" transform="translate(-21.89 -21.48)"><rect class="cls-1" width="957.12" height="390.54"/></clipPath></defs><title>Asset 1</title><g id="Layer_2" data-name="Layer 2"><g id="Layer_1-2" data-name="Layer 1"><g id="g10"><g id="g12"><g class="cls-2"><g id="g14"><g id="g20"><path id="path22" class="cls-3" d="M369.37,60.88l23.46-.11L392.92,81l-22.78.1.33,74.51-26.52.11-.34-74.5-14.11.07-.09-20.26L343.52,61l0-4.05q-.06-15.52,9.16-24.68T378.72,23A49.28,49.28,0,0,1,390,24.24a27.76,27.76,0,0,1,9,3.59l-6.89,19.11a18.17,18.17,0,0,0-10.73-3.16q-12.06,0-12,13.21Z" transform="translate(-21.89 -21.48)"/></g><g id="g24"><path id="path26" class="cls-3" d="M412,23.23l26.52-.12.6,132.21-26.53.12Z" transform="translate(-21.89 -21.48)"/></g><g id="g28"><path id="path30" class="cls-3" d="M555.49,63.31l.41,91.48-25.17.12L530.68,144a35.2,35.2,0,0,1-12.54,9.16,39.52,39.52,0,0,1-15.8,3.21q-18,.09-28.62-10.24T463,115.42l-.23-51.69,26.53-.12.21,47.78q.1,22.11,18.64,22,9.51,0,15.27-6.27t5.7-18.48L529,63.43Z" transform="translate(-21.89 -21.48)"/></g><g id="g32"><path id="path34" class="cls-3" d="M581.25,47.93a14.45,14.45,0,0,1-4.45-10.72,14.47,14.47,0,0,1,4.35-10.76,15.62,15.62,0,0,1,11.41-4.38A16,16,0,0,1,604,26.18a13.71,13.71,0,0,1,4.45,10.37,15.15,15.15,0,0,1-4.36,11.19,17.12,17.12,0,0,1-22.84.19" transform="translate(-21.89 -21.48)"/></g><g id="g36"><path id="path38" class="cls-3" d="M580.14,63.2l26.53-.12.41,91.48-26.52.12Z" transform="translate(-21.89 -21.48)"/></g><g id="g40"><path id="path42" class="cls-3" d="M692.15,126.89a22.16,22.16,0,0,1-16.63,7A22.38,22.38,0,0,1,658.65,127q-6.66-6.86-6.71-18.42t6.55-18.48A23.82,23.82,0,0,1,692,90q6.66,6.86,6.71,18.42t-6.55,18.48M697.8,21.6,698,72.36q-9.91-11-27.43-10.93a47.57,47.57,0,0,0-23.35,5.89,41.37,41.37,0,0,0-16.34,16.57q-5.91,10.74-5.84,24.85t6.06,24.8A41.41,41.41,0,0,0,647.62,150a47.41,47.41,0,0,0,23.4,5.68q18.71-.09,28.52-12l.05,10.54,25.33-.11-.59-132.56Z" transform="translate(-21.89 -21.48)"/></g><g id="g44"><path id="path46" class="cls-3" d="M391,276.73a31,31,0,0,0,11.58-14.85l-.08-16.66-30.26.13q-13.1.06-18.94,4.85t-5.81,13.12A16.38,16.38,0,0,0,354,277q6.48,5,18.22,4.94,11.06-.06,18.77-5.19M402,207q8.88,8.39,9,24.71L411.2,288l-8.16,0L403,272.26a29.64,29.64,0,0,1-12.36,12.21q-8.14,4.36-19.54,4.42-14.79.08-23.41-6.86A22.47,22.47,0,0,1,339,263.7q-.06-11.06,7.83-18t25.22-7l30.43-.13,0-7.14q-.06-12.42-6.8-18.85T376,206.23a47.27,47.27,0,0,0-16.9,3.13,42.55,42.55,0,0,0-13.66,8.23l-4.28-6.11a47.27,47.27,0,0,1,15.95-9.33,58,58,0,0,1,19.54-3.41q16.49-.08,25.37,8.3" transform="translate(-21.89 -21.48)"/></g><g id="g48"><path id="path50" class="cls-3" d="M490.24,282.07a21.33,21.33,0,0,1-8.05,4.71,32,32,0,0,1-10.11,1.66q-11.56,0-17.89-6.3t-6.37-17.74l-.26-58-16.32.07,0-7.31,16.33-.08-.09-19.38,8.51,0,.08,19.39,28.23-.13,0,7.31-28.22.13.25,57.13c0,5.78,1.43,10.17,4.23,13.16s6.9,4.48,12.34,4.45a19.7,19.7,0,0,0,13.76-5Z" transform="translate(-21.89 -21.48)"/></g><g id="g52"><path id="path54" class="cls-3" d="M555.54,281.77a21.22,21.22,0,0,1-8,4.72,32,32,0,0,1-10.11,1.66q-11.57,0-17.89-6.3t-6.37-17.74l-.26-58-16.32.08,0-7.32,16.33-.07-.09-19.38,8.5,0,.09,19.38,28.23-.12,0,7.31-28.23.13.26,57.13q0,8.67,4.22,13.16t12.35,4.45a19.71,19.71,0,0,0,13.75-5Z" transform="translate(-21.89 -21.48)"/></g><g id="g56"><path id="path58" class="cls-3" d="M623.11,275.69a31,31,0,0,0,11.58-14.85l-.07-16.66-30.27.13q-13.1.06-18.94,4.85t-5.81,13.12a16.41,16.41,0,0,0,6.52,13.66q6.5,5,18.22,4.94,11.05-.06,18.77-5.19m11-69.69q8.88,8.38,8.95,24.71l.25,56.28-8.16,0-.07-15.81a29.58,29.58,0,0,1-12.36,12.21q-8.15,4.36-19.54,4.42-14.79.07-23.41-6.86a22.49,22.49,0,0,1-8.67-18.33q0-11.06,7.83-18t25.22-7l30.44-.13,0-7.14q-.06-12.42-6.81-18.85t-19.67-6.38a47.5,47.5,0,0,0-16.9,3.14,42.39,42.39,0,0,0-13.65,8.23l-4.28-6.11a47.12,47.12,0,0,1,15.94-9.33,58,58,0,0,1,19.54-3.41q16.5-.07,25.38,8.3" transform="translate(-21.89 -21.48)"/></g><g id="g60"><path id="path62" class="cls-3" d="M690.56,281.68a41.44,41.44,0,0,1-16.06-16,49.87,49.87,0,0,1-.21-46.59A40.91,40.91,0,0,1,690.21,203a46.7,46.7,0,0,1,23.1-5.8,44.76,44.76,0,0,1,19.48,4.08,35.11,35.11,0,0,1,14.26,12.1L740.78,218a30.16,30.16,0,0,0-11.87-9.9,36.16,36.16,0,0,0-15.57-3.25,37.23,37.23,0,0,0-18.6,4.76,33.31,33.31,0,0,0-12.86,13.24,43.24,43.24,0,0,0,.17,39.11,33.19,33.19,0,0,0,13,13.12,37,37,0,0,0,18.64,4.6,36.25,36.25,0,0,0,15.54-3.39,30.16,30.16,0,0,0,11.77-10l6.32,4.56a35.1,35.1,0,0,1-14.15,12.22,44.61,44.61,0,0,1-19.45,4.26,46,46,0,0,1-23.15-5.68" transform="translate(-21.89 -21.48)"/></g><g id="g64"><path id="path66" class="cls-3" d="M802.77,238.83l-23,21.19.12,26.36-8.51,0-.56-126.18,8.5,0,.4,89.28,56.57-52.12,10.88-.05L809,233.36l42.24,52.7-10.54.05Z" transform="translate(-21.89 -21.48)"/></g><g id="g68"><path id="path70" class="cls-3" d="M870.65,283.42q-9.71-3.18-15.17-8.09l3.88-6.82a45.14,45.14,0,0,0,14.07,7.59,53,53,0,0,0,18,3q13.43-.06,19.79-4.51a14.07,14.07,0,0,0,6.32-12.27,11.49,11.49,0,0,0-3.52-8.83,21.56,21.56,0,0,0-8.61-4.72q-5.11-1.51-14.13-3.17a117.25,117.25,0,0,1-17-4,26.55,26.55,0,0,1-11.09-7.09q-4.61-4.9-4.65-13.58,0-10.54,8.68-17.47t24.88-7a61.36,61.36,0,0,1,16.85,2.31A42.27,42.27,0,0,1,922.51,205l-3.88,6.82a40.83,40.83,0,0,0-12.44-5.9,50.7,50.7,0,0,0-14.3-2q-12.4.06-18.68,4.68a14.28,14.28,0,0,0-6.24,12.1q0,6,3.61,9.25a22.61,22.61,0,0,0,8.78,4.9q5.19,1.59,14.56,3.42a123.69,123.69,0,0,1,16.77,3.92A25.48,25.48,0,0,1,921.51,249q4.46,4.76,4.49,13.08,0,11.06-9.11,17.73t-25.82,6.74a64.06,64.06,0,0,1-20.42-3.14" transform="translate(-21.89 -21.48)"/></g><g id="g72"><path id="path74" class="cls-3" d="M275.54,23.49l-46.34.21a8.3,8.3,0,1,0,.08,16.6l38-.17.18,40a8.3,8.3,0,0,0,16.6-.08l-.22-48.26a8.3,8.3,0,0,0-8.33-8.27" transform="translate(-21.89 -21.48)"/></g><g id="g76"><path id="path78" class="cls-3" d="M119.77,147.42l46.34-.2a10,10,0,0,1,10,9.93l.22,48.27a10,10,0,1,1-20,.09l-.18-38.28-36.35.16a10,10,0,0,1-.09-20M165.88,97l46.34-.21a10,10,0,0,1,10,9.94l.22,48.27a10,10,0,0,1-20,.08l-.18-38.28L166,117a10,10,0,1,1-.09-20m-144,7.9v.9l.67,149.55.17,36.85,36.84-.17L210,291.38a37,37,0,0,0,36.68-37L246,103.91l-.17-36.85-187.3.84a37,37,0,0,0-36.68,37" transform="translate(-21.89 -21.48)"/></g><g id="g80"><path id="path82" class="cls-3" d="M373.46,340.52l-8.08,21.32h-1.92l-7.19-18.5L349,361.84h-1.88l-8.08-21.32h2l7.1,19,7.27-19h1.76l7.22,19,7.19-19Z" transform="translate(-21.89 -21.48)"/></g><g id="g84"><path id="path86" class="cls-3" d="M388.36,343.16a7.54,7.54,0,0,0-2.88,2.81,9.24,9.24,0,0,0-1.24,4.11h16.33a8.6,8.6,0,0,0-1.22-4.09,7.94,7.94,0,0,0-6.94-3.83,8.16,8.16,0,0,0-4.05,1m14.17,8.51H384.2a8.84,8.84,0,0,0,1.26,4.43,8.13,8.13,0,0,0,3.21,3,9.6,9.6,0,0,0,4.55,1.06,9.8,9.8,0,0,0,3.86-.75,7.62,7.62,0,0,0,3-2.23l1.18,1.35a9,9,0,0,1-3.49,2.57,12.12,12.12,0,0,1-10.22-.49,9.93,9.93,0,0,1-3.9-3.84,11,11,0,0,1-1.41-5.59,11.6,11.6,0,0,1,1.32-5.57,9.8,9.8,0,0,1,3.66-3.86,10.54,10.54,0,0,1,10.43,0,9.71,9.71,0,0,1,3.64,3.82,11.49,11.49,0,0,1,1.32,5.55Z" transform="translate(-21.89 -21.48)"/></g><g id="g88"><path id="path90" class="cls-3" d="M450,342.69q2.33,2.32,2.33,6.69v12.46H450.3V349.55a7.6,7.6,0,0,0-1.81-5.48,6.77,6.77,0,0,0-5.09-1.87,7.88,7.88,0,0,0-5.92,2.24,8.36,8.36,0,0,0-2.16,6.05v11.35h-2v-30.3h2V345a7.8,7.8,0,0,1,3.27-3.41,10.34,10.34,0,0,1,5.1-1.2,8.56,8.56,0,0,1,6.33,2.33" transform="translate(-21.89 -21.48)"/></g><g id="g92"><path id="path94" class="cls-3" d="M478.25,359.1a7.49,7.49,0,0,0,2.8-3.55v-4h-7.27a7.23,7.23,0,0,0-4.55,1.14,3.82,3.82,0,0,0-1.41,3.14,4,4,0,0,0,1.55,3.29,7,7,0,0,0,4.37,1.2,8,8,0,0,0,4.51-1.22M481,342.38a7.85,7.85,0,0,1,2.12,5.94v13.52h-2V358a7.11,7.11,0,0,1-3,2.92,9.93,9.93,0,0,1-4.69,1,8.66,8.66,0,0,1-5.62-1.68,5.78,5.78,0,0,1-.16-8.71q1.89-1.65,6.06-1.65h7.31v-1.72a6,6,0,0,0-1.61-4.53,6.54,6.54,0,0,0-4.72-1.55,11.32,11.32,0,0,0-4.06.73,10.09,10.09,0,0,0-3.29,2l-1-1.47a11.33,11.33,0,0,1,3.84-2.22,13.92,13.92,0,0,1,4.69-.8,8.5,8.5,0,0,1,6.09,2" transform="translate(-21.89 -21.48)"/></g><g id="g96"><path id="path98" class="cls-3" d="M501.38,360.61a10,10,0,0,1-3.84-3.86,11.2,11.2,0,0,1-1.38-5.57,11.33,11.33,0,0,1,1.38-5.62,9.89,9.89,0,0,1,3.84-3.83,11.26,11.26,0,0,1,5.56-1.37,10.69,10.69,0,0,1,4.67,1,8.47,8.47,0,0,1,3.41,2.92l-1.51,1.1a7.25,7.25,0,0,0-2.84-2.39,8.66,8.66,0,0,0-3.73-.79,8.92,8.92,0,0,0-4.48,1.12,8,8,0,0,0-3.1,3.16,10.4,10.4,0,0,0,0,9.39,8,8,0,0,0,3.1,3.17,8.92,8.92,0,0,0,4.48,1.12,8.66,8.66,0,0,0,3.73-.79,7.34,7.34,0,0,0,2.84-2.39l1.51,1.1a8.47,8.47,0,0,1-3.41,2.92,10.69,10.69,0,0,1-4.67,1,11.06,11.06,0,0,1-5.56-1.39" transform="translate(-21.89 -21.48)"/></g><g id="g100"><path id="path102" class="cls-3" d="M535.31,350.44l-5.55,5.07v6.33h-2v-30.3h2V353l13.64-12.46H546l-9.19,8.62,10.09,12.7h-2.53Z" transform="translate(-21.89 -21.48)"/></g><g id="g104"><path id="path106" class="cls-3" d="M593.21,340.52l-10.94,24.22a9.62,9.62,0,0,1-2.84,4,6.26,6.26,0,0,1-3.82,1.18,7.58,7.58,0,0,1-2.75-.49,5.87,5.87,0,0,1-2.19-1.43l1-1.55a5.32,5.32,0,0,0,4,1.67,4.2,4.2,0,0,0,2.65-.85,7.74,7.74,0,0,0,2-2.94l1.14-2.58-9.59-21.23h2.16l8.54,19.07,8.53-19.07Z" transform="translate(-21.89 -21.48)"/></g><g id="g108"><path id="path110" class="cls-3" d="M616.71,359a8.17,8.17,0,0,0,3.06-3.19,10.13,10.13,0,0,0,0-9.3,8.17,8.17,0,0,0-3.06-3.19,9,9,0,0,0-8.78,0,8.17,8.17,0,0,0-3.06,3.19,10.21,10.21,0,0,0,0,9.3,8.17,8.17,0,0,0,3.06,3.19,9,9,0,0,0,8.78,0m-9.84,1.59a10,10,0,0,1-3.82-3.86,11.86,11.86,0,0,1,0-11.14,10,10,0,0,1,3.82-3.86,11.38,11.38,0,0,1,10.9,0,10,10,0,0,1,3.82,3.86,11.86,11.86,0,0,1,0,11.14,10,10,0,0,1-3.82,3.86,11.38,11.38,0,0,1-10.9,0" transform="translate(-21.89 -21.48)"/></g><g id="g112"><path id="path114" class="cls-3" d="M654.91,340.52v21.32h-2v-4.58a7.85,7.85,0,0,1-3.15,3.49,9.24,9.24,0,0,1-4.89,1.25,8.94,8.94,0,0,1-6.54-2.33Q636,357.35,636,353V340.52h2v12.29a7.52,7.52,0,0,0,1.83,5.47,6.92,6.92,0,0,0,5.19,1.88,7.44,7.44,0,0,0,5.69-2.24,8.46,8.46,0,0,0,2.11-6.05V340.52Z" transform="translate(-21.89 -21.48)"/></g><g id="g116"><path id="path118" class="cls-3" d="M675.53,341.6a9.68,9.68,0,0,1,5.06-1.24v2l-.49,0a7.08,7.08,0,0,0-5.55,2.22,9,9,0,0,0-2,6.19v11.11h-2V340.52h2v4.66a7.37,7.37,0,0,1,3.06-3.58" transform="translate(-21.89 -21.48)"/></g><g id="g120"><path id="path122" class="cls-3" d="M711.46,361.22a10,10,0,0,1-3.63-2l.94-1.63a10.69,10.69,0,0,0,3.36,1.84,12.75,12.75,0,0,0,4.31.73,8.45,8.45,0,0,0,4.76-1.06,3.39,3.39,0,0,0,1.53-2.94,2.74,2.74,0,0,0-.84-2.12,5,5,0,0,0-2.06-1.14,33.19,33.19,0,0,0-3.39-.78,28.62,28.62,0,0,1-4.08-1,6.46,6.46,0,0,1-2.66-1.71,4.65,4.65,0,0,1-1.1-3.27,5.11,5.11,0,0,1,2.1-4.19,9.53,9.53,0,0,1,6-1.65,14.71,14.71,0,0,1,4,.57,10.35,10.35,0,0,1,3.27,1.51l-.94,1.63a9.89,9.89,0,0,0-3-1.42,12.05,12.05,0,0,0-3.43-.49,7.58,7.58,0,0,0-4.5,1.1,3.43,3.43,0,0,0-1.51,2.9,2.88,2.88,0,0,0,.86,2.22,5.41,5.41,0,0,0,2.1,1.19c.83.26,2,.53,3.49.83a29.84,29.84,0,0,1,4,1,6.06,6.06,0,0,1,2.59,1.66,4.42,4.42,0,0,1,1.06,3.14,5,5,0,0,1-2.2,4.25,10.48,10.48,0,0,1-6.21,1.59,15.29,15.29,0,0,1-4.9-.78" transform="translate(-21.89 -21.48)"/></g><g id="g124"><path id="path126" class="cls-3" d="M750.15,359a8.17,8.17,0,0,0,3.06-3.19,10.21,10.21,0,0,0,0-9.3,8.17,8.17,0,0,0-3.06-3.19,9,9,0,0,0-8.78,0,8.17,8.17,0,0,0-3.06,3.19,10.13,10.13,0,0,0,0,9.3,8.17,8.17,0,0,0,3.06,3.19,9,9,0,0,0,8.78,0m-9.84,1.59a9.91,9.91,0,0,1-3.82-3.86,11.86,11.86,0,0,1,0-11.14,9.91,9.91,0,0,1,3.82-3.86,11.38,11.38,0,0,1,10.9,0,10,10,0,0,1,3.82,3.86,11.86,11.86,0,0,1,0,11.14,10,10,0,0,1-3.82,3.86,11.38,11.38,0,0,1-10.9,0" transform="translate(-21.89 -21.48)"/></g><g id="g128"><path id="path130" class="cls-3" d="M772.09,337.42v3.1h6.82v1.76h-6.77v19.56h-2V342.28h-3.92v-1.76h3.92v-3.26a5.45,5.45,0,0,1,5.92-5.88,8,8,0,0,1,2.35.34,4.8,4.8,0,0,1,1.86,1l-.82,1.56a4.73,4.73,0,0,0-3.3-1.19q-4,0-4,4.29" transform="translate(-21.89 -21.48)"/></g><g id="g132"><path id="path134" class="cls-3" d="M800.59,360.49a5.06,5.06,0,0,1-1.94,1.12,7.54,7.54,0,0,1-2.43.39,5.73,5.73,0,0,1-4.28-1.53,5.8,5.8,0,0,1-1.51-4.27V342.28h-3.92v-1.76h3.92v-4.65h2v4.65h6.78v1.76h-6.78V356a4.47,4.47,0,0,0,1,3.16,3.84,3.84,0,0,0,3,1.08,4.74,4.74,0,0,0,3.31-1.18Z" transform="translate(-21.89 -21.48)"/></g><g id="g136"><path id="path138" class="cls-3" d="M843.26,340.52l-8.08,21.32h-1.92l-7.19-18.5-7.22,18.5H817l-8.09-21.32h2l7.11,19,7.27-19H827l7.23,19,7.19-19Z" transform="translate(-21.89 -21.48)"/></g><g id="g140"><path id="path142" class="cls-3" d="M864.84,359.1a7.49,7.49,0,0,0,2.8-3.55v-4h-7.27a7.25,7.25,0,0,0-4.55,1.14,3.82,3.82,0,0,0-1.41,3.14,4,4,0,0,0,1.55,3.29,7,7,0,0,0,4.37,1.2,8,8,0,0,0,4.51-1.22m2.72-16.72a7.85,7.85,0,0,1,2.12,5.94v13.52h-2V358a7.11,7.11,0,0,1-3,2.92,9.93,9.93,0,0,1-4.69,1,8.66,8.66,0,0,1-5.62-1.68,5.78,5.78,0,0,1-.16-8.71c1.26-1.1,3.29-1.65,6.06-1.65h7.31v-1.72a6,6,0,0,0-1.61-4.53,6.54,6.54,0,0,0-4.72-1.55,11.36,11.36,0,0,0-4.06.73,10.2,10.2,0,0,0-3.29,2l-1-1.47a11.33,11.33,0,0,1,3.84-2.22,14,14,0,0,1,4.69-.8,8.5,8.5,0,0,1,6.09,2" transform="translate(-21.89 -21.48)"/></g><g id="g144"><path id="path146" class="cls-3" d="M890.06,341.6a9.68,9.68,0,0,1,5.06-1.24v2l-.49,0a7.08,7.08,0,0,0-5.55,2.22,8.92,8.92,0,0,0-2,6.19v11.11H885V340.52h2v4.66a7.44,7.44,0,0,1,3.07-3.58" transform="translate(-21.89 -21.48)"/></g><g id="g148"><path id="path150" class="cls-3" d="M911.33,343.16a7.54,7.54,0,0,0-2.88,2.81,9.12,9.12,0,0,0-1.24,4.11h16.33a8.5,8.5,0,0,0-1.23-4.09,7.94,7.94,0,0,0-6.94-3.83,8.15,8.15,0,0,0-4,1m14.17,8.51H907.17a8.84,8.84,0,0,0,1.26,4.43,8.13,8.13,0,0,0,3.21,3,9.57,9.57,0,0,0,4.55,1.06,9.84,9.84,0,0,0,3.86-.75,7.62,7.62,0,0,0,3-2.23l1.18,1.35a9,9,0,0,1-3.49,2.57,12.14,12.14,0,0,1-10.23-.49,10,10,0,0,1-3.9-3.84,11,11,0,0,1-1.41-5.59,11.61,11.61,0,0,1,1.33-5.57,9.73,9.73,0,0,1,3.66-3.86,10,10,0,0,1,5.22-1.39,10.06,10.06,0,0,1,5.21,1.37,9.62,9.62,0,0,1,3.63,3.82,11.39,11.39,0,0,1,1.33,5.55Z" transform="translate(-21.89 -21.48)"/></g></g></g></g></g></g></g></svg>