<?xml version="1.0" encoding="utf-8"?>
<!-- Generator: Adobe Illustrator 23.0.2, SVG Export Plug-In . SVG Version: 6.00 Build 0)  -->
<svg version="1.1" id="Layer_1" xmlns="http://www.w3.org/2000/svg" xmlns:xlink="http://www.w3.org/1999/xlink" x="0px" y="0px"
	 viewBox="0 0 1024 832" style="enable-background:new 0 0 1024 832;" xml:space="preserve">
<style type="text/css">
	.st0{opacity:0.2;}
	.st1{fill:#FFFFFF;}
	.st2{opacity:0.57;fill:#D4E1FF;enable-background:new    ;}
	.st3{opacity:0.4;}
</style>
<g class="st0">
	<g>
		<path class="st1" d="M34.3,320.4c0.9-5.4,8.7-8.2,11.1-4.5c1.3-19.5,25.2-12.9,23.8,1.1c2.8-3.8,7.4-2,9.6,1.7
			c4.3,4.4,1.5,12.8-4.8,8.2c0.9,10.1-7.9,6.6-9.4,2.9c-3.2,8.8-12.8,4.9-14.9-2.4C44.4,331.1,32.8,329.9,34.3,320.4z"/>
		<path class="st2" d="M80.7,324.4c0,0-2.2,5.7-7,2.2c0,0-0.2,5.6-3.5,6c-3.3,0.3-5.9-3.6-5.9-3.6s-0.5,4.5-6.2,4.4
			c-5.7-0.1-8.7-6.6-8.7-6.6s-10.3,7.2-14.4-3.8c0,0,8.8,6.2,13.3-0.9c0,0,4,5.5,9.4,5.7s6.2-4.5,6.2-4.5s2.8,4.1,5.2,4.6
			c2.5,0.4,2.6-5.7,2.6-5.7S75.2,326.3,80.7,324.4z"/>
	</g>
	<g>
		<path class="st1" d="M1023.8,442c-1.3-7.9-12.6-11.9-16.1-6.5c-2-28.4-36.5-18.7-34.5,1.7c-4-5.6-10.9-2.9-13.8,2.5
			c-6.2,6.4-2.1,18.5,7,12c-1.3,14.8,11.5,9.7,13.7,4.2c4.6,12.7,18.6,7.2,21.6-3.5C1009.1,457.4,1026,455.8,1023.8,442z"/>
		<path class="st2" d="M956.5,447.7c0,0,3.2,8.3,10.2,3.1c0,0,0.3,8.1,5,8.6c4.8,0.6,8.5-5.2,8.5-5.2s0.6,6.5,9,6.4
			c8.4-0.1,12.6-9.6,12.6-9.6s14.9,10.4,20.9-5.6c0,0-12.8,9-19.4-1.2c0,0-5.8,8-13.5,8.2c-7.7,0.2-9.1-6.5-9.1-6.5s-4,6.1-7.7,6.7
			c-3.6,0.6-3.8-8.2-3.8-8.2S964.5,450.4,956.5,447.7z"/>
	</g>
	<g>
		<path class="st1" d="M1023.8,1100.4c-1.3-7.9-12.6-11.9-16.1-6.5c-2-28.4-36.5-18.7-34.5,1.7c-4-5.6-10.9-2.9-13.8,2.5
			c-6.2,6.4-2.1,18.5,7,12c-1.3,14.8,11.5,9.7,13.7,4.2c4.6,12.7,18.6,7.2,21.6-3.5C1009.1,1115.7,1026,1114.2,1023.8,1100.4z"/>
		<path class="st2" d="M956.5,1106c0,0,3.2,8.3,10.2,3.1c0,0,0.3,8.1,5,8.6c4.8,0.6,8.5-5.2,8.5-5.2s0.6,6.5,9,6.4
			c8.4-0.1,12.6-9.6,12.6-9.6s14.9,10.4,20.9-5.6c0,0-12.8,9-19.4-1.2c0,0-5.8,8-13.5,8.2c-7.7,0.2-9.1-6.5-9.1-6.5s-4,6.1-7.7,6.7
			c-3.6,0.6-3.8-8.2-3.8-8.2S964.5,1108.8,956.5,1106z"/>
	</g>
	<g>
		<path class="st1" d="M149.8,1039.7c-1.3-7.9-12.6-11.9-16.1-6.5c-2-28.4-36.5-18.7-34.5,1.7c-4-5.6-10.9-2.9-13.8,2.5
			c-6.2,6.4-2.1,18.5,7,12c-1.3,14.8,11.5,9.7,13.7,4.2c4.6,12.7,18.6,7.2,21.6-3.5C135.2,1055.1,152.1,1053.5,149.8,1039.7z"/>
		<path class="st2" d="M82.6,1045.3c0,0,3.2,8.3,10.2,3.1c0,0,0.3,8.1,5,8.6c4.8,0.6,8.5-5.2,8.5-5.2s0.6,6.5,9,6.4
			c8.4-0.1,12.6-9.6,12.6-9.6s14.9,10.4,20.9-5.6c0,0-12.8,9-19.4-1.2c0,0-5.8,8-13.5,8.2c-7.7,0.2-9.1-6.5-9.1-6.5s-4,6.1-7.7,6.7
			c-3.6,0.6-3.8-8.2-3.8-8.2S90.5,1048.2,82.6,1045.3z"/>
	</g>
	<g>
		<path class="st1" d="M0.1,791.6c0.9-5.4,8.7-8.2,11.1-4.5c1.3-19.5,25.2-12.9,23.8,1.1c2.8-3.8,7.4-2,9.6,1.7
			c4.3,4.4,1.5,12.8-4.8,8.2c0.9,10.1-7.9,6.6-9.4,2.9c-3.2,8.8-12.8,4.9-14.9-2.4C10.3,802.2-1.4,801.1,0.1,791.6z"/>
		<path class="st2" d="M46.5,795.5c0,0-2.2,5.7-7,2.2c0,0-0.2,5.6-3.5,6c-3.3,0.3-5.9-3.6-5.9-3.6s-0.5,4.5-6.2,4.4
			c-5.7-0.1-8.7-6.6-8.7-6.6S4.9,805,0.8,793.9c0,0,8.8,6.2,13.3-0.9c0,0,4,5.5,9.4,5.7c5.3,0.2,6.2-4.5,6.2-4.5s2.8,4.1,5.2,4.6
			c2.5,0.4,2.6-5.7,2.6-5.7S41,797.5,46.5,795.5z"/>
	</g>
	<g class="st3">
		<g>
			<path class="st1" d="M274.8,203.8c1-6.1,9.8-9.3,12.6-5.1c1.6-22.2,28.6-14.7,27,1.3c3.1-4.4,8.4-2.2,10.9,1.9
				c4.9,4.9,1.7,14.4-5.5,9.3c1,11.5-9,7.5-10.7,3.3c-3.6,9.9-14.5,5.6-17-2.7C286.2,215.8,273,214.6,274.8,203.8z"/>
			<path class="st2" d="M327.4,208.2c0,0-2.5,6.5-8,2.5c0,0-0.2,6.4-3.9,6.8c-3.7,0.4-6.7-4.1-6.7-4.1s-0.5,5-7.1,4.9
				c-6.5-0.1-9.9-7.5-9.9-7.5s-11.7,8.1-16.3-4.3c0,0,10,7,15.1-1c0,0,4.5,6.2,10.6,6.5c6,0.2,7.1-5.1,7.1-5.1s3.2,4.7,6,5.2
				c2.8,0.5,3-6.5,3-6.5S321.2,210.4,327.4,208.2z"/>
		</g>
		<g>
			<path class="st1" d="M749.3,330.3c1-6.1,9.8-9.3,12.6-5.1c1.6-22.2,28.6-14.7,27,1.3c3.1-4.4,8.4-2.2,10.9,1.9
				c4.9,4.9,1.7,14.4-5.5,9.3c1,11.5-9,7.5-10.7,3.3c-3.6,9.9-14.5,5.6-17-2.7C760.8,342.3,747.6,341.1,749.3,330.3z"/>
			<path class="st2" d="M801.9,334.7c0,0-2.5,6.5-8,2.5c0,0-0.2,6.4-3.9,6.8s-6.7-4.1-6.7-4.1s-0.5,5-7.1,4.9
				c-6.5-0.1-9.9-7.5-9.9-7.5s-11.7,8.1-16.3-4.3c0,0,10,7,15.1-1c0,0,4.5,6.2,10.6,6.5c6,0.2,7.1-5.1,7.1-5.1s3.2,4.7,6,5.2
				c2.8,0.5,3-6.5,3-6.5S795.7,337,801.9,334.7z"/>
		</g>
		<g>
			<path class="st1" d="M931,171.9c1-6.1,9.8-9.3,12.6-5.1c1.6-22.2,28.6-14.7,27,1.3c3.1-4.4,8.4-2.2,10.9,1.9
				c4.9,4.9,1.7,14.4-5.5,9.3c1,11.5-9,7.5-10.7,3.3c-3.6,9.9-14.5,5.6-17-2.7C942.4,183.9,929.2,182.7,931,171.9z"/>
			<path class="st2" d="M983.6,176.3c0,0-2.5,6.5-8,2.5c0,0-0.2,6.4-3.9,6.8c-3.7,0.4-6.7-4.1-6.7-4.1s-0.5,5-7.1,4.9
				c-6.5-0.1-9.9-7.5-9.9-7.5s-11.7,8.1-16.3-4.3c0,0,10,7,15.1-1c0,0,4.5,6.2,10.6,6.5c6,0.2,7.1-5.1,7.1-5.1s3.2,4.7,6,5.2
				c2.8,0.5,3-6.5,3-6.5S977.4,178.5,983.6,176.3z"/>
		</g>
		<g>
			<path class="st1" d="M800.4,1085.2c0.9-5.4,8.7-8.2,11.1-4.5c1.3-19.5,25.2-12.9,23.8,1.1c2.8-3.8,7.4-2,9.6,1.7
				c4.3,4.4,1.5,12.8-4.8,8.2c0.9,10.1-7.9,6.6-9.4,2.9c-3.2,8.8-12.8,4.9-14.9-2.4C810.4,1095.7,798.8,1094.6,800.4,1085.2z"/>
			<path class="st2" d="M846.7,1089c0,0-2.2,5.7-7,2.2c0,0-0.2,5.6-3.5,6c-3.3,0.3-5.9-3.6-5.9-3.6s-0.5,4.5-6.2,4.4
				c-5.7-0.1-8.7-6.6-8.7-6.6s-10.3,7.2-14.4-3.8c0,0,8.8,6.2,13.3-0.9c0,0,4,5.5,9.4,5.7c5.3,0.2,6.2-4.5,6.2-4.5s2.8,4.1,5.2,4.6
				c2.5,0.4,2.6-5.7,2.6-5.7S841.2,1091,846.7,1089z"/>
		</g>
		<g>
			<path class="st1" d="M950.2,810.6c-1.3-7.9-12.6-11.9-16.1-6.5c-2-28.4-36.5-18.7-34.5,1.7c-4-5.6-10.9-2.9-13.8,2.5
				c-6.2,6.4-2.1,18.5,7,12c-1.3,14.8,11.5,9.7,13.7,4.2c4.6,12.7,18.6,7.2,21.6-3.5C935.5,825.9,952.4,824.3,950.2,810.6z"/>
			<path class="st2" d="M882.9,816.2c0,0,3.2,8.3,10.2,3.1c0,0,0.3,8.1,5,8.6c4.8,0.6,8.5-5.2,8.5-5.2s0.6,6.5,9,6.4
				c8.4-0.1,12.6-9.6,12.6-9.6s14.9,10.4,20.9-5.6c0,0-12.8,9-19.4-1.2c0,0-5.8,8-13.5,8.2s-9.1-6.5-9.1-6.5s-4,6.1-7.7,6.7
				c-3.6,0.6-3.8-8.2-3.8-8.2S890.8,819,882.9,816.2z"/>
		</g>
		<g>
			<path class="st1" d="M236.3,678.1c1-6.1,9.8-9.3,12.6-5.1c1.6-22.2,28.6-14.7,27,1.3c3.1-4.4,8.4-2.2,10.9,1.9
				c4.9,4.9,1.7,14.4-5.5,9.3c1,11.5-9,7.5-10.7,3.3c-3.6,9.9-14.5,5.6-17-2.7C247.7,690.1,234.5,688.9,236.3,678.1z"/>
			<path class="st2" d="M288.8,682.5c0,0-2.5,6.5-8,2.5c0,0-0.2,6.4-3.9,6.8c-3.7,0.4-6.7-4.1-6.7-4.1s-0.5,5-7.1,4.9
				c-6.5-0.1-9.9-7.5-9.9-7.5s-11.7,8.1-16.3-4.3c0,0,10,7,15.1-1c0,0,4.5,6.2,10.6,6.5s7.1-5.1,7.1-5.1s3.2,4.7,6,5.2
				c2.8,0.5,3-6.5,3-6.5S282.6,684.7,288.8,682.5z"/>
		</g>
	</g>
	<g>
		<path class="st1" d="M858.2,575c1-6.1,9.8-9.3,12.6-5.1c1.6-22.2,28.6-14.7,27,1.3c3.1-4.4,8.4-2.2,10.9,1.9
			c4.9,4.9,1.7,14.4-5.5,9.3c1,11.5-9,7.5-10.7,3.3c-3.6,9.9-14.5,5.6-17-2.7C869.7,587.1,856.4,585.8,858.2,575z"/>
		<path class="st2" d="M910.8,579.5c0,0-2.5,6.5-8,2.5c0,0-0.2,6.4-3.9,6.8c-3.7,0.4-6.7-4.1-6.7-4.1s-0.5,5-7.1,4.9
			c-6.5-0.1-9.9-7.5-9.9-7.5s-11.7,8.1-16.3-4.3c0,0,10,7,15.1-1c0,0,4.5,6.2,10.6,6.5c6,0.2,7.1-5.1,7.1-5.1s3.2,4.7,6,5.2
			c2.8,0.5,3-6.5,3-6.5S904.6,581.6,910.8,579.5z"/>
	</g>
	<g>
		<path class="st1" d="M243.7,450.7c-1.3-7.9-12.6-11.9-16.1-6.5c-2-28.4-36.5-18.7-34.5,1.7c-4-5.6-10.9-2.9-13.8,2.5
			c-6.2,6.4-2.1,18.5,7,12c-1.3,14.8,11.5,9.7,13.7,4.2c4.6,12.7,18.6,7.2,21.6-3.5C229,466,245.9,464.5,243.7,450.7z"/>
		<path class="st2" d="M176.4,456.3c0,0,3.2,8.3,10.2,3.1c0,0,0.3,8.1,5,8.6c4.8,0.6,8.5-5.2,8.5-5.2s0.6,6.5,9,6.4
			c8.4-0.1,12.6-9.6,12.6-9.6s14.9,10.4,20.9-5.6c0,0-12.8,9-19.4-1.2c0,0-5.8,8-13.5,8.2s-9.1-6.5-9.1-6.5s-4,6.1-7.7,6.7
			c-3.6,0.6-3.8-8.2-3.8-8.2S184.4,459.1,176.4,456.3z"/>
	</g>
</g>
<g>
</g>
<g>
</g>
<g>
</g>
<g>
</g>
<g>
</g>
<g>
</g>
<g>
</g>
<g>
</g>
<g>
</g>
<g>
</g>
<g>
</g>
<g>
</g>
<g>
</g>
<g>
</g>
<g>
</g>
</svg>
