<?xml version="1.0" encoding="utf-8"?>
<!-- Generator: Adobe Illustrator 23.0.4, SVG Export Plug-In . SVG Version: 6.00 Build 0)  -->
<svg version="1.1" id="Layer_1" xmlns="http://www.w3.org/2000/svg" xmlns:xlink="http://www.w3.org/1999/xlink" x="0px" y="0px"
	 viewBox="0 0 1366 561" style="enable-background:new 0 0 1366 561;" xml:space="preserve">
<style type="text/css">
	.st0{fill:url(#SVGID_1_);}
	.st1{opacity:0.7;}
	.st2{fill:#FFFFFF;}
	.st3{fill:url(#SVGID_2_);}
	.st4{fill:url(#SVGID_3_);}
	.st5{fill:url(#SVGID_4_);}
	.st6{fill:url(#SVGID_5_);}
	.st7{fill:url(#SVGID_6_);}
	.st8{fill:url(#SVGID_7_);}
	.st9{fill:url(#SVGID_8_);}
	.st10{fill:url(#SVGID_9_);}
	.st11{fill:url(#SVGID_10_);}
	.st12{fill:url(#SVGID_11_);}
	.st13{fill:url(#SVGID_12_);}
	.st14{fill:url(#SVGID_13_);}
	.st15{fill:url(#SVGID_14_);}
	.st16{fill:url(#SVGID_15_);}
	.st17{fill:url(#SVGID_16_);}
	.st18{fill:url(#SVGID_17_);}
	.st19{fill:url(#SVGID_18_);}
	.st20{fill:url(#SVGID_19_);}
	.st21{fill:url(#SVGID_20_);}
	.st22{fill:url(#SVGID_21_);}
	.st23{fill:url(#SVGID_22_);}
</style>
<g>
	<g>
		<g>
			
				<radialGradient id="SVGID_1_" cx="5577.0269" cy="8751.499" r="23.1015" gradientTransform="matrix(-0.4655 0.8164 -0.8132 -0.4673 9812.7627 22.3676)" gradientUnits="userSpaceOnUse">
				<stop  offset="0" style="stop-color:#FFFFFF;stop-opacity:0"/>
				<stop  offset="0.8765" style="stop-color:#FFFFFF;stop-opacity:0.4382"/>
				<stop  offset="1" style="stop-color:#FFFFFF;stop-opacity:0.5"/>
			</radialGradient>
			<path class="st0" d="M88.9,504.6c-10.4-6-14-19.2-8-29.7c5.9-10.4,19.2-14,29.5-8.1c10.4,6,14,19.2,8,29.7
				C112.5,506.9,99.3,510.5,88.9,504.6z"/>
			<g class="st1">
				<path class="st2" d="M106.4,503.5c-1.9,0.7-3.8,0-4.4-1.6c-0.6-1.6,0.4-3.4,2.3-4.1c1.9-0.7,3.8,0,4.4,1.6
					C109.3,500.9,108.2,502.8,106.4,503.5z"/>
				<path class="st2" d="M107.6,491.6c-0.3,0.1-0.7-0.1-0.8-0.4c-0.1-0.3,0-0.7,0.4-0.8c0.3-0.1,0.7,0,0.8,0.4
					C108.1,491.1,107.9,491.5,107.6,491.6z"/>
				<path class="st2" d="M94.4,502c-0.3,0.1-0.7-0.1-0.8-0.4c-0.1-0.3,0-0.7,0.4-0.8c0.3-0.1,0.7,0,0.8,0.4
					C94.9,501.5,94.7,501.9,94.4,502z"/>
				<path class="st2" d="M100.4,503.5c-0.3,0.1-0.7,0-0.8-0.4c-0.1-0.3,0-0.7,0.4-0.8c0.3-0.1,0.7,0.1,0.8,0.4
					C100.9,503,100.7,503.4,100.4,503.5z"/>
				<path class="st2" d="M102.7,497.2c-0.2,0.1-0.4,0-0.5-0.2c-0.1-0.2,0-0.4,0.2-0.5c0.2-0.1,0.4,0,0.5,0.2
					C103,496.9,102.9,497.1,102.7,497.2z"/>
			</g>
		</g>
		<g>
			
				<radialGradient id="SVGID_2_" cx="4909.4766" cy="8105.6968" r="11.4276" gradientTransform="matrix(-0.4655 0.8164 -0.8132 -0.4673 9812.7627 22.3676)" gradientUnits="userSpaceOnUse">
				<stop  offset="0" style="stop-color:#FFFFFF;stop-opacity:0"/>
				<stop  offset="0.8765" style="stop-color:#FFFFFF;stop-opacity:0.7012"/>
				<stop  offset="1" style="stop-color:#FFFFFF;stop-opacity:0.8"/>
			</radialGradient>
			<path class="st3" d="M930.3,251.8c-5.1-2.9-6.9-9.5-4-14.7c2.9-5.2,9.5-6.9,14.6-4c5.1,2.9,6.9,9.5,4,14.7
				C942,253,935.4,254.8,930.3,251.8z"/>
			<g class="st1">
				<path class="st2" d="M938.9,251.3c-0.9,0.3-1.9,0-2.2-0.8c-0.3-0.8,0.2-1.7,1.1-2c0.9-0.3,1.9,0,2.2,0.8
					C940.4,250,939.8,250.9,938.9,251.3z"/>
				<path class="st2" d="M939.5,245.4c-0.2,0.1-0.4,0-0.4-0.2s0-0.4,0.2-0.4c0.2-0.1,0.4,0,0.4,0.2
					C939.8,245.2,939.7,245.4,939.5,245.4z"/>
				<path class="st2" d="M933,250.6c-0.2,0.1-0.4,0-0.4-0.2c-0.1-0.2,0-0.4,0.2-0.4c0.2-0.1,0.4,0,0.4,0.2
					C933.2,250.3,933.1,250.5,933,250.6z"/>
				<path class="st2" d="M936,251.3c-0.2,0.1-0.4,0-0.4-0.2c-0.1-0.2,0-0.4,0.2-0.4c0.2-0.1,0.4,0,0.4,0.2
					C936.2,251.1,936.1,251.2,936,251.3z"/>
				<path class="st2" d="M937.1,248.2c-0.1,0-0.2,0-0.2-0.1c0-0.1,0-0.2,0.1-0.2c0.1,0,0.2,0,0.2,0.1
					C937.2,248.1,937.2,248.2,937.1,248.2z"/>
			</g>
		</g>
		<g>
			
				<radialGradient id="SVGID_3_" cx="4816.4087" cy="8215.5293" r="11.4276" gradientTransform="matrix(-0.4655 0.8164 -0.8132 -0.4673 9812.7627 22.3676)" gradientUnits="userSpaceOnUse">
				<stop  offset="0" style="stop-color:#FFFFFF;stop-opacity:0"/>
				<stop  offset="0.8765" style="stop-color:#FFFFFF;stop-opacity:0.7012"/>
				<stop  offset="1" style="stop-color:#FFFFFF;stop-opacity:0.8"/>
			</radialGradient>
			<path class="st4" d="M884.3,124.5c-5.1-3-6.9-9.5-4-14.7c2.9-5.2,9.5-6.9,14.6-4c5.1,2.9,6.9,9.5,4,14.7
				C896,125.7,889.4,127.5,884.3,124.5z"/>
			<g class="st1">
				<path class="st2" d="M892.9,124c-0.9,0.3-1.9,0-2.2-0.8c-0.3-0.8,0.2-1.7,1.1-2c0.9-0.3,1.9,0,2.2,0.8
					C894.4,122.7,893.9,123.6,892.9,124z"/>
				<path class="st2" d="M893.5,118.1c-0.2,0.1-0.4,0-0.4-0.2c-0.1-0.2,0-0.4,0.2-0.4c0.2-0.1,0.3,0,0.4,0.2
					C893.8,117.9,893.7,118.1,893.5,118.1z"/>
				<path class="st2" d="M887,123.3c-0.2,0.1-0.4,0-0.4-0.2c-0.1-0.2,0-0.4,0.2-0.4c0.2-0.1,0.4,0,0.4,0.2
					C887.2,123,887.1,123.2,887,123.3z"/>
				<path class="st2" d="M890,124c-0.2,0.1-0.4,0-0.4-0.2c-0.1-0.2,0-0.4,0.2-0.4c0.2-0.1,0.4,0,0.4,0.2
					C890.2,123.7,890.1,123.9,890,124z"/>
				<path class="st2" d="M891.1,120.9c-0.1,0-0.2,0-0.2-0.1c0-0.1,0-0.2,0.1-0.2c0.1,0,0.2,0,0.2,0.1
					C891.2,120.7,891.2,120.8,891.1,120.9z"/>
			</g>
		</g>
		<g>
			
				<radialGradient id="SVGID_4_" cx="5056.3857" cy="8105.8193" r="11.4274" gradientTransform="matrix(-0.4655 0.8164 -0.8132 -0.4673 9812.7627 22.3676)" gradientUnits="userSpaceOnUse">
				<stop  offset="0" style="stop-color:#FFFFFF;stop-opacity:0"/>
				<stop  offset="0.8765" style="stop-color:#FFFFFF;stop-opacity:0.7012"/>
				<stop  offset="1" style="stop-color:#FFFFFF;stop-opacity:0.8"/>
			</radialGradient>
			<path class="st5" d="M861.8,371.7c-5.1-3-6.9-9.5-4-14.7c2.9-5.2,9.5-6.9,14.6-4c5.1,2.9,6.9,9.5,4,14.7
				C873.5,372.9,866.9,374.7,861.8,371.7z"/>
			<g class="st1">
				<path class="st2" d="M870.4,371.2c-0.9,0.3-1.9,0-2.2-0.8c-0.3-0.8,0.2-1.7,1.1-2c0.9-0.3,1.9,0,2.2,0.8
					C871.9,369.9,871.4,370.8,870.4,371.2z"/>
				<path class="st2" d="M871,365.3c-0.2,0.1-0.4,0-0.4-0.2c-0.1-0.2,0-0.4,0.2-0.4c0.2-0.1,0.3,0,0.4,0.2
					C871.3,365.1,871.2,365.3,871,365.3z"/>
				<path class="st2" d="M864.5,370.5c-0.2,0.1-0.4,0-0.4-0.2c-0.1-0.2,0-0.4,0.2-0.4c0.2-0.1,0.4,0,0.4,0.2
					C864.7,370.2,864.7,370.4,864.5,370.5z"/>
				<path class="st2" d="M867.5,371.2c-0.2,0.1-0.4,0-0.4-0.2c-0.1-0.2,0-0.4,0.2-0.4c0.2-0.1,0.4,0,0.4,0.2
					C867.7,370.9,867.6,371.1,867.5,371.2z"/>
				<path class="st2" d="M868.6,368.1c-0.1,0-0.2,0-0.2-0.1c0-0.1,0-0.2,0.1-0.2c0.1,0,0.2,0,0.2,0.1
					C868.7,367.9,868.7,368,868.6,368.1z"/>
			</g>
		</g>
		<g>
			
				<radialGradient id="SVGID_5_" cx="4974.7593" cy="7641.4751" r="23.1012" gradientTransform="matrix(-0.4655 0.8164 -0.8132 -0.4673 9812.7627 22.3676)" gradientUnits="userSpaceOnUse">
				<stop  offset="0" style="stop-color:#FFFFFF;stop-opacity:0"/>
				<stop  offset="0.8765" style="stop-color:#FFFFFF;stop-opacity:0.3506"/>
				<stop  offset="1" style="stop-color:#FFFFFF;stop-opacity:0.4"/>
			</radialGradient>
			<path class="st6" d="M1272,531.6c-10.4-6-14-19.2-8-29.7c5.9-10.4,19.2-14,29.5-8.1c10.4,6,14,19.2,8,29.7
				C1295.6,534,1282.3,537.6,1272,531.6z"/>
			<g class="st1">
				<path class="st2" d="M1289.5,530.5c-1.9,0.7-3.8,0-4.4-1.6c-0.6-1.6,0.4-3.4,2.3-4.1c1.9-0.7,3.8,0,4.4,1.6
					C1292.3,528,1291.3,529.8,1289.5,530.5z"/>
				<path class="st2" d="M1290.6,518.7c-0.3,0.1-0.7-0.1-0.8-0.4c-0.1-0.3,0-0.7,0.4-0.8c0.3-0.1,0.7,0,0.8,0.4
					C1291.1,518.2,1291,518.5,1290.6,518.7z"/>
				<path class="st2" d="M1277.4,529c-0.3,0.1-0.7-0.1-0.8-0.4c-0.1-0.3,0-0.7,0.4-0.8c0.3-0.1,0.7,0,0.8,0.4
					C1277.9,528.5,1277.8,528.9,1277.4,529z"/>
				<path class="st2" d="M1283.4,530.5c-0.3,0.1-0.7,0-0.8-0.4c-0.1-0.3,0-0.7,0.4-0.9c0.3-0.1,0.7,0.1,0.8,0.4
					C1283.9,530,1283.8,530.4,1283.4,530.5z"/>
				<path class="st2" d="M1285.7,524.3c-0.2,0.1-0.4,0-0.5-0.2c-0.1-0.2,0-0.4,0.2-0.5c0.2-0.1,0.4,0,0.5,0.2
					C1286,524,1285.9,524.2,1285.7,524.3z"/>
			</g>
		</g>
		<g>
			
				<radialGradient id="SVGID_6_" cx="5033.5308" cy="7657.5537" r="11.4272" gradientTransform="matrix(-0.4655 0.8164 -0.8132 -0.4673 9812.7627 22.3676)" gradientUnits="userSpaceOnUse">
				<stop  offset="0" style="stop-color:#FFFFFF;stop-opacity:0"/>
				<stop  offset="0.8765" style="stop-color:#FFFFFF;stop-opacity:0.7012"/>
				<stop  offset="1" style="stop-color:#FFFFFF;stop-opacity:0.8"/>
			</radialGradient>
			<path class="st7" d="M1237,562.6c-5.1-2.9-6.9-9.5-4-14.7c2.9-5.2,9.5-6.9,14.6-4c5.1,2.9,6.9,9.5,4,14.7
				C1248.6,563.7,1242.1,565.5,1237,562.6z"/>
			<g class="st1">
				<path class="st2" d="M1245.6,562c-0.9,0.3-1.9,0-2.2-0.8c-0.3-0.8,0.2-1.7,1.1-2c0.9-0.3,1.9,0,2.2,0.8
					C1247,560.8,1246.5,561.7,1245.6,562z"/>
				<path class="st2" d="M1246.2,556.2c-0.2,0.1-0.4,0-0.4-0.2c-0.1-0.2,0-0.4,0.2-0.4c0.2-0.1,0.3,0,0.4,0.2
					C1246.5,555.9,1246.4,556.1,1246.2,556.2z"/>
				<path class="st2" d="M1239.7,561.3c-0.2,0.1-0.4,0-0.4-0.2c-0.1-0.2,0-0.4,0.2-0.4c0.2-0.1,0.4,0,0.4,0.2
					C1239.9,561,1239.8,561.2,1239.7,561.3z"/>
				<path class="st2" d="M1242.6,562c-0.2,0.1-0.4,0-0.4-0.2c-0.1-0.2,0-0.4,0.2-0.4c0.2-0.1,0.4,0,0.4,0.2
					C1242.9,561.8,1242.8,562,1242.6,562z"/>
				<path class="st2" d="M1243.8,558.9c-0.1,0-0.2,0-0.2-0.1c0-0.1,0-0.2,0.1-0.2c0.1,0,0.2,0,0.2,0.1
					C1243.9,558.8,1243.9,558.9,1243.8,558.9z"/>
			</g>
		</g>
		<g>
			
				<radialGradient id="SVGID_7_" cx="5069.5728" cy="8009.3589" r="11.4271" gradientTransform="matrix(-0.4655 0.8164 -0.8132 -0.4673 9812.7627 22.3676)" gradientUnits="userSpaceOnUse">
				<stop  offset="0" style="stop-color:#FFFFFF;stop-opacity:0"/>
				<stop  offset="0.8765" style="stop-color:#FFFFFF;stop-opacity:0.4382"/>
				<stop  offset="1" style="stop-color:#FFFFFF;stop-opacity:0.5"/>
			</radialGradient>
			<path class="st8" d="M934.1,427.6c-5.1-2.9-6.9-9.5-4-14.7c2.9-5.2,9.5-6.9,14.6-4c5.1,2.9,6.9,9.5,4,14.7
				C945.8,428.7,939.2,430.5,934.1,427.6z"/>
			<g class="st1">
				<path class="st2" d="M942.7,427c-0.9,0.3-1.9,0-2.2-0.8c-0.3-0.8,0.2-1.7,1.1-2c0.9-0.3,1.9,0,2.2,0.8
					C944.2,425.8,943.7,426.7,942.7,427z"/>
				<path class="st2" d="M943.3,421.2c-0.2,0.1-0.4,0-0.4-0.2s0-0.4,0.2-0.4c0.2-0.1,0.4,0,0.4,0.2
					C943.6,420.9,943.5,421.1,943.3,421.2z"/>
				<path class="st2" d="M936.8,426.3c-0.2,0.1-0.4,0-0.4-0.2c-0.1-0.2,0-0.4,0.2-0.4c0.2-0.1,0.4,0,0.4,0.2
					C937,426.1,937,426.2,936.8,426.3z"/>
				<path class="st2" d="M939.8,427c-0.2,0.1-0.4,0-0.4-0.2c-0.1-0.2,0-0.4,0.2-0.4c0.2-0.1,0.4,0,0.4,0.2
					C940,426.8,939.9,427,939.8,427z"/>
				<path class="st2" d="M940.9,423.9c-0.1,0-0.2,0-0.2-0.1c0-0.1,0-0.2,0.1-0.2c0.1,0,0.2,0,0.2,0.1
					C941.1,423.8,941,423.9,940.9,423.9z"/>
			</g>
		</g>
		<g>
			
				<radialGradient id="SVGID_8_" cx="4625.3901" cy="8009.9644" r="11.4276" gradientTransform="matrix(-0.4655 0.8164 -0.8132 -0.4673 9812.7627 22.3676)" gradientUnits="userSpaceOnUse">
				<stop  offset="0" style="stop-color:#FFFFFF;stop-opacity:0"/>
				<stop  offset="0.8765" style="stop-color:#FFFFFF;stop-opacity:0.4382"/>
				<stop  offset="1" style="stop-color:#FFFFFF;stop-opacity:0.5"/>
			</radialGradient>
			<path class="st9" d="M1140.4,64.6c-5.1-2.9-6.9-9.5-4-14.7c2.9-5.2,9.5-6.9,14.6-4c5.1,3,6.9,9.5,4,14.7
				C1152,65.8,1145.5,67.6,1140.4,64.6z"/>
			<g class="st1">
				<path class="st2" d="M1149,64.1c-0.9,0.3-1.9,0-2.2-0.8c-0.3-0.8,0.2-1.7,1.1-2c0.9-0.3,1.9,0,2.2,0.8
					C1150.4,62.8,1149.9,63.8,1149,64.1z"/>
				<path class="st2" d="M1149.6,58.2c-0.2,0.1-0.4,0-0.4-0.2c-0.1-0.2,0-0.4,0.2-0.4c0.2-0.1,0.4,0,0.4,0.2
					C1149.9,58,1149.8,58.2,1149.6,58.2z"/>
				<path class="st2" d="M1143.1,63.4c-0.2,0.1-0.4,0-0.4-0.2c-0.1-0.2,0-0.4,0.2-0.4c0.2-0.1,0.4,0,0.4,0.2
					C1143.3,63.1,1143.2,63.3,1143.1,63.4z"/>
				<path class="st2" d="M1146,64.1c-0.2,0.1-0.4,0-0.4-0.2c-0.1-0.2,0-0.4,0.2-0.4c0.2-0.1,0.4,0,0.4,0.2
					C1146.3,63.9,1146.2,64,1146,64.1z"/>
				<path class="st2" d="M1147.2,61c-0.1,0-0.2,0-0.2-0.1c0-0.1,0-0.2,0.1-0.2c0.1,0,0.2,0,0.2,0.1C1147.3,60.9,1147.3,61,1147.2,61
					z"/>
			</g>
		</g>
		<g>
			
				<radialGradient id="SVGID_9_" cx="5295.7363" cy="8225.4102" r="11.4277" gradientTransform="matrix(-0.4655 0.8164 -0.8132 -0.4673 9812.7627 22.3676)" gradientUnits="userSpaceOnUse">
				<stop  offset="0" style="stop-color:#FFFFFF;stop-opacity:0"/>
				<stop  offset="0.8765" style="stop-color:#FFFFFF;stop-opacity:0.4382"/>
				<stop  offset="1" style="stop-color:#FFFFFF;stop-opacity:0.5"/>
			</radialGradient>
			<path class="st10" d="M653.1,511.3c-5.1-2.9-6.9-9.5-4-14.7c2.9-5.2,9.5-6.9,14.6-4c5.1,2.9,6.9,9.5,4,14.7
				C664.8,512.4,658.3,514.2,653.1,511.3z"/>
			<g class="st1">
				<path class="st2" d="M661.8,510.7c-0.9,0.3-1.9,0-2.2-0.8c-0.3-0.8,0.2-1.7,1.1-2c0.9-0.3,1.9,0,2.2,0.8
					C663.2,509.4,662.7,510.4,661.8,510.7z"/>
				<path class="st2" d="M662.4,504.8c-0.2,0.1-0.4,0-0.4-0.2c-0.1-0.2,0-0.4,0.2-0.4c0.2-0.1,0.4,0,0.4,0.2
					C662.6,504.6,662.5,504.8,662.4,504.8z"/>
				<path class="st2" d="M655.8,510c-0.2,0.1-0.4,0-0.4-0.2c-0.1-0.2,0-0.4,0.2-0.4c0.2-0.1,0.4,0,0.4,0.2
					C656.1,509.7,656,509.9,655.8,510z"/>
				<path class="st2" d="M658.8,510.7c-0.2,0.1-0.4,0-0.4-0.2c-0.1-0.2,0-0.4,0.2-0.4c0.2-0.1,0.4,0,0.4,0.2
					C659,510.5,659,510.7,658.8,510.7z"/>
				<path class="st2" d="M659.9,507.6c-0.1,0-0.2,0-0.2-0.1c0-0.1,0-0.2,0.1-0.2c0.1,0,0.2,0,0.2,0.1
					C660.1,507.5,660,507.6,659.9,507.6z"/>
			</g>
		</g>
		<g>
			
				<radialGradient id="SVGID_10_" cx="4588.4033" cy="7831.5127" r="11.4276" gradientTransform="matrix(-0.4655 0.8164 -0.8132 -0.4673 9812.7627 22.3676)" gradientUnits="userSpaceOnUse">
				<stop  offset="0" style="stop-color:#FFFFFF;stop-opacity:0"/>
				<stop  offset="0.8765" style="stop-color:#FFFFFF;stop-opacity:0.4382"/>
				<stop  offset="1" style="stop-color:#FFFFFF;stop-opacity:0.5"/>
			</radialGradient>
			<path class="st11" d="M1302.7,117.8c-5.1-2.9-6.9-9.5-4-14.7c2.9-5.2,9.5-6.9,14.6-4c5.1,2.9,6.9,9.5,4,14.7
				C1314.4,119,1307.8,120.8,1302.7,117.8z"/>
			<g class="st1">
				<path class="st2" d="M1311.4,117.3c-0.9,0.3-1.9,0-2.2-0.8c-0.3-0.8,0.2-1.7,1.1-2c0.9-0.3,1.9,0,2.2,0.8
					C1312.8,116,1312.3,117,1311.4,117.3z"/>
				<path class="st2" d="M1312,111.4c-0.2,0.1-0.4,0-0.4-0.2c-0.1-0.2,0-0.4,0.2-0.4c0.2-0.1,0.4,0,0.4,0.2
					C1312.2,111.2,1312.1,111.4,1312,111.4z"/>
				<path class="st2" d="M1305.4,116.6c-0.2,0.1-0.4,0-0.4-0.2c-0.1-0.2,0-0.4,0.2-0.4c0.2-0.1,0.4,0,0.4,0.2
					C1305.7,116.3,1305.6,116.5,1305.4,116.6z"/>
				<path class="st2" d="M1308.4,117.3c-0.2,0.1-0.4,0-0.4-0.2c-0.1-0.2,0-0.4,0.2-0.4c0.2-0.1,0.4,0,0.4,0.2
					C1308.6,117.1,1308.6,117.2,1308.4,117.3z"/>
				<path class="st2" d="M1309.5,114.2c-0.1,0-0.2,0-0.2-0.1c0-0.1,0-0.2,0.1-0.2c0.1,0,0.2,0,0.2,0.1
					C1309.7,114.1,1309.6,114.2,1309.5,114.2z"/>
			</g>
		</g>
		<g>
			
				<radialGradient id="SVGID_11_" cx="-4412.4146" cy="-3915.7622" r="23.1011" gradientTransform="matrix(0.4655 -0.8164 0.8132 0.4673 5397.167 -1431.2522)" gradientUnits="userSpaceOnUse">
				<stop  offset="0" style="stop-color:#FFFFFF;stop-opacity:0"/>
				<stop  offset="0.8765" style="stop-color:#FFFFFF;stop-opacity:0.4382"/>
				<stop  offset="1" style="stop-color:#FFFFFF;stop-opacity:0.5"/>
			</radialGradient>
			<path class="st12" d="M169.5,322.3c10.4,6,14,19.2,8,29.7c-5.9,10.4-19.2,14-29.5,8.1c-10.4-6-14-19.2-8-29.7
				C145.9,320,159.1,316.4,169.5,322.3z"/>
			<g class="st1">
				<path class="st2" d="M152,323.4c1.9-0.7,3.8,0,4.4,1.6c0.6,1.6-0.4,3.4-2.3,4.1c-1.9,0.7-3.8,0-4.4-1.6
					C149.1,326,150.2,324.1,152,323.4z"/>
				<path class="st2" d="M150.8,335.3c0.3-0.1,0.7,0.1,0.8,0.4c0.1,0.3,0,0.7-0.4,0.8c-0.3,0.1-0.7,0-0.8-0.4
					C150.3,335.8,150.5,335.4,150.8,335.3z"/>
				<path class="st2" d="M164.1,324.9c0.3-0.1,0.7,0.1,0.8,0.4c0.1,0.3,0,0.7-0.4,0.8c-0.3,0.1-0.7,0-0.8-0.4
					C163.6,325.4,163.7,325,164.1,324.9z"/>
				<path class="st2" d="M158,323.4c0.3-0.1,0.7,0,0.8,0.4c0.1,0.3,0,0.7-0.4,0.9c-0.3,0.1-0.7-0.1-0.8-0.4
					C157.5,323.9,157.7,323.5,158,323.4z"/>
				<path class="st2" d="M155.7,329.7c0.2-0.1,0.4,0,0.5,0.2c0.1,0.2,0,0.4-0.2,0.5c-0.2,0.1-0.4,0-0.5-0.2
					C155.5,330,155.5,329.8,155.7,329.7z"/>
			</g>
		</g>
		<g>
			
				<radialGradient id="SVGID_12_" cx="-4454.606" cy="-3915.8271" r="11.4274" gradientTransform="matrix(0.4655 -0.8164 0.8132 0.4673 5397.167 -1431.2522)" gradientUnits="userSpaceOnUse">
				<stop  offset="0" style="stop-color:#FFFFFF;stop-opacity:0"/>
				<stop  offset="0.8765" style="stop-color:#FFFFFF;stop-opacity:0.7012"/>
				<stop  offset="1" style="stop-color:#FFFFFF;stop-opacity:0.8"/>
			</radialGradient>
			<path class="st13" d="M144.4,366.3c5.1,3,6.9,9.5,4,14.7c-2.9,5.2-9.5,6.9-14.6,4c-5.1-2.9-6.9-9.5-4-14.7
				C132.7,365.1,139.3,363.3,144.4,366.3z"/>
			<g class="st1">
				<path class="st2" d="M135.7,366.8c0.9-0.3,1.9,0,2.2,0.8c0.3,0.8-0.2,1.7-1.1,2c-0.9,0.3-1.9,0-2.2-0.8
					C134.3,368.1,134.8,367.2,135.7,366.8z"/>
				<path class="st2" d="M135.1,372.7c0.2-0.1,0.4,0,0.4,0.2c0.1,0.2,0,0.4-0.2,0.4c-0.2,0.1-0.4,0-0.4-0.2
					C134.9,372.9,135,372.8,135.1,372.7z"/>
				<path class="st2" d="M141.7,367.6c0.2-0.1,0.3,0,0.4,0.2c0.1,0.2,0,0.4-0.2,0.4c-0.2,0.1-0.4,0-0.4-0.2
					C141.4,367.8,141.5,367.6,141.7,367.6z"/>
				<path class="st2" d="M138.7,366.8c0.2-0.1,0.4,0,0.4,0.2c0.1,0.2,0,0.4-0.2,0.4c-0.2,0.1-0.4,0-0.4-0.2
					C138.5,367.1,138.5,366.9,138.7,366.8z"/>
				<path class="st2" d="M137.6,369.9c0.1,0,0.2,0,0.2,0.1c0,0.1,0,0.2-0.1,0.2c-0.1,0-0.2,0-0.2-0.1
					C137.4,370.1,137.5,370,137.6,369.9z"/>
			</g>
		</g>
		<g>
			
				<radialGradient id="SVGID_13_" cx="-4363.2622" cy="-3903.5376" r="11.4272" gradientTransform="matrix(0.4655 -0.8164 0.8132 0.4673 5397.167 -1431.2522)" gradientUnits="userSpaceOnUse">
				<stop  offset="0" style="stop-color:#FFFFFF;stop-opacity:0"/>
				<stop  offset="0.8765" style="stop-color:#FFFFFF;stop-opacity:0.3506"/>
				<stop  offset="1" style="stop-color:#FFFFFF;stop-opacity:0.4"/>
			</radialGradient>
			<path class="st14" d="M196.9,297.4c5.1,2.9,6.9,9.5,4,14.7c-2.9,5.2-9.5,6.9-14.6,4c-5.1-2.9-6.9-9.5-4-14.7
				C185.2,296.3,191.8,294.5,196.9,297.4z"/>
			<g class="st1">
				<path class="st2" d="M188.3,298c0.9-0.3,1.9,0,2.2,0.8c0.3,0.8-0.2,1.7-1.1,2c-0.9,0.3-1.9,0-2.2-0.8
					C186.8,299.3,187.3,298.3,188.3,298z"/>
				<path class="st2" d="M187.7,303.9c0.2-0.1,0.4,0,0.4,0.2c0.1,0.2,0,0.4-0.2,0.4c-0.2,0.1-0.3,0-0.4-0.2
					C187.4,304.1,187.5,303.9,187.7,303.9z"/>
				<path class="st2" d="M194.2,298.7c0.2-0.1,0.4,0,0.4,0.2c0.1,0.2,0,0.4-0.2,0.4c-0.2,0.1-0.4,0-0.4-0.2
					C194,299,194,298.8,194.2,298.7z"/>
				<path class="st2" d="M191.2,298c0.2-0.1,0.4,0,0.4,0.2c0.1,0.2,0,0.4-0.2,0.4c-0.2,0.1-0.4,0-0.4-0.2
					C191,298.2,191.1,298,191.2,298z"/>
				<path class="st2" d="M190.1,301.1c0.1,0,0.2,0,0.2,0.1c0,0.1,0,0.2-0.1,0.2c-0.1,0-0.2,0-0.2-0.1
					C189.9,301.2,190,301.1,190.1,301.1z"/>
			</g>
		</g>
		<g>
			
				<radialGradient id="SVGID_14_" cx="-4340.0508" cy="-3980.5034" r="11.4275" gradientTransform="matrix(0.4655 -0.8164 0.8132 0.4673 5397.167 -1431.2522)" gradientUnits="userSpaceOnUse">
				<stop  offset="0" style="stop-color:#FFFFFF;stop-opacity:0"/>
				<stop  offset="0.8765" style="stop-color:#FFFFFF;stop-opacity:0.7012"/>
				<stop  offset="1" style="stop-color:#FFFFFF;stop-opacity:0.8"/>
			</radialGradient>
			<path class="st15" d="M145.1,242.5c5.1,3,6.9,9.5,4,14.7c-2.9,5.2-9.5,6.9-14.6,4c-5.1-2.9-6.9-9.5-4-14.7
				C133.4,241.4,140,239.6,145.1,242.5z"/>
			<g class="st1">
				<path class="st2" d="M136.5,243.1c0.9-0.3,1.9,0,2.2,0.8c0.3,0.8-0.2,1.7-1.1,2c-0.9,0.3-1.9,0-2.2-0.8
					C135,244.3,135.5,243.4,136.5,243.1z"/>
				<path class="st2" d="M135.9,248.9c0.2-0.1,0.4,0,0.4,0.2c0.1,0.2,0,0.4-0.2,0.4c-0.2,0.1-0.4,0-0.4-0.2
					C135.6,249.2,135.7,249,135.9,248.9z"/>
				<path class="st2" d="M142.4,243.8c0.2-0.1,0.4,0,0.4,0.2c0.1,0.2,0,0.4-0.2,0.4c-0.2,0.1-0.4,0-0.4-0.2
					C142.2,244.1,142.3,243.9,142.4,243.8z"/>
				<path class="st2" d="M139.4,243.1c0.2-0.1,0.4,0,0.4,0.2c0.1,0.2,0,0.4-0.2,0.4c-0.2,0.1-0.4,0-0.4-0.2
					C139.2,243.3,139.3,243.1,139.4,243.1z"/>
				<path class="st2" d="M138.3,246.2c0.1,0,0.2,0,0.2,0.1c0,0.1,0,0.2-0.1,0.2c-0.1,0-0.2,0-0.2-0.1
					C138.2,246.3,138.2,246.2,138.3,246.2z"/>
			</g>
		</g>
		<g>
			
				<radialGradient id="SVGID_15_" cx="-4445.4922" cy="-3712.8809" r="11.4275" gradientTransform="matrix(0.4655 -0.8164 0.8132 0.4673 5397.167 -1431.2522)" gradientUnits="userSpaceOnUse">
				<stop  offset="0" style="stop-color:#FFFFFF;stop-opacity:0"/>
				<stop  offset="0.8765" style="stop-color:#FFFFFF;stop-opacity:0.7012"/>
				<stop  offset="1" style="stop-color:#FFFFFF;stop-opacity:0.8"/>
			</radialGradient>
			<path class="st16" d="M313.7,453.7c5.1,3,6.9,9.5,4,14.7c-2.9,5.2-9.5,6.9-14.6,4c-5.1-2.9-6.9-9.5-4-14.7
				C302,452.5,308.5,450.7,313.7,453.7z"/>
			<g class="st1">
				<path class="st2" d="M305,454.2c0.9-0.3,1.9,0,2.2,0.8c0.3,0.8-0.2,1.7-1.1,2c-0.9,0.3-1.9,0-2.2-0.8
					C303.6,455.5,304.1,454.6,305,454.2z"/>
				<path class="st2" d="M304.4,460.1c0.2-0.1,0.4,0,0.4,0.2c0.1,0.2,0,0.4-0.2,0.4c-0.2,0.1-0.4,0-0.4-0.2
					C304.2,460.3,304.3,460.2,304.4,460.1z"/>
				<path class="st2" d="M311,455c0.2-0.1,0.4,0,0.4,0.2c0.1,0.2,0,0.4-0.2,0.4c-0.2,0.1-0.4,0-0.4-0.2
					C310.7,455.2,310.8,455,311,455z"/>
				<path class="st2" d="M308,454.2c0.2-0.1,0.4,0,0.4,0.2c0.1,0.2,0,0.4-0.2,0.4c-0.2,0.1-0.4,0-0.4-0.2
					C307.7,454.5,307.8,454.3,308,454.2z"/>
				<path class="st2" d="M306.9,457.3c0.1,0,0.2,0,0.2,0.1c0,0.1,0,0.2-0.1,0.2c-0.1,0-0.2,0-0.2-0.1
					C306.7,457.5,306.8,457.4,306.9,457.3z"/>
			</g>
		</g>
		<g>
			
				<radialGradient id="SVGID_16_" cx="7389.7793" cy="-150.3253" r="23.1018" gradientTransform="matrix(-0.9299 -0.1158 0.1153 -0.9335 8128.5747 946.0108)" gradientUnits="userSpaceOnUse">
				<stop  offset="0" style="stop-color:#FFFFFF;stop-opacity:0"/>
				<stop  offset="0.8765" style="stop-color:#FFFFFF;stop-opacity:0.7012"/>
				<stop  offset="1" style="stop-color:#FFFFFF;stop-opacity:0.8"/>
			</radialGradient>
			<path class="st17" d="M1218.1,227.9c1.5-11.9,12.3-20.4,24.1-18.9c11.9,1.5,20.3,12.3,18.8,24.2c-1.5,11.9-12.3,20.4-24.1,18.9
				C1225.1,250.7,1216.6,239.8,1218.1,227.9z"/>
			<g class="st1">
				<path class="st2" d="M1225.9,243.7c-1.4-1.5-1.5-3.6-0.3-4.7c1.2-1.2,3.3-0.9,4.7,0.5c1.4,1.5,1.5,3.6,0.3,4.7
					C1229.3,245.4,1227.2,245.1,1225.9,243.7z"/>
				<path class="st2" d="M1237.2,240.2c-0.2-0.3-0.2-0.7,0-0.9c0.3-0.3,0.7-0.2,0.9,0c0.2,0.3,0.2,0.7,0,0.9
					C1237.9,240.5,1237.5,240.5,1237.2,240.2z"/>
				<path class="st2" d="M1222.6,232c-0.2-0.3-0.2-0.7,0-0.9c0.3-0.3,0.7-0.2,0.9,0c0.2,0.3,0.2,0.7,0,0.9
					C1223.2,232.3,1222.8,232.2,1222.6,232z"/>
				<path class="st2" d="M1223.5,238.1c-0.2-0.3-0.2-0.7,0-0.9c0.3-0.2,0.7-0.2,0.9,0c0.2,0.3,0.2,0.7,0,0.9
					C1224.2,238.4,1223.8,238.4,1223.5,238.1z"/>
				<path class="st2" d="M1230.2,237.8c-0.1-0.2-0.1-0.4,0-0.5c0.2-0.1,0.4-0.1,0.5,0c0.1,0.2,0.1,0.4,0,0.5
					C1230.6,238,1230.3,238,1230.2,237.8z"/>
			</g>
		</g>
		<g>
			
				<radialGradient id="SVGID_17_" cx="7562.8999" cy="435.385" r="13.7596" gradientTransform="matrix(-0.936 -4.487127e-02 4.469521e-02 -0.9397 8234.915 946.108)" gradientUnits="userSpaceOnUse">
				<stop  offset="0" style="stop-color:#FFFFFF;stop-opacity:0"/>
				<stop  offset="0.8765" style="stop-color:#FFFFFF;stop-opacity:0.3506"/>
				<stop  offset="1" style="stop-color:#FFFFFF;stop-opacity:0.4"/>
			</radialGradient>
			<path class="st18" d="M1162.8,197c0.3-7.1,6.4-12.7,13.5-12.3c7.1,0.3,12.6,6.4,12.3,13.5c-0.3,7.1-6.4,12.7-13.5,12.3
				C1168,210.2,1162.5,204.2,1162.8,197z"/>
			<g class="st1">
				<path class="st2" d="M1168.1,206c-0.9-0.8-1-2-0.4-2.8c0.7-0.7,1.9-0.7,2.8,0.1c0.9,0.8,1,2,0.4,2.8
					C1170.2,206.9,1169,206.8,1168.1,206z"/>
				<path class="st2" d="M1174.7,203.5c-0.2-0.1-0.2-0.4,0-0.6c0.1-0.2,0.4-0.2,0.5,0c0.2,0.1,0.2,0.4,0,0.6
					C1175.1,203.6,1174.9,203.6,1174.7,203.5z"/>
				<path class="st2" d="M1165.6,199.2c-0.2-0.1-0.2-0.4,0-0.6c0.1-0.2,0.4-0.2,0.5,0c0.2,0.1,0.2,0.4,0,0.6
					C1166,199.4,1165.8,199.4,1165.6,199.2z"/>
				<path class="st2" d="M1166.5,202.8c-0.2-0.1-0.2-0.4,0-0.6c0.1-0.2,0.4-0.2,0.6,0c0.2,0.1,0.2,0.4,0,0.6
					C1166.9,203,1166.6,203,1166.5,202.8z"/>
				<path class="st2" d="M1170.4,202.4c-0.1-0.1-0.1-0.2,0-0.3c0.1-0.1,0.2-0.1,0.3,0c0.1,0.1,0.1,0.2,0,0.3
					C1170.7,202.4,1170.5,202.4,1170.4,202.4z"/>
			</g>
		</g>
		<g>
			
				<radialGradient id="SVGID_18_" cx="8574.9004" cy="-100.5647" r="23.1014" gradientTransform="matrix(-0.9299 -0.1158 0.1153 -0.9335 8128.5747 946.0108)" gradientUnits="userSpaceOnUse">
				<stop  offset="0" style="stop-color:#FFFFFF;stop-opacity:0"/>
				<stop  offset="0.8765" style="stop-color:#FFFFFF;stop-opacity:0.7012"/>
				<stop  offset="1" style="stop-color:#FFFFFF;stop-opacity:0.8"/>
			</radialGradient>
			<path class="st19" d="M121.8,44.2c1.5-11.9,12.3-20.4,24.1-18.9c11.9,1.5,20.3,12.3,18.8,24.2c-1.5,11.9-12.3,20.4-24.1,18.9
				C128.8,67,120.3,56.2,121.8,44.2z"/>
			<g class="st1">
				<path class="st2" d="M129.6,60c-1.4-1.4-1.5-3.6-0.3-4.7c1.2-1.1,3.3-0.9,4.7,0.5c1.4,1.5,1.5,3.6,0.3,4.7
					C133,61.7,130.9,61.5,129.6,60z"/>
				<path class="st2" d="M140.9,56.5c-0.2-0.3-0.2-0.7,0-0.9c0.3-0.3,0.7-0.2,0.9,0c0.2,0.3,0.2,0.7,0,0.9
					C141.6,56.8,141.2,56.8,140.9,56.5z"/>
				<path class="st2" d="M126.3,48.3c-0.2-0.3-0.2-0.7,0-0.9c0.3-0.3,0.7-0.2,0.9,0c0.2,0.3,0.2,0.7,0,0.9
					C126.9,48.6,126.5,48.6,126.3,48.3z"/>
				<path class="st2" d="M127.2,54.4c-0.2-0.3-0.2-0.7,0-0.9c0.3-0.2,0.7-0.2,0.9,0c0.2,0.3,0.2,0.7,0,0.9
					C127.9,54.7,127.5,54.7,127.2,54.4z"/>
				<path class="st2" d="M133.9,54.1c-0.1-0.2-0.1-0.4,0-0.5c0.2-0.1,0.4-0.1,0.5,0c0.1,0.2,0.1,0.4,0,0.5
					C134.3,54.3,134.1,54.3,133.9,54.1z"/>
			</g>
		</g>
		<g>
			
				<radialGradient id="SVGID_19_" cx="8740.8262" cy="574.623" r="13.7599" gradientTransform="matrix(-0.936 -4.487127e-02 4.469521e-02 -0.9397 8234.915 946.108)" gradientUnits="userSpaceOnUse">
				<stop  offset="0" style="stop-color:#FFFFFF;stop-opacity:0"/>
				<stop  offset="0.8765" style="stop-color:#FFFFFF;stop-opacity:0.3506"/>
				<stop  offset="1" style="stop-color:#FFFFFF;stop-opacity:0.4"/>
			</radialGradient>
			<path class="st20" d="M66.5,13.3C66.9,6.2,72.9,0.7,80,1c7.1,0.3,12.6,6.4,12.3,13.5c-0.3,7.1-6.4,12.7-13.5,12.3
				C71.7,26.5,66.2,20.5,66.5,13.3z"/>
			<g class="st1">
				<path class="st2" d="M71.8,22.3c-0.9-0.8-1-2-0.4-2.8c0.7-0.7,1.9-0.7,2.8,0.1c0.9,0.8,1,2,0.4,2.8C74,23.2,72.7,23.1,71.8,22.3
					z"/>
				<path class="st2" d="M78.4,19.8c-0.2-0.1-0.2-0.4,0-0.6c0.1-0.2,0.4-0.2,0.5,0c0.2,0.1,0.2,0.4,0,0.6
					C78.8,19.9,78.6,19.9,78.4,19.8z"/>
				<path class="st2" d="M69.4,15.5c-0.2-0.1-0.2-0.4,0-0.6c0.1-0.2,0.4-0.2,0.5,0c0.2,0.1,0.2,0.4,0,0.6
					C69.8,15.7,69.5,15.7,69.4,15.5z"/>
				<path class="st2" d="M70.2,19.1c-0.2-0.1-0.2-0.4,0-0.6c0.1-0.2,0.4-0.2,0.6,0c0.2,0.1,0.2,0.4,0,0.6
					C70.6,19.3,70.4,19.3,70.2,19.1z"/>
				<path class="st2" d="M74.1,18.7c-0.1-0.1-0.1-0.2,0-0.3c0.1-0.1,0.2-0.1,0.3,0c0.1,0.1,0.1,0.2,0,0.3
					C74.4,18.7,74.2,18.7,74.1,18.7z"/>
			</g>
		</g>
		<g>
			
				<radialGradient id="SVGID_20_" cx="7369.438" cy="308.9023" r="13.7596" gradientTransform="matrix(-0.936 -4.487127e-02 4.469521e-02 -0.9397 8234.915 946.108)" gradientUnits="userSpaceOnUse">
				<stop  offset="0" style="stop-color:#FFFFFF;stop-opacity:0"/>
				<stop  offset="0.8765" style="stop-color:#FFFFFF;stop-opacity:0.3506"/>
				<stop  offset="1" style="stop-color:#FFFFFF;stop-opacity:0.4"/>
			</radialGradient>
			<path class="st21" d="M1338.2,324.5c0.3-7.1,6.4-12.7,13.5-12.3c7.1,0.3,12.6,6.4,12.3,13.5c-0.3,7.1-6.4,12.7-13.5,12.3
				C1343.4,337.8,1337.9,331.7,1338.2,324.5z"/>
			<g class="st1">
				<path class="st2" d="M1343.5,333.6c-0.9-0.8-1-2-0.4-2.8c0.7-0.7,1.9-0.7,2.8,0.1c0.9,0.8,1,2,0.4,2.8
					C1345.7,334.4,1344.4,334.4,1343.5,333.6z"/>
				<path class="st2" d="M1350.1,331c-0.2-0.1-0.2-0.4,0-0.6c0.1-0.2,0.4-0.2,0.5,0c0.2,0.1,0.2,0.4,0,0.6
					C1350.5,331.1,1350.3,331.1,1350.1,331z"/>
				<path class="st2" d="M1341.1,326.8c-0.2-0.1-0.2-0.4,0-0.6c0.1-0.2,0.4-0.2,0.5,0c0.2,0.1,0.2,0.4,0,0.6
					C1341.5,326.9,1341.2,326.9,1341.1,326.8z"/>
				<path class="st2" d="M1341.9,330.4c-0.2-0.1-0.2-0.4,0-0.6c0.1-0.2,0.4-0.2,0.6,0c0.2,0.1,0.2,0.4,0,0.6
					C1342.3,330.5,1342.1,330.5,1341.9,330.4z"/>
				<path class="st2" d="M1345.9,329.9c-0.1-0.1-0.1-0.2,0-0.3c0.1-0.1,0.2-0.1,0.3,0c0.1,0.1,0.1,0.2,0,0.3
					C1346.1,330,1345.9,330,1345.9,329.9z"/>
			</g>
		</g>
		<g>
			
				<radialGradient id="SVGID_21_" cx="7058.1997" cy="-2841.6885" r="23.1017" gradientTransform="matrix(-0.8102 -0.4725 0.4707 -0.8134 7080.3423 1258.8705)" gradientUnits="userSpaceOnUse">
				<stop  offset="0" style="stop-color:#FFFFFF;stop-opacity:0"/>
				<stop  offset="0.8765" style="stop-color:#FFFFFF;stop-opacity:0.5259"/>
				<stop  offset="1" style="stop-color:#FFFFFF;stop-opacity:0.6"/>
			</radialGradient>
			<path class="st22" d="M5.4,224.4c6-10.4,19.3-13.9,29.6-7.9c10.3,6,13.8,19.3,7.8,29.7c-6,10.4-19.3,13.9-29.6,7.9
				C2.9,248-0.6,234.7,5.4,224.4z"/>
			<g class="st1">
				<path class="st2" d="M6.4,241.9c-0.7-1.9,0-3.9,1.6-4.4c1.6-0.6,3.4,0.5,4.1,2.3c0.7,1.9,0,3.9-1.6,4.4
					C8.9,244.8,7.1,243.8,6.4,241.9z"/>
				<path class="st2" d="M18.2,243.2c-0.1-0.3,0.1-0.7,0.4-0.8c0.3-0.1,0.7,0,0.8,0.4c0.1,0.3-0.1,0.7-0.4,0.8
					C18.7,243.7,18.3,243.5,18.2,243.2z"/>
				<path class="st2" d="M7.9,229.8c-0.1-0.3,0.1-0.7,0.4-0.8c0.3-0.1,0.7,0,0.8,0.4c0.1,0.3-0.1,0.7-0.4,0.8
					C8.4,230.3,8,230.2,7.9,229.8z"/>
				<path class="st2" d="M6.4,235.9c-0.1-0.3,0.1-0.7,0.4-0.8c0.3-0.1,0.7,0,0.8,0.4c0.1,0.3-0.1,0.7-0.4,0.8
					C6.9,236.4,6.5,236.2,6.4,235.9z"/>
				<path class="st2" d="M12.7,238.2c-0.1-0.2,0-0.4,0.2-0.5c0.2-0.1,0.4,0,0.5,0.2c0.1,0.2,0,0.4-0.2,0.5
					C12.9,238.5,12.7,238.4,12.7,238.2z"/>
			</g>
		</g>
	</g>
	<g>
		
			<radialGradient id="SVGID_22_" cx="4898.1392" cy="7867.6245" r="40.4986" gradientTransform="matrix(-0.4655 0.8164 -0.8132 -0.4673 9812.7627 22.3676)" gradientUnits="userSpaceOnUse">
			<stop  offset="0" style="stop-color:#FFFFFF;stop-opacity:0"/>
			<stop  offset="0.8765" style="stop-color:#FFFFFF;stop-opacity:0.3506"/>
			<stop  offset="1" style="stop-color:#FFFFFF;stop-opacity:0.4"/>
		</radialGradient>
		<path class="st23" d="M1115.6,377.6c-18.2-10.5-24.5-33.7-14.1-52c10.4-18.3,33.6-24.6,51.8-14.1c18.2,10.5,24.5,33.7,14.1,52
			C1157,381.7,1133.8,388,1115.6,377.6z"/>
		<g class="st1">
			<path class="st2" d="M1146.3,375.6c-3.3,1.2-6.7,0-7.8-2.8c-1-2.8,0.8-6,4-7.2c3.3-1.2,6.7,0,7.8,2.8
				C1151.3,371.2,1149.5,374.4,1146.3,375.6z"/>
			<path class="st2" d="M1148.4,354.9c-0.6,0.2-1.2-0.1-1.5-0.7c-0.2-0.6,0.1-1.3,0.7-1.5c0.6-0.2,1.2,0.1,1.5,0.7
				C1149.2,354,1148.9,354.6,1148.4,354.9z"/>
			<path class="st2" d="M1125.2,373.1c-0.6,0.2-1.2-0.1-1.5-0.7c-0.2-0.6,0.1-1.3,0.7-1.5c0.6-0.2,1.2,0.1,1.5,0.7
				C1126.1,372.2,1125.8,372.9,1125.2,373.1z"/>
			<path class="st2" d="M1135.7,375.7c-0.6,0.2-1.2-0.1-1.5-0.7c-0.2-0.6,0.1-1.3,0.7-1.5c0.6-0.2,1.2,0.1,1.5,0.7
				C1136.6,374.8,1136.3,375.5,1135.7,375.7z"/>
			<path class="st2" d="M1139.8,364.7c-0.3,0.1-0.7-0.1-0.9-0.4c-0.1-0.4,0-0.8,0.4-0.9c0.3-0.1,0.7,0,0.9,0.4
				C1140.3,364.1,1140.1,364.5,1139.8,364.7z"/>
		</g>
	</g>
</g>
<g>
</g>
<g>
</g>
<g>
</g>
<g>
</g>
<g>
</g>
<g>
</g>
<g>
</g>
<g>
</g>
<g>
</g>
<g>
</g>
<g>
</g>
<g>
</g>
<g>
</g>
<g>
</g>
<g>
</g>
</svg>
