<?xml version="1.0" encoding="utf-8"?>
<!-- Generator: Adobe Illustrator 23.0.2, SVG Export Plug-In . SVG Version: 6.00 Build 0)  -->
<svg version="1.1" id="Layer_1" xmlns="http://www.w3.org/2000/svg" xmlns:xlink="http://www.w3.org/1999/xlink" x="0px" y="0px"
	 viewBox="0 0 1366 396" style="enable-background:new 0 0 1366 396;" xml:space="preserve">
<style type="text/css">
	.st0{fill:url(#SVGID_1_);}
	.st1{fill:url(#SVGID_2_);}
	.st2{fill:url(#SVGID_3_);}
	.st3{fill:url(#SVGID_4_);}
</style>
<g>
	<g>
		<linearGradient id="SVGID_1_" gradientUnits="userSpaceOnUse" x1="1014.9242" y1="111.3729" x2="1182.5878" y2="208.1735">
			<stop  offset="1.193042e-03" style="stop-color:#FC92BE"/>
			<stop  offset="0.3833" style="stop-color:#FCB189"/>
			<stop  offset="0.797" style="stop-color:#FDD055"/>
			<stop  offset="1" style="stop-color:#FDDC41"/>
		</linearGradient>
		<path class="st0" d="M1081.1,243.1c-18.4,5.3-37.7,17.1-57.5,10.1c-4.7-1.7-9.4-4-14.3-3.7c-3.8,0.2-7.3,1.8-11,2.7
			c-10.3,2.6-21.2-0.6-31.9-0.3c-5.2,0.1-10.5,1.1-15.7,0.6c-5.2-0.5-10.7-2.9-13-7.6c16.3-6.8,34.2-8.2,51.6-11
			c18.1-2.9,12.1-12.4,16.4-26.8c3.3-11.2,10.8-21,20.8-27c5.6-3.4,11.6-4.5,15.3-10.2c4.7-7.3,3.2-16.6,7.6-23.9
			c5.2-8.7,17.5-10.9,20.8-20.1c2.3-6.5-1.3-16.4-1.3-23.3c0-44.8,36.3-81,81-81c44.8,0,81,36.3,81,81s-36.3,81-81,81
			c-15.2,0-29.4-4.2-41.5-11.4c-2.9,9.7-10.3,17.5-19.7,21c5.4,7.6,8.6,17,8.6,27C1097.4,234.6,1093.8,239.5,1081.1,243.1z"/>
		<linearGradient id="SVGID_2_" gradientUnits="userSpaceOnUse" x1="1084.101" y1="71.2355" x2="1208.9944" y2="287.5571">
			<stop  offset="0" style="stop-color:#FC3D8C"/>
			<stop  offset="1" style="stop-color:#FF865E"/>
		</linearGradient>
		<path class="st1" d="M1019.8,258.4c10.1,1.5,16.8,4.4,27.3,3.8c10.9-0.6,21.8-1.5,32.7-2.5c19-1.8,14.8-18.7,16.3-32
			c8.4,3.8,16.7,6.8,26.1,6.8c14.4,0,27.5-5.9,36.9-15.5c21.9,19.1,50.6,30.7,82,30.7c69,0,124.9-55.9,124.9-124.9
			S1310.1-0.1,1241.1-0.1s-124.9,55.9-124.9,124.9c0,2.3,0.1,4.5,0.2,6.8c-25.8,2.9-45.8,24.8-45.8,51.3c0,6.5,1.2,12.7,3.4,18.4
			c-2-0.5-4.1-0.7-6.3-0.7c-4.7,0-9.1,1.2-13.2,3.3c-3.3,1.7-6.6,4.2-10.4,4.8c-5.5,1-10.5-0.9-15.9-0.7c-6.1,0.2-12.2,1.8-17.7,4.6
			c-5.9,3-8.7,6.4-12.8,11.5c-4.2,5.4-11,8.5-17.9,8.7c-8.4,0.2-16.9-3.6-24.9-1.1c-6.3,2-10.9,7.5-17,10.2c-4,1.8-8.6,2.2-12.4,4.4
			c-3.8,2.2-6.7,7.2-4.4,10.9c1.3,2.2,3.9,3.2,6.4,3.8c12.7,3.3,25.1,0.4,37.9-0.6c7.2-0.6,14.4-3.3,21.7-2.9
			c4.3,0.2,8.3,1.9,12.6,2C1006.6,259.6,1012.8,257.4,1019.8,258.4z"/>
	</g>
	<g>
		
			<linearGradient id="SVGID_3_" gradientUnits="userSpaceOnUse" x1="406.9264" y1="336.363" x2="574.59" y2="433.1637" gradientTransform="matrix(-0.9844 0.1759 0.1759 0.9844 686.6187 -184.8035)">
			<stop  offset="0" style="stop-color:#FC2C8C"/>
			<stop  offset="1" style="stop-color:#FF864E"/>
		</linearGradient>
		<path class="st2" d="M303.2,359.2c19,2,40.1,10.2,58.3-0.1c4.3-2.5,8.5-5.5,13.4-6.2c3.7-0.5,7.5,0.5,11.3,0.8
			c10.6,0.7,20.8-4.4,31.3-5.9c5.2-0.8,10.5-0.7,15.6-2.1c5.1-1.4,10-4.7,11.5-9.8c-17.2-3.8-35.1-2-52.7-1.8
			c-18.3,0.3-14.1-10.1-20.8-23.5c-5.2-10.4-14.3-18.7-25.2-22.9c-6.1-2.3-12.2-2.4-16.8-7.4c-5.9-6.4-6.1-15.8-11.7-22.2
			c-6.7-7.6-19.1-7.7-24-16.1c-3.5-6-1.6-16.4-2.9-23.2c-7.9-44.1-50-73.4-94-65.5s-73.4,50-65.5,94s50,73.4,94,65.5
			c14.9-2.7,28.2-9.3,38.9-18.6c4.6,9,13.2,15.4,23.1,17.2c-4,8.5-5.5,18.2-3.7,28.1C285.7,353.7,290.1,357.9,303.2,359.2z"/>
		
			<linearGradient id="SVGID_4_" gradientUnits="userSpaceOnUse" x1="476.1032" y1="296.2256" x2="600.9966" y2="512.5472" gradientTransform="matrix(-0.9844 0.1759 0.1759 0.9844 686.6187 -184.8035)">
			<stop  offset="3.579126e-03" style="stop-color:#D90575"/>
			<stop  offset="0.9988" style="stop-color:#FE3DB3"/>
		</linearGradient>
		<path class="st3" d="M366.2,363.5c-9.7,3.2-15.8,7.3-26.2,8.5c-10.9,1.3-21.8,2.4-32.7,3.3c-19,1.6-17.9-15.8-21.7-28.7
			c-7.6,5.2-15.2,9.6-24.5,11.3c-14.2,2.5-28.1-1-39-8.8c-18.2,22.7-44.4,39.1-75.3,44.6C79,406,14.1,360.8,2,292.9
			S35,160.1,102.9,148c67.9-12.1,132.8,33.1,144.9,101c0.4,2.2,0.7,4.5,1,6.7c25.9-1.7,49.4,16.3,54.1,42.4
			c1.1,6.4,1.1,12.7-0.1,18.8c1.9-0.8,4-1.4,6.1-1.8c4.6-0.8,9.2-0.4,13.6,0.9c3.6,1.1,7.3,3,11.1,2.9c5.6,0,10.1-2.7,15.5-3.5
			c6.1-0.8,12.4-0.4,18.3,1.4c6.4,1.9,9.7,4.7,14.6,9.1c5.1,4.6,12.4,6.5,19.2,5.5c8.3-1.2,16-6.5,24.3-5.4c6.6,0.8,12.1,5.5,18.5,7
			c4.3,1,8.8,0.7,12.9,2.1c4.1,1.5,7.8,5.9,6.3,10c-0.9,2.4-3.3,3.8-5.6,4.9c-12,5.5-24.7,4.8-37.4,6c-7.2,0.7-14.8-0.7-21.9,0.9
			c-4.2,1-7.8,3.3-12.1,4.2C379.5,362.4,372.9,361.3,366.2,363.5z"/>
	</g>
</g>
<g>
</g>
<g>
</g>
<g>
</g>
<g>
</g>
<g>
</g>
<g>
</g>
<g>
</g>
<g>
</g>
<g>
</g>
<g>
</g>
<g>
</g>
<g>
</g>
<g>
</g>
<g>
</g>
<g>
</g>
</svg>
