<?xml version="1.0" encoding="utf-8"?>
<!-- Generator: Adobe Illustrator 22.0.0, SVG Export Plug-In . SVG Version: 6.00 Build 0)  -->
<svg version="1.1" id="Layer_1" xmlns="http://www.w3.org/2000/svg" xmlns:xlink="http://www.w3.org/1999/xlink" x="0px" y="0px"
	 viewBox="0 0 1225 753" style="enable-background:new 0 0 1225 753;" xml:space="preserve">
<style type="text/css">
	.st0{fill:url(#SVGID_1_);}
	.st1{fill:url(#SVGID_2_);}
	.st2{fill:url(#SVGID_3_);}
</style>
<g>
	<linearGradient id="SVGID_1_" gradientUnits="userSpaceOnUse" x1="242.8319" y1="286.0636" x2="673.1602" y2="534.5137">
		<stop  offset="1.193042e-03" style="stop-color:#FC92BE"/>
		<stop  offset="0.3833" style="stop-color:#FCB189"/>
		<stop  offset="0.797" style="stop-color:#FDD055"/>
		<stop  offset="1" style="stop-color:#FDDC41"/>
	</linearGradient>
	<path class="st0" d="M412.8,624.2c-47.2,13.6-96.8,43.8-147.5,26c-12-4.2-24-10.1-36.8-9.5c-9.7,0.5-18.7,4.7-28.1,7
		c-26.6,6.6-54.4-1.6-81.8-0.9c-13.5,0.4-26.9,2.9-40.3,1.7s-27.5-7.4-33.4-19.5c41.8-17.4,87.7-21,132.4-28.3
		c46.3-7.5,31.1-31.9,42-68.7c8.5-28.7,27.7-53.8,53.3-69.2c14.3-8.6,29.8-11.5,39.2-26.2c12-18.7,8.3-42.7,19.6-61.5
		c13.4-22.3,44.9-28.1,53.3-51.6c6-16.8-3.3-42.2-3.3-59.9c0-114.9,93.1-208,208-208s208,93.1,208,208s-93.1,208-208,208
		c-39,0-75.4-10.7-106.6-29.3c-7.5,24.9-26.3,44.9-50.5,54c13.9,19.6,22.1,43.5,22.1,69.4C454.4,602.3,445.3,614.8,412.8,624.2z"/>
	<linearGradient id="SVGID_2_" gradientUnits="userSpaceOnUse" x1="420.3824" y1="183.0461" x2="740.9359" y2="738.2611">
		<stop  offset="0" style="stop-color:#FC3D8C"/>
		<stop  offset="1" style="stop-color:#FF865E"/>
	</linearGradient>
	<path class="st1" d="M255.4,663.4c26,3.7,43.2,11.2,70.1,9.7c28-1.6,56-3.7,84-6.4c48.6-4.5,38-48.1,41.8-82.2
		c21.7,9.8,42.8,17.5,67.1,17.5c37.1,0,70.6-15.2,94.6-39.7c56.3,49,129.9,78.7,210.4,78.7c177,0,320.5-143.5,320.5-320.5
		S1000.4,0,823.4,0S502.9,143.5,502.9,320.5c0,5.8,0.2,11.6,0.5,17.4c-66.1,7.5-117.5,63.6-117.5,131.6c0,16.7,3.1,32.6,8.7,47.3
		c-5.2-1.2-10.6-1.8-16.2-1.8c-12,0-23.3,3.1-34,8.5c-8.6,4.3-17.1,10.8-26.6,12.4c-14.2,2.4-26.9-2.4-40.8-1.8
		c-15.8,0.6-31.4,4.7-45.5,11.8c-15.2,7.7-22.4,16.3-32.8,29.5c-10.9,13.9-28.4,21.9-46,22.4c-21.5,0.6-43.4-9.1-63.9-2.8
		c-16.3,5-28.1,19.3-43.6,26.1c-10.3,4.5-22,5.7-31.7,11.2c-9.8,5.6-17.2,18.4-11.3,28c3.4,5.6,10.1,8.1,16.4,9.8
		c32.7,8.5,64.5,1,97.3-1.7c18.6-1.5,37-8.5,55.7-7.5c11,0.6,21.3,4.9,32.4,5.1C221.5,666.6,237.5,660.8,255.4,663.4z"/>
	<linearGradient id="SVGID_3_" gradientUnits="userSpaceOnUse" x1="542.1834" y1="221.2925" x2="1092.2135" y2="682.8226">
		<stop  offset="0" style="stop-color:#FC2C8C"/>
		<stop  offset="1" style="stop-color:#FF864E"/>
	</linearGradient>
	<path class="st2" d="M865.9,35c-191.6,0-348.1,150.1-358.5,339.1c-1.8-0.1-3.7-0.1-5.5-0.1c-65.2,0-118,52.8-118,118
		c0,15.2,2.9,29.8,8.2,43.2c-19,14.8-31.2,37.9-31.2,63.8c0,44.7,36.3,81,81,81c15.9,0,30.7-4.6,43.2-12.5
		c8.6,35.9,40.8,62.5,79.3,62.5c36,0,66.5-23.3,77.3-55.6c61.4,49.2,139.4,78.6,224.2,78.6c198.3,0,359-160.7,359-359
		S1064.2,35,865.9,35z"/>
</g>
</svg>
