<?xml version="1.0" encoding="utf-8"?>
<!-- Generator: Adobe Illustrator 23.0.2, SVG Export Plug-In . SVG Version: 6.00 Build 0)  -->
<svg version="1.1" id="Layer_1" xmlns="http://www.w3.org/2000/svg" xmlns:xlink="http://www.w3.org/1999/xlink" x="0px" y="0px"
	 viewBox="0 0 1366 122" style="enable-background:new 0 0 1366 122;" xml:space="preserve">
<style type="text/css">
	.st0{fill:#FFFFFF;}
	.st1{opacity:0.4;fill:#D4E1FF;}
</style>
<g>
	<path class="st0" d="M1365.6,75.6c-2.6-14.2-25.4-21.5-32.6-11.8c-4.1-51.1-73.9-33.8-69.7,3c-4.3-5.3-10.2-6.4-15.6-4.9
		c0-0.1-0.1-0.2-0.1-0.3c-3.5-8.4-17.2-18.2-29.1-12.6c3.7-23.5-9.2-47.1-37.9-48.7c-23.4-1.3-54.2,11.5-53.4,38.4
		c-22.8-15.8-63.6-12.7-66.9,27.5c-6.9-9-26.2-4.9-34.2,6c-0.3-0.3-0.6-0.6-0.9-0.9c-6.1-9.6-19.9-14.5-28-4.5
		c4.2-36.8-65.7-54.1-69.7-3c-4.1-5.5-13.3-5.5-20.9-1.9c-7.6-3.6-16.8-3.6-20.9,1.9c-4.1-51.1-73.9-33.8-69.7,3
		c-4.3-5.3-10.2-6.4-15.6-4.9c0-0.1-0.1-0.2-0.1-0.3c-3.5-8.4-17.2-18.2-29.1-12.6c3.7-23.5-9.2-47.1-37.9-48.7
		c-23.4-1.3-54.2,11.5-53.4,38.4C657.1,22.8,616.2,26,613,66.2c-6.9-9-26.2-4.9-34.2,6c-0.3-0.3-0.6-0.6-0.9-0.9
		c-6.1-9.6-19.9-14.5-28-4.5c4.2-36.8-65.7-54.1-69.7-3c-4.1-5.5-13.3-5.5-20.9-1.9c-7.6-3.6-16.8-3.6-20.9,1.9
		c-4.1-51.1-73.9-33.8-69.7,3c-4.3-5.3-10.2-6.4-15.6-4.9c0-0.1-0.1-0.2-0.1-0.3c-3.5-8.4-17.2-18.2-29.1-12.6
		c3.7-23.5-9.2-47.1-37.9-48.7c-23.4-1.3-54.2,11.5-53.4,38.4c-22.8-15.8-63.6-12.7-66.9,27.5c-6.9-9-26.2-4.9-34.2,6
		c-0.3-0.3-0.6-0.6-0.9-0.9c-6.1-9.6-19.9-14.5-28-4.5c4.2-36.8-65.7-54.1-69.7-3c-7.2-9.6-30-2.4-32.6,11.8
		c-4.5,24.8,29.7,27.6,44.6,18.3c6.3,19.2,34.5,29.2,43.8,6.3c4.4,9.7,30.3,19,27.7-7.6c6.1,3.9,11,4.1,14.5,2.3
		c9.1,13.1,35.5,13.1,48.7,5.1c7.2,21.6,39.8,32.9,50.5,7.1c4.8,10.4,29.1,23.6,38.5-1c16.5,13,65.3,13.1,80.5-9
		c0.5-0.8,1-1.6,1.5-2.4c1.3-0.5,2.8-1.3,4.2-2.2c-2.6,26.5,23.3,17.3,27.7,7.6c9.3,22.9,37.6,12.9,43.8-6.3
		c8.3,5.2,22.7,6.6,32.9,2.5c10.3,4.1,24.6,2.7,32.9-2.5c6.3,19.2,34.5,29.2,43.8,6.3c4.4,9.7,30.3,19,27.7-7.6
		c6.1,3.9,11,4.1,14.5,2.3c9.1,13.1,35.5,13.1,48.7,5.1c7.2,21.6,39.8,32.9,50.5,7.1c4.8,10.4,29.1,23.6,38.5-1
		c16.5,13,65.3,13.1,80.5-9c0.5-0.8,1-1.6,1.5-2.4c1.3-0.5,2.8-1.3,4.2-2.2c-2.6,26.5,23.3,17.3,27.7,7.6
		c9.3,22.9,37.6,12.9,43.8-6.3c8.3,5.2,22.7,6.6,32.9,2.5c10.3,4.1,24.6,2.7,32.9-2.5c6.3,19.2,34.5,29.2,43.8,6.3
		c4.4,9.7,30.3,19,27.7-7.6c6.1,3.9,11,4.1,14.5,2.3c9.1,13.1,35.5,13.1,48.7,5.1c7.2,21.6,39.8,32.9,50.5,7.1
		c4.8,10.4,29.1,23.6,38.5-1c16.5,13,65.3,13.1,80.5-9c0.5-0.8,1-1.6,1.5-2.4c1.3-0.5,2.8-1.3,4.2-2.2c-2.6,26.5,23.3,17.3,27.7,7.6
		c9.3,22.9,37.6,12.9,43.8-6.3C1335.9,103.2,1370.1,100.4,1365.6,75.6z"/>
	<path class="st1" d="M1324.4,79.5c0,0-11.8,14.3-27.4,14.8c-15.6,0.5-18.3-11.7-18.3-11.7s-8.2,10.9-15.5,12
		c-7.3,1.1-7.8-14.9-7.8-14.9s-5.8,6.5-15.9,7.2c2.9-4.2,4.4-7.3,4.4-7.3c-3.8,3-7.5,5.2-11,6.9c-1.1-0.2-2.3-0.5-3.5-0.9
		c0,0,0.4,0.8,1.1,2c-10.3,4.3-19.2,4.1-26.1,5.2c-20-1-38.3-13.3-38.3-13.3s-12.3,22.5-23.8,20.4c-12.9-2.4-17.8-13.5-17.8-13.5
		s-3.2,13.7-21.1,13.2c-18-0.5-31.6-16.7-31.6-16.7c-12.1,16.4-33.2,8.4-41.6,4.4c0.5-0.9,0.8-1.5,0.8-1.5c-0.9,0.3-1.7,0.5-2.5,0.7
		c-1.2-0.6-1.8-1-1.8-1c0.2,0.4,0.4,0.8,0.6,1.3c-13.9,2.4-22.2-6.8-22.2-6.8s-0.5,15.9-7.8,14.9c-7.3-1.1-15.5-12-15.5-12
		s-2.8,12.2-18.3,11.7C947.8,93.9,936,79.5,936,79.5c-6.2,8.6-15.2,9.6-23,8.3c1.2-1.7,2.3-3.7,3.3-6.1c0,0-4,2.5-9.7,4.4
		c-5.7-1.9-9.7-4.4-9.7-4.4c1,2.3,2.1,4.3,3.3,6.1c-7.8,1.3-16.8,0.3-23-8.3c0,0-11.8,14.3-27.4,14.8c-15.6,0.5-18.3-11.7-18.3-11.7
		s-8.2,10.9-15.5,12c-7.3,1.1-7.8-14.9-7.8-14.9s-5.8,6.5-15.9,7.2c2.9-4.2,4.4-7.3,4.4-7.3c-3.8,3-7.5,5.2-11,6.9
		c-1.1-0.2-2.3-0.5-3.5-0.9c0,0,0.4,0.8,1.1,2c-10.3,4.3-19.2,4.1-26.1,5.2c-20-1-38.3-13.3-38.3-13.3s-12.3,22.5-23.8,20.4
		c-12.9-2.4-17.8-13.5-17.8-13.5s-3.2,13.7-21.1,13.2c-18-0.5-31.6-16.7-31.6-16.7c-12.1,16.4-33.2,8.4-41.6,4.4
		c0.5-0.9,0.8-1.5,0.8-1.5c-0.9,0.3-1.7,0.5-2.5,0.7c-1.2-0.6-1.8-1-1.8-1c0.2,0.4,0.4,0.8,0.6,1.3c-13.9,2.4-22.2-6.8-22.2-6.8
		s-0.5,15.9-7.8,14.9c-7.3-1.1-15.5-12-15.5-12s-2.8,12.2-18.3,11.7c-15.6-0.5-27.4-14.8-27.4-14.8c-6.2,8.6-15.2,9.6-23,8.3
		c1.2-1.7,2.3-3.7,3.3-6.1c0,0-4,2.5-9.7,4.4c-5.7-1.9-9.7-4.4-9.7-4.4c1,2.3,2.1,4.3,3.3,6.1c-7.8,1.3-16.8,0.3-23-8.3
		c0,0-11.8,14.3-27.4,14.8C386.7,94.9,384,82.7,384,82.7s-8.2,10.9-15.5,12c-7.3,1.1-7.8-14.9-7.8-14.9s-5.8,6.5-15.9,7.2
		c2.9-4.2,4.4-7.3,4.4-7.3c-3.8,3-7.5,5.2-11,6.9c-1.1-0.2-2.3-0.5-3.5-0.9c0,0,0.4,0.8,1.1,2c-10.3,4.3-19.2,4.1-26.1,5.2
		c-20-1-38.3-13.3-38.3-13.3s-12.3,22.5-23.8,20.4c-12.9-2.4-17.8-13.5-17.8-13.5s-3.2,13.7-21.1,13.2c-18-0.5-31.6-16.7-31.6-16.7
		c-12.1,16.4-33.2,8.4-41.6,4.4c0.5-0.9,0.8-1.5,0.8-1.5c-0.9,0.3-1.7,0.5-2.5,0.7c-1.2-0.6-1.8-1-1.8-1c0.2,0.4,0.4,0.8,0.6,1.3
		c-13.9,2.4-22.2-6.8-22.2-6.8s-0.5,15.9-7.8,14.9c-7.3-1.1-15.5-12-15.5-12s-2.8,12.2-18.3,11.7c-15.6-0.5-27.4-14.8-27.4-14.8
		C28,97.9,2.2,81.8,2.2,81.8c12,28.7,42.2,10,42.2,10S53,108.9,69.9,109c16.9,0.1,18.3-11.5,18.3-11.5s7.6,10.3,17.2,9.3
		c9.6-0.9,10.2-15.5,10.2-15.5c9.4,6.1,15.4,1.8,18.4-1.9c14.9,26.4,46.6,7.2,46.6,7.2s10,19.3,29.5,19.5
		c19.5,0.2,21.1-12.9,21.1-12.9s8.7,11.6,19.8,10.5c11.1-1.1,20-16.7,20-16.7c0.1,0.1,15.3,13.8,45,11.8c10.8-2.4,19-9.5,24.7-16.1
		c3.4,2.2,8.3,3.1,14.9-1.2c0,0,0.5,14.6,10.2,15.5c9.6,0.9,17.2-9.3,17.2-9.3s1.4,11.6,18.3,11.5c16.9-0.1,25.6-17.3,25.6-17.3
		s18.7,11.6,32.5,2.5c13.8,9,32.5-2.5,32.5-2.5s8.7,17.1,25.6,17.3c16.9,0.1,18.3-11.5,18.3-11.5s7.6,10.3,17.2,9.3
		c9.6-0.9,10.2-15.5,10.2-15.5c9.4,6.1,15.4,1.8,18.4-1.9c14.9,26.4,46.6,7.2,46.6,7.2s10,19.3,29.5,19.5
		c19.5,0.2,21.1-12.9,21.1-12.9s8.7,11.6,19.8,10.5c11.1-1.1,20-16.7,20-16.7c0.1,0.1,15.3,13.8,45,11.8c10.8-2.4,19-9.5,24.7-16.1
		c3.4,2.2,8.3,3.1,14.9-1.2c0,0,0.5,14.6,10.2,15.5c9.6,0.9,17.2-9.3,17.2-9.3s1.4,11.6,18.3,11.5c16.9-0.1,25.6-17.3,25.6-17.3
		s18.7,11.6,32.5,2.5c13.8,9,32.5-2.5,32.5-2.5s8.7,17.1,25.6,17.3c16.9,0.1,18.3-11.5,18.3-11.5s7.6,10.3,17.2,9.3
		c9.6-0.9,10.2-15.5,10.2-15.5c9.4,6.1,15.4,1.8,18.4-1.9c14.9,26.4,46.6,7.2,46.6,7.2s10,19.3,29.5,19.5
		c19.5,0.2,21.1-12.9,21.1-12.9s8.7,11.6,19.8,10.5c11.1-1.1,20-16.7,20-16.7c0.1,0.1,15.3,13.8,45,11.8c10.8-2.4,19-9.5,24.7-16.1
		c3.4,2.2,8.3,3.1,14.9-1.2c0,0,0.5,14.6,10.2,15.5c9.6,0.9,17.2-9.3,17.2-9.3s1.4,11.6,18.3,11.5c16.9-0.1,25.6-17.3,25.6-17.3
		s30.2,18.7,42.2-10C1363.6,81.8,1337.7,97.9,1324.4,79.5z"/>
</g>
</svg>
