<?xml version="1.0" encoding="utf-8"?>
<!-- Generator: Adobe Illustrator 23.0.2, SVG Export Plug-In . SVG Version: 6.00 Build 0)  -->
<svg version="1.1" id="Layer_1" xmlns="http://www.w3.org/2000/svg" xmlns:xlink="http://www.w3.org/1999/xlink" x="0px" y="0px"
	 viewBox="0 0 349.3 90.1" style="enable-background:new 0 0 349.3 90.1;" xml:space="preserve">
<style type="text/css">
	.st0{fill:none;stroke:#FF3399;stroke-width:0.5;stroke-linecap:round;stroke-miterlimit:10;}
	.st1{fill:none;stroke:#FFFFFF;stroke-width:0.5;stroke-linecap:round;stroke-miterlimit:10;stroke-dasharray:2.03,2.03;}
	.st2{fill:none;stroke:#FFFFFF;stroke-width:0.5;stroke-linecap:round;stroke-miterlimit:10;}
	.st3{fill:none;stroke:#FFFFFF;stroke-width:0.5;stroke-linecap:round;stroke-miterlimit:10;stroke-dasharray:1.96,1.96;}
	.st4{fill:none;stroke:#FFFFFF;stroke-width:0.5;stroke-linecap:round;stroke-miterlimit:10;stroke-dasharray:1.56,1.56;}
	.st5{fill:none;stroke:#FFFFFF;stroke-width:0.5;stroke-linecap:round;stroke-miterlimit:10;stroke-dasharray:2.06,2.06;}
	.st6{fill:none;stroke:#FFFFFF;stroke-width:0.5;stroke-linecap:round;stroke-miterlimit:10;stroke-dasharray:1.97,1.97;}
	.st7{fill:none;stroke:#FFFFFF;stroke-width:0.5;stroke-linecap:round;stroke-miterlimit:10;stroke-dasharray:1.85,1.85;}
	.st8{fill:none;stroke:#FFFFFF;stroke-width:0.5;stroke-linecap:round;stroke-miterlimit:10;stroke-dasharray:1.61,1.61;}
	.st9{fill:none;stroke:#FCFCFC;stroke-width:0.5;stroke-linecap:round;stroke-miterlimit:10;stroke-dasharray:2.03,2.03;}
	.st10{fill:none;stroke:#FCFCFC;stroke-width:0.5;stroke-linecap:round;stroke-miterlimit:10;}
	.st11{fill:none;stroke:#FFFFFF;stroke-width:0.5;stroke-linecap:round;stroke-miterlimit:10;stroke-dasharray:2.02,2.02;}
	.st12{fill:none;stroke:#FFFFFF;stroke-width:0.5;stroke-linecap:round;stroke-miterlimit:10;stroke-dasharray:2.07,2.07;}
	.st13{fill:none;stroke:#FFFFFF;stroke-width:0.5;stroke-linecap:round;stroke-miterlimit:10;stroke-dasharray:1.51,1.51;}
	.st14{fill:none;stroke:#FFFFFF;stroke-width:0.5;stroke-linecap:round;stroke-miterlimit:10;stroke-dasharray:2,2;}
	.st15{fill:none;stroke:#FFFFFF;stroke-width:0.5;stroke-linecap:round;stroke-miterlimit:10;stroke-dasharray:1.88,1.88;}
	.st16{fill:none;stroke:#FFFFFF;stroke-width:0.5;stroke-linecap:round;stroke-miterlimit:10;stroke-dasharray:2.01,2.01;}
	.st17{fill:none;stroke:#FFFFFF;stroke-width:0.5;stroke-linecap:round;stroke-miterlimit:10;stroke-dasharray:1.93,1.93;}
	.st18{fill:none;stroke:#FFFFFF;stroke-width:0.5;stroke-linecap:round;stroke-miterlimit:10;stroke-dasharray:2.12,2.12;}
	.st19{fill:none;stroke:#FFFFFF;stroke-width:0.5;stroke-linecap:round;stroke-miterlimit:10;stroke-dasharray:1.91,1.91;}
	.st20{fill:none;stroke:#FFFFFF;stroke-width:0.5;stroke-linecap:round;stroke-miterlimit:10;stroke-dasharray:1.95,1.95;}
	.st21{fill:none;stroke:#FFFFFF;stroke-width:0.5;stroke-linecap:round;stroke-miterlimit:10;stroke-dasharray:2.17,2.17;}
	.st22{fill:none;stroke:#FFFFFF;stroke-width:0.5;stroke-linecap:round;stroke-miterlimit:10;stroke-dasharray:1.94,1.94;}
	.st23{fill:none;stroke:#FFFFFF;stroke-width:0.5;stroke-linecap:round;stroke-miterlimit:10;stroke-dasharray:2.34,2.34;}
	.st24{fill:none;stroke:#FFFFFF;stroke-width:0.5;stroke-linecap:round;stroke-miterlimit:10;stroke-dasharray:1.99,1.99;}
	.st25{fill:none;stroke:#FFFFFF;stroke-width:0.5;stroke-linecap:round;stroke-miterlimit:10;stroke-dasharray:1.98,1.98;}
	.st26{fill:none;stroke:#FFFFFF;stroke-width:0.5;stroke-linecap:round;stroke-miterlimit:10;stroke-dasharray:1.8,1.8;}
	.st27{fill:url(#SVGID_1_);stroke:#FFFFFF;stroke-miterlimit:10;}
	.st28{fill:#FFFFFF;}
</style>
<title>django-girls-pycon-logo</title>
<g id="Capa_2">
	<g id="Flyer">
		<path class="st0" d="M21.3,32c-0.3-0.1-0.6-0.2-1-0.3"/>
		<path class="st1" d="M18.4,31.5H18c-5,0-7.8,3-7.8,8.4S13,48,18,48c0.5,0,0.9,0,1.4,0"/>
		<path class="st2" d="M20.4,47.9l1-0.1v-1"/>
		<line class="st3" x1="21.3" y1="44.8" x2="21.3" y2="34"/>
		<line class="st2" x1="21.3" y1="33" x2="21.3" y2="32"/>
		<polyline class="st2" points="21.3,10.3 21.3,9.3 22.3,9.3 		"/>
		<line class="st4" x1="23.9" y1="9.3" x2="29.3" y2="9.3"/>
		<polyline class="st2" points="30.1,9.3 31.1,9.3 31.1,10.3 		"/>
		<line class="st5" x1="31.1" y1="12.3" x2="31.1" y2="52.5"/>
		<path class="st2" d="M31.1,53.5v1l-1,0.2"/>
		<path class="st6" d="M28.2,55.1c-3.2,0.5-6.5,0.8-9.8,0.8c-11.9,0-18.2-5.4-18.2-15.8c0-10,6.6-16.5,16.8-16.5
			c0.8,0,1.5,0,2.3,0.1"/>
		<path class="st2" d="M20.4,24c0.3,0.1,0.6,0.1,1,0.2v-1"/>
		<line class="st7" x1="21.3" y1="21.3" x2="21.3" y2="11.2"/>
		<polyline class="st2" points="36.9,10.3 36.9,9.3 37.9,9.3 		"/>
		<line class="st4" x1="39.5" y1="9.3" x2="44.9" y2="9.3"/>
		<polyline class="st2" points="45.7,9.3 46.7,9.3 46.7,10.3 		"/>
		<line class="st8" x1="46.7" y1="11.9" x2="46.7" y2="17.5"/>
		<polyline class="st2" points="46.7,18.4 46.7,19.4 45.7,19.4 		"/>
		<line class="st4" x1="44.1" y1="19.4" x2="38.7" y2="19.4"/>
		<polyline class="st2" points="37.9,19.4 36.9,19.4 36.9,18.4 		"/>
		<line class="st8" x1="36.9" y1="16.7" x2="36.9" y2="11.1"/>
		<polyline class="st2" points="45.7,24.4 46.7,24.4 46.7,25.4 		"/>
		<path class="st9" d="M46.7,27.4V47c0,7.8-0.6,11.6-2.3,14.8c-1.4,2.7-3.5,4.9-6.2,6.3"/>
		<path class="st10" d="M37.3,68.6l-0.9,0.5l-0.9-0.4"/>
		<line class="st8" x1="34" y1="68" x2="28.9" y2="65.5"/>
		<path class="st10" d="M28.2,65.2l-0.9-0.4l0.9-0.4"/>
		<path class="st11" d="M30,63.4c2.2-1.1,4-2.9,5.1-5.2c1.4-2.8,1.8-6,1.8-14.5V26.4"/>
		<polyline class="st2" points="36.9,25.4 36.9,24.4 37.9,24.4 		"/>
		<line class="st4" x1="39.5" y1="24.4" x2="44.9" y2="24.4"/>
		<path class="st0" d="M67.9,42.2l-1,0.1"/>
		<path class="st12" d="M64.8,42.5c-4.1,0.7-5.5,1.7-5.5,3.8c0,1.9,1.2,2.8,3.9,2.8c0.9,0,1.8,0,2.7-0.1"/>
		<path class="st2" d="M66.9,48.8l1-0.2v-1"/>
		<line class="st13" x1="67.9" y1="46.2" x2="67.9" y2="43.9"/>
		<line class="st2" x1="67.9" y1="43.2" x2="67.9" y2="42.2"/>
		<path class="st2" d="M52.6,27.6v-1l0.9-0.4"/>
		<path class="st14" d="M55.4,25.4c3.3-1.2,6.7-1.8,10.2-1.8c5,0,8.3,1.3,9.8,3.9c0.8,1.5,1.1,3.4,1.1,7.4v17.9"/>
		<path class="st2" d="M76.4,53.9v1l-1,0.1"/>
		<path class="st12" d="M73.4,55.3c-3.6,0.4-7.3,0.7-10.9,0.7c-8.2,0-11.9-2.9-11.9-9.2s4.3-9.7,14.9-10.8"/>
		<path class="st2" d="M66.5,35.8l1-0.1v-1"/>
		<path class="st15" d="M67.4,32.9c-0.2-1.2-1.2-1.7-3.3-1.7c-3.4,0.1-6.7,0.8-9.7,2.1"/>
		<path class="st2" d="M53.5,33.7l-0.9,0.4v-1"/>
		<line class="st7" x1="52.6" y1="31.3" x2="52.6" y2="28.5"/>
		<path class="st2" d="M81.2,25.9l1-0.2"/>
		<path class="st16" d="M84.1,25.2c4.1-1,8.2-1.5,12.4-1.5c5,0,8.6,1.1,10.8,3.4s2.7,4.4,2.7,9.3v17.2"/>
		<polyline class="st2" points="110,54.5 110,55.5 109,55.5 		"/>
		<line class="st4" x1="107.5" y1="55.5" x2="102" y2="55.5"/>
		<polyline class="st2" points="101.2,55.5 100.2,55.5 100.2,54.5 		"/>
		<path class="st6" d="M100.2,52.5V36.7c0-3.8-1.3-5.1-4.8-5.1c-0.9,0-1.7,0.1-2.6,0.2"/>
		<path class="st2" d="M91.9,32l-1,0.3v1"/>
		<line class="st17" x1="91" y1="35.2" x2="91" y2="53.5"/>
		<polyline class="st2" points="91,54.5 91,55.5 90,55.5 		"/>
		<line class="st4" x1="88.4" y1="55.5" x2="82.9" y2="55.5"/>
		<polyline class="st2" points="82.2,55.5 81.2,55.5 81.2,54.5 		"/>
		<line class="st18" x1="81.2" y1="52.4" x2="81.2" y2="28"/>
		<line class="st2" x1="81.2" y1="26.9" x2="81.2" y2="25.9"/>
		<path class="st2" d="M133.2,31.6h-1"/>
		<path class="st19" d="M130.3,31.7c-1.3,0.2-2.6,0.6-3.8,1.3c-2.3,1.3-3.6,3.8-3.6,7.2c0,4.9,2.4,7.7,6.7,7.7
			c0.6,0,1.2-0.1,1.8-0.2"/>
		<path class="st2" d="M132.5,47.5l1-0.3v-1"/>
		<path class="st20" d="M133.4,44.3v-0.4c0-1.1-0.1-2.4-0.1-3.8l-0.1-4.5v-2"/>
		<polyline class="st2" points="133.3,32.6 133.2,32.4 133.2,31.6 		"/>
		<path class="st2" d="M113.8,61.8v-1l0.9,0.4"/>
		<path class="st21" d="M116.7,62.1c2.4,0.9,5,1.3,7.6,1.3c5.7,0,8.5-2.1,9-6.9"/>
		<path class="st2" d="M133.4,55.4c0-0.3,0-0.5,0-0.8v-0.2c-0.3,0.2-0.6,0.3-0.9,0.4"/>
		<path class="st3" d="M130.7,55.4c-1.2,0.2-2.4,0.4-3.6,0.3c-8.6,0-14-5.7-14-14.6c0-11.1,8.1-17.4,22.4-17.4c3.6,0,7.3,0.3,10.8,1
			"/>
		<path class="st2" d="M147.2,24.9l1,0.2l-0.4,0.9"/>
		<line class="st22" x1="146.9" y1="27.8" x2="145.7" y2="30.4"/>
		<path class="st2" d="M145.3,31.3l-0.4,0.9l-1-0.2"/>
		<path class="st2" d="M143.6,31.9c-0.3-0.1,0.4,0.1-0.9,0v1"/>
		<path class="st22" d="M142.7,34.9l0.1,2.2l0.1,5.3c0.1,1.3,0.1,2.7,0.1,4v2.7c0,8.4-0.7,12.3-2.8,15.6c-3,4.8-8.3,7.1-15.8,7.1
			c-2.9,0-5.9-0.4-8.7-1.2"/>
		<path class="st2" d="M114.8,70.2l-0.9-0.3v-1"/>
		<line class="st23" x1="113.8" y1="66.5" x2="113.8" y2="63"/>
		<path class="st2" d="M163.2,48.4c0.3,0,0.7,0,1-0.1"/>
		<path class="st20" d="M166,47.7c2-1.2,3.1-3.9,3.1-7.8c0-5.3-2.2-8.5-5.9-8.5s-6.1,3.1-6.1,8.5c0,4.4,1.5,7.3,4.1,8.2"/>
		<path class="st2" d="M162.2,48.4c0.3,0.1,0.7,0.1,1,0.1"/>
		<path class="st24" d="M163.4,23.5c9.8,0,15.8,6.2,15.8,16.1c0,10.2-6.2,16.6-16.1,16.6s-15.8-6.2-15.8-16.1
			C147.2,30,153.4,23.5,163.4,23.5z"/>
		<path class="st2" d="M206.6,21.7c-0.3,0-0.7,0.2-0.9,0.4c-0.1-0.1-0.2-0.2-0.4-0.2l-0.5-0.2"/>
		<path class="st3" d="M202.9,21.1c-3.2-0.4-6.4,0.7-8.7,2.9c-5.5,5.2-6.9,14.5-6.8,21.6c0.1,4.8,2.4,11.7,8.4,8.3
			c4.1-2.3,6.5-6.7,8.2-11.2"/>
		<path class="st0" d="M204.4,41.9l0.3-0.9c0,0.3,0,0.7,0.1,1"/>
		<path class="st25" d="M205,43.9c0.6,4.9,1.4,9.8,1.5,14.7c0.2,6-0.4,12.9-5.1,17.2c-4.1,3.8-9.7,3-13.5-0.9
			c-1.7-1.7-4.3,0.9-2.6,2.6c3.4,3.5,8.7,5.6,13.5,4.1c6.9-2.2,10.3-9.5,11.1-16.1c0.9-7.2-0.3-14.3-1.2-21.4
			c-0.9-6.9-0.9-13.8-0.1-20.7c0.1-0.7-0.3-1.4-1-1.6"/>
		<path class="st0" d="M203.6,25.1c0.3,0.1,0.7,0.1,1,0c0,0.3-0.1,0.7-0.1,1"/>
		<path class="st11" d="M204.2,28.1c-0.4,2.4-1,4.7-1.6,7.1c-0.8,3.1-1.9,6.2-3.3,9.1c-1.1,2.2-3.2,6.2-5.9,6.7
			c-5,0.9-0.8-17.4,0.2-19.7c1.4-3.3,5-7.8,9.1-6.6"/>
		<path class="st1" d="M214.1,22.8v30.7c0,1,0.8,1.8,1.9,1.8c1,0,1.8-0.8,1.8-1.8V22.8c0-1-0.8-1.8-1.9-1.8
			C214.9,20.9,214.1,21.8,214.1,22.8z"/>
		<path class="st2" d="M225.9,31.1c-0.2,0.3-0.3,0.6-0.4,0.9l-0.1-1"/>
		<path class="st1" d="M225.1,29c-0.4-2.6-0.8-5.2-1.3-7.8c-0.5-2.3-4.1-1.3-3.6,1c1.7,8.7,2.6,17.6,2.7,26.5c0,1.6,0.1,3.2,0.1,4.8
			c0,2.4,3.7,2.4,3.7,0c0-2,0-4-0.1-6.1c-0.1-3.2,0.2-6.4,0.8-9.6c1.8-7.6,7-12.7,14.4-15c2.3-0.7,1.3-4.3-1-3.6
			c-6.2,2-11.3,5.6-14.4,11"/>
		<path class="st6" d="M249,2c-0.1-2.4-3.8-2.4-3.7,0l1.6,45l0.2,6.5c0.1,2.4,3.8,2.4,3.7,0l-1.6-45L249,2z"/>
		<path class="st24" d="M280.3,41.7c-4.6-3.1-11-4.9-14.6-9.3c-2.1-2.6-1.2-5.8,1.9-7.2c3.6-1.5,7.8-1,11,1.3
			c1.9,1.4,3.7-1.8,1.9-3.2c-4.5-3.4-12.3-3.8-16.8,0s-3.1,9.7,1,13.2c4.3,3.7,9.8,5.4,14.4,8.8c1.2,0.9,3.3,2.5,2.3,4.3
			s-4.6,1.2-6.3,1c-3.8-0.7-7.4-2-10.8-3.8c-2.5-1.3-5.8-2.8-7.5-5.3c-1.3-2-4.5-0.1-3.2,1.9c3.1,4.7,9.6,7.3,14.7,9.2
			c4.2,1.5,12,4,15.6-0.1S283.8,44,280.3,41.7z"/>
		<path class="st26" d="M215.9,11.1c-1.3,0-2.5,0.9-2.9,2.2c-0.1,0.4,0,0.7,0.1,1.1c0,0.4,0.1,0.7,0.2,1c1,1.4,2.8,1.7,4.2,0.7
			c0.9-0.7,1.4-1.8,1.2-2.9C218.3,11.9,217.2,11.1,215.9,11.1z"/>
		<path class="st2" d="M216.1,14.8c0,0-0.1,0-0.1,0c0,0-0.1,0-0.1,0h0.1l0,0H216.1z"/>
		
			<linearGradient id="SVGID_1_" gradientUnits="userSpaceOnUse" x1="-61.75" y1="75.1861" x2="391.25" y2="75.1861" gradientTransform="matrix(1 0 0 -1 0 92)">
			<stop  offset="0" style="stop-color:#F32C83"/>
			<stop  offset="1" style="stop-color:#FF804E"/>
		</linearGradient>
		<path class="st27" d="M215.9,16.8C215.9,16.8,215.9,16.8,215.9,16.8h-0.1C215.9,16.8,215.9,16.8,215.9,16.8c0,0,0.1,0,0.1,0H215.9
			z"/>
		<path class="st28" d="M31.1,11.3h-9.8v14.9c-1.4-0.4-2.8-0.5-4.3-0.5c-10.2,0-16.8,6.5-16.8,16.4c0,10.4,6.2,15.8,18.2,15.8
			c4.3,0,8.5-0.5,12.7-1.3L31.1,11.3z M21.3,49.7C20.2,49.9,19.1,50,18,50c-5,0-7.8-2.9-7.8-8.1s2.9-8.4,7.8-8.4
			c1.1,0,2.2,0.2,3.3,0.5L21.3,49.7z"/>
		<path class="st28" d="M31.1,11.3h-9.8v14.9c-1.4-0.4-2.8-0.5-4.3-0.5c-10.2,0-16.8,6.5-16.8,16.4c0,10.4,6.2,15.8,18.2,15.8
			c4.3,0,8.5-0.5,12.7-1.3L31.1,11.3z M21.3,49.7C20.2,49.9,19.1,50,18,50c-5,0-7.8-2.9-7.8-8.1s2.9-8.4,7.8-8.4
			c1.1,0,2.2,0.2,3.3,0.5L21.3,49.7z"/>
		<path class="st28" d="M36.9,45.7c0,8.5-0.5,11.8-1.8,14.5s-3.4,4.5-7.8,6.5l9.1,4.3c4.3-2.2,6.4-4.1,8-7.2s2.3-7,2.3-14.8V26.4
			h-9.8V45.7z"/>
		<path class="st28" d="M36.9,45.7c0,8.5-0.5,11.8-1.8,14.5s-3.4,4.5-7.8,6.5l9.1,4.3c4.3-2.2,6.4-4.1,8-7.2s2.3-7,2.3-14.8V26.4
			h-9.8V45.7z"/>
		<rect x="36.9" y="11.3" class="st28" width="9.8" height="10"/>
		<rect x="36.9" y="11.3" class="st28" width="9.8" height="10"/>
		<path class="st28" d="M65.6,25.7c-4.5,0-8.9,1-13,2.9v7.6c3.5-1.9,7.5-2.9,11.5-3c2.5,0,3.4,0.6,3.4,2.4v2.2
			c-12,1-16.9,4.2-16.9,11c0,6.3,3.7,9.2,11.9,9.2c4.7-0.1,9.4-0.4,14-1.1V37c0-4.1-0.2-6-1.1-7.4C73.9,27,70.6,25.7,65.6,25.7z
			 M67.9,50.7c-1.6,0.3-3.1,0.4-4.7,0.4c-2.7,0-3.9-0.9-3.9-2.8c0-2.5,2.1-3.6,8.6-4.2L67.9,50.7z"/>
		<path class="st28" d="M65.6,25.7c-4.5,0-8.9,1-13,2.9v7.6c3.5-1.9,7.5-2.9,11.5-3c2.5,0,3.4,0.6,3.4,2.4v2.2
			c-12,1-16.9,4.2-16.9,11c0,6.3,3.7,9.2,11.9,9.2c4.7-0.1,9.4-0.4,14-1.1V37c0-4.1-0.2-6-1.1-7.4C73.9,27,70.6,25.7,65.6,25.7z
			 M67.9,50.7c-1.6,0.3-3.1,0.4-4.7,0.4c-2.7,0-3.9-0.9-3.9-2.8c0-2.5,2.1-3.6,8.6-4.2L67.9,50.7z"/>
		<path class="st28" d="M96.6,25.7c-5.2,0.1-10.4,0.8-15.4,2.2v29.6H91V34.2c1.5-0.5,3-0.7,4.5-0.7c3.5,0,4.8,1.4,4.8,5.2v18.8h9.7
			V38.3c0-4.9-0.6-7.2-2.7-9.3S101.6,25.7,96.6,25.7z"/>
		<path class="st28" d="M96.6,25.7c-5.2,0.1-10.4,0.8-15.4,2.2v29.6H91V34.2c1.5-0.5,3-0.7,4.5-0.7c3.5,0,4.8,1.4,4.8,5.2v18.8h9.7
			V38.3c0-4.9-0.6-7.2-2.7-9.3S101.6,25.7,96.6,25.7z"/>
		<path class="st28" d="M144.8,34.2l3.4-7.1c-4.2-0.9-8.5-1.4-12.8-1.4c-14.3,0-22.4,6.3-22.4,17.4c0,9,5.5,14.6,14,14.6
			c2.2,0.1,4.4-0.4,6.4-1.3v0.2c0,6.2-2.7,8.8-9.2,8.8c-3.7,0-7.3-0.9-10.5-2.6v9c3.4,1.3,6.9,2,10.5,1.9c7.5,0,12.8-2.3,15.8-7.1
			c2.1-3.2,2.8-7.2,2.8-15.6v-2.7c-0.1-1.3-0.1-2.7-0.1-4l-0.1-5.3l-0.1-4.1v-1C144.6,34.1,142.2,33.7,144.8,34.2z M133.4,49.2
			c-1.2,0.4-2.4,0.6-3.7,0.6c-4.3,0-6.7-2.8-6.7-7.7c0-3.4,1.2-5.8,3.6-7.2c1.7-1,3.7-1.5,5.7-1.4h1v0.8l0.1,3.2l0.1,4.5
			c0,1.3,0.1,2.6,0.1,3.8L133.4,49.2z"/>
		<path class="st28" d="M144.8,34.2l3.4-7.1c-4.2-0.9-8.5-1.4-12.8-1.4c-14.3,0-22.4,6.3-22.4,17.4c0,9,5.5,14.6,14,14.6
			c2.2,0.1,4.4-0.4,6.4-1.3v0.2c0,6.2-2.7,8.8-9.2,8.8c-3.7,0-7.3-0.9-10.5-2.6v9c3.4,1.3,6.9,2,10.5,1.9c7.5,0,12.8-2.3,15.8-7.1
			c2.1-3.2,2.8-7.2,2.8-15.6v-2.7c-0.1-1.3-0.1-2.7-0.1-4l-0.1-5.3l-0.1-4.1v-1C144.6,34.1,142.2,33.7,144.8,34.2z M133.4,49.2
			c-1.2,0.4-2.4,0.6-3.7,0.6c-4.3,0-6.7-2.8-6.7-7.7c0-3.4,1.2-5.8,3.6-7.2c1.7-1,3.7-1.5,5.7-1.4h1v0.8l0.1,3.2l0.1,4.5
			c0,1.3,0.1,2.6,0.1,3.8L133.4,49.2z"/>
		<path class="st28" d="M163.4,25.5c-10,0-16.2,6.4-16.2,16.7c0,9.9,6,16.1,15.8,16.1s16.1-6.4,16.1-16.6
			C179.1,31.7,173.1,25.5,163.4,25.5z M163.2,50.4c-3.8,0-6-3.1-6-8.5s2.2-8.5,6.1-8.5s5.9,3.2,5.9,8.5S166.9,50.4,163.2,50.4
			L163.2,50.4z"/>
		<path class="st28" d="M163.4,25.5c-10,0-16.2,6.4-16.2,16.7c0,9.9,6,16.1,15.8,16.1s16.1-6.4,16.1-16.6
			C179.1,31.7,173.1,25.5,163.4,25.5z M163.2,50.4c-3.8,0-6-3.1-6-8.5s2.2-8.5,6.1-8.5s5.9,3.2,5.9,8.5S166.9,50.4,163.2,50.4
			L163.2,50.4z"/>
		<path class="st28" d="M208.6,25.4c0.2-1.7-1.7-2.2-2.9-1.4c-0.1-0.1-0.2-0.2-0.4-0.2c-3.8-1.6-8.2-0.7-11.1,2.2
			c-5.5,5.2-6.9,14.5-6.8,21.6c0.1,4.8,2.4,11.7,8.4,8.3c4.6-2.6,7.2-8,8.9-13c0.5,5.9,1.6,11.7,1.8,17.7s-0.4,12.9-5.1,17.2
			c-4.1,3.8-9.7,3-13.5-0.9c-1.7-1.7-4.3,0.9-2.6,2.6c3.4,3.5,8.7,5.6,13.5,4.1c6.9-2.2,10.3-9.5,11.1-16.1
			c0.9-7.2-0.3-14.3-1.2-21.4C207.8,39.3,207.8,32.3,208.6,25.4z M202.6,37.2c-0.8,3.1-1.9,6.2-3.3,9.1c-1.1,2.2-3.2,6.2-5.9,6.7
			c-5,0.9-0.8-17.4,0.2-19.7c1.5-3.5,5.4-8.3,9.8-6.3c0.4,0.2,0.8,0.2,1.2,0.1C204.1,30.5,203.5,33.9,202.6,37.2z"/>
		<path class="st28" d="M208.6,25.4c0.2-1.7-1.7-2.2-2.9-1.4c-0.1-0.1-0.2-0.2-0.4-0.2c-3.8-1.6-8.2-0.7-11.1,2.2
			c-5.5,5.2-6.9,14.5-6.8,21.6c0.1,4.8,2.4,11.7,8.4,8.3c4.6-2.6,7.2-8,8.9-13c0.5,5.9,1.6,11.7,1.8,17.7s-0.4,12.9-5.1,17.2
			c-4.1,3.8-9.7,3-13.5-0.9c-1.7-1.7-4.3,0.9-2.6,2.6c3.4,3.5,8.7,5.6,13.5,4.1c6.9-2.2,10.3-9.5,11.1-16.1
			c0.9-7.2-0.3-14.3-1.2-21.4C207.8,39.3,207.8,32.3,208.6,25.4z M202.6,37.2c-0.8,3.1-1.9,6.2-3.3,9.1c-1.1,2.2-3.2,6.2-5.9,6.7
			c-5,0.9-0.8-17.4,0.2-19.7c1.5-3.5,5.4-8.3,9.8-6.3c0.4,0.2,0.8,0.2,1.2,0.1C204.1,30.5,203.5,33.9,202.6,37.2z"/>
		<path class="st28" d="M214.1,24.8v30.7c0,1,0.8,1.8,1.9,1.8c1,0,1.8-0.8,1.8-1.8V24.8c0-1-0.8-1.8-1.9-1.8
			C214.9,22.9,214.1,23.8,214.1,24.8z"/>
		<path class="st28" d="M214.1,24.8v30.7c0,1,0.8,1.8,1.9,1.8c1,0,1.8-0.8,1.8-1.8V24.8c0-1-0.8-1.8-1.9-1.8
			C214.9,22.9,214.1,23.8,214.1,24.8z"/>
		<path class="st28" d="M240.9,21.3c-6.9,2.1-12.4,6.4-15.4,12.7c-0.4-3.6-1-7.3-1.7-10.8c-0.5-2.3-4.1-1.3-3.6,1
			c1.7,8.7,2.6,17.6,2.7,26.5c0,1.6,0.1,3.2,0.1,4.8c0,2.4,3.7,2.4,3.7,0c0-2,0-4-0.1-6.1c-0.1-3.2,0.2-6.4,0.8-9.6
			c1.8-7.6,7-12.7,14.4-15C244.1,24.1,243.1,20.6,240.9,21.3z"/>
		<path class="st28" d="M240.9,21.3c-6.9,2.1-12.4,6.4-15.4,12.7c-0.4-3.6-1-7.3-1.7-10.8c-0.5-2.3-4.1-1.3-3.6,1
			c1.7,8.7,2.6,17.6,2.7,26.5c0,1.6,0.1,3.2,0.1,4.8c0,2.4,3.7,2.4,3.7,0c0-2,0-4-0.1-6.1c-0.1-3.2,0.2-6.4,0.8-9.6
			c1.8-7.6,7-12.7,14.4-15C244.1,24.1,243.1,20.6,240.9,21.3z"/>
		<path class="st28" d="M249,4c-0.1-2.4-3.8-2.4-3.7,0l1.6,45l0.2,6.5c0.1,2.4,3.8,2.4,3.7,0l-1.6-45L249,4z"/>
		<path class="st28" d="M249,4c-0.1-2.4-3.8-2.4-3.7,0l1.6,45l0.2,6.5c0.1,2.4,3.8,2.4,3.7,0l-1.6-45L249,4z"/>
		<path class="st28" d="M280.3,43.7c-4.6-3.1-11-4.9-14.6-9.3c-2.1-2.6-1.2-5.8,1.9-7.2c3.6-1.5,7.8-1,11,1.3
			c1.9,1.4,3.7-1.8,1.9-3.2c-4.5-3.4-12.3-3.8-16.8,0s-3.1,9.7,1,13.2c4.3,3.7,9.8,5.4,14.4,8.8c1.2,0.9,3.3,2.5,2.3,4.3
			s-4.6,1.2-6.3,1c-3.8-0.7-7.4-2-10.8-3.8c-2.5-1.3-5.8-2.8-7.5-5.3c-1.3-2-4.5-0.1-3.2,1.9c3.1,4.7,9.6,7.3,14.7,9.2
			c4.2,1.5,12,4,15.6-0.1S283.8,46,280.3,43.7z"/>
		<path class="st28" d="M280.3,43.7c-4.6-3.1-11-4.9-14.6-9.3c-2.1-2.6-1.2-5.8,1.9-7.2c3.6-1.5,7.8-1,11,1.3
			c1.9,1.4,3.7-1.8,1.9-3.2c-4.5-3.4-12.3-3.8-16.8,0s-3.1,9.7,1,13.2c4.3,3.7,9.8,5.4,14.4,8.8c1.2,0.9,3.3,2.5,2.3,4.3
			s-4.6,1.2-6.3,1c-3.8-0.7-7.4-2-10.8-3.8c-2.5-1.3-5.8-2.8-7.5-5.3c-1.3-2-4.5-0.1-3.2,1.9c3.1,4.7,9.6,7.3,14.7,9.2
			c4.2,1.5,12,4,15.6-0.1S283.8,46,280.3,43.7z"/>
		<path class="st28" d="M215.9,13.1c-1.3,0-2.5,0.9-2.9,2.2c-0.1,0.4,0,0.7,0.1,1.1c0,0.4,0.1,0.7,0.2,1c1,1.4,2.8,1.7,4.2,0.7
			c0.9-0.7,1.4-1.8,1.2-2.9C218.3,13.9,217.2,13.1,215.9,13.1z M215.9,16.8c0,0-0.1,0-0.1,0H215.9L215.9,16.8h0.1
			C216,16.8,216,16.8,215.9,16.8L215.9,16.8z"/>
		<path class="st28" d="M215.9,13.1c-1.3,0-2.5,0.9-2.9,2.2c-0.1,0.4,0,0.7,0.1,1.1c0,0.4,0.1,0.7,0.2,1c1,1.4,2.8,1.7,4.2,0.7
			c0.9-0.7,1.4-1.8,1.2-2.9C218.3,13.9,217.2,13.1,215.9,13.1z M215.9,16.8c0,0-0.1,0-0.1,0H215.9L215.9,16.8h0.1
			C216,16.8,216,16.8,215.9,16.8L215.9,16.8z"/>
		<path class="st28" d="M221.6,86.9v2.3c0,0.6,0.2,0.8,0.8,0.8h3.1v-0.6H223c-0.7,0-0.8-0.3-0.8-0.5v-1.7c0-0.3,0.2-0.5,0.4-0.5
			c0,0,0.1,0,0.1,0h2.8v-0.6h-3.1C221.8,86.1,221.6,86.3,221.6,86.9z"/>
		<path class="st28" d="M242.4,86.1h-2.3c-0.6,0-0.8,0.2-0.8,0.8v2.3c0,0.6,0.2,0.8,0.8,0.8h2.3c0.6,0,0.8-0.2,0.8-0.8v-2.3
			C243.2,86.3,243,86.1,242.4,86.1z M242.6,88.9c0,0.3-0.2,0.5-0.4,0.5c0,0-0.1,0-0.1,0h-1.7c-0.3,0-0.5-0.2-0.5-0.4
			c0,0,0-0.1,0-0.1v-1.7c0-0.3,0.2-0.5,0.4-0.5c0,0,0.1,0,0.1,0h1.7c0.3,0,0.5,0.2,0.5,0.4c0,0,0,0.1,0,0.1V88.9z"/>
		<path class="st28" d="M257.6,89.2v-3.2h-0.6v4h4v-0.6h-3.1C257.7,89.5,257.6,89.4,257.6,89.2C257.6,89.3,257.6,89.3,257.6,89.2z"
			/>
		<path class="st28" d="M277.8,86.1h-2.3c-0.6,0-0.8,0.2-0.8,0.8v2.3c0,0.6,0.2,0.8,0.8,0.8h2.3c0.6,0,0.8-0.2,0.8-0.8v-2.3
			C278.6,86.3,278.3,86.1,277.8,86.1z M277.9,88.9c0,0.3-0.2,0.5-0.4,0.5c0,0-0.1,0-0.1,0h-1.7c-0.3,0-0.5-0.2-0.5-0.4
			c0,0,0-0.1,0-0.1v-1.7c0-0.3,0.2-0.5,0.4-0.5c0,0,0.1,0,0.1,0h1.7c0.3,0,0.5,0.2,0.5,0.4c0,0,0,0.1,0,0.1V88.9z"/>
		<path class="st28" d="M294.3,88.8c-0.1,0-0.1,0-0.2-0.1l-1.1-2.6h-0.7v4h0.6v-1.8c0-0.1,0.1-0.2,0.2-0.2c0.1,0,0.1,0,0.1,0.1
			l1,1.7l1-1.7c0.1-0.1,0.2-0.1,0.2-0.1c0,0,0.1,0.1,0.1,0.1v1.8h0.6v-4h-0.7l-1.1,2.6C294.4,88.7,294.4,88.7,294.3,88.8z"/>
		<path class="st28" d="M313.1,86.1H310v4h3.1c0.6,0,0.8-0.2,0.8-0.8v-0.3c0-0.4-0.1-0.5-0.1-0.6c-0.1,0-0.1,0-0.2,0l0,0
			c-0.1,0-0.2-0.1-0.2-0.1c0,0,0,0,0,0c0-0.1,0.1-0.2,0.2-0.2l0,0c0.3,0,0.3-0.2,0.3-0.3V87C313.9,86.3,313.7,86.1,313.1,86.1z
			 M312.8,89.4h-2c-0.1,0-0.2-0.1-0.2-0.2v-0.7c0-0.1,0.1-0.2,0.2-0.2h2c0.3-0.1,0.5,0.1,0.6,0.4c0.1,0.3-0.1,0.5-0.4,0.6
			C312.9,89.4,312.8,89.4,312.8,89.4L312.8,89.4z M312.8,87.8h-2c-0.1,0-0.2-0.1-0.2-0.2v-0.7c0-0.1,0.1-0.2,0.2-0.2h2
			c0.3-0.1,0.5,0.1,0.6,0.4c0.1,0.3-0.1,0.5-0.4,0.6C312.9,87.7,312.8,87.7,312.8,87.8L312.8,87.8z"/>
		<path class="st28" d="M329.3,86.9v2.3c0,0.1-0.1,0.2-0.2,0.2h-1.5v0.6h4v-0.6h-1.5c-0.1,0-0.2-0.1-0.2-0.2v-2.3
			c0-0.1,0.1-0.2,0.2-0.2h1.5v-0.6h-4v0.6h1.5C329.2,86.7,329.3,86.8,329.3,86.9z"/>
		<path class="st28" d="M348.5,86.1h-2.3c-0.6,0-0.8,0.2-0.8,0.8v3.2h0.7v-1.1c0-0.1,0.1-0.2,0.2-0.2h2.3c0.1,0,0.2,0.1,0.2,0.2v1.2
			h0.6v-3.1C349.3,86.3,349,86.1,348.5,86.1z M348.7,87.9c0,0.1-0.1,0.2-0.2,0.2h-2.3c-0.1,0-0.2-0.1-0.2-0.2v-0.7
			c0-0.3,0.2-0.5,0.4-0.5c0,0,0.1,0,0.1,0h1.7c0.3,0,0.5,0.2,0.5,0.4c0,0,0,0.1,0,0.1L348.7,87.9z"/>
		<path class="st28" d="M231.9,68.4h-10.3v13.1h2.3v-4.9c0-0.3,0.2-0.5,0.5-0.5l0,0h7.6c1.9,0,2.8-0.9,2.8-2.8v-2.2
			C234.7,69.3,233.8,68.4,231.9,68.4z M230.8,73.9h-6.5c-0.3,0-0.5-0.2-0.5-0.5l0,0v-2.2c0-0.3,0.2-0.5,0.5-0.5l0,0h6.5
			c0.9-0.1,1.6,0.6,1.7,1.4s-0.6,1.6-1.4,1.7C231,73.9,230.9,73.9,230.8,73.9z"/>
		<path class="st28" d="M245.5,72.8c-0.1,0-0.3,0-0.3-0.1l-4.2-4.2h-2.1v2l5.3,5.3c0.1,0.1,0.1,0.2,0.1,0.3v5.4h2.3v-5.4
			c0-0.1,0-0.2,0.1-0.3l5.3-5.4v-1.9h-2.1l-4.1,4.2C245.7,72.7,245.6,72.8,245.5,72.8z"/>
		<path class="st28" d="M256.1,71.2v7.6c0,1.9,0.9,2.8,2.8,2.8h10.3v-2.3h-8.2c-2.2,0-2.6-0.8-2.6-1.6v-5.4
			c-0.1-0.8,0.5-1.5,1.3-1.6c0.1,0,0.2,0,0.3,0h9.3v-2.3h-10.3C257,68.4,256.1,69.3,256.1,71.2z"/>
		<path class="st28" d="M283.8,68.4h-7.6c-1.9,0-2.8,0.9-2.8,2.8v7.6c0,1.9,0.9,2.8,2.8,2.8h7.6c1.9,0,2.8-0.9,2.8-2.8v-7.6
			C286.6,69.3,285.7,68.4,283.8,68.4z M284.3,77.7c0.1,0.8-0.5,1.5-1.3,1.6c-0.1,0-0.2,0-0.3,0h-5.4c-0.8,0.1-1.5-0.5-1.6-1.3
			c0-0.1,0-0.2,0-0.3v-5.4c-0.1-0.8,0.5-1.5,1.3-1.6c0.1,0,0.2,0,0.3,0h5.4c0.8-0.1,1.5,0.5,1.6,1.3c0,0.1,0,0.2,0,0.3L284.3,77.7z"
			/>
		<path class="st28" d="M293.3,68.4h-2.6v13.1h2.3v-7.1c0-0.3,0.2-0.5,0.5-0.5c0.1,0,0.3,0,0.4,0.1l7.4,7.4h2.6V68.4h-2.3v8.2
			c0,0.3-0.2,0.5-0.5,0.5c-0.1,0-0.3-0.1-0.4-0.2L293.3,68.4z"/>
		<path class="st28" d="M329.2,68.4h-10.3v2.3h9.3c0.9-0.1,1.6,0.6,1.7,1.4c0.1,0.9-0.6,1.6-1.4,1.7c-0.1,0-0.2,0-0.2,0h-6.5
			c-1.9,0-2.8,0.9-2.8,2.8v4.9H332v-2.3h-10.3c-0.3,0-0.5-0.2-0.5-0.5l0,0v-1.1c-0.1-0.8,0.5-1.5,1.3-1.6c0.1,0,0.2,0,0.3,0h6.5
			c1.9,0,2.8-0.9,2.8-2.8v-2.2C332,69.3,331.1,68.4,329.2,68.4z"/>
		<path class="st28" d="M346.5,68.4H339c-1.9,0-2.8,0.9-2.8,2.8v7.6c0,1.9,0.9,2.8,2.8,2.8h7.6c1.9,0,2.8-0.9,2.8-2.8v-7.6
			C349.3,69.3,348.4,68.4,346.5,68.4z M347,77.7c0.1,0.8-0.5,1.5-1.3,1.6c-0.1,0-0.2,0-0.3,0H340c-0.8,0.1-1.5-0.5-1.6-1.3
			c0-0.1,0-0.2,0-0.3v-5.4c-0.1-0.8,0.5-1.5,1.3-1.6c0.1,0,0.2,0,0.3,0h5.4c0.8-0.1,1.5,0.5,1.6,1.2c0,0.1,0,0.2,0,0.3V77.7z"/>
	</g>
</g>
</svg>
