<?xml version="1.0" encoding="utf-8"?>
<!-- Generator: Adobe Illustrator 23.0.0, SVG Export Plug-In . SVG Version: 6.00 Build 0)  -->
<svg version="1.1" id="Layer_1" xmlns="http://www.w3.org/2000/svg" xmlns:xlink="http://www.w3.org/1999/xlink" x="0px" y="0px"
	 viewBox="0 0 1550 550.49" style="enable-background:new 0 0 1550 550.49;" xml:space="preserve">
<style type="text/css">
	.st0{fill:url(#SVGID_1_);}
	.st1{fill:#FFFFFF;stroke:#000000;stroke-width:1.0156;stroke-miterlimit:10;}
	.st2{fill:url(#SVGID_2_);}
	.st3{opacity:0.3;fill:url(#SVGID_3_);}
</style>
<g>
	<g>
		<linearGradient id="SVGID_1_" gradientUnits="userSpaceOnUse" x1="1816.7908" y1="1513.9003" x2="1818.3013" y2="1516.5166">
			<stop  offset="0" style="stop-color:#FC2C8C"/>
			<stop  offset="1" style="stop-color:#FF864E"/>
		</linearGradient>
		<path class="st0" d="M1817.55,1516.71c1.93,0,1.93-3,0-3C1815.62,1513.71,1815.61,1516.71,1817.55,1516.71L1817.55,1516.71z"/>
	</g>
</g>
<path class="st1" d="M984.45,348.31"/>
<linearGradient id="SVGID_2_" gradientUnits="userSpaceOnUse" x1="777.9425" y1="-18.2139" x2="777.9425" y2="560.1722">
	<stop  offset="0" style="stop-color:#6BEAF9"/>
	<stop  offset="0.2127" style="stop-color:#69D3FB"/>
	<stop  offset="0.5098" style="stop-color:#68BAFD"/>
	<stop  offset="0.7808" style="stop-color:#66ABFF"/>
	<stop  offset="1" style="stop-color:#66A6FF"/>
</linearGradient>
<path class="st2" d="M1565.23,216.08c-1.29-11.07-2.98-22.1-4.92-33.07c-3.05-17.2-7.18-35.18-18.99-48.05
	c-7.58-8.27-17.72-13.72-27.98-18.25c-28.01-12.37-58.53-19.05-89.15-19.51c-11.71-0.19-25.06,0.68-35.11-6.43
	c-4.97-3.51-10.5-8.05-16.31-10.08c-4.78-1.67-11.72-0.16-15.77-3.25c-12.95-9.89,16.48-16.65,2.46-27.05
	c-8.41-6.24-19.45-7.98-29.88-7.11c-10.43,0.87-20.49,4.11-30.55,7c-9.14,2.63-20.19,6.4-29.72,6.49
	c-10.34,0.1-21.26-4.59-31.36-6.48c-17.68-3.3-37.07-3.6-55.08-5.56c-5.03-0.55-34.19-0.12-35.4-6
	c-2.05-10.28,16.37-14.86,16.08-25.34c-0.23-8.26-11.17-10.83-19.43-10.95c-136.72-1.96-274.12-3.25-411.24-3.25
	c-59.87,0-119.74,0-179.6,0c-40.9,0-81.79,0.19-122.69,0.32c-19.76,0.06-37.53-4.47-57.56-0.35c-2.19,0.45-4.53,1.06-5.94,2.79
	c-3.08,3.78,0.5,9.42,4.57,12.09c14.21,9.33,11.51,17.89-6.21,14.58c-17.89-3.34-36-5.43-54.18-6.26
	c-5.09-0.23-17.88-2.06-21.36,2.68c3.7,6.55,12.82,6.61,20.2,8.02c13.74,2.63,25.63,13.27,29.76,26.64c-3.9,2.84-8.58,4.59-13.39,5
	c-4.76,0.41-9.53-0.48-14.25-1.25c-42.54-6.92-86.34,2.71-128.94,1.76c-45.84-1.02-90.25,13.5-132.03,31.07
	c-23.19,9.76-45.89,17.59-56.17,42.61c-5.63,13.71-7.01,28.79-7.16,43.61c-0.23,23.38-0.78,47.93,11.36,67.59l0.86,300.37h1552.83
	V351.08c7.31-19.45,11.75-40.07,13.73-60.78C1569.07,265.61,1568.12,240.75,1565.23,216.08z"/>
<linearGradient id="SVGID_3_" gradientUnits="userSpaceOnUse" x1="785.5759" y1="16.9546" x2="785.5759" y2="455.6731">
	<stop  offset="0" style="stop-color:#FFFFFF"/>
	<stop  offset="0.2221" style="stop-color:#FCFDFF;stop-opacity:0.7779"/>
	<stop  offset="0.4078" style="stop-color:#F1F6FF;stop-opacity:0.5922"/>
	<stop  offset="0.5804" style="stop-color:#E0ECFE;stop-opacity:0.4196"/>
	<stop  offset="0.7451" style="stop-color:#C8DCFE;stop-opacity:0.2549"/>
	<stop  offset="0.9027" style="stop-color:#A8C9FD;stop-opacity:0.0973"/>
	<stop  offset="1" style="stop-color:#91BAFD;stop-opacity:0"/>
</linearGradient>
<path class="st3" d="M1313.26,190.77c-9.12-3.18-17.8-8.38-27.21-10.84c-10.04-2.62-20.61-2.04-30.91-3.26
	c-10.3-1.23-21.15-4.83-27.09-13.34c-13.4-19.2-20.09-31.22-44.66-35.76c-25.64-4.73-48.13-12.55-66.77-31.78
	c-9.57-9.88-13.39-27.23-22.43-35.74c-10.02-9.44-24.93-8.34-37.62-13.79c-10.35-4.45-19.29-11.55-28.1-18.57
	c-7.54-6.01-15.63-11.4-24.02-16.15c-4.54-2.57-9.2-4.95-14-6.98c-2.27-0.96-4.58-1.85-6.93-2.61c-2.04-0.67-4.62-1.79-6.77-1.79
	c-20.56,0-41.17,0.33-61.71-0.16c-19.07-0.45-38.21,0-57.28,0c-25.85,0-51.69,0-77.54,0c-37.69,0-75.38-0.62-113.08-0.62
	c-3.08,0-6.15,0-9.23,0c-12.72-0.69-25.74-1.33-37.77,0c-17.88,0-35.76,0-53.63,0c-10.01,0-20.05-0.21-30.06,0
	c-17.83,0.38-29.81,17.6-43.25,28.31c-8.81,7.02-17.75,14.12-28.1,18.57c-12.49,5.37-26.32,6.56-39.46,10.03
	c-16.69,4.4-32.21,12.44-46.95,21.42c-42.75,26.03-52.97,52.11-75.21,94.31c-19.21,36.45-45.47,71.52-85.23,86.75
	c-23.34,8.94-48.49,10.07-73.09,12.41c-26.21,2.49-44.24,9.63-68.31,20.63c-43.14,19.71-85.25,46.42-113.53,85.3
	c-31,42.63-32.87,108.51-39.48,159.63H23.99c83.37,0,166.75,0,250.12,0c129.9,0,259.81,0,389.71,0c140.5,0,281.01,0,421.51,0
	c112.56,0,225.13,0,337.69,0c40.86,0,81.71,0.5,122.56,0.95c16.13,0.18,101.41,10.39,101.74-9.3c0.09-5.08-2.26-9.85-4.57-14.38
	c-16.13-31.7-35.15-51.45-60.73-75.43c-20.35-19.08-23.38-42.12-26.23-69.52c-2.42-23.31-0.6-49.41-15.9-67.15
	c-21.01-24.35-61.26-18.35-87.91-36.34c-30.17-20.36-39.38-68.78-75.05-76.01c-18.33-3.72-33.82,4.79-51.44,3.82
	C1321.26,193.15,1317.22,192.15,1313.26,190.77z"/>
<g>
</g>
<g>
</g>
<g>
</g>
<g>
</g>
<g>
</g>
<g>
</g>
<g>
</g>
<g>
</g>
<g>
</g>
<g>
</g>
<g>
</g>
<g>
</g>
<g>
</g>
<g>
</g>
<g>
</g>
</svg>
