<?xml version="1.0" encoding="utf-8"?>
<!-- Generator: Adobe Illustrator 23.0.4, SVG Export Plug-In . SVG Version: 6.00 Build 0)  -->
<svg version="1.1" id="Layer_1" xmlns="http://www.w3.org/2000/svg" xmlns:xlink="http://www.w3.org/1999/xlink" x="0px" y="0px"
	 viewBox="0 0 1366 797" style="enable-background:new 0 0 1366 797;" xml:space="preserve">
<style type="text/css">
	.st0{fill:#9BCA40;}
	.st1{fill:url(#SVGID_1_);}
	.st2{fill:url(#SVGID_2_);}
	.st3{fill:#9C7000;}
	.st4{fill:url(#SVGID_3_);}
	.st5{fill:#E4AB17;}
	.st6{fill:url(#SVGID_4_);}
	.st7{fill:url(#SVGID_5_);}
	.st8{fill:url(#SVGID_6_);}
	.st9{fill:url(#SVGID_7_);}
	.st10{fill:url(#SVGID_8_);}
	.st11{fill:#FEA400;}
	.st12{fill:#FFFFFF;}
	.st13{fill:none;}
</style>
<g>
	<g>
		<rect x="0.9" y="176.8" class="st0" width="1365.1" height="620.2"/>
		<linearGradient id="SVGID_1_" gradientUnits="userSpaceOnUse" x1="683.4325" y1="236.0798" x2="683.4325" y2="55.1505">
			<stop  offset="0" style="stop-color:#9BCA40"/>
			<stop  offset="0.2301" style="stop-color:#A0CB3B"/>
			<stop  offset="0.5039" style="stop-color:#AECF2D"/>
			<stop  offset="0.7988" style="stop-color:#C6D415"/>
			<stop  offset="1" style="stop-color:#DBD900"/>
		</linearGradient>
		<path class="st1" d="M1366,128c-23.3,6.8-73-9.7-90.1-22c-15.3-10.9-34.2-14.3-51.2-20.4c-45.5-16.3-86.7-27.5-134.9-27.4
			c-113.5,0.2-209.4,73.9-323.5,63.3c-14.1-1.3-28-4.7-41.7-8.7c-5.9-1.8-10-4.5-15.3-7.2c-5.2-2.7-10.3-1.8-15.9-3
			c-14.3-3-28.3-6.4-42.9-7.8c-38.5-3.7-73-7.6-111.2-0.7c-77.8,14.2-141.1,7.7-215.4-20.8c-71.9-27.5-177.2-22.6-249,6.7
			c-9.1,3.7-24.5,14.5-22.1,27.1c-3,0-48.8,0-51.8,0c0,0.1,0,0.2,0,0.3c0,20.2,0,128.6,0,128.6s49.1-0.1,51-0.1
			c13.7,0,27.5,0,41.2,0c24.9,0,49.8,0,74.6,0c33.9,0,67.8,0,101.7,0c40.8,0,81.5,0,122.3,0c45.5,0,91,0,136.5,0
			c48.1,0,96.2,0,144.4,0c48.6,0,97.2,0,145.8,0c47,0,93.9,0,140.9,0c43.2,0,86.4,0,129.5,0c37.3,0,74.6,0,111.8,0
			c29.2,0,58.5,0,87.7,0c19.1,0,38.2,0,57.2,0c1,0,20.4,0,20.4,0C1366,236,1366,128,1366,128z"/>
		<linearGradient id="SVGID_2_" gradientUnits="userSpaceOnUse" x1="683.4325" y1="176.7609" x2="683.4325" y2="80.1936">
			<stop  offset="0" style="stop-color:#A5CC37"/>
			<stop  offset="9.955484e-02" style="stop-color:#B3CF46"/>
			<stop  offset="0.303" style="stop-color:#CBD45F"/>
			<stop  offset="0.5155" style="stop-color:#DCD871"/>
			<stop  offset="0.7407" style="stop-color:#E6DA7C"/>
			<stop  offset="1" style="stop-color:#E9DB7F"/>
		</linearGradient>
		<path class="st2" d="M1366,176.8V80.4c-39.6,0.3-78.9,3.4-117.8,11.8c-46.2,10-87.5,33.3-135.4,33.3c-48.1-0.1-96.4,1.5-144.5,0
			c-44.7-1.4-82.7-21-125.2-31.2c-31.6-7.6-66.8-5.9-98.7-2.9c-17,1.6-37,3.5-51.1,14.9c-13.9,11.2-27,11.5-44.1,11
			c-15.6-0.5-31.1-2.9-46.4-5.7c-12.8-2.3-27.3-4.8-39.6-9.2c-8.7-3.1-18.3-5.3-27.1-7.9c-16.7-4.9-34-3-50.9-5.5
			c-22.2-3.4-36.9,4.4-57.8,11c-32.8,10.3-75,9.5-108.8,7.7c-39.2-2-77.9-9.5-115.7-20.5c-28.2-8.2-105.7-7.1-135-6.9
			c-24.1,0.1-46.8-0.1-67,0.4v96H1366z"/>
		<g>
			<path class="st3" d="M58.9,91c0,0.9-1.5,1.6-3.4,1.6c-1.9,0-3.4-0.7-3.4-1.6c0-0.9,1.5-1.6,3.4-1.6C57.4,89.5,58.9,90.2,58.9,91z
				"/>
			<path class="st3" d="M66.7,91.7c0,0.9-1.5,1.7-3.2,1.7c-1.8,0-3.2-0.8-3.2-1.7c0-0.9,1.5-1.7,3.2-1.7
				C65.3,90,66.7,90.8,66.7,91.7z"/>
			<path class="st3" d="M438.3,130.6c0,1.2-1.5,2.1-3.2,2c-1.7-0.1-3.1-1.1-3-2.3c0-1.2,1.5-2.1,3.2-2
				C437,128.4,438.4,129.4,438.3,130.6z"/>
			<path class="st3" d="M448.2,129.8c0,1.1-1.7,1.9-3.7,1.8c-2-0.1-3.6-1-3.6-2.1c0-1.1,1.7-1.9,3.7-1.8
				C446.7,127.7,448.3,128.7,448.2,129.8z"/>
			<path class="st3" d="M563.5,115.1c-0.3,0.8-1.8,0.9-3.3,0.3c-1.5-0.6-2.6-1.8-2.3-2.6c0.3-0.8,1.8-0.9,3.3-0.3
				C562.8,113.2,563.8,114.3,563.5,115.1z"/>
			<path class="st3" d="M571.7,116.4c-0.3,0.8-1.9,0.9-3.7,0.1c-1.7-0.7-2.9-2-2.6-2.8c0.3-0.8,1.9-0.9,3.7-0.1
				C570.8,114.4,572,115.6,571.7,116.4z"/>
			<path class="st3" d="M578.7,120.1c-0.3,0.9-1.9,1-3.6,0.3c-1.7-0.7-2.8-2-2.5-2.9c0.3-0.9,1.9-1,3.6-0.3
				C577.9,118,579.1,119.2,578.7,120.1z"/>
			<path class="st3" d="M128.9,112.6c0,1.3-1.7,2.4-3.8,2.4c-2.1,0-3.8-1.1-3.8-2.4c0-1.3,1.7-2.4,3.8-2.4
				C127.2,110.2,128.9,111.3,128.9,112.6z"/>
			<path class="st3" d="M139.3,113.4c0,1.1-1.5,2-3.4,2c-1.9,0-3.4-0.9-3.4-2c0-1.1,1.5-2,3.4-2
				C137.7,111.4,139.3,112.3,139.3,113.4z"/>
			<path class="st3" d="M291.2,72.3c0,1.1-1.7,2-3.9,2c-2.2,0-3.9-0.9-3.9-2c0-1.1,1.7-2,3.9-2C289.4,70.3,291.2,71.2,291.2,72.3z"
				/>
			<path class="st3" d="M315.5,124.4c0,1.1-1.5,2-3.2,2c-1.8,0-3.2-0.9-3.2-2c0-1.1,1.5-2,3.2-2C314,122.4,315.5,123.3,315.5,124.4z
				"/>
			<path class="st3" d="M311,128.7c0,1.1-1.3,2-3,2c-1.7,0-3-0.9-3-2c0-1.1,1.3-2,3-2C309.7,126.7,311,127.6,311,128.7z"/>
		</g>
		<path class="st3" d="M914.9,104c0,0.7-1.2,1.3-2.6,1.3c-1.4,0-2.6-0.6-2.6-1.3c0-0.7,1.2-1.3,2.6-1.3
			C913.7,102.7,914.9,103.3,914.9,104z"/>
		<path class="st3" d="M921.1,102.3c0,0.7-0.9,1.3-2.1,1.3c-1.2,0-2.1-0.6-2.1-1.3c0-0.7,0.9-1.3,2.1-1.3
			C920.2,101,921.1,101.6,921.1,102.3z"/>
		<path class="st3" d="M922.7,108c0,0.7-1.3,1.3-3,1.3c-1.7,0-3-0.6-3-1.3c0-0.7,1.3-1.3,3-1.3C921.3,106.7,922.7,107.3,922.7,108z"
			/>
		<g>
			<path class="st3" d="M865.8,115.1c0,1.6-3,2.8-6.7,2.8c-3.7,0-6.7-1.3-6.7-2.8c0-1.6,3-2.8,6.7-2.8
				C862.8,112.3,865.8,113.6,865.8,115.1z"/>
			<path class="st3" d="M847.2,114.3c0,1.1-1.4,1.9-3,1.9c-1.7,0-3-0.9-3-1.9c0-1.1,1.4-1.9,3-1.9
				C845.8,112.3,847.2,113.2,847.2,114.3z"/>
			<path class="st3" d="M875.7,119.7c0,1-1.4,1.8-3.2,1.8c-1.8,0-3.2-0.8-3.2-1.8c0-1,1.4-1.8,3.2-1.8
				C874.3,117.9,875.7,118.7,875.7,119.7z"/>
			<path class="st3" d="M655.8,97.2c0,0.8-1.2,1.4-2.6,1.4c-1.4,0-2.6-0.6-2.6-1.4c0-0.8,1.2-1.4,2.6-1.4
				C654.6,95.7,655.8,96.4,655.8,97.2z"/>
			<path class="st3" d="M650.8,98.2c0,0.4-0.8,0.7-1.8,0.7c-1,0-1.8-0.3-1.8-0.7s0.8-0.7,1.8-0.7C650,97.4,650.8,97.8,650.8,98.2z"
				/>
			<path class="st3" d="M660.7,98.9c0,0.8-0.9,1.4-2.1,1.4c-1.2,0-2.1-0.6-2.1-1.4c0-0.8,0.9-1.4,2.1-1.4
				C659.8,97.4,660.7,98.1,660.7,98.9z"/>
			<path class="st3" d="M721.3,99.4c0,0.6-0.8,1-1.7,1c-0.9,0-1.7-0.4-1.7-1c0-0.6,0.8-1,1.7-1C720.5,98.4,721.3,98.9,721.3,99.4z"
				/>
			<path class="st3" d="M726.2,98.9c0,0.4-0.8,0.7-1.8,0.7c-1,0-1.8-0.3-1.8-0.7c0-0.4,0.8-0.7,1.8-0.7
				C725.4,98.2,726.2,98.5,726.2,98.9z"/>
			<path class="st3" d="M1063.8,66.5c0,1.2-2.3,2.1-5.1,2.1c-2.8,0-5.1-1-5.1-2.1c0-1.2,2.3-2.1,5.1-2.1
				C1061.5,64.3,1063.8,65.3,1063.8,66.5z"/>
			<path class="st3" d="M1073.4,65.8c0,1.1-1.3,2-3,2c-1.7,0-3-0.9-3-2c0-1.1,1.3-2,3-2C1072.1,63.8,1073.4,64.7,1073.4,65.8z"/>
			<path class="st3" d="M1069.8,71c0,0.9-0.8,1.6-1.8,1.6c-1,0-1.8-0.7-1.8-1.6c0-0.9,0.8-1.6,1.8-1.6
				C1069,69.5,1069.8,70.2,1069.8,71z"/>
			<path class="st3" d="M1149.3,138.3c0,0.9-1.4,1.7-3.1,1.7c-1.7,0-3.1-0.8-3.1-1.7c0-0.9,1.4-1.7,3.1-1.7
				C1147.9,136.6,1149.3,137.4,1149.3,138.3z"/>
			<path class="st3" d="M1159.2,137.3c0,0.9-1.6,1.6-3.6,1.6c-2,0-3.6-0.7-3.6-1.6c0-0.9,1.6-1.6,3.6-1.6
				C1157.6,135.8,1159.2,136.5,1159.2,137.3z"/>
			<path class="st3" d="M961.4,137.5c0,0.7-2,1.3-4.4,1.3c-2.4,0-4.4-0.6-4.4-1.3s2-1.3,4.4-1.3
				C959.4,136.2,961.4,136.8,961.4,137.5z"/>
			<path class="st3" d="M970.8,137c0,0.9-1.8,1.7-4,1.7c-2.2,0-4-0.8-4-1.7c0-0.9,1.8-1.7,4-1.7C969,135.3,970.8,136.1,970.8,137z"
				/>
			<path class="st3" d="M977.5,133.9c0,0.8-1.5,1.4-3.4,1.4s-3.4-0.6-3.4-1.4c0-0.8,1.5-1.4,3.4-1.4S977.5,133.1,977.5,133.9z"/>
			<path class="st3" d="M1347.2,96c0,0.9-1.5,1.6-3.4,1.6c-1.9,0-3.4-0.7-3.4-1.6c0-0.9,1.5-1.6,3.4-1.6
				C1345.7,94.5,1347.2,95.2,1347.2,96z"/>
			<path class="st3" d="M1355,96.7c0,0.9-1.5,1.7-3.2,1.7c-1.8,0-3.2-0.8-3.2-1.7c0-0.9,1.5-1.7,3.2-1.7
				C1353.6,95,1355,95.8,1355,96.7z"/>
		</g>
		<g>
			<path class="st3" d="M1348.2,287.8c0-0.9,1.5-1.6,3.4-1.6c1.9,0,3.4,0.7,3.4,1.6c0,0.9-1.5,1.6-3.4,1.6
				C1349.8,289.4,1348.2,288.7,1348.2,287.8z"/>
			<path class="st3" d="M1340.5,287.1c0-0.9,1.5-1.7,3.2-1.7c1.8,0,3.2,0.8,3.2,1.7c0,0.9-1.5,1.7-3.2,1.7
				C1341.9,288.8,1340.5,288,1340.5,287.1z"/>
			<path class="st3" d="M968.9,248.2c0-1.2,1.5-2.1,3.2-2c1.7,0.1,3.1,1.1,3,2.3c0,1.2-1.5,2.1-3.2,2
				C970.2,250.5,968.8,249.4,968.9,248.2z"/>
			<path class="st3" d="M959,249.1c0-1.1,1.7-1.9,3.7-1.8c2,0.1,3.6,1,3.6,2.1c0,1.1-1.7,1.9-3.7,1.8
				C960.5,251.1,958.9,250.2,959,249.1z"/>
			<path class="st3" d="M843.7,263.7c0.3-0.8,1.8-0.9,3.3-0.3c1.5,0.6,2.6,1.8,2.3,2.6c-0.3,0.8-1.8,0.9-3.3,0.3
				C844.4,265.7,843.4,264.5,843.7,263.7z"/>
			<path class="st3" d="M835.5,262.4c0.3-0.8,1.9-0.9,3.7-0.1c1.7,0.7,2.9,2,2.6,2.8c-0.3,0.8-1.9,0.9-3.7,0.1
				C836.4,264.5,835.2,263.2,835.5,262.4z"/>
			<path class="st3" d="M828.4,258.7c0.3-0.9,1.9-1,3.6-0.3c1.7,0.7,2.8,2,2.5,2.9c-0.3,0.9-1.9,1-3.6,0.3
				C829.2,260.9,828.1,259.6,828.4,258.7z"/>
			<path class="st3" d="M1278.3,266.2c0-1.3,1.7-2.4,3.8-2.4c2.1,0,3.8,1.1,3.8,2.4c0,1.3-1.7,2.4-3.8,2.4
				C1280,268.6,1278.3,267.5,1278.3,266.2z"/>
			<path class="st3" d="M1267.9,265.5c0-1.1,1.5-2,3.4-2c1.9,0,3.4,0.9,3.4,2c0,1.1-1.5,2-3.4,2
				C1269.4,267.5,1267.9,266.6,1267.9,265.5z"/>
			<path class="st3" d="M1116,306.5c0-1.1,1.7-2,3.9-2c2.2,0,3.9,0.9,3.9,2c0,1.1-1.7,2-3.9,2C1117.7,308.5,1116,307.6,1116,306.5z"
				/>
			<path class="st3" d="M1091.7,254.4c0-1.1,1.5-2,3.2-2c1.8,0,3.2,0.9,3.2,2c0,1.1-1.5,2-3.2,2
				C1093.2,256.4,1091.7,255.5,1091.7,254.4z"/>
			<path class="st3" d="M1096.1,250.1c0-1.1,1.3-2,3-2c1.7,0,3,0.9,3,2c0,1.1-1.3,2-3,2C1097.5,252.1,1096.1,251.2,1096.1,250.1z"/>
		</g>
		<g>
			<path class="st3" d="M541.4,263.7c0-1.6,3-2.8,6.7-2.8c3.7,0,6.7,1.3,6.7,2.8c0,1.6-3,2.8-6.7,2.8
				C544.4,266.5,541.4,265.2,541.4,263.7z"/>
			<path class="st3" d="M560,264.6c0-1.1,1.4-1.9,3-1.9c1.7,0,3,0.9,3,1.9c0,1.1-1.4,1.9-3,1.9C561.4,266.5,560,265.6,560,264.6z"/>
			<path class="st3" d="M531.4,259.1c0-1,1.4-1.8,3.2-1.8c1.8,0,3.2,0.8,3.2,1.8c0,1-1.4,1.8-3.2,1.8
				C532.9,260.9,531.4,260.1,531.4,259.1z"/>
			<path class="st3" d="M751.4,281.7c0-0.8,1.2-1.4,2.6-1.4c1.4,0,2.6,0.6,2.6,1.4c0,0.8-1.2,1.4-2.6,1.4
				C752.6,283.1,751.4,282.5,751.4,281.7z"/>
			<path class="st3" d="M756.4,280.7c0-0.4,0.8-0.7,1.8-0.7c1,0,1.8,0.3,1.8,0.7c0,0.4-0.8,0.7-1.8,0.7
				C757.2,281.4,756.4,281.1,756.4,280.7z"/>
			<path class="st3" d="M746.5,280c0-0.8,0.9-1.4,2.1-1.4c1.2,0,2.1,0.6,2.1,1.4c0,0.8-0.9,1.4-2.1,1.4
				C747.4,281.4,746.5,280.8,746.5,280z"/>
			<path class="st3" d="M685.9,279.4c0-0.6,0.8-1,1.7-1s1.7,0.4,1.7,1s-0.8,1-1.7,1S685.9,280,685.9,279.4z"/>
			<path class="st3" d="M681,280c0-0.4,0.8-0.7,1.8-0.7c1,0,1.8,0.3,1.8,0.7c0,0.4-0.8,0.7-1.8,0.7C681.8,280.7,681,280.4,681,280z"
				/>
			<path class="st3" d="M343.4,312.4c0-1.2,2.3-2.1,5.1-2.1c2.8,0,5.1,1,5.1,2.1c0,1.2-2.3,2.1-5.1,2.1
				C345.6,314.5,343.4,313.5,343.4,312.4z"/>
			<path class="st3" d="M333.8,313.1c0-1.1,1.3-2,3-2c1.7,0,3,0.9,3,2c0,1.1-1.3,2-3,2C335.1,315.1,333.8,314.2,333.8,313.1z"/>
			<path class="st3" d="M337.4,307.8c0-0.9,0.8-1.6,1.8-1.6c1,0,1.8,0.7,1.8,1.6c0,0.9-0.8,1.6-1.8,1.6
				C338.2,309.4,337.4,308.7,337.4,307.8z"/>
			<path class="st3" d="M257.9,240.5c0-0.9,1.4-1.7,3.1-1.7c1.7,0,3.1,0.8,3.1,1.7c0,0.9-1.4,1.7-3.1,1.7
				C259.3,242.2,257.9,241.5,257.9,240.5z"/>
			<path class="st3" d="M248,241.5c0-0.9,1.6-1.6,3.6-1.6c2,0,3.6,0.7,3.6,1.6c0,0.9-1.6,1.6-3.6,1.6
				C249.6,243.1,248,242.4,248,241.5z"/>
			<path class="st3" d="M445.8,241.4c0-0.7,2-1.3,4.4-1.3c2.4,0,4.4,0.6,4.4,1.3s-2,1.3-4.4,1.3
				C447.8,242.6,445.8,242.1,445.8,241.4z"/>
			<path class="st3" d="M436.4,241.8c0-0.9,1.8-1.7,4-1.7c2.2,0,4,0.8,4,1.7c0,0.9-1.8,1.7-4,1.7
				C438.2,243.5,436.4,242.7,436.4,241.8z"/>
			<path class="st3" d="M429.7,244.9c0-0.8,1.5-1.4,3.4-1.4c1.9,0,3.4,0.6,3.4,1.4c0,0.8-1.5,1.4-3.4,1.4
				C431.2,246.3,429.7,245.7,429.7,244.9z"/>
			<path class="st3" d="M60,282.8c0-0.9,1.5-1.6,3.4-1.6c1.9,0,3.4,0.7,3.4,1.6c0,0.9-1.5,1.6-3.4,1.6C61.5,284.4,60,283.7,60,282.8
				z"/>
			<path class="st3" d="M52.2,282.1c0-0.9,1.5-1.7,3.2-1.7c1.8,0,3.2,0.8,3.2,1.7c0,0.9-1.5,1.7-3.2,1.7
				C53.6,283.8,52.2,283,52.2,282.1z"/>
		</g>
		<g>
			<path class="st3" d="M58.9,513.5c0,0.9-1.5,1.6-3.4,1.6c-1.9,0-3.4-0.7-3.4-1.6c0-0.9,1.5-1.6,3.4-1.6
				C57.4,511.9,58.9,512.6,58.9,513.5z"/>
			<path class="st3" d="M66.7,514.2c0,0.9-1.5,1.7-3.2,1.7c-1.8,0-3.2-0.8-3.2-1.7c0-0.9,1.5-1.7,3.2-1.7
				C65.3,512.5,66.7,513.3,66.7,514.2z"/>
			<path class="st3" d="M438.3,553.1c0,1.2-1.5,2.1-3.2,2c-1.7-0.1-3.1-1.1-3-2.3c0-1.2,1.5-2.1,3.2-2
				C437,550.9,438.4,551.9,438.3,553.1z"/>
			<path class="st3" d="M448.2,552.2c0,1.1-1.7,1.9-3.7,1.8c-2-0.1-3.6-1-3.6-2.1c0-1.1,1.7-1.9,3.7-1.8
				C446.7,550.2,448.3,551.1,448.2,552.2z"/>
			<path class="st3" d="M563.5,537.6c-0.3,0.8-1.8,0.9-3.3,0.3c-1.5-0.6-2.6-1.8-2.3-2.6c0.3-0.8,1.8-0.9,3.3-0.3
				C562.8,535.6,563.8,536.8,563.5,537.6z"/>
			<path class="st3" d="M571.7,538.9c-0.3,0.8-1.9,0.9-3.7,0.1c-1.7-0.7-2.9-2-2.6-2.8c0.3-0.8,1.9-0.9,3.7-0.1
				C570.8,536.8,572,538.1,571.7,538.9z"/>
			<path class="st3" d="M578.7,542.6c-0.3,0.9-1.9,1-3.6,0.3c-1.7-0.7-2.8-2-2.5-2.9c0.3-0.9,1.9-1,3.6-0.3
				C577.9,540.4,579.1,541.7,578.7,542.6z"/>
			<path class="st3" d="M128.9,535.1c0,1.3-1.7,2.4-3.8,2.4c-2.1,0-3.8-1.1-3.8-2.4c0-1.3,1.7-2.4,3.8-2.4
				C127.2,532.7,128.9,533.8,128.9,535.1z"/>
			<path class="st3" d="M139.3,535.8c0,1.1-1.5,2-3.4,2c-1.9,0-3.4-0.9-3.4-2s1.5-2,3.4-2C137.7,533.8,139.3,534.7,139.3,535.8z"/>
			<path class="st3" d="M291.2,494.8c0,1.1-1.7,2-3.9,2c-2.2,0-3.9-0.9-3.9-2c0-1.1,1.7-2,3.9-2
				C289.4,492.8,291.2,493.7,291.2,494.8z"/>
			<path class="st3" d="M315.5,546.9c0,1.1-1.5,2-3.2,2c-1.8,0-3.2-0.9-3.2-2c0-1.1,1.5-2,3.2-2C314,544.9,315.5,545.8,315.5,546.9z
				"/>
			<path class="st3" d="M311,551.2c0,1.1-1.3,2-3,2c-1.7,0-3-0.9-3-2c0-1.1,1.3-2,3-2C309.7,549.2,311,550.1,311,551.2z"/>
		</g>
		<g>
			<path class="st3" d="M865.8,537.6c0,1.6-3,2.8-6.7,2.8c-3.7,0-6.7-1.3-6.7-2.8c0-1.6,3-2.8,6.7-2.8
				C862.8,534.8,865.8,536.1,865.8,537.6z"/>
			<path class="st3" d="M847.2,536.7c0,1.1-1.4,1.9-3,1.9c-1.7,0-3-0.9-3-1.9c0-1.1,1.4-1.9,3-1.9
				C845.8,534.8,847.2,535.7,847.2,536.7z"/>
			<path class="st3" d="M875.7,542.2c0,1-1.4,1.8-3.2,1.8c-1.8,0-3.2-0.8-3.2-1.8c0-1,1.4-1.8,3.2-1.8
				C874.3,540.4,875.7,541.2,875.7,542.2z"/>
			<path class="st3" d="M655.8,519.6c0,0.8-1.2,1.4-2.6,1.4c-1.4,0-2.6-0.6-2.6-1.4c0-0.8,1.2-1.4,2.6-1.4
				C654.6,518.2,655.8,518.8,655.8,519.6z"/>
			<path class="st3" d="M650.8,520.6c0,0.4-0.8,0.7-1.8,0.7c-1,0-1.8-0.3-1.8-0.7c0-0.4,0.8-0.7,1.8-0.7
				C650,519.9,650.8,520.2,650.8,520.6z"/>
			<path class="st3" d="M660.7,521.3c0,0.8-0.9,1.4-2.1,1.4c-1.2,0-2.1-0.6-2.1-1.4c0-0.8,0.9-1.4,2.1-1.4
				C659.8,519.9,660.7,520.6,660.7,521.3z"/>
			<path class="st3" d="M721.3,521.9c0,0.6-0.8,1-1.7,1c-0.9,0-1.7-0.4-1.7-1s0.8-1,1.7-1C720.5,520.9,721.3,521.4,721.3,521.9z"/>
			<path class="st3" d="M726.2,521.3c0,0.4-0.8,0.7-1.8,0.7c-1,0-1.8-0.3-1.8-0.7c0-0.4,0.8-0.7,1.8-0.7
				C725.4,520.6,726.2,520.9,726.2,521.3z"/>
			<path class="st3" d="M1063.8,488.9c0,1.2-2.3,2.1-5.1,2.1c-2.8,0-5.1-1-5.1-2.1c0-1.2,2.3-2.1,5.1-2.1
				C1061.5,486.8,1063.8,487.8,1063.8,488.9z"/>
			<path class="st3" d="M1073.4,488.2c0,1.1-1.3,2-3,2c-1.7,0-3-0.9-3-2c0-1.1,1.3-2,3-2C1072.1,486.2,1073.4,487.1,1073.4,488.2z"
				/>
			<path class="st3" d="M1069.8,493.5c0,0.9-0.8,1.6-1.8,1.6c-1,0-1.8-0.7-1.8-1.6c0-0.9,0.8-1.6,1.8-1.6
				C1069,491.9,1069.8,492.6,1069.8,493.5z"/>
			<path class="st3" d="M1149.3,560.8c0,0.9-1.4,1.7-3.1,1.7c-1.7,0-3.1-0.8-3.1-1.7c0-0.9,1.4-1.7,3.1-1.7
				C1147.9,559.1,1149.3,559.8,1149.3,560.8z"/>
			<path class="st3" d="M1159.2,559.8c0,0.9-1.6,1.6-3.6,1.6c-2,0-3.6-0.7-3.6-1.6c0-0.9,1.6-1.6,3.6-1.6
				C1157.6,558.2,1159.2,558.9,1159.2,559.8z"/>
			<path class="st3" d="M961.4,559.9c0,0.7-2,1.3-4.4,1.3c-2.4,0-4.4-0.6-4.4-1.3c0-0.7,2-1.3,4.4-1.3
				C959.4,558.7,961.4,559.2,961.4,559.9z"/>
			<path class="st3" d="M970.8,559.5c0,0.9-1.8,1.7-4,1.7c-2.2,0-4-0.8-4-1.7c0-0.9,1.8-1.7,4-1.7
				C969,557.8,970.8,558.6,970.8,559.5z"/>
			<path class="st3" d="M977.5,556.4c0,0.8-1.5,1.4-3.4,1.4s-3.4-0.6-3.4-1.4c0-0.8,1.5-1.4,3.4-1.4S977.5,555.6,977.5,556.4z"/>
			<path class="st3" d="M1347.2,518.5c0,0.9-1.5,1.6-3.4,1.6c-1.9,0-3.4-0.7-3.4-1.6c0-0.9,1.5-1.6,3.4-1.6
				C1345.7,516.9,1347.2,517.6,1347.2,518.5z"/>
			<path class="st3" d="M1355,519.2c0,0.9-1.5,1.7-3.2,1.7c-1.8,0-3.2-0.8-3.2-1.7c0-0.9,1.5-1.7,3.2-1.7
				C1353.6,517.5,1355,518.3,1355,519.2z"/>
		</g>
	</g>
	<g>
		<g>
			<linearGradient id="SVGID_3_" gradientUnits="userSpaceOnUse" x1="130.1971" y1="603.1536" x2="130.1971" y2="491.3389">
				<stop  offset="0" style="stop-color:#FEC019"/>
				<stop  offset="0.2582" style="stop-color:#FED422"/>
				<stop  offset="0.7347" style="stop-color:#FFF331"/>
				<stop  offset="1" style="stop-color:#FFFF36"/>
			</linearGradient>
			<path class="st4" d="M184.7,555.2c-3.7,30.6-31.2,51.8-61.3,47.4c-30.1-4.4-51.4-32.8-47.7-63.3c3.7-30.6,31.2-51.8,61.3-47.3
				C167.1,496.3,188.4,524.7,184.7,555.2z"/>
			<polygon class="st5" points="128.3,522.5 132.1,521.3 134.8,631.2 118.7,630.6 			"/>
			<polygon class="st5" points="131.3,551.5 140.7,539.3 144.1,544.2 131.8,561.1 			"/>
			<polygon class="st5" points="110.2,540.5 126.1,567.5 124.7,575.4 107.3,547.3 			"/>
			<polygon class="st5" points="148.9,556.4 149.9,565.2 130.4,593 129.6,582.9 			"/>
			<polygon class="st5" points="130.8,597.9 122.7,597.8 108.4,583 109.3,573.5 			"/>
		</g>
		<g>
			<linearGradient id="SVGID_4_" gradientUnits="userSpaceOnUse" x1="76.9418" y1="86.8713" x2="76.9418" y2="-1.8195">
				<stop  offset="0" style="stop-color:#FEC019"/>
				<stop  offset="0.2582" style="stop-color:#FED422"/>
				<stop  offset="0.7347" style="stop-color:#FFF331"/>
				<stop  offset="1" style="stop-color:#FFFF36"/>
			</linearGradient>
			<path class="st6" d="M120.5,38.3c2,24.4-15.9,46-40,48.4c-24,2.3-45.1-15.5-47.1-39.9c-2-24.4,15.9-46,40-48.4
				C97.4-3.9,118.5,13.9,120.5,38.3z"/>
			<polygon class="st5" points="74.1,18.1 77.7,17.7 86.3,107 75.4,111.8 			"/>
			<path class="st5" d="M78.9,36.2c0.2-1.1,6.6-18.5,6.6-18.5l2.6,7.4l-8.1,19.5L78.9,36.2z"/>
			<polygon class="st5" points="65.7,35 77.6,45.2 77.3,54 63.2,40.4 			"/>
			<polygon class="st5" points="79.1,55.8 95,45.5 95.9,51.6 79.8,59.8 			"/>
			<polygon class="st5" points="62.6,58.8 79.2,65.2 77,70.9 60.3,62.6 			"/>
		</g>
		<g>
			<linearGradient id="SVGID_5_" gradientUnits="userSpaceOnUse" x1="1152.6138" y1="125.8059" x2="1152.6138" y2="42.8873">
				<stop  offset="0" style="stop-color:#FFFF36"/>
				<stop  offset="0.1514" style="stop-color:#FFFF42"/>
				<stop  offset="0.4243" style="stop-color:#FFFF61"/>
				<stop  offset="0.7847" style="stop-color:#FFFF94"/>
				<stop  offset="0.9946" style="stop-color:#FFFFB5"/>
			</linearGradient>
			<path class="st7" d="M1192.9,84.3c0,22.9-18,41.5-40.3,41.5c-22.2,0-40.3-18.6-40.3-41.5c0-22.9,18-41.5,40.3-41.5
				C1174.9,42.9,1192.9,61.5,1192.9,84.3z"/>
			<path class="st5" d="M1149.6,59.8h3c0,0,8.7,92.1,7.7,92.1c-1,0-10.7,0.7-10.7,0.7V59.8z"/>
			<polygon class="st5" points="1141.5,75.9 1141.9,81 1151.3,86.2 1150.9,82.5 			"/>
			<polygon class="st5" points="1132.8,93.2 1154,104.2 1150.6,106.4 1130.8,96.5 			"/>
			<polygon class="st5" points="1154.6,91.3 1163,85.4 1163,89.5 1155,96.1 			"/>
			<polygon class="st5" points="1169.4,104.2 1173.4,108.6 1156.3,122.5 1155,118.8 			"/>
		</g>
		<g>
			<linearGradient id="SVGID_6_" gradientUnits="userSpaceOnUse" x1="273.7611" y1="234.3705" x2="273.7611" y2="145.7196">
				<stop  offset="0" style="stop-color:#FFFF36"/>
				<stop  offset="0.1514" style="stop-color:#FFFF42"/>
				<stop  offset="0.4243" style="stop-color:#FFFF61"/>
				<stop  offset="0.7847" style="stop-color:#FFFF94"/>
				<stop  offset="0.9946" style="stop-color:#FFFFB5"/>
			</linearGradient>
			<path class="st8" d="M317.4,187.6c1.1,24.4-17.5,45.3-41.6,46.7c-24.1,1.3-44.6-17.4-45.7-41.8c-1.1-24.4,17.5-45.3,41.6-46.7
				C295.8,144.4,316.3,163.2,317.4,187.6z"/>
			<polygon class="st5" points="271.7,165.5 275.4,165.3 280.8,254.8 269.8,259.2 			"/>
			<path class="st5" d="M275.9,183.8c0.3-1.1,7.2-18.2,7.2-18.2l2.4,7.5l-8.8,19.1L275.9,183.8z"/>
			<polygon class="st5" points="262.8,182.1 274.3,192.8 273.7,201.6 260.1,187.4 			"/>
			<polygon class="st5" points="275.5,203.4 291.7,193.7 292.4,199.9 276,207.4 			"/>
			<polygon class="st5" points="258.9,205.7 275.3,212.8 272.9,218.4 256.4,209.5 			"/>
		</g>
		<g>
			<linearGradient id="SVGID_7_" gradientUnits="userSpaceOnUse" x1="1291.2867" y1="390.3418" x2="1291.2867" y2="251.3329">
				<stop  offset="0" style="stop-color:#FEC019"/>
				<stop  offset="0.2582" style="stop-color:#FED422"/>
				<stop  offset="0.7347" style="stop-color:#FFF331"/>
				<stop  offset="1" style="stop-color:#FFFF36"/>
			</linearGradient>
			<path class="st9" d="M1359.7,317c1.8,38.3-27.4,71.1-65.2,73.2c-37.8,2.1-69.9-27.3-71.7-65.6c-1.8-38.3,27.4-71.1,65.2-73.2
				C1325.9,249.3,1357.9,278.7,1359.7,317z"/>
			<polygon class="st5" points="1288.1,282.4 1293.9,282.1 1302.5,430 1285.1,429.3 			"/>
			<path class="st5" d="M1294.7,311.1c0.4-1.7,11.3-28.6,11.3-28.6l3.7,11.8l-13.8,30L1294.7,311.1z"/>
			<polygon class="st5" points="1274.1,308.4 1292.2,325.1 1291.3,338.9 1269.8,316.6 			"/>
			<polygon class="st5" points="1294,341.8 1319.5,326.6 1320.5,336.3 1294.8,348 			"/>
			<polygon class="st5" points="1268,345.3 1293.7,356.5 1289.9,365.3 1264.1,351.3 			"/>
		</g>
		<g>
			<linearGradient id="SVGID_8_" gradientUnits="userSpaceOnUse" x1="926.8427" y1="623.8959" x2="926.8427" y2="456.0959">
				<stop  offset="0" style="stop-color:#FEC019"/>
				<stop  offset="0.2582" style="stop-color:#FED422"/>
				<stop  offset="0.7347" style="stop-color:#FFF331"/>
				<stop  offset="1" style="stop-color:#FFFF36"/>
			</linearGradient>
			<path class="st10" d="M1008.7,550.9c-5.1,46-45.9,78.3-91.1,72.3c-45.2-6-77.8-48.1-72.7-94.1c5.1-45.9,45.9-78.3,91.1-72.3
				C981.3,462.8,1013.8,504.9,1008.7,550.9z"/>
			<polygon class="st5" points="923.5,502.9 929.3,501 935.2,665.9 911.1,665.4 			"/>
			<polygon class="st5" points="928.6,546.3 942.5,527.8 947.7,535.2 929.5,560.7 			"/>
			<polygon class="st5" points="896.7,530.2 921,570.4 919,582.4 892.4,540.5 			"/>
			<polygon class="st5" points="955.1,553.4 956.7,566.5 927.9,608.6 926.5,593.5 			"/>
			<polygon class="st5" points="928.6,615.9 916.5,616.1 894.8,594.1 895.9,579.8 			"/>
		</g>
		<g>
			<path class="st11" d="M866.5,501.1c3.4-1.5,6.4-11,9.3-11.4c6.7-0.7,2.6,3.1,7.9,6c5.1,2.8,2,9.3,9.6,9
				c5.1-0.1,8.5-10.5,13.6-11.6c19.9-4.5,13.5,19.6,17.6,32c5.7,17.1,32.2,19.5,39.8,1.4c4.6,15.7,13.2,56,34.8,51
				c22.8-5.2,21.1-47.2,15.3-64.1c-17.4-51.1-88.1-76-132.4-54c-9.4,4.7-27,12.1-31.3,23.1C846.3,494,853.9,506.6,866.5,501.1z"/>
			<path class="st12" d="M867.6,497.2c3.4-1.5,6.4-11,9.3-11.4c6.7-0.7,2.6,3.1,7.9,6c5.1,2.8,2,9.3,9.6,9
				c5.1-0.1,8.5-10.5,13.6-11.6c19.9-4.5,13.5,19.6,17.6,32c5.7,17.1,32.2,19.5,39.8,1.4c4.6,15.7,13.2,56,34.8,51
				c22.8-5.2,21.1-47.2,15.3-64.1c-17.4-51.1-88.1-76-132.4-54c-9.4,4.7-27,12.1-31.3,23.1C847.4,490.1,855,502.7,867.6,497.2z"/>
		</g>
		<g>
			<path class="st11" d="M1180.9,64.6c-1.6-0.7-3-5.1-4.3-5.3c-3.1-0.3-1.2,1.5-3.6,2.8c-2.4,1.3-0.9,4.3-4.5,4.2
				c-2.4-0.1-3.9-4.9-6.3-5.4c-9.2-2.1-6.3,9.1-8.2,14.8c-2.7,8-14.9,9-18.4,0.7c-2.2,7.3-6.1,26-16.2,23.7
				c-10.6-2.4-9.8-21.9-7.1-29.7c8.1-23.7,40.9-35.3,61.4-25.1c4.4,2.2,12.5,5.6,14.5,10.7C1190.3,61.3,1186.7,67.2,1180.9,64.6z"/>
			<path class="st12" d="M1180.4,62.8c-1.6-0.7-3-5.1-4.3-5.3c-3.1-0.3-1.2,1.5-3.6,2.8c-2.4,1.3-0.9,4.3-4.5,4.2
				c-2.4-0.1-3.9-4.9-6.3-5.4c-9.2-2.1-6.3,9.1-8.2,14.8c-2.7,8-14.9,9-18.4,0.7c-2.2,7.3-6.1,26-16.2,23.7
				c-10.6-2.4-9.8-21.9-7.1-29.7c8.1-23.7,40.9-35.3,61.4-25.1c4.4,2.2,12.5,5.6,14.5,10.7C1189.8,59.5,1186.2,65.4,1180.4,62.8z"/>
		</g>
		<path class="st13" d="M589.3,490c-14.7,9-2.8,26.6,6.7,18.2c9.4-8.3-4.9-20.3-13.8-15.1"/>
		<g>
			<path class="st11" d="M92.6,554.2c2.4-2.8,1-7.2,2.8-10.1c1.9-3.2,5-3.3,7.7-5.4c4.8-3.8,6.5-8.6,7.7-14.8
				c4.8,0.7,5.4,6.1,7,10.2c1.7,4.7,3.5,7.6,8.1,8.5c5.2,1.1,9.9,0.7,12.7,6.7c1,2.1,1.2,7.4,4.2,6.7c7.5-1.7,4.4-19.3,4.6-24.4
				c0.3-5.4,2.3-7.9,7.2-8.9c3-0.6,6.2-0.3,9.2-0.2c2.3,0.1,8,1.6,10,0.5c8.2-4.6-1.5-15.5-5.6-19.6c-12.2-12.4-38.1-14.4-53.3-11.5
				C98.4,494.9,76.1,511,75.8,532c-0.1,5.8,0.2,14.9,4,19.5C82.1,554.4,89.4,557.9,92.6,554.2z"/>
			<path class="st12" d="M91.5,550.9c2.4-2.8,1-7.2,2.8-10.1c1.9-3.2,5-3.3,7.7-5.4c4.8-3.8,6.5-8.6,7.7-14.8
				c4.8,0.7,5.4,6.1,7,10.2c1.7,4.7,3.5,7.6,8.1,8.5c5.2,1.1,9.9,0.7,12.7,6.7c1,2.1,1.2,7.4,4.2,6.7c7.5-1.7,4.4-19.3,4.6-24.4
				c0.3-5.4,2.3-7.9,7.2-8.9c3-0.6,6.2-0.3,9.2-0.2c2.3,0.1,8,1.6,10,0.5c8.2-4.6-1.5-15.5-5.6-19.6c-12.2-12.4-38.1-14.4-53.3-11.5
				c-16.4,3.1-38.7,19.2-38.9,40.3c-0.1,5.8,0.2,14.9,4,19.5C81,551.1,88.3,554.6,91.5,550.9z"/>
		</g>
		<g>
			<path class="st11" d="M46.9,50.3c1.9-2.2,0.8-5.7,2.2-8.1c1.6-2.6,4-2.6,6.2-4.3c3.8-3,5.2-6.8,6.1-11.8c3.9,0.6,4.3,4.8,5.5,8.1
				c1.4,3.7,2.8,6,6.5,6.8c4.1,0.9,7.9,0.5,10.1,5.3c0.8,1.7,0.9,5.9,3.3,5.4c6-1.4,3.5-15.4,3.7-19.4c0.2-4.3,1.8-6.3,5.7-7.1
				c2.4-0.5,4.9-0.3,7.3-0.2c1.8,0.1,6.4,1.3,8,0.4c6.5-3.7-1.2-12.3-4.5-15.7C97.3,0,76.7-1.7,64.6,0.6
				c-13.1,2.5-30.8,15.3-31,32.1c-0.1,4.6,0.2,11.9,3.2,15.5C38.6,50.5,44.4,53.3,46.9,50.3z"/>
			<path class="st12" d="M46,47.7c1.9-2.2,0.8-5.7,2.2-8.1c1.6-2.6,4-2.6,6.2-4.3c3.8-3,5.2-6.8,6.1-11.8c3.9,0.6,4.3,4.8,5.5,8.1
				c1.4,3.7,2.8,6,6.5,6.8c4.1,0.9,7.9,0.5,10.1,5.3c0.8,1.7,0.9,5.9,3.3,5.4c6-1.4,3.5-15.4,3.7-19.4c0.2-4.3,1.8-6.3,5.7-7.1
				c2.4-0.5,4.9-0.3,7.3-0.2c1.8,0.1,6.4,1.3,8,0.4c6.5-3.7-1.2-12.3-4.5-15.7C96.4-2.7,75.8-4.3,63.7-2
				c-13.1,2.5-30.8,15.3-31,32.1c0,4.6,0.2,11.9,3.2,15.5C37.7,47.9,43.5,50.7,46,47.7z"/>
		</g>
		<g>
			<path class="st11" d="M293.9,148.7c-2.9-1.5-5.8-2.7-8.6-3.5c-12.4-3.7-29.2-3.4-39.4,6.4c-2.3,2.2-7.1,7.6-5.5,11.5
				c1.1,2.8,6.6,3.8,8.9,2.3c2.8-1.8,6.2-4.8,8.9-1.3c1.9,2.4-0.1,5.4,2.9,7.6c3.4,2.7,9.3,0.8,12.1-2.1c2.1-2.2,2.5-6.7,5.8-6.9
				c3.7-0.2,4.2,3.8,4.5,6.5c0.5,4.4-1.5,4.2,3.1,6.2c5.5,2.4,8.2,0.8,10.1,7.9c1.6,6,2.4,6.9,8.4,3.7c-1.9,1,2,16.3,2.7,18.2
				c1.6,4.2,5.9,10.1,8,2.4c2.3-8.4,2-21,1-29.6C315.2,165.1,305,154.6,293.9,148.7z"/>
			<path class="st12" d="M294.5,146.7c-2.9-1.5-5.8-2.7-8.6-3.5c-12.4-3.7-29.2-3.4-39.4,6.4c-2.3,2.2-7.1,7.6-5.5,11.5
				c1.1,2.8,6.6,3.8,8.9,2.3c2.8-1.8,6.2-4.8,8.9-1.3c1.9,2.4-0.1,5.4,2.9,7.6c3.4,2.7,9.3,0.8,12.1-2.1c2.1-2.2,2.5-6.7,5.8-6.9
				c3.7-0.2,4.2,3.8,4.5,6.5c0.5,4.4-1.5,4.2,3.1,6.2c5.5,2.4,8.2,0.8,10.1,7.9c1.6,6,2.4,6.9,8.4,3.7c-1.9,1,2,16.3,2.7,18.2
				c1.6,4.2,5.9,10.1,8,2.4c2.3-8.4,2-21,1-29.6C315.7,163.1,305.5,152.5,294.5,146.7z"/>
		</g>
		<g>
			<path class="st11" d="M1336.9,335.3c-3.1-3.6-1.2-9.2-3.5-12.9c-2.5-4.1-6.4-4.2-9.9-6.9c-6.1-4.8-8.4-11-9.8-18.9
				c-6.2,0.9-6.9,7.8-8.9,13c-2.2,6-4.5,9.7-10.4,10.9c-6.6,1.4-12.6,0.9-16.2,8.5c-1.3,2.7-1.5,9.5-5.3,8.6
				c-9.6-2.2-5.6-24.6-5.9-31.1c-0.4-6.9-2.9-10.1-9.2-11.4c-3.8-0.8-7.9-0.4-11.7-0.3c-2.9,0.1-10.2,2-12.7,0.6
				c-10.4-5.9,1.9-19.8,7.2-25.1c15.6-15.8,48.7-18.4,68.1-14.7c20.9,4,49.4,24.5,49.7,51.4c0.1,7.4-0.3,19-5.1,24.9
				C1350.3,335.6,1341,340,1336.9,335.3z"/>
			<path class="st12" d="M1338.3,331.1c-3.1-3.6-1.3-9.2-3.5-12.9c-2.5-4.1-6.4-4.2-9.9-6.9c-6.1-4.8-8.4-11-9.8-18.9
				c-6.2,0.9-6.9,7.8-8.9,13c-2.2,6-4.5,9.7-10.4,10.9c-6.6,1.4-12.6,0.8-16.2,8.5c-1.3,2.7-1.5,9.5-5.3,8.6
				c-9.6-2.2-5.6-24.6-5.9-31.1c-0.4-6.9-2.9-10.1-9.2-11.4c-3.8-0.8-7.9-0.4-11.7-0.3c-2.9,0.1-10.2,2-12.7,0.6
				c-10.4-5.9,1.9-19.8,7.2-25.1c15.6-15.8,48.7-18.4,68.1-14.7c20.9,4,49.4,24.5,49.7,51.4c0.1,7.4-0.3,19-5.1,24.9
				C1351.7,331.3,1342.4,335.8,1338.3,331.1z"/>
		</g>
	</g>
</g>
<g>
</g>
<g>
</g>
<g>
</g>
<g>
</g>
<g>
</g>
<g>
</g>
<g>
</g>
<g>
</g>
<g>
</g>
<g>
</g>
<g>
</g>
<g>
</g>
<g>
</g>
<g>
</g>
<g>
</g>
</svg>
